<?xml version="1.0" encoding="UTF-8"?>
<svg xmlns="http://www.w3.org/2000/svg" xmlns:xlink="http://www.w3.org/1999/xlink" width="296.28pt" height="135.55pt" viewBox="0 0 296.28 135.55">
<path fill="none" stroke-width="0.3985" stroke-linecap="butt" stroke-linejoin="miter" stroke="rgb(0%, 0%, 0%)" stroke-opacity="1" stroke-dasharray="0.3985 1.99255" stroke-miterlimit="10" d="M -61.909652 -0.0002775 L 61.91066 -0.0002775 " transform="matrix(1, 0, 0, -1, 67.77684, 67.77316)"/>
<path fill="none" stroke-width="0.3985" stroke-linecap="butt" stroke-linejoin="miter" stroke="rgb(0%, 0%, 0%)" stroke-opacity="1" stroke-dasharray="0.3985 1.99255" stroke-miterlimit="10" d="M 0.00050375 -61.910434 L 0.00050375 61.909879 " transform="matrix(1, 0, 0, -1, 67.77684, 67.77316)"/>
<path fill="none" stroke-width="0.3985" stroke-linecap="butt" stroke-linejoin="miter" stroke="rgb(0%, 67.83905%, 93.728638%)" stroke-opacity="1" stroke-miterlimit="10" d="M 0.00050375 -0.0002775 L 0.00050375 26.620816 L 11.906754 26.620816 L 11.906754 -0.0002775 Z M 0.00050375 -0.0002775 " transform="matrix(1, 0, 0, -1, 67.77684, 67.77316)"/>
<path fill-rule="nonzero" fill="rgb(0%, 0%, 100%)" fill-opacity="1" d="M 9.335938 121.015625 C 9.335938 120.414062 8.851562 119.929688 8.25 119.929688 C 7.648438 119.929688 7.160156 120.414062 7.160156 121.015625 C 7.160156 121.617188 7.648438 122.105469 8.25 122.105469 C 8.851562 122.105469 9.335938 121.617188 9.335938 121.015625 Z M 9.335938 121.015625 "/>
<path fill-rule="nonzero" fill="rgb(0%, 0%, 100%)" fill-opacity="1" d="M 9.335938 94.394531 C 9.335938 93.792969 8.851562 93.308594 8.25 93.308594 C 7.648438 93.308594 7.160156 93.792969 7.160156 94.394531 C 7.160156 94.996094 7.648438 95.484375 8.25 95.484375 C 8.851562 95.484375 9.335938 94.996094 9.335938 94.394531 Z M 9.335938 94.394531 "/>
<path fill-rule="nonzero" fill="rgb(0%, 0%, 100%)" fill-opacity="1" d="M 9.335938 67.773438 C 9.335938 67.171875 8.851562 66.683594 8.25 66.683594 C 7.648438 66.683594 7.160156 67.171875 7.160156 67.773438 C 7.160156 68.375 7.648438 68.859375 8.25 68.859375 C 8.851562 68.859375 9.335938 68.375 9.335938 67.773438 Z M 9.335938 67.773438 "/>
<path fill-rule="nonzero" fill="rgb(0%, 0%, 100%)" fill-opacity="1" d="M 9.335938 41.152344 C 9.335938 40.550781 8.851562 40.0625 8.25 40.0625 C 7.648438 40.0625 7.160156 40.550781 7.160156 41.152344 C 7.160156 41.753906 7.648438 42.238281 8.25 42.238281 C 8.851562 42.238281 9.335938 41.753906 9.335938 41.152344 Z M 9.335938 41.152344 "/>
<path fill-rule="nonzero" fill="rgb(0%, 0%, 100%)" fill-opacity="1" d="M 9.335938 14.53125 C 9.335938 13.929688 8.851562 13.441406 8.25 13.441406 C 7.648438 13.441406 7.160156 13.929688 7.160156 14.53125 C 7.160156 15.132812 7.648438 15.617188 8.25 15.617188 C 8.851562 15.617188 9.335938 15.132812 9.335938 14.53125 Z M 9.335938 14.53125 "/>
<path fill-rule="nonzero" fill="rgb(0%, 0%, 100%)" fill-opacity="1" d="M 21.242188 121.015625 C 21.242188 120.414062 20.753906 119.929688 20.15625 119.929688 C 19.554688 119.929688 19.066406 120.414062 19.066406 121.015625 C 19.066406 121.617188 19.554688 122.105469 20.15625 122.105469 C 20.753906 122.105469 21.242188 121.617188 21.242188 121.015625 Z M 21.242188 121.015625 "/>
<path fill-rule="nonzero" fill="rgb(0%, 0%, 100%)" fill-opacity="1" d="M 21.242188 94.394531 C 21.242188 93.792969 20.753906 93.308594 20.15625 93.308594 C 19.554688 93.308594 19.066406 93.792969 19.066406 94.394531 C 19.066406 94.996094 19.554688 95.484375 20.15625 95.484375 C 20.753906 95.484375 21.242188 94.996094 21.242188 94.394531 Z M 21.242188 94.394531 "/>
<path fill-rule="nonzero" fill="rgb(0%, 0%, 100%)" fill-opacity="1" d="M 21.242188 67.773438 C 21.242188 67.171875 20.753906 66.683594 20.15625 66.683594 C 19.554688 66.683594 19.066406 67.171875 19.066406 67.773438 C 19.066406 68.375 19.554688 68.859375 20.15625 68.859375 C 20.753906 68.859375 21.242188 68.375 21.242188 67.773438 Z M 21.242188 67.773438 "/>
<path fill-rule="nonzero" fill="rgb(0%, 0%, 100%)" fill-opacity="1" d="M 21.242188 41.152344 C 21.242188 40.550781 20.753906 40.0625 20.15625 40.0625 C 19.554688 40.0625 19.066406 40.550781 19.066406 41.152344 C 19.066406 41.753906 19.554688 42.238281 20.15625 42.238281 C 20.753906 42.238281 21.242188 41.753906 21.242188 41.152344 Z M 21.242188 41.152344 "/>
<path fill-rule="nonzero" fill="rgb(0%, 0%, 100%)" fill-opacity="1" d="M 21.242188 14.53125 C 21.242188 13.929688 20.753906 13.441406 20.15625 13.441406 C 19.554688 13.441406 19.066406 13.929688 19.066406 14.53125 C 19.066406 15.132812 19.554688 15.617188 20.15625 15.617188 C 20.753906 15.617188 21.242188 15.132812 21.242188 14.53125 Z M 21.242188 14.53125 "/>
<path fill-rule="nonzero" fill="rgb(0%, 0%, 100%)" fill-opacity="1" d="M 33.148438 121.015625 C 33.148438 120.414062 32.660156 119.929688 32.058594 119.929688 C 31.460938 119.929688 30.972656 120.414062 30.972656 121.015625 C 30.972656 121.617188 31.460938 122.105469 32.058594 122.105469 C 32.660156 122.105469 33.148438 121.617188 33.148438 121.015625 Z M 33.148438 121.015625 "/>
<path fill-rule="nonzero" fill="rgb(0%, 0%, 100%)" fill-opacity="1" d="M 33.148438 94.394531 C 33.148438 93.792969 32.660156 93.308594 32.058594 93.308594 C 31.460938 93.308594 30.972656 93.792969 30.972656 94.394531 C 30.972656 94.996094 31.460938 95.484375 32.058594 95.484375 C 32.660156 95.484375 33.148438 94.996094 33.148438 94.394531 Z M 33.148438 94.394531 "/>
<path fill-rule="nonzero" fill="rgb(0%, 0%, 100%)" fill-opacity="1" d="M 33.148438 67.773438 C 33.148438 67.171875 32.660156 66.683594 32.058594 66.683594 C 31.460938 66.683594 30.972656 67.171875 30.972656 67.773438 C 30.972656 68.375 31.460938 68.859375 32.058594 68.859375 C 32.660156 68.859375 33.148438 68.375 33.148438 67.773438 Z M 33.148438 67.773438 "/>
<path fill-rule="nonzero" fill="rgb(0%, 0%, 100%)" fill-opacity="1" d="M 33.148438 41.152344 C 33.148438 40.550781 32.660156 40.0625 32.058594 40.0625 C 31.460938 40.0625 30.972656 40.550781 30.972656 41.152344 C 30.972656 41.753906 31.460938 42.238281 32.058594 42.238281 C 32.660156 42.238281 33.148438 41.753906 33.148438 41.152344 Z M 33.148438 41.152344 "/>
<path fill-rule="nonzero" fill="rgb(0%, 0%, 100%)" fill-opacity="1" d="M 33.148438 14.53125 C 33.148438 13.929688 32.660156 13.441406 32.058594 13.441406 C 31.460938 13.441406 30.972656 13.929688 30.972656 14.53125 C 30.972656 15.132812 31.460938 15.617188 32.058594 15.617188 C 32.660156 15.617188 33.148438 15.132812 33.148438 14.53125 Z M 33.148438 14.53125 "/>
<path fill-rule="nonzero" fill="rgb(0%, 0%, 100%)" fill-opacity="1" d="M 45.054688 121.015625 C 45.054688 120.414062 44.566406 119.929688 43.964844 119.929688 C 43.363281 119.929688 42.878906 120.414062 42.878906 121.015625 C 42.878906 121.617188 43.363281 122.105469 43.964844 122.105469 C 44.566406 122.105469 45.054688 121.617188 45.054688 121.015625 Z M 45.054688 121.015625 "/>
<path fill-rule="nonzero" fill="rgb(0%, 0%, 100%)" fill-opacity="1" d="M 45.054688 94.394531 C 45.054688 93.792969 44.566406 93.308594 43.964844 93.308594 C 43.363281 93.308594 42.878906 93.792969 42.878906 94.394531 C 42.878906 94.996094 43.363281 95.484375 43.964844 95.484375 C 44.566406 95.484375 45.054688 94.996094 45.054688 94.394531 Z M 45.054688 94.394531 "/>
<path fill-rule="nonzero" fill="rgb(0%, 0%, 100%)" fill-opacity="1" d="M 45.054688 67.773438 C 45.054688 67.171875 44.566406 66.683594 43.964844 66.683594 C 43.363281 66.683594 42.878906 67.171875 42.878906 67.773438 C 42.878906 68.375 43.363281 68.859375 43.964844 68.859375 C 44.566406 68.859375 45.054688 68.375 45.054688 67.773438 Z M 45.054688 67.773438 "/>
<path fill-rule="nonzero" fill="rgb(0%, 0%, 100%)" fill-opacity="1" d="M 45.054688 41.152344 C 45.054688 40.550781 44.566406 40.0625 43.964844 40.0625 C 43.363281 40.0625 42.878906 40.550781 42.878906 41.152344 C 42.878906 41.753906 43.363281 42.238281 43.964844 42.238281 C 44.566406 42.238281 45.054688 41.753906 45.054688 41.152344 Z M 45.054688 41.152344 "/>
<path fill-rule="nonzero" fill="rgb(0%, 0%, 100%)" fill-opacity="1" d="M 45.054688 14.53125 C 45.054688 13.929688 44.566406 13.441406 43.964844 13.441406 C 43.363281 13.441406 42.878906 13.929688 42.878906 14.53125 C 42.878906 15.132812 43.363281 15.617188 43.964844 15.617188 C 44.566406 15.617188 45.054688 15.132812 45.054688 14.53125 Z M 45.054688 14.53125 "/>
<path fill-rule="nonzero" fill="rgb(0%, 0%, 100%)" fill-opacity="1" d="M 56.960938 121.015625 C 56.960938 120.414062 56.472656 119.929688 55.871094 119.929688 C 55.269531 119.929688 54.785156 120.414062 54.785156 121.015625 C 54.785156 121.617188 55.269531 122.105469 55.871094 122.105469 C 56.472656 122.105469 56.960938 121.617188 56.960938 121.015625 Z M 56.960938 121.015625 "/>
<path fill-rule="nonzero" fill="rgb(0%, 0%, 100%)" fill-opacity="1" d="M 56.960938 94.394531 C 56.960938 93.792969 56.472656 93.308594 55.871094 93.308594 C 55.269531 93.308594 54.785156 93.792969 54.785156 94.394531 C 54.785156 94.996094 55.269531 95.484375 55.871094 95.484375 C 56.472656 95.484375 56.960938 94.996094 56.960938 94.394531 Z M 56.960938 94.394531 "/>
<path fill-rule="nonzero" fill="rgb(0%, 0%, 100%)" fill-opacity="1" d="M 56.960938 67.773438 C 56.960938 67.171875 56.472656 66.683594 55.871094 66.683594 C 55.269531 66.683594 54.785156 67.171875 54.785156 67.773438 C 54.785156 68.375 55.269531 68.859375 55.871094 68.859375 C 56.472656 68.859375 56.960938 68.375 56.960938 67.773438 Z M 56.960938 67.773438 "/>
<path fill-rule="nonzero" fill="rgb(0%, 0%, 100%)" fill-opacity="1" d="M 56.960938 41.152344 C 56.960938 40.550781 56.472656 40.0625 55.871094 40.0625 C 55.269531 40.0625 54.785156 40.550781 54.785156 41.152344 C 54.785156 41.753906 55.269531 42.238281 55.871094 42.238281 C 56.472656 42.238281 56.960938 41.753906 56.960938 41.152344 Z M 56.960938 41.152344 "/>
<path fill-rule="nonzero" fill="rgb(0%, 0%, 100%)" fill-opacity="1" d="M 56.960938 14.53125 C 56.960938 13.929688 56.472656 13.441406 55.871094 13.441406 C 55.269531 13.441406 54.785156 13.929688 54.785156 14.53125 C 54.785156 15.132812 55.269531 15.617188 55.871094 15.617188 C 56.472656 15.617188 56.960938 15.132812 56.960938 14.53125 Z M 56.960938 14.53125 "/>
<path fill-rule="nonzero" fill="rgb(0%, 0%, 100%)" fill-opacity="1" d="M 68.863281 121.015625 C 68.863281 120.414062 68.378906 119.929688 67.777344 119.929688 C 67.175781 119.929688 66.6875 120.414062 66.6875 121.015625 C 66.6875 121.617188 67.175781 122.105469 67.777344 122.105469 C 68.378906 122.105469 68.863281 121.617188 68.863281 121.015625 Z M 68.863281 121.015625 "/>
<path fill-rule="nonzero" fill="rgb(0%, 0%, 100%)" fill-opacity="1" d="M 68.863281 94.394531 C 68.863281 93.792969 68.378906 93.308594 67.777344 93.308594 C 67.175781 93.308594 66.6875 93.792969 66.6875 94.394531 C 66.6875 94.996094 67.175781 95.484375 67.777344 95.484375 C 68.378906 95.484375 68.863281 94.996094 68.863281 94.394531 Z M 68.863281 94.394531 "/>
<path fill-rule="nonzero" fill="rgb(0%, 0%, 100%)" fill-opacity="1" d="M 68.863281 67.773438 C 68.863281 67.171875 68.378906 66.683594 67.777344 66.683594 C 67.175781 66.683594 66.6875 67.171875 66.6875 67.773438 C 66.6875 68.375 67.175781 68.859375 67.777344 68.859375 C 68.378906 68.859375 68.863281 68.375 68.863281 67.773438 Z M 68.863281 67.773438 "/>
<path fill-rule="nonzero" fill="rgb(0%, 0%, 100%)" fill-opacity="1" d="M 68.863281 41.152344 C 68.863281 40.550781 68.378906 40.0625 67.777344 40.0625 C 67.175781 40.0625 66.6875 40.550781 66.6875 41.152344 C 66.6875 41.753906 67.175781 42.238281 67.777344 42.238281 C 68.378906 42.238281 68.863281 41.753906 68.863281 41.152344 Z M 68.863281 41.152344 "/>
<path fill-rule="nonzero" fill="rgb(0%, 0%, 100%)" fill-opacity="1" d="M 68.863281 14.53125 C 68.863281 13.929688 68.378906 13.441406 67.777344 13.441406 C 67.175781 13.441406 66.6875 13.929688 66.6875 14.53125 C 66.6875 15.132812 67.175781 15.617188 67.777344 15.617188 C 68.378906 15.617188 68.863281 15.132812 68.863281 14.53125 Z M 68.863281 14.53125 "/>
<path fill-rule="nonzero" fill="rgb(0%, 0%, 100%)" fill-opacity="1" d="M 80.769531 121.015625 C 80.769531 120.414062 80.285156 119.929688 79.683594 119.929688 C 79.082031 119.929688 78.59375 120.414062 78.59375 121.015625 C 78.59375 121.617188 79.082031 122.105469 79.683594 122.105469 C 80.285156 122.105469 80.769531 121.617188 80.769531 121.015625 Z M 80.769531 121.015625 "/>
<path fill-rule="nonzero" fill="rgb(0%, 0%, 100%)" fill-opacity="1" d="M 80.769531 94.394531 C 80.769531 93.792969 80.285156 93.308594 79.683594 93.308594 C 79.082031 93.308594 78.59375 93.792969 78.59375 94.394531 C 78.59375 94.996094 79.082031 95.484375 79.683594 95.484375 C 80.285156 95.484375 80.769531 94.996094 80.769531 94.394531 Z M 80.769531 94.394531 "/>
<path fill-rule="nonzero" fill="rgb(0%, 0%, 100%)" fill-opacity="1" d="M 80.769531 67.773438 C 80.769531 67.171875 80.285156 66.683594 79.683594 66.683594 C 79.082031 66.683594 78.59375 67.171875 78.59375 67.773438 C 78.59375 68.375 79.082031 68.859375 79.683594 68.859375 C 80.285156 68.859375 80.769531 68.375 80.769531 67.773438 Z M 80.769531 67.773438 "/>
<path fill-rule="nonzero" fill="rgb(0%, 0%, 100%)" fill-opacity="1" d="M 80.769531 41.152344 C 80.769531 40.550781 80.285156 40.0625 79.683594 40.0625 C 79.082031 40.0625 78.59375 40.550781 78.59375 41.152344 C 78.59375 41.753906 79.082031 42.238281 79.683594 42.238281 C 80.285156 42.238281 80.769531 41.753906 80.769531 41.152344 Z M 80.769531 41.152344 "/>
<path fill-rule="nonzero" fill="rgb(0%, 0%, 100%)" fill-opacity="1" d="M 80.769531 14.53125 C 80.769531 13.929688 80.285156 13.441406 79.683594 13.441406 C 79.082031 13.441406 78.59375 13.929688 78.59375 14.53125 C 78.59375 15.132812 79.082031 15.617188 79.683594 15.617188 C 80.285156 15.617188 80.769531 15.132812 80.769531 14.53125 Z M 80.769531 14.53125 "/>
<path fill-rule="nonzero" fill="rgb(0%, 0%, 100%)" fill-opacity="1" d="M 92.675781 121.015625 C 92.675781 120.414062 92.1875 119.929688 91.589844 119.929688 C 90.988281 119.929688 90.5 120.414062 90.5 121.015625 C 90.5 121.617188 90.988281 122.105469 91.589844 122.105469 C 92.1875 122.105469 92.675781 121.617188 92.675781 121.015625 Z M 92.675781 121.015625 "/>
<path fill-rule="nonzero" fill="rgb(0%, 0%, 100%)" fill-opacity="1" d="M 92.675781 94.394531 C 92.675781 93.792969 92.1875 93.308594 91.589844 93.308594 C 90.988281 93.308594 90.5 93.792969 90.5 94.394531 C 90.5 94.996094 90.988281 95.484375 91.589844 95.484375 C 92.1875 95.484375 92.675781 94.996094 92.675781 94.394531 Z M 92.675781 94.394531 "/>
<path fill-rule="nonzero" fill="rgb(0%, 0%, 100%)" fill-opacity="1" d="M 92.675781 67.773438 C 92.675781 67.171875 92.1875 66.683594 91.589844 66.683594 C 90.988281 66.683594 90.5 67.171875 90.5 67.773438 C 90.5 68.375 90.988281 68.859375 91.589844 68.859375 C 92.1875 68.859375 92.675781 68.375 92.675781 67.773438 Z M 92.675781 67.773438 "/>
<path fill-rule="nonzero" fill="rgb(0%, 0%, 100%)" fill-opacity="1" d="M 92.675781 41.152344 C 92.675781 40.550781 92.1875 40.0625 91.589844 40.0625 C 90.988281 40.0625 90.5 40.550781 90.5 41.152344 C 90.5 41.753906 90.988281 42.238281 91.589844 42.238281 C 92.1875 42.238281 92.675781 41.753906 92.675781 41.152344 Z M 92.675781 41.152344 "/>
<path fill-rule="nonzero" fill="rgb(0%, 0%, 100%)" fill-opacity="1" d="M 92.675781 14.53125 C 92.675781 13.929688 92.1875 13.441406 91.589844 13.441406 C 90.988281 13.441406 90.5 13.929688 90.5 14.53125 C 90.5 15.132812 90.988281 15.617188 91.589844 15.617188 C 92.1875 15.617188 92.675781 15.132812 92.675781 14.53125 Z M 92.675781 14.53125 "/>
<path fill-rule="nonzero" fill="rgb(0%, 0%, 100%)" fill-opacity="1" d="M 104.582031 121.015625 C 104.582031 120.414062 104.09375 119.929688 103.492188 119.929688 C 102.894531 119.929688 102.40625 120.414062 102.40625 121.015625 C 102.40625 121.617188 102.894531 122.105469 103.492188 122.105469 C 104.09375 122.105469 104.582031 121.617188 104.582031 121.015625 Z M 104.582031 121.015625 "/>
<path fill-rule="nonzero" fill="rgb(0%, 0%, 100%)" fill-opacity="1" d="M 104.582031 94.394531 C 104.582031 93.792969 104.09375 93.308594 103.492188 93.308594 C 102.894531 93.308594 102.40625 93.792969 102.40625 94.394531 C 102.40625 94.996094 102.894531 95.484375 103.492188 95.484375 C 104.09375 95.484375 104.582031 94.996094 104.582031 94.394531 Z M 104.582031 94.394531 "/>
<path fill-rule="nonzero" fill="rgb(0%, 0%, 100%)" fill-opacity="1" d="M 104.582031 67.773438 C 104.582031 67.171875 104.09375 66.683594 103.492188 66.683594 C 102.894531 66.683594 102.40625 67.171875 102.40625 67.773438 C 102.40625 68.375 102.894531 68.859375 103.492188 68.859375 C 104.09375 68.859375 104.582031 68.375 104.582031 67.773438 Z M 104.582031 67.773438 "/>
<path fill-rule="nonzero" fill="rgb(0%, 0%, 100%)" fill-opacity="1" d="M 104.582031 41.152344 C 104.582031 40.550781 104.09375 40.0625 103.492188 40.0625 C 102.894531 40.0625 102.40625 40.550781 102.40625 41.152344 C 102.40625 41.753906 102.894531 42.238281 103.492188 42.238281 C 104.09375 42.238281 104.582031 41.753906 104.582031 41.152344 Z M 104.582031 41.152344 "/>
<path fill-rule="nonzero" fill="rgb(0%, 0%, 100%)" fill-opacity="1" d="M 104.582031 14.53125 C 104.582031 13.929688 104.09375 13.441406 103.492188 13.441406 C 102.894531 13.441406 102.40625 13.929688 102.40625 14.53125 C 102.40625 15.132812 102.894531 15.617188 103.492188 15.617188 C 104.09375 15.617188 104.582031 15.132812 104.582031 14.53125 Z M 104.582031 14.53125 "/>
<path fill-rule="nonzero" fill="rgb(0%, 0%, 100%)" fill-opacity="1" d="M 116.488281 121.015625 C 116.488281 120.414062 116 119.929688 115.398438 119.929688 C 114.796875 119.929688 114.3125 120.414062 114.3125 121.015625 C 114.3125 121.617188 114.796875 122.105469 115.398438 122.105469 C 116 122.105469 116.488281 121.617188 116.488281 121.015625 Z M 116.488281 121.015625 "/>
<path fill-rule="nonzero" fill="rgb(0%, 0%, 100%)" fill-opacity="1" d="M 116.488281 94.394531 C 116.488281 93.792969 116 93.308594 115.398438 93.308594 C 114.796875 93.308594 114.3125 93.792969 114.3125 94.394531 C 114.3125 94.996094 114.796875 95.484375 115.398438 95.484375 C 116 95.484375 116.488281 94.996094 116.488281 94.394531 Z M 116.488281 94.394531 "/>
<path fill-rule="nonzero" fill="rgb(0%, 0%, 100%)" fill-opacity="1" d="M 116.488281 67.773438 C 116.488281 67.171875 116 66.683594 115.398438 66.683594 C 114.796875 66.683594 114.3125 67.171875 114.3125 67.773438 C 114.3125 68.375 114.796875 68.859375 115.398438 68.859375 C 116 68.859375 116.488281 68.375 116.488281 67.773438 Z M 116.488281 67.773438 "/>
<path fill-rule="nonzero" fill="rgb(0%, 0%, 100%)" fill-opacity="1" d="M 116.488281 41.152344 C 116.488281 40.550781 116 40.0625 115.398438 40.0625 C 114.796875 40.0625 114.3125 40.550781 114.3125 41.152344 C 114.3125 41.753906 114.796875 42.238281 115.398438 42.238281 C 116 42.238281 116.488281 41.753906 116.488281 41.152344 Z M 116.488281 41.152344 "/>
<path fill-rule="nonzero" fill="rgb(0%, 0%, 100%)" fill-opacity="1" d="M 116.488281 14.53125 C 116.488281 13.929688 116 13.441406 115.398438 13.441406 C 114.796875 13.441406 114.3125 13.929688 114.3125 14.53125 C 114.3125 15.132812 114.796875 15.617188 115.398438 15.617188 C 116 15.617188 116.488281 15.132812 116.488281 14.53125 Z M 116.488281 14.53125 "/>
<path fill-rule="nonzero" fill="rgb(0%, 0%, 100%)" fill-opacity="1" d="M 128.394531 121.015625 C 128.394531 120.414062 127.90625 119.929688 127.304688 119.929688 C 126.703125 119.929688 126.21875 120.414062 126.21875 121.015625 C 126.21875 121.617188 126.703125 122.105469 127.304688 122.105469 C 127.90625 122.105469 128.394531 121.617188 128.394531 121.015625 Z M 128.394531 121.015625 "/>
<path fill-rule="nonzero" fill="rgb(0%, 0%, 100%)" fill-opacity="1" d="M 128.394531 94.394531 C 128.394531 93.792969 127.90625 93.308594 127.304688 93.308594 C 126.703125 93.308594 126.21875 93.792969 126.21875 94.394531 C 126.21875 94.996094 126.703125 95.484375 127.304688 95.484375 C 127.90625 95.484375 128.394531 94.996094 128.394531 94.394531 Z M 128.394531 94.394531 "/>
<path fill-rule="nonzero" fill="rgb(0%, 0%, 100%)" fill-opacity="1" d="M 128.394531 67.773438 C 128.394531 67.171875 127.90625 66.683594 127.304688 66.683594 C 126.703125 66.683594 126.21875 67.171875 126.21875 67.773438 C 126.21875 68.375 126.703125 68.859375 127.304688 68.859375 C 127.90625 68.859375 128.394531 68.375 128.394531 67.773438 Z M 128.394531 67.773438 "/>
<path fill-rule="nonzero" fill="rgb(0%, 0%, 100%)" fill-opacity="1" d="M 128.394531 41.152344 C 128.394531 40.550781 127.90625 40.0625 127.304688 40.0625 C 126.703125 40.0625 126.21875 40.550781 126.21875 41.152344 C 126.21875 41.753906 126.703125 42.238281 127.304688 42.238281 C 127.90625 42.238281 128.394531 41.753906 128.394531 41.152344 Z M 128.394531 41.152344 "/>
<path fill-rule="nonzero" fill="rgb(0%, 0%, 100%)" fill-opacity="1" d="M 128.394531 14.53125 C 128.394531 13.929688 127.90625 13.441406 127.304688 13.441406 C 126.703125 13.441406 126.21875 13.929688 126.21875 14.53125 C 126.21875 15.132812 126.703125 15.617188 127.304688 15.617188 C 127.90625 15.617188 128.394531 15.132812 128.394531 14.53125 Z M 128.394531 14.53125 "/>
<path fill="none" stroke-width="0.3985" stroke-linecap="butt" stroke-linejoin="miter" stroke="rgb(0%, 0%, 0%)" stroke-opacity="1" stroke-dasharray="0.3985 1.99255" stroke-miterlimit="10" d="M 98.81691 -0.0002775 L 222.633316 -0.0002775 " transform="matrix(1, 0, 0, -1, 67.77684, 67.77316)"/>
<path fill="none" stroke-width="0.3985" stroke-linecap="butt" stroke-linejoin="miter" stroke="rgb(0%, 0%, 0%)" stroke-opacity="1" stroke-dasharray="0.3985 1.99255" stroke-miterlimit="10" d="M 160.727066 -61.910434 L 160.727066 61.909879 " transform="matrix(1, 0, 0, -1, 67.77684, 67.77316)"/>
<path fill="none" stroke-width="0.3985" stroke-linecap="butt" stroke-linejoin="miter" stroke="rgb(0%, 67.83905%, 93.728638%)" stroke-opacity="1" stroke-miterlimit="10" d="M 160.727066 -0.0002775 L 160.727066 53.24191 L 184.53566 53.24191 L 184.53566 -0.0002775 Z M 160.727066 -0.0002775 " transform="matrix(1, 0, 0, -1, 67.77684, 67.77316)"/>
<path fill="none" stroke-width="0.3985" stroke-linecap="butt" stroke-linejoin="miter" stroke="rgb(0%, 67.83905%, 93.728638%)" stroke-opacity="1" stroke-miterlimit="10" d="M 160.727066 -0.0002775 L 172.62941 26.620816 L 113.102066 53.24191 L 101.195816 26.620816 Z M 160.727066 -0.0002775 " transform="matrix(1, 0, 0, -1, 67.77684, 67.77316)"/>
<path fill-rule="nonzero" fill="rgb(75%, 75%, 75%)" fill-opacity="1" d="M 170.0625 121.015625 C 170.0625 120.414062 169.574219 119.929688 168.972656 119.929688 C 168.375 119.929688 167.886719 120.414062 167.886719 121.015625 C 167.886719 121.617188 168.375 122.105469 168.972656 122.105469 C 169.574219 122.105469 170.0625 121.617188 170.0625 121.015625 Z M 170.0625 121.015625 "/>
<path fill-rule="nonzero" fill="rgb(0%, 0%, 100%)" fill-opacity="1" d="M 170.0625 94.394531 C 170.0625 93.792969 169.574219 93.308594 168.972656 93.308594 C 168.375 93.308594 167.886719 93.792969 167.886719 94.394531 C 167.886719 94.996094 168.375 95.484375 168.972656 95.484375 C 169.574219 95.484375 170.0625 94.996094 170.0625 94.394531 Z M 170.0625 94.394531 "/>
<path fill-rule="nonzero" fill="rgb(75%, 75%, 75%)" fill-opacity="1" d="M 170.0625 67.773438 C 170.0625 67.171875 169.574219 66.683594 168.972656 66.683594 C 168.375 66.683594 167.886719 67.171875 167.886719 67.773438 C 167.886719 68.375 168.375 68.859375 168.972656 68.859375 C 169.574219 68.859375 170.0625 68.375 170.0625 67.773438 Z M 170.0625 67.773438 "/>
<path fill-rule="nonzero" fill="rgb(0%, 0%, 100%)" fill-opacity="1" d="M 170.0625 41.152344 C 170.0625 40.550781 169.574219 40.0625 168.972656 40.0625 C 168.375 40.0625 167.886719 40.550781 167.886719 41.152344 C 167.886719 41.753906 168.375 42.238281 168.972656 42.238281 C 169.574219 42.238281 170.0625 41.753906 170.0625 41.152344 Z M 170.0625 41.152344 "/>
<path fill-rule="nonzero" fill="rgb(75%, 75%, 75%)" fill-opacity="1" d="M 170.0625 14.53125 C 170.0625 13.929688 169.574219 13.441406 168.972656 13.441406 C 168.375 13.441406 167.886719 13.929688 167.886719 14.53125 C 167.886719 15.132812 168.375 15.617188 168.972656 15.617188 C 169.574219 15.617188 170.0625 15.132812 170.0625 14.53125 Z M 170.0625 14.53125 "/>
<path fill-rule="nonzero" fill="rgb(0%, 0%, 100%)" fill-opacity="1" d="M 181.96875 121.015625 C 181.96875 120.414062 181.480469 119.929688 180.878906 119.929688 C 180.277344 119.929688 179.792969 120.414062 179.792969 121.015625 C 179.792969 121.617188 180.277344 122.105469 180.878906 122.105469 C 181.480469 122.105469 181.96875 121.617188 181.96875 121.015625 Z M 181.96875 121.015625 "/>
<path fill-rule="nonzero" fill="rgb(75%, 75%, 75%)" fill-opacity="1" d="M 181.96875 94.394531 C 181.96875 93.792969 181.480469 93.308594 180.878906 93.308594 C 180.277344 93.308594 179.792969 93.792969 179.792969 94.394531 C 179.792969 94.996094 180.277344 95.484375 180.878906 95.484375 C 181.480469 95.484375 181.96875 94.996094 181.96875 94.394531 Z M 181.96875 94.394531 "/>
<path fill-rule="nonzero" fill="rgb(0%, 0%, 100%)" fill-opacity="1" d="M 181.96875 67.773438 C 181.96875 67.171875 181.480469 66.683594 180.878906 66.683594 C 180.277344 66.683594 179.792969 67.171875 179.792969 67.773438 C 179.792969 68.375 180.277344 68.859375 180.878906 68.859375 C 181.480469 68.859375 181.96875 68.375 181.96875 67.773438 Z M 181.96875 67.773438 "/>
<path fill-rule="nonzero" fill="rgb(75%, 75%, 75%)" fill-opacity="1" d="M 181.96875 41.152344 C 181.96875 40.550781 181.480469 40.0625 180.878906 40.0625 C 180.277344 40.0625 179.792969 40.550781 179.792969 41.152344 C 179.792969 41.753906 180.277344 42.238281 180.878906 42.238281 C 181.480469 42.238281 181.96875 41.753906 181.96875 41.152344 Z M 181.96875 41.152344 "/>
<path fill-rule="nonzero" fill="rgb(0%, 0%, 100%)" fill-opacity="1" d="M 181.96875 14.53125 C 181.96875 13.929688 181.480469 13.441406 180.878906 13.441406 C 180.277344 13.441406 179.792969 13.929688 179.792969 14.53125 C 179.792969 15.132812 180.277344 15.617188 180.878906 15.617188 C 181.480469 15.617188 181.96875 15.132812 181.96875 14.53125 Z M 181.96875 14.53125 "/>
<path fill-rule="nonzero" fill="rgb(75%, 75%, 75%)" fill-opacity="1" d="M 193.875 121.015625 C 193.875 120.414062 193.386719 119.929688 192.785156 119.929688 C 192.183594 119.929688 191.699219 120.414062 191.699219 121.015625 C 191.699219 121.617188 192.183594 122.105469 192.785156 122.105469 C 193.386719 122.105469 193.875 121.617188 193.875 121.015625 Z M 193.875 121.015625 "/>
<path fill-rule="nonzero" fill="rgb(0%, 0%, 100%)" fill-opacity="1" d="M 193.875 94.394531 C 193.875 93.792969 193.386719 93.308594 192.785156 93.308594 C 192.183594 93.308594 191.699219 93.792969 191.699219 94.394531 C 191.699219 94.996094 192.183594 95.484375 192.785156 95.484375 C 193.386719 95.484375 193.875 94.996094 193.875 94.394531 Z M 193.875 94.394531 "/>
<path fill-rule="nonzero" fill="rgb(75%, 75%, 75%)" fill-opacity="1" d="M 193.875 67.773438 C 193.875 67.171875 193.386719 66.683594 192.785156 66.683594 C 192.183594 66.683594 191.699219 67.171875 191.699219 67.773438 C 191.699219 68.375 192.183594 68.859375 192.785156 68.859375 C 193.386719 68.859375 193.875 68.375 193.875 67.773438 Z M 193.875 67.773438 "/>
<path fill-rule="nonzero" fill="rgb(0%, 0%, 100%)" fill-opacity="1" d="M 193.875 41.152344 C 193.875 40.550781 193.386719 40.0625 192.785156 40.0625 C 192.183594 40.0625 191.699219 40.550781 191.699219 41.152344 C 191.699219 41.753906 192.183594 42.238281 192.785156 42.238281 C 193.386719 42.238281 193.875 41.753906 193.875 41.152344 Z M 193.875 41.152344 "/>
<path fill-rule="nonzero" fill="rgb(75%, 75%, 75%)" fill-opacity="1" d="M 193.875 14.53125 C 193.875 13.929688 193.386719 13.441406 192.785156 13.441406 C 192.183594 13.441406 191.699219 13.929688 191.699219 14.53125 C 191.699219 15.132812 192.183594 15.617188 192.785156 15.617188 C 193.386719 15.617188 193.875 15.132812 193.875 14.53125 Z M 193.875 14.53125 "/>
<path fill-rule="nonzero" fill="rgb(0%, 0%, 100%)" fill-opacity="1" d="M 205.777344 121.015625 C 205.777344 120.414062 205.292969 119.929688 204.691406 119.929688 C 204.089844 119.929688 203.601562 120.414062 203.601562 121.015625 C 203.601562 121.617188 204.089844 122.105469 204.691406 122.105469 C 205.292969 122.105469 205.777344 121.617188 205.777344 121.015625 Z M 205.777344 121.015625 "/>
<path fill-rule="nonzero" fill="rgb(75%, 75%, 75%)" fill-opacity="1" d="M 205.777344 94.394531 C 205.777344 93.792969 205.292969 93.308594 204.691406 93.308594 C 204.089844 93.308594 203.601562 93.792969 203.601562 94.394531 C 203.601562 94.996094 204.089844 95.484375 204.691406 95.484375 C 205.292969 95.484375 205.777344 94.996094 205.777344 94.394531 Z M 205.777344 94.394531 "/>
<path fill-rule="nonzero" fill="rgb(0%, 0%, 100%)" fill-opacity="1" d="M 205.777344 67.773438 C 205.777344 67.171875 205.292969 66.683594 204.691406 66.683594 C 204.089844 66.683594 203.601562 67.171875 203.601562 67.773438 C 203.601562 68.375 204.089844 68.859375 204.691406 68.859375 C 205.292969 68.859375 205.777344 68.375 205.777344 67.773438 Z M 205.777344 67.773438 "/>
<path fill-rule="nonzero" fill="rgb(75%, 75%, 75%)" fill-opacity="1" d="M 205.777344 41.152344 C 205.777344 40.550781 205.292969 40.0625 204.691406 40.0625 C 204.089844 40.0625 203.601562 40.550781 203.601562 41.152344 C 203.601562 41.753906 204.089844 42.238281 204.691406 42.238281 C 205.292969 42.238281 205.777344 41.753906 205.777344 41.152344 Z M 205.777344 41.152344 "/>
<path fill-rule="nonzero" fill="rgb(0%, 0%, 100%)" fill-opacity="1" d="M 205.777344 14.53125 C 205.777344 13.929688 205.292969 13.441406 204.691406 13.441406 C 204.089844 13.441406 203.601562 13.929688 203.601562 14.53125 C 203.601562 15.132812 204.089844 15.617188 204.691406 15.617188 C 205.292969 15.617188 205.777344 15.132812 205.777344 14.53125 Z M 205.777344 14.53125 "/>
<path fill-rule="nonzero" fill="rgb(75%, 75%, 75%)" fill-opacity="1" d="M 217.683594 121.015625 C 217.683594 120.414062 217.199219 119.929688 216.597656 119.929688 C 215.996094 119.929688 215.507812 120.414062 215.507812 121.015625 C 215.507812 121.617188 215.996094 122.105469 216.597656 122.105469 C 217.199219 122.105469 217.683594 121.617188 217.683594 121.015625 Z M 217.683594 121.015625 "/>
<path fill-rule="nonzero" fill="rgb(0%, 0%, 100%)" fill-opacity="1" d="M 217.683594 94.394531 C 217.683594 93.792969 217.199219 93.308594 216.597656 93.308594 C 215.996094 93.308594 215.507812 93.792969 215.507812 94.394531 C 215.507812 94.996094 215.996094 95.484375 216.597656 95.484375 C 217.199219 95.484375 217.683594 94.996094 217.683594 94.394531 Z M 217.683594 94.394531 "/>
<path fill-rule="nonzero" fill="rgb(75%, 75%, 75%)" fill-opacity="1" d="M 217.683594 67.773438 C 217.683594 67.171875 217.199219 66.683594 216.597656 66.683594 C 215.996094 66.683594 215.507812 67.171875 215.507812 67.773438 C 215.507812 68.375 215.996094 68.859375 216.597656 68.859375 C 217.199219 68.859375 217.683594 68.375 217.683594 67.773438 Z M 217.683594 67.773438 "/>
<path fill-rule="nonzero" fill="rgb(0%, 0%, 100%)" fill-opacity="1" d="M 217.683594 41.152344 C 217.683594 40.550781 217.199219 40.0625 216.597656 40.0625 C 215.996094 40.0625 215.507812 40.550781 215.507812 41.152344 C 215.507812 41.753906 215.996094 42.238281 216.597656 42.238281 C 217.199219 42.238281 217.683594 41.753906 217.683594 41.152344 Z M 217.683594 41.152344 "/>
<path fill-rule="nonzero" fill="rgb(75%, 75%, 75%)" fill-opacity="1" d="M 217.683594 14.53125 C 217.683594 13.929688 217.199219 13.441406 216.597656 13.441406 C 215.996094 13.441406 215.507812 13.929688 215.507812 14.53125 C 215.507812 15.132812 215.996094 15.617188 216.597656 15.617188 C 217.199219 15.617188 217.683594 15.132812 217.683594 14.53125 Z M 217.683594 14.53125 "/>
<path fill-rule="nonzero" fill="rgb(0%, 0%, 100%)" fill-opacity="1" d="M 229.589844 121.015625 C 229.589844 120.414062 229.101562 119.929688 228.503906 119.929688 C 227.902344 119.929688 227.414062 120.414062 227.414062 121.015625 C 227.414062 121.617188 227.902344 122.105469 228.503906 122.105469 C 229.101562 122.105469 229.589844 121.617188 229.589844 121.015625 Z M 229.589844 121.015625 "/>
<path fill-rule="nonzero" fill="rgb(75%, 75%, 75%)" fill-opacity="1" d="M 229.589844 94.394531 C 229.589844 93.792969 229.101562 93.308594 228.503906 93.308594 C 227.902344 93.308594 227.414062 93.792969 227.414062 94.394531 C 227.414062 94.996094 227.902344 95.484375 228.503906 95.484375 C 229.101562 95.484375 229.589844 94.996094 229.589844 94.394531 Z M 229.589844 94.394531 "/>
<path fill-rule="nonzero" fill="rgb(0%, 0%, 100%)" fill-opacity="1" d="M 229.589844 67.773438 C 229.589844 67.171875 229.101562 66.683594 228.503906 66.683594 C 227.902344 66.683594 227.414062 67.171875 227.414062 67.773438 C 227.414062 68.375 227.902344 68.859375 228.503906 68.859375 C 229.101562 68.859375 229.589844 68.375 229.589844 67.773438 Z M 229.589844 67.773438 "/>
<path fill-rule="nonzero" fill="rgb(75%, 75%, 75%)" fill-opacity="1" d="M 229.589844 41.152344 C 229.589844 40.550781 229.101562 40.0625 228.503906 40.0625 C 227.902344 40.0625 227.414062 40.550781 227.414062 41.152344 C 227.414062 41.753906 227.902344 42.238281 228.503906 42.238281 C 229.101562 42.238281 229.589844 41.753906 229.589844 41.152344 Z M 229.589844 41.152344 "/>
<path fill-rule="nonzero" fill="rgb(0%, 0%, 100%)" fill-opacity="1" d="M 229.589844 14.53125 C 229.589844 13.929688 229.101562 13.441406 228.503906 13.441406 C 227.902344 13.441406 227.414062 13.929688 227.414062 14.53125 C 227.414062 15.132812 227.902344 15.617188 228.503906 15.617188 C 229.101562 15.617188 229.589844 15.132812 229.589844 14.53125 Z M 229.589844 14.53125 "/>
<path fill-rule="nonzero" fill="rgb(75%, 75%, 75%)" fill-opacity="1" d="M 241.496094 121.015625 C 241.496094 120.414062 241.007812 119.929688 240.40625 119.929688 C 239.808594 119.929688 239.320312 120.414062 239.320312 121.015625 C 239.320312 121.617188 239.808594 122.105469 240.40625 122.105469 C 241.007812 122.105469 241.496094 121.617188 241.496094 121.015625 Z M 241.496094 121.015625 "/>
<path fill-rule="nonzero" fill="rgb(0%, 0%, 100%)" fill-opacity="1" d="M 241.496094 94.394531 C 241.496094 93.792969 241.007812 93.308594 240.40625 93.308594 C 239.808594 93.308594 239.320312 93.792969 239.320312 94.394531 C 239.320312 94.996094 239.808594 95.484375 240.40625 95.484375 C 241.007812 95.484375 241.496094 94.996094 241.496094 94.394531 Z M 241.496094 94.394531 "/>
<path fill-rule="nonzero" fill="rgb(75%, 75%, 75%)" fill-opacity="1" d="M 241.496094 67.773438 C 241.496094 67.171875 241.007812 66.683594 240.40625 66.683594 C 239.808594 66.683594 239.320312 67.171875 239.320312 67.773438 C 239.320312 68.375 239.808594 68.859375 240.40625 68.859375 C 241.007812 68.859375 241.496094 68.375 241.496094 67.773438 Z M 241.496094 67.773438 "/>
<path fill-rule="nonzero" fill="rgb(0%, 0%, 100%)" fill-opacity="1" d="M 241.496094 41.152344 C 241.496094 40.550781 241.007812 40.0625 240.40625 40.0625 C 239.808594 40.0625 239.320312 40.550781 239.320312 41.152344 C 239.320312 41.753906 239.808594 42.238281 240.40625 42.238281 C 241.007812 42.238281 241.496094 41.753906 241.496094 41.152344 Z M 241.496094 41.152344 "/>
<path fill-rule="nonzero" fill="rgb(75%, 75%, 75%)" fill-opacity="1" d="M 241.496094 14.53125 C 241.496094 13.929688 241.007812 13.441406 240.40625 13.441406 C 239.808594 13.441406 239.320312 13.929688 239.320312 14.53125 C 239.320312 15.132812 239.808594 15.617188 240.40625 15.617188 C 241.007812 15.617188 241.496094 15.132812 241.496094 14.53125 Z M 241.496094 14.53125 "/>
<path fill-rule="nonzero" fill="rgb(0%, 0%, 100%)" fill-opacity="1" d="M 253.402344 121.015625 C 253.402344 120.414062 252.914062 119.929688 252.3125 119.929688 C 251.710938 119.929688 251.226562 120.414062 251.226562 121.015625 C 251.226562 121.617188 251.710938 122.105469 252.3125 122.105469 C 252.914062 122.105469 253.402344 121.617188 253.402344 121.015625 Z M 253.402344 121.015625 "/>
<path fill-rule="nonzero" fill="rgb(75%, 75%, 75%)" fill-opacity="1" d="M 253.402344 94.394531 C 253.402344 93.792969 252.914062 93.308594 252.3125 93.308594 C 251.710938 93.308594 251.226562 93.792969 251.226562 94.394531 C 251.226562 94.996094 251.710938 95.484375 252.3125 95.484375 C 252.914062 95.484375 253.402344 94.996094 253.402344 94.394531 Z M 253.402344 94.394531 "/>
<path fill-rule="nonzero" fill="rgb(0%, 0%, 100%)" fill-opacity="1" d="M 253.402344 67.773438 C 253.402344 67.171875 252.914062 66.683594 252.3125 66.683594 C 251.710938 66.683594 251.226562 67.171875 251.226562 67.773438 C 251.226562 68.375 251.710938 68.859375 252.3125 68.859375 C 252.914062 68.859375 253.402344 68.375 253.402344 67.773438 Z M 253.402344 67.773438 "/>
<path fill-rule="nonzero" fill="rgb(75%, 75%, 75%)" fill-opacity="1" d="M 253.402344 41.152344 C 253.402344 40.550781 252.914062 40.0625 252.3125 40.0625 C 251.710938 40.0625 251.226562 40.550781 251.226562 41.152344 C 251.226562 41.753906 251.710938 42.238281 252.3125 42.238281 C 252.914062 42.238281 253.402344 41.753906 253.402344 41.152344 Z M 253.402344 41.152344 "/>
<path fill-rule="nonzero" fill="rgb(0%, 0%, 100%)" fill-opacity="1" d="M 253.402344 14.53125 C 253.402344 13.929688 252.914062 13.441406 252.3125 13.441406 C 251.710938 13.441406 251.226562 13.929688 251.226562 14.53125 C 251.226562 15.132812 251.710938 15.617188 252.3125 15.617188 C 252.914062 15.617188 253.402344 15.132812 253.402344 14.53125 Z M 253.402344 14.53125 "/>
<path fill-rule="nonzero" fill="rgb(75%, 75%, 75%)" fill-opacity="1" d="M 265.308594 121.015625 C 265.308594 120.414062 264.820312 119.929688 264.21875 119.929688 C 263.617188 119.929688 263.132812 120.414062 263.132812 121.015625 C 263.132812 121.617188 263.617188 122.105469 264.21875 122.105469 C 264.820312 122.105469 265.308594 121.617188 265.308594 121.015625 Z M 265.308594 121.015625 "/>
<path fill-rule="nonzero" fill="rgb(0%, 0%, 100%)" fill-opacity="1" d="M 265.308594 94.394531 C 265.308594 93.792969 264.820312 93.308594 264.21875 93.308594 C 263.617188 93.308594 263.132812 93.792969 263.132812 94.394531 C 263.132812 94.996094 263.617188 95.484375 264.21875 95.484375 C 264.820312 95.484375 265.308594 94.996094 265.308594 94.394531 Z M 265.308594 94.394531 "/>
<path fill-rule="nonzero" fill="rgb(75%, 75%, 75%)" fill-opacity="1" d="M 265.308594 67.773438 C 265.308594 67.171875 264.820312 66.683594 264.21875 66.683594 C 263.617188 66.683594 263.132812 67.171875 263.132812 67.773438 C 263.132812 68.375 263.617188 68.859375 264.21875 68.859375 C 264.820312 68.859375 265.308594 68.375 265.308594 67.773438 Z M 265.308594 67.773438 "/>
<path fill-rule="nonzero" fill="rgb(0%, 0%, 100%)" fill-opacity="1" d="M 265.308594 41.152344 C 265.308594 40.550781 264.820312 40.0625 264.21875 40.0625 C 263.617188 40.0625 263.132812 40.550781 263.132812 41.152344 C 263.132812 41.753906 263.617188 42.238281 264.21875 42.238281 C 264.820312 42.238281 265.308594 41.753906 265.308594 41.152344 Z M 265.308594 41.152344 "/>
<path fill-rule="nonzero" fill="rgb(75%, 75%, 75%)" fill-opacity="1" d="M 265.308594 14.53125 C 265.308594 13.929688 264.820312 13.441406 264.21875 13.441406 C 263.617188 13.441406 263.132812 13.929688 263.132812 14.53125 C 263.132812 15.132812 263.617188 15.617188 264.21875 15.617188 C 264.820312 15.617188 265.308594 15.132812 265.308594 14.53125 Z M 265.308594 14.53125 "/>
<path fill-rule="nonzero" fill="rgb(0%, 0%, 100%)" fill-opacity="1" d="M 277.210938 121.015625 C 277.210938 120.414062 276.726562 119.929688 276.125 119.929688 C 275.523438 119.929688 275.035156 120.414062 275.035156 121.015625 C 275.035156 121.617188 275.523438 122.105469 276.125 122.105469 C 276.726562 122.105469 277.210938 121.617188 277.210938 121.015625 Z M 277.210938 121.015625 "/>
<path fill-rule="nonzero" fill="rgb(75%, 75%, 75%)" fill-opacity="1" d="M 277.210938 94.394531 C 277.210938 93.792969 276.726562 93.308594 276.125 93.308594 C 275.523438 93.308594 275.035156 93.792969 275.035156 94.394531 C 275.035156 94.996094 275.523438 95.484375 276.125 95.484375 C 276.726562 95.484375 277.210938 94.996094 277.210938 94.394531 Z M 277.210938 94.394531 "/>
<path fill-rule="nonzero" fill="rgb(0%, 0%, 100%)" fill-opacity="1" d="M 277.210938 67.773438 C 277.210938 67.171875 276.726562 66.683594 276.125 66.683594 C 275.523438 66.683594 275.035156 67.171875 275.035156 67.773438 C 275.035156 68.375 275.523438 68.859375 276.125 68.859375 C 276.726562 68.859375 277.210938 68.375 277.210938 67.773438 Z M 277.210938 67.773438 "/>
<path fill-rule="nonzero" fill="rgb(75%, 75%, 75%)" fill-opacity="1" d="M 277.210938 41.152344 C 277.210938 40.550781 276.726562 40.0625 276.125 40.0625 C 275.523438 40.0625 275.035156 40.550781 275.035156 41.152344 C 275.035156 41.753906 275.523438 42.238281 276.125 42.238281 C 276.726562 42.238281 277.210938 41.753906 277.210938 41.152344 Z M 277.210938 41.152344 "/>
<path fill-rule="nonzero" fill="rgb(0%, 0%, 100%)" fill-opacity="1" d="M 277.210938 14.53125 C 277.210938 13.929688 276.726562 13.441406 276.125 13.441406 C 275.523438 13.441406 275.035156 13.929688 275.035156 14.53125 C 275.035156 15.132812 275.523438 15.617188 276.125 15.617188 C 276.726562 15.617188 277.210938 15.132812 277.210938 14.53125 Z M 277.210938 14.53125 "/>
<path fill-rule="nonzero" fill="rgb(75%, 75%, 75%)" fill-opacity="1" d="M 289.117188 121.015625 C 289.117188 120.414062 288.632812 119.929688 288.03125 119.929688 C 287.429688 119.929688 286.941406 120.414062 286.941406 121.015625 C 286.941406 121.617188 287.429688 122.105469 288.03125 122.105469 C 288.632812 122.105469 289.117188 121.617188 289.117188 121.015625 Z M 289.117188 121.015625 "/>
<path fill-rule="nonzero" fill="rgb(0%, 0%, 100%)" fill-opacity="1" d="M 289.117188 94.394531 C 289.117188 93.792969 288.632812 93.308594 288.03125 93.308594 C 287.429688 93.308594 286.941406 93.792969 286.941406 94.394531 C 286.941406 94.996094 287.429688 95.484375 288.03125 95.484375 C 288.632812 95.484375 289.117188 94.996094 289.117188 94.394531 Z M 289.117188 94.394531 "/>
<path fill-rule="nonzero" fill="rgb(75%, 75%, 75%)" fill-opacity="1" d="M 289.117188 67.773438 C 289.117188 67.171875 288.632812 66.683594 288.03125 66.683594 C 287.429688 66.683594 286.941406 67.171875 286.941406 67.773438 C 286.941406 68.375 287.429688 68.859375 288.03125 68.859375 C 288.632812 68.859375 289.117188 68.375 289.117188 67.773438 Z M 289.117188 67.773438 "/>
<path fill-rule="nonzero" fill="rgb(0%, 0%, 100%)" fill-opacity="1" d="M 289.117188 41.152344 C 289.117188 40.550781 288.632812 40.0625 288.03125 40.0625 C 287.429688 40.0625 286.941406 40.550781 286.941406 41.152344 C 286.941406 41.753906 287.429688 42.238281 288.03125 42.238281 C 288.632812 42.238281 289.117188 41.753906 289.117188 41.152344 Z M 289.117188 41.152344 "/>
<path fill-rule="nonzero" fill="rgb(75%, 75%, 75%)" fill-opacity="1" d="M 289.117188 14.53125 C 289.117188 13.929688 288.632812 13.441406 288.03125 13.441406 C 287.429688 13.441406 286.941406 13.929688 286.941406 14.53125 C 286.941406 15.132812 287.429688 15.617188 288.03125 15.617188 C 288.632812 15.617188 289.117188 15.132812 289.117188 14.53125 Z M 289.117188 14.53125 "/>
</svg>
