<?xml version="1.0" encoding="UTF-8"?>
<svg xmlns="http://www.w3.org/2000/svg" xmlns:xlink="http://www.w3.org/1999/xlink" width="147.61pt" height="113.21pt" viewBox="0 0 147.61 113.21">
<defs>
<g>
<g id="glyph-0-0">
<path d="M 4.765625 0.09375 C 6.171875 -0.203125 7.421875 -1.3125 7.421875 -3.40625 C 7.421875 -5.921875 5.65625 -7.015625 3.875 -7.015625 C 2.046875 -7.015625 0.328125 -5.875 0.328125 -3.421875 C 0.328125 -1.28125 1.609375 -0.265625 2.78125 0.046875 C 3.234375 1.0625 4.21875 1.78125 5.453125 1.78125 C 5.953125 1.78125 6.5 1.6875 7.015625 1.484375 C 7.203125 1.421875 7.296875 1.375 7.296875 1.25 C 7.296875 1.140625 7.203125 1.078125 7.125 1.078125 C 7.109375 1.078125 7.09375 1.078125 7.03125 1.09375 C 6.75 1.171875 6.640625 1.171875 6.484375 1.171875 C 5.5625 1.171875 5 0.59375 4.765625 0.09375 Z M 2.5 -6.390625 C 1.890625 -5.6875 1.734375 -4.515625 1.734375 -3.421875 C 1.734375 -2.4375 1.859375 -1.203125 2.515625 -0.421875 C 1.828125 -0.671875 0.671875 -1.46875 0.671875 -3.40625 C 0.671875 -5.4375 1.90625 -6.1875 2.5 -6.40625 Z M 5.265625 -6.40625 C 5.9375 -6.15625 7.078125 -5.359375 7.078125 -3.421875 C 7.078125 -1.390625 5.84375 -0.640625 5.25 -0.421875 C 5.859375 -1.140625 6.015625 -2.3125 6.015625 -3.40625 C 6.015625 -4.390625 5.90625 -5.625 5.25 -6.390625 Z M 3.875 -0.15625 C 2.265625 -0.15625 2.078125 -2.265625 2.078125 -3.40625 C 2.078125 -4.609375 2.28125 -6.671875 3.875 -6.671875 C 5.5 -6.671875 5.671875 -4.5625 5.671875 -3.421875 C 5.671875 -2.21875 5.46875 -0.15625 3.875 -0.15625 Z M 3.21875 0.140625 C 3.5 0.1875 3.875 0.1875 3.875 0.1875 C 3.921875 0.1875 4.140625 0.1875 4.421875 0.15625 C 4.6875 0.78125 5.15625 1.171875 5.65625 1.359375 C 5.75 1.40625 5.765625 1.40625 5.765625 1.421875 C 5.765625 1.4375 5.578125 1.4375 5.453125 1.4375 C 4.609375 1.4375 3.734375 1.03125 3.21875 0.140625 Z M 3.21875 0.140625 "/>
</g>
<g id="glyph-0-1">
<path d="M 5.9375 -6.46875 C 6.03125 -6.59375 6.03125 -6.625 6.03125 -6.65625 C 6.03125 -6.828125 5.875 -6.828125 5.703125 -6.828125 L 1.140625 -6.828125 C 0.8125 -6.828125 0.8125 -6.796875 0.78125 -6.546875 L 0.640625 -5.1875 L 0.625 -5.0625 C 0.625 -4.921875 0.734375 -4.875 0.796875 -4.875 C 0.890625 -4.875 0.953125 -4.9375 0.96875 -5.03125 C 1 -5.265625 1.09375 -5.703125 1.703125 -6.078125 C 2.265625 -6.453125 2.96875 -6.484375 3.3125 -6.484375 L 4.109375 -6.484375 L 0.375 -0.359375 C 0.28125 -0.234375 0.28125 -0.203125 0.28125 -0.171875 C 0.28125 0 0.4375 0 0.625 0 L 5.734375 0 C 6.03125 0 6.03125 -0.015625 6.078125 -0.28125 L 6.34375 -2.25 C 6.34375 -2.359375 6.25 -2.421875 6.171875 -2.421875 C 6.015625 -2.421875 6 -2.328125 5.96875 -2.125 C 5.796875 -1.3125 5.03125 -0.34375 3.609375 -0.34375 L 2.1875 -0.34375 Z M 1.125 -6.484375 L 1.65625 -6.484375 L 1.65625 -6.46875 C 1.390625 -6.3125 1.203125 -6.140625 1.078125 -6.03125 Z M 4.53125 -6.484375 L 5.546875 -6.484375 L 1.78125 -0.34375 L 0.765625 -0.34375 Z M 5.046875 -0.359375 C 5.328125 -0.515625 5.59375 -0.734375 5.828125 -1.015625 C 5.796875 -0.8125 5.78125 -0.703125 5.734375 -0.34375 L 5.046875 -0.34375 Z M 5.046875 -0.359375 "/>
</g>
<g id="glyph-1-0">
<path d="M 3.296875 2.390625 C 3.296875 2.359375 3.296875 2.34375 3.125 2.171875 C 1.890625 0.921875 1.5625 -0.96875 1.5625 -2.5 C 1.5625 -4.234375 1.9375 -5.96875 3.171875 -7.203125 C 3.296875 -7.328125 3.296875 -7.34375 3.296875 -7.375 C 3.296875 -7.453125 3.265625 -7.484375 3.203125 -7.484375 C 3.09375 -7.484375 2.203125 -6.796875 1.609375 -5.53125 C 1.109375 -4.4375 0.984375 -3.328125 0.984375 -2.5 C 0.984375 -1.71875 1.09375 -0.515625 1.640625 0.625 C 2.25 1.84375 3.09375 2.5 3.203125 2.5 C 3.265625 2.5 3.296875 2.46875 3.296875 2.390625 Z M 3.296875 2.390625 "/>
</g>
<g id="glyph-1-1">
<path d="M 2.875 -2.5 C 2.875 -3.265625 2.765625 -4.46875 2.21875 -5.609375 C 1.625 -6.828125 0.765625 -7.484375 0.671875 -7.484375 C 0.609375 -7.484375 0.5625 -7.4375 0.5625 -7.375 C 0.5625 -7.34375 0.5625 -7.328125 0.75 -7.140625 C 1.734375 -6.15625 2.296875 -4.578125 2.296875 -2.5 C 2.296875 -0.78125 1.9375 0.96875 0.703125 2.21875 C 0.5625 2.34375 0.5625 2.359375 0.5625 2.390625 C 0.5625 2.453125 0.609375 2.5 0.671875 2.5 C 0.765625 2.5 1.671875 1.8125 2.25 0.546875 C 2.765625 -0.546875 2.875 -1.65625 2.875 -2.5 Z M 2.875 -2.5 "/>
</g>
<g id="glyph-1-2">
<path d="M 4.46875 -2 C 4.46875 -3.1875 3.65625 -4.1875 2.578125 -4.1875 C 2.109375 -4.1875 1.671875 -4.03125 1.3125 -3.671875 L 1.3125 -5.625 C 1.515625 -5.5625 1.84375 -5.5 2.15625 -5.5 C 3.390625 -5.5 4.09375 -6.40625 4.09375 -6.53125 C 4.09375 -6.59375 4.0625 -6.640625 3.984375 -6.640625 C 3.984375 -6.640625 3.953125 -6.640625 3.90625 -6.609375 C 3.703125 -6.515625 3.21875 -6.3125 2.546875 -6.3125 C 2.15625 -6.3125 1.6875 -6.390625 1.21875 -6.59375 C 1.140625 -6.625 1.125 -6.625 1.109375 -6.625 C 1 -6.625 1 -6.546875 1 -6.390625 L 1 -3.4375 C 1 -3.265625 1 -3.1875 1.140625 -3.1875 C 1.21875 -3.1875 1.234375 -3.203125 1.28125 -3.265625 C 1.390625 -3.421875 1.75 -3.96875 2.5625 -3.96875 C 3.078125 -3.96875 3.328125 -3.515625 3.40625 -3.328125 C 3.5625 -2.953125 3.59375 -2.578125 3.59375 -2.078125 C 3.59375 -1.71875 3.59375 -1.125 3.34375 -0.703125 C 3.109375 -0.3125 2.734375 -0.0625 2.28125 -0.0625 C 1.5625 -0.0625 0.984375 -0.59375 0.8125 -1.171875 C 0.84375 -1.171875 0.875 -1.15625 0.984375 -1.15625 C 1.3125 -1.15625 1.484375 -1.40625 1.484375 -1.640625 C 1.484375 -1.890625 1.3125 -2.140625 0.984375 -2.140625 C 0.84375 -2.140625 0.5 -2.0625 0.5 -1.609375 C 0.5 -0.75 1.1875 0.21875 2.296875 0.21875 C 3.453125 0.21875 4.46875 -0.734375 4.46875 -2 Z M 4.46875 -2 "/>
</g>
<g id="glyph-1-3">
<path d="M 2.9375 -6.375 C 2.9375 -6.625 2.9375 -6.640625 2.703125 -6.640625 C 2.078125 -6 1.203125 -6 0.890625 -6 L 0.890625 -5.6875 C 1.09375 -5.6875 1.671875 -5.6875 2.1875 -5.953125 L 2.1875 -0.78125 C 2.1875 -0.421875 2.15625 -0.3125 1.265625 -0.3125 L 0.953125 -0.3125 L 0.953125 0 C 1.296875 -0.03125 2.15625 -0.03125 2.5625 -0.03125 C 2.953125 -0.03125 3.828125 -0.03125 4.171875 0 L 4.171875 -0.3125 L 3.859375 -0.3125 C 2.953125 -0.3125 2.9375 -0.421875 2.9375 -0.78125 Z M 2.9375 -6.375 "/>
</g>
<g id="glyph-1-4">
<path d="M 2.9375 -1.640625 L 2.9375 -0.78125 C 2.9375 -0.421875 2.90625 -0.3125 2.171875 -0.3125 L 1.96875 -0.3125 L 1.96875 0 C 2.375 -0.03125 2.890625 -0.03125 3.3125 -0.03125 C 3.734375 -0.03125 4.25 -0.03125 4.671875 0 L 4.671875 -0.3125 L 4.453125 -0.3125 C 3.71875 -0.3125 3.703125 -0.421875 3.703125 -0.78125 L 3.703125 -1.640625 L 4.6875 -1.640625 L 4.6875 -1.953125 L 3.703125 -1.953125 L 3.703125 -6.484375 C 3.703125 -6.6875 3.703125 -6.75 3.53125 -6.75 C 3.453125 -6.75 3.421875 -6.75 3.34375 -6.625 L 0.28125 -1.953125 L 0.28125 -1.640625 Z M 2.984375 -1.953125 L 0.5625 -1.953125 L 2.984375 -5.671875 Z M 2.984375 -1.953125 "/>
</g>
<g id="glyph-2-0">
<path d="M 3.234375 -5.765625 C 3.40625 -5.59375 3.640625 -5.59375 3.84375 -5.59375 C 4.09375 -5.59375 4.71875 -5.59375 4.71875 -5.90625 C 4.71875 -6.15625 4.328125 -6.171875 3.921875 -6.171875 C 3.8125 -6.171875 3.546875 -6.171875 3.296875 -6.078125 C 3.234375 -6.1875 3.21875 -6.234375 3.21875 -6.453125 C 3.21875 -6.59375 3.265625 -6.796875 3.265625 -6.8125 C 3.265625 -6.890625 3.21875 -6.953125 3.15625 -6.953125 C 2.96875 -6.953125 2.96875 -6.484375 2.96875 -6.453125 C 2.96875 -6.296875 3 -6.109375 3.078125 -5.96875 C 2.03125 -5.4375 0.453125 -3.59375 0.453125 -1.671875 C 0.453125 -0.265625 1.359375 0.046875 2.078125 0.28125 C 2.375 0.390625 2.40625 0.390625 2.6875 0.484375 C 2.90625 0.5625 3.3125 0.703125 3.3125 1.171875 C 3.3125 1.4375 3.125 1.828125 2.75 1.828125 C 2.5 1.828125 2.21875 1.703125 2.015625 1.53125 C 1.9375 1.46875 1.9375 1.453125 1.890625 1.453125 C 1.84375 1.453125 1.796875 1.5 1.796875 1.5625 C 1.796875 1.671875 2.21875 2.046875 2.75 2.046875 C 3.375 2.046875 3.84375 1.40625 3.84375 0.84375 C 3.84375 0.453125 3.65625 0.25 3.5625 0.171875 C 3.40625 -0.015625 3.203125 -0.078125 2.625 -0.28125 C 1.828125 -0.546875 1.671875 -0.59375 1.421875 -0.8125 C 1 -1.1875 1 -1.75 1 -1.9375 C 1 -3.484375 2.21875 -5.234375 3.234375 -5.765625 Z M 3.453125 -5.875 C 3.609375 -5.953125 3.78125 -5.953125 3.921875 -5.953125 C 4.25 -5.953125 4.28125 -5.9375 4.46875 -5.890625 C 4.390625 -5.859375 4.28125 -5.8125 3.84375 -5.8125 C 3.640625 -5.8125 3.5625 -5.8125 3.453125 -5.875 Z M 3.453125 -5.875 "/>
</g>
<g id="glyph-2-1">
<path d="M 2.03125 -0.015625 C 2.03125 -0.671875 1.78125 -1.0625 1.390625 -1.0625 C 1.0625 -1.0625 0.859375 -0.8125 0.859375 -0.53125 C 0.859375 -0.265625 1.0625 0 1.390625 0 C 1.5 0 1.640625 -0.046875 1.734375 -0.125 C 1.765625 -0.15625 1.78125 -0.15625 1.78125 -0.15625 C 1.796875 -0.15625 1.796875 -0.15625 1.796875 -0.015625 C 1.796875 0.734375 1.453125 1.328125 1.125 1.65625 C 1.015625 1.765625 1.015625 1.78125 1.015625 1.8125 C 1.015625 1.890625 1.0625 1.921875 1.109375 1.921875 C 1.21875 1.921875 2.03125 1.15625 2.03125 -0.015625 Z M 2.03125 -0.015625 "/>
</g>
<g id="glyph-2-2">
<path d="M 4.375 -7.09375 C 4.421875 -7.234375 4.421875 -7.265625 4.421875 -7.28125 C 4.421875 -7.390625 4.34375 -7.484375 4.234375 -7.484375 C 4.15625 -7.484375 4.09375 -7.453125 4.0625 -7.390625 L 0.59375 2.109375 C 0.546875 2.25 0.546875 2.28125 0.546875 2.296875 C 0.546875 2.40625 0.640625 2.5 0.75 2.5 C 0.875 2.5 0.90625 2.421875 0.96875 2.25 Z M 4.375 -7.09375 "/>
</g>
<g id="glyph-3-0">
<path d="M 1.078125 -3.890625 C 1.4375 -3.796875 1.640625 -3.796875 1.75 -3.796875 C 2.671875 -3.796875 3.21875 -4.421875 3.21875 -4.53125 C 3.21875 -4.609375 3.171875 -4.625 3.140625 -4.625 C 3.125 -4.625 3.109375 -4.625 3.078125 -4.609375 C 2.90625 -4.546875 2.546875 -4.40625 2.03125 -4.40625 C 1.828125 -4.40625 1.46875 -4.421875 1.015625 -4.59375 C 0.9375 -4.625 0.921875 -4.625 0.921875 -4.625 C 0.828125 -4.625 0.828125 -4.546875 0.828125 -4.4375 L 0.828125 -2.390625 C 0.828125 -2.265625 0.828125 -2.1875 0.9375 -2.1875 C 1 -2.1875 1.015625 -2.1875 1.078125 -2.28125 C 1.375 -2.65625 1.8125 -2.71875 2.046875 -2.71875 C 2.46875 -2.71875 2.65625 -2.390625 2.6875 -2.328125 C 2.8125 -2.09375 2.859375 -1.828125 2.859375 -1.421875 C 2.859375 -1.21875 2.859375 -0.8125 2.640625 -0.5 C 2.46875 -0.25 2.171875 -0.078125 1.828125 -0.078125 C 1.375 -0.078125 0.90625 -0.328125 0.734375 -0.796875 C 1 -0.78125 1.140625 -0.953125 1.140625 -1.140625 C 1.140625 -1.4375 0.875 -1.484375 0.78125 -1.484375 C 0.78125 -1.484375 0.4375 -1.484375 0.4375 -1.109375 C 0.4375 -0.484375 1.015625 0.140625 1.84375 0.140625 C 2.734375 0.140625 3.515625 -0.515625 3.515625 -1.40625 C 3.515625 -2.1875 2.921875 -2.90625 2.0625 -2.90625 C 1.75 -2.90625 1.390625 -2.84375 1.078125 -2.578125 Z M 1.078125 -3.890625 "/>
</g>
<g id="glyph-4-0">
<path d="M 3.875 8.515625 L 2.125 4.640625 C 2.046875 4.484375 2 4.484375 1.96875 4.484375 C 1.96875 4.484375 1.90625 4.484375 1.796875 4.5625 L 0.859375 5.28125 C 0.734375 5.390625 0.734375 5.40625 0.734375 5.4375 C 0.734375 5.5 0.75 5.546875 0.828125 5.546875 C 0.890625 5.546875 1.0625 5.40625 1.171875 5.328125 C 1.21875 5.28125 1.375 5.171875 1.484375 5.09375 L 3.453125 9.40625 C 3.515625 9.5625 3.5625 9.5625 3.65625 9.5625 C 3.8125 9.5625 3.84375 9.515625 3.90625 9.375 L 8.4375 0 C 8.5 -0.140625 8.5 -0.171875 8.5 -0.203125 C 8.5 -0.296875 8.421875 -0.40625 8.296875 -0.40625 C 8.21875 -0.40625 8.15625 -0.34375 8.078125 -0.1875 Z M 3.875 8.515625 "/>
</g>
<g id="glyph-4-1">
<path d="M 2.828125 -6.15625 C 2.828125 -6.546875 3.078125 -7.1875 4.171875 -7.25 C 4.21875 -7.265625 4.25 -7.3125 4.25 -7.359375 C 4.25 -7.484375 4.171875 -7.484375 4.0625 -7.484375 C 3.078125 -7.484375 2.15625 -6.96875 2.15625 -6.234375 L 2.15625 -3.953125 C 2.15625 -3.5625 2.15625 -3.25 1.75 -2.921875 C 1.40625 -2.625 1.03125 -2.609375 0.8125 -2.609375 C 0.75 -2.59375 0.71875 -2.546875 0.71875 -2.5 C 0.71875 -2.390625 0.78125 -2.390625 0.875 -2.375 C 1.53125 -2.34375 2.015625 -1.984375 2.125 -1.5 C 2.15625 -1.390625 2.15625 -1.359375 2.15625 -1 L 2.15625 0.96875 C 2.15625 1.390625 2.15625 1.703125 2.625 2.078125 C 3.015625 2.375 3.671875 2.5 4.0625 2.5 C 4.171875 2.5 4.25 2.5 4.25 2.375 C 4.25 2.28125 4.203125 2.28125 4.09375 2.265625 C 3.46875 2.234375 2.984375 1.90625 2.84375 1.40625 C 2.828125 1.3125 2.828125 1.296875 2.828125 0.9375 L 2.828125 -1.15625 C 2.828125 -1.609375 2.734375 -1.78125 2.421875 -2.109375 C 2.21875 -2.3125 1.921875 -2.40625 1.640625 -2.5 C 2.46875 -2.71875 2.828125 -3.1875 2.828125 -3.765625 Z M 2.828125 -6.15625 "/>
</g>
<g id="glyph-4-2">
<path d="M 2.15625 1.171875 C 2.15625 1.5625 1.890625 2.203125 0.8125 2.265625 C 0.75 2.28125 0.71875 2.328125 0.71875 2.375 C 0.71875 2.5 0.828125 2.5 0.921875 2.5 C 1.890625 2.5 2.8125 2 2.828125 1.25 L 2.828125 -1.03125 C 2.828125 -1.421875 2.828125 -1.734375 3.21875 -2.0625 C 3.5625 -2.359375 3.953125 -2.375 4.171875 -2.375 C 4.21875 -2.390625 4.25 -2.4375 4.25 -2.5 C 4.25 -2.59375 4.203125 -2.59375 4.09375 -2.609375 C 3.4375 -2.640625 2.953125 -3 2.84375 -3.484375 C 2.828125 -3.59375 2.828125 -3.625 2.828125 -3.984375 L 2.828125 -5.953125 C 2.828125 -6.375 2.828125 -6.6875 2.34375 -7.0625 C 1.9375 -7.375 1.25 -7.484375 0.921875 -7.484375 C 0.828125 -7.484375 0.71875 -7.484375 0.71875 -7.359375 C 0.71875 -7.265625 0.78125 -7.265625 0.875 -7.25 C 1.5 -7.21875 2 -6.890625 2.125 -6.390625 C 2.15625 -6.296875 2.15625 -6.28125 2.15625 -5.921875 L 2.15625 -3.828125 C 2.15625 -3.375 2.234375 -3.203125 2.546875 -2.875 C 2.765625 -2.671875 3.046875 -2.578125 3.328125 -2.5 C 2.515625 -2.265625 2.15625 -1.796875 2.15625 -1.21875 Z M 2.15625 1.171875 "/>
</g>
<g id="glyph-5-0">
<path d="M 4.875 -3.265625 C 4.953125 -3.34375 4.96875 -3.390625 4.96875 -3.4375 C 4.96875 -3.546875 4.890625 -3.609375 4.8125 -3.609375 C 4.734375 -3.609375 4.71875 -3.59375 4.640625 -3.5 L 3.109375 -1.984375 L 1.578125 -3.515625 C 1.5 -3.578125 1.484375 -3.609375 1.421875 -3.609375 C 1.3125 -3.609375 1.234375 -3.53125 1.234375 -3.4375 C 1.234375 -3.375 1.265625 -3.359375 1.34375 -3.265625 L 2.859375 -1.75 L 1.34375 -0.234375 C 1.25 -0.125 1.234375 -0.09375 1.234375 -0.0625 C 1.234375 0.046875 1.3125 0.125 1.421875 0.125 C 1.484375 0.125 1.5 0.09375 1.578125 0.015625 L 3.109375 -1.5 L 4.703125 0.078125 C 4.734375 0.109375 4.765625 0.125 4.8125 0.125 C 4.890625 0.125 4.96875 0.0625 4.96875 -0.0625 C 4.96875 -0.109375 4.96875 -0.125 4.9375 -0.140625 C 4.921875 -0.171875 3.578125 -1.53125 3.359375 -1.734375 Z M 4.875 -3.265625 "/>
</g>
</g>
</defs>
<g fill="rgb(0%, 0%, 0%)" fill-opacity="1">
<use xlink:href="#glyph-0-0" x="11.2174" y="16.45888"/>
</g>
<g fill="rgb(0%, 0%, 0%)" fill-opacity="1">
<use xlink:href="#glyph-1-0" x="18.96614" y="16.45888"/>
</g>
<g fill="rgb(0%, 0%, 0%)" fill-opacity="1">
<use xlink:href="#glyph-2-0" x="22.84051" y="16.45888"/>
</g>
<g fill="rgb(0%, 0%, 0%)" fill-opacity="1">
<use xlink:href="#glyph-3-0" x="27.19918" y="17.95326"/>
</g>
<g fill="rgb(0%, 0%, 0%)" fill-opacity="1">
<use xlink:href="#glyph-1-1" x="31.66855" y="16.45888"/>
</g>
<g fill="rgb(0%, 0%, 0%)" fill-opacity="1">
<use xlink:href="#glyph-0-0" x="8.98962" y="59.76226"/>
</g>
<g fill="rgb(0%, 0%, 0%)" fill-opacity="1">
<use xlink:href="#glyph-1-0" x="16.73836" y="59.76226"/>
</g>
<g fill="rgb(0%, 0%, 0%)" fill-opacity="1">
<use xlink:href="#glyph-4-0" x="20.61273" y="51.52095"/>
</g>
<path fill="none" stroke-width="0.398484" stroke-linecap="butt" stroke-linejoin="miter" stroke="rgb(0%, 0%, 0%)" stroke-opacity="1" stroke-miterlimit="10" d="M -28.695237 -18.568502 L -23.714769 -18.568502 " transform="matrix(1, 0, 0, -1, 57.6093, 32.75181)"/>
<g fill="rgb(0%, 0%, 0%)" fill-opacity="1">
<use xlink:href="#glyph-1-2" x="28.91496" y="59.76226"/>
<use xlink:href="#glyph-1-1" x="33.89628" y="59.76226"/>
</g>
<g fill="rgb(0%, 0%, 0%)" fill-opacity="1">
<use xlink:href="#glyph-0-0" x="19.5059" y="101.60999"/>
</g>
<g fill="rgb(0%, 0%, 0%)" fill-opacity="1">
<use xlink:href="#glyph-4-1" x="112.2872" y="16.45888"/>
</g>
<g fill="rgb(0%, 0%, 0%)" fill-opacity="1">
<use xlink:href="#glyph-1-3" x="117.26854" y="16.45888"/>
</g>
<g fill="rgb(0%, 0%, 0%)" fill-opacity="1">
<use xlink:href="#glyph-4-2" x="122.24988" y="16.45888"/>
</g>
<g fill="rgb(0%, 0%, 0%)" fill-opacity="1">
<use xlink:href="#glyph-4-1" x="107.58256" y="58.9791"/>
</g>
<g fill="rgb(0%, 0%, 0%)" fill-opacity="1">
<use xlink:href="#glyph-1-3" x="112.5639" y="58.9791"/>
</g>
<g fill="rgb(0%, 0%, 0%)" fill-opacity="1">
<use xlink:href="#glyph-2-1" x="117.54524" y="58.9791"/>
</g>
<g fill="rgb(0%, 0%, 0%)" fill-opacity="1">
<use xlink:href="#glyph-1-4" x="121.97305" y="58.9791"/>
</g>
<g fill="rgb(0%, 0%, 0%)" fill-opacity="1">
<use xlink:href="#glyph-4-2" x="126.95439" y="58.9791"/>
</g>
<g fill="rgb(0%, 0%, 0%)" fill-opacity="1">
<use xlink:href="#glyph-1-0" x="100.89916" y="101.72956"/>
</g>
<g fill="rgb(0%, 0%, 0%)" fill-opacity="1">
<use xlink:href="#glyph-0-1" x="104.77353" y="101.72956"/>
</g>
<g fill="rgb(0%, 0%, 0%)" fill-opacity="1">
<use xlink:href="#glyph-2-2" x="111.41531" y="101.72956"/>
</g>
<g fill="rgb(0%, 0%, 0%)" fill-opacity="1">
<use xlink:href="#glyph-1-2" x="116.39665" y="101.72956"/>
</g>
<g fill="rgb(0%, 0%, 0%)" fill-opacity="1">
<use xlink:href="#glyph-0-1" x="121.37799" y="101.72956"/>
</g>
<g fill="rgb(0%, 0%, 0%)" fill-opacity="1">
<use xlink:href="#glyph-1-1" x="128.01977" y="101.72956"/>
</g>
<g fill="rgb(0%, 0%, 0%)" fill-opacity="1">
<use xlink:href="#glyph-5-0" x="131.89414" y="98.1142"/>
</g>
<path fill="none" stroke-width="0.3985" stroke-linecap="butt" stroke-linejoin="miter" stroke="rgb(0%, 0%, 0%)" stroke-opacity="1" stroke-miterlimit="10" d="M -0.00141375 51.805485 L -0.00141375 72.953923 " transform="matrix(1, 0, 0, -1, 23.38032, 99.00861)"/>
<path fill-rule="nonzero" fill="rgb(0%, 0%, 0%)" fill-opacity="1" d="M 23.378906 22.46875 C 23.179688 23.53125 22.582031 25.257812 21.886719 26.453125 L 24.875 26.453125 C 24.175781 25.257812 23.578125 23.53125 23.378906 22.46875 "/>
<path fill="none" stroke-width="0.3985" stroke-linecap="butt" stroke-linejoin="miter" stroke="rgb(0%, 0%, 0%)" stroke-opacity="1" stroke-miterlimit="10" d="M -0.00141375 7.782048 L -0.00141375 29.649235 " transform="matrix(1, 0, 0, -1, 23.38032, 99.00861)"/>
<path fill-rule="nonzero" fill="rgb(0%, 0%, 0%)" fill-opacity="1" d="M 23.378906 65.773438 C 23.179688 66.835938 22.582031 68.5625 21.886719 69.757812 L 24.875 69.757812 C 24.175781 68.5625 23.578125 66.835938 23.378906 65.773438 "/>
<path fill="none" stroke-width="0.3985" stroke-linecap="butt" stroke-linejoin="miter" stroke="rgb(0%, 0%, 0%)" stroke-opacity="1" stroke-miterlimit="10" d="M 96.377492 76.53986 L 96.377492 54.606266 " transform="matrix(1, 0, 0, -1, 23.38032, 99.00861)"/>
<path fill-rule="nonzero" fill="rgb(0%, 0%, 0%)" fill-opacity="1" d="M 119.757812 47.988281 C 119.957031 46.925781 120.554688 45.199219 121.253906 44.003906 L 118.265625 44.003906 C 118.960938 45.199219 119.558594 46.925781 119.757812 47.988281 "/>
<path fill="none" stroke-width="0.3985" stroke-linecap="butt" stroke-linejoin="miter" stroke="rgb(0%, 0%, 0%)" stroke-opacity="1" stroke-miterlimit="10" d="M 96.377492 34.020329 L 96.377492 12.317204 " transform="matrix(1, 0, 0, -1, 23.38032, 99.00861)"/>
<path fill-rule="nonzero" fill="rgb(0%, 0%, 0%)" fill-opacity="1" d="M 119.757812 90.277344 C 119.957031 89.214844 120.554688 87.488281 121.253906 86.292969 L 118.265625 86.292969 C 118.960938 87.488281 119.558594 89.214844 119.757812 90.277344 "/>
<path fill="none" stroke-width="0.3985" stroke-linecap="butt" stroke-linejoin="miter" stroke="rgb(0%, 0%, 0%)" stroke-opacity="1" stroke-miterlimit="10" d="M 19.268117 85.03986 L 81.799367 85.03986 " transform="matrix(1, 0, 0, -1, 23.38032, 99.00861)"/>
<path fill-rule="nonzero" fill="rgb(0%, 0%, 0%)" fill-opacity="1" d="M 39.0625 13.96875 C 40.125 14.167969 41.851562 14.765625 43.046875 15.460938 L 43.046875 12.472656 C 41.851562 13.171875 40.125 13.769531 39.0625 13.96875 "/>
<path fill-rule="nonzero" fill="rgb(0%, 0%, 0%)" fill-opacity="1" d="M 108.765625 13.96875 C 107.703125 13.769531 105.976562 13.171875 104.78125 12.472656 L 104.78125 15.460938 C 105.976562 14.765625 107.703125 14.167969 108.765625 13.96875 "/>
<path fill="none" stroke-width="0.3985" stroke-linecap="butt" stroke-linejoin="miter" stroke="rgb(0%, 0%, 0%)" stroke-opacity="1" stroke-miterlimit="10" d="M 10.979055 0.0007975 L 70.412649 0.0007975 " transform="matrix(1, 0, 0, -1, 23.38032, 99.00861)"/>
<path fill-rule="nonzero" fill="rgb(0%, 0%, 0%)" fill-opacity="1" d="M 30.773438 99.007812 C 31.835938 99.207031 33.5625 99.804688 34.757812 100.503906 L 34.757812 97.515625 C 33.5625 98.210938 31.835938 98.808594 30.773438 99.007812 "/>
<path fill-rule="nonzero" fill="rgb(0%, 0%, 0%)" fill-opacity="1" d="M 97.378906 99.007812 C 96.316406 98.808594 94.589844 98.210938 93.394531 97.515625 L 93.394531 100.503906 C 94.589844 99.804688 96.316406 99.207031 97.378906 99.007812 "/>
</svg>
