<?xml version="1.0" encoding="UTF-8"?>
<svg xmlns="http://www.w3.org/2000/svg" xmlns:xlink="http://www.w3.org/1999/xlink" width="152.05pt" height="152.05pt" viewBox="0 0 152.05 152.05">
<path fill-rule="nonzero" fill="rgb(0%, 0%, 100%)" fill-opacity="1" d="M 14.867188 138.386719 C 14.867188 137.722656 14.328125 137.179688 13.664062 137.179688 C 12.996094 137.179688 12.457031 137.722656 12.457031 138.386719 C 12.457031 139.050781 12.996094 139.59375 13.664062 139.59375 C 14.328125 139.59375 14.867188 139.050781 14.867188 138.386719 Z M 14.867188 138.386719 "/>
<path fill-rule="nonzero" fill="rgb(0%, 0%, 100%)" fill-opacity="1" d="M 14.867188 122.796875 C 14.867188 122.128906 14.328125 121.589844 13.664062 121.589844 C 12.996094 121.589844 12.457031 122.128906 12.457031 122.796875 C 12.457031 123.460938 12.996094 124 13.664062 124 C 14.328125 124 14.867188 123.460938 14.867188 122.796875 Z M 14.867188 122.796875 "/>
<path fill-rule="nonzero" fill="rgb(0%, 0%, 100%)" fill-opacity="1" d="M 14.867188 107.207031 C 14.867188 106.539062 14.328125 106 13.664062 106 C 12.996094 106 12.457031 106.539062 12.457031 107.207031 C 12.457031 107.871094 12.996094 108.410156 13.664062 108.410156 C 14.328125 108.410156 14.867188 107.871094 14.867188 107.207031 Z M 14.867188 107.207031 "/>
<path fill-rule="nonzero" fill="rgb(0%, 0%, 100%)" fill-opacity="1" d="M 14.867188 91.613281 C 14.867188 90.949219 14.328125 90.410156 13.664062 90.410156 C 12.996094 90.410156 12.457031 90.949219 12.457031 91.613281 C 12.457031 92.28125 12.996094 92.820312 13.664062 92.820312 C 14.328125 92.820312 14.867188 92.28125 14.867188 91.613281 Z M 14.867188 91.613281 "/>
<path fill-rule="nonzero" fill="rgb(0%, 0%, 100%)" fill-opacity="1" d="M 14.867188 76.023438 C 14.867188 75.359375 14.328125 74.816406 13.664062 74.816406 C 12.996094 74.816406 12.457031 75.359375 12.457031 76.023438 C 12.457031 76.6875 12.996094 77.230469 13.664062 77.230469 C 14.328125 77.230469 14.867188 76.6875 14.867188 76.023438 Z M 14.867188 76.023438 "/>
<path fill-rule="nonzero" fill="rgb(0%, 0%, 100%)" fill-opacity="1" d="M 14.867188 60.433594 C 14.867188 59.765625 14.328125 59.226562 13.664062 59.226562 C 12.996094 59.226562 12.457031 59.765625 12.457031 60.433594 C 12.457031 61.097656 12.996094 61.636719 13.664062 61.636719 C 14.328125 61.636719 14.867188 61.097656 14.867188 60.433594 Z M 14.867188 60.433594 "/>
<path fill-rule="nonzero" fill="rgb(0%, 0%, 100%)" fill-opacity="1" d="M 14.867188 44.84375 C 14.867188 44.175781 14.328125 43.636719 13.664062 43.636719 C 12.996094 43.636719 12.457031 44.175781 12.457031 44.84375 C 12.457031 45.507812 12.996094 46.046875 13.664062 46.046875 C 14.328125 46.046875 14.867188 45.507812 14.867188 44.84375 Z M 14.867188 44.84375 "/>
<path fill-rule="nonzero" fill="rgb(0%, 0%, 100%)" fill-opacity="1" d="M 14.867188 29.25 C 14.867188 28.585938 14.328125 28.046875 13.664062 28.046875 C 12.996094 28.046875 12.457031 28.585938 12.457031 29.25 C 12.457031 29.917969 12.996094 30.457031 13.664062 30.457031 C 14.328125 30.457031 14.867188 29.917969 14.867188 29.25 Z M 14.867188 29.25 "/>
<path fill-rule="nonzero" fill="rgb(0%, 0%, 100%)" fill-opacity="1" d="M 14.867188 13.660156 C 14.867188 12.996094 14.328125 12.453125 13.664062 12.453125 C 12.996094 12.453125 12.457031 12.996094 12.457031 13.660156 C 12.457031 14.324219 12.996094 14.867188 13.664062 14.867188 C 14.328125 14.867188 14.867188 14.324219 14.867188 13.660156 Z M 14.867188 13.660156 "/>
<path fill-rule="nonzero" fill="rgb(0%, 0%, 100%)" fill-opacity="1" d="M 30.460938 138.386719 C 30.460938 137.722656 29.917969 137.179688 29.253906 137.179688 C 28.589844 137.179688 28.046875 137.722656 28.046875 138.386719 C 28.046875 139.050781 28.589844 139.59375 29.253906 139.59375 C 29.917969 139.59375 30.460938 139.050781 30.460938 138.386719 Z M 30.460938 138.386719 "/>
<path fill-rule="nonzero" fill="rgb(0%, 0%, 100%)" fill-opacity="1" d="M 30.460938 122.796875 C 30.460938 122.128906 29.917969 121.589844 29.253906 121.589844 C 28.589844 121.589844 28.046875 122.128906 28.046875 122.796875 C 28.046875 123.460938 28.589844 124 29.253906 124 C 29.917969 124 30.460938 123.460938 30.460938 122.796875 Z M 30.460938 122.796875 "/>
<path fill-rule="nonzero" fill="rgb(0%, 0%, 100%)" fill-opacity="1" d="M 30.460938 107.207031 C 30.460938 106.539062 29.917969 106 29.253906 106 C 28.589844 106 28.046875 106.539062 28.046875 107.207031 C 28.046875 107.871094 28.589844 108.410156 29.253906 108.410156 C 29.917969 108.410156 30.460938 107.871094 30.460938 107.207031 Z M 30.460938 107.207031 "/>
<path fill-rule="nonzero" fill="rgb(0%, 0%, 100%)" fill-opacity="1" d="M 30.460938 91.613281 C 30.460938 90.949219 29.917969 90.410156 29.253906 90.410156 C 28.589844 90.410156 28.046875 90.949219 28.046875 91.613281 C 28.046875 92.28125 28.589844 92.820312 29.253906 92.820312 C 29.917969 92.820312 30.460938 92.28125 30.460938 91.613281 Z M 30.460938 91.613281 "/>
<path fill-rule="nonzero" fill="rgb(0%, 0%, 100%)" fill-opacity="1" d="M 30.460938 76.023438 C 30.460938 75.359375 29.917969 74.816406 29.253906 74.816406 C 28.589844 74.816406 28.046875 75.359375 28.046875 76.023438 C 28.046875 76.6875 28.589844 77.230469 29.253906 77.230469 C 29.917969 77.230469 30.460938 76.6875 30.460938 76.023438 Z M 30.460938 76.023438 "/>
<path fill-rule="nonzero" fill="rgb(0%, 0%, 100%)" fill-opacity="1" d="M 30.460938 60.433594 C 30.460938 59.765625 29.917969 59.226562 29.253906 59.226562 C 28.589844 59.226562 28.046875 59.765625 28.046875 60.433594 C 28.046875 61.097656 28.589844 61.636719 29.253906 61.636719 C 29.917969 61.636719 30.460938 61.097656 30.460938 60.433594 Z M 30.460938 60.433594 "/>
<path fill-rule="nonzero" fill="rgb(0%, 0%, 100%)" fill-opacity="1" d="M 30.460938 44.84375 C 30.460938 44.175781 29.917969 43.636719 29.253906 43.636719 C 28.589844 43.636719 28.046875 44.175781 28.046875 44.84375 C 28.046875 45.507812 28.589844 46.046875 29.253906 46.046875 C 29.917969 46.046875 30.460938 45.507812 30.460938 44.84375 Z M 30.460938 44.84375 "/>
<path fill-rule="nonzero" fill="rgb(0%, 0%, 100%)" fill-opacity="1" d="M 30.460938 29.25 C 30.460938 28.585938 29.917969 28.046875 29.253906 28.046875 C 28.589844 28.046875 28.046875 28.585938 28.046875 29.25 C 28.046875 29.917969 28.589844 30.457031 29.253906 30.457031 C 29.917969 30.457031 30.460938 29.917969 30.460938 29.25 Z M 30.460938 29.25 "/>
<path fill-rule="nonzero" fill="rgb(0%, 0%, 100%)" fill-opacity="1" d="M 30.460938 13.660156 C 30.460938 12.996094 29.917969 12.453125 29.253906 12.453125 C 28.589844 12.453125 28.046875 12.996094 28.046875 13.660156 C 28.046875 14.324219 28.589844 14.867188 29.253906 14.867188 C 29.917969 14.867188 30.460938 14.324219 30.460938 13.660156 Z M 30.460938 13.660156 "/>
<path fill-rule="nonzero" fill="rgb(0%, 0%, 100%)" fill-opacity="1" d="M 46.050781 138.386719 C 46.050781 137.722656 45.511719 137.179688 44.84375 137.179688 C 44.179688 137.179688 43.640625 137.722656 43.640625 138.386719 C 43.640625 139.050781 44.179688 139.59375 44.84375 139.59375 C 45.511719 139.59375 46.050781 139.050781 46.050781 138.386719 Z M 46.050781 138.386719 "/>
<path fill-rule="nonzero" fill="rgb(0%, 0%, 100%)" fill-opacity="1" d="M 46.050781 122.796875 C 46.050781 122.128906 45.511719 121.589844 44.84375 121.589844 C 44.179688 121.589844 43.640625 122.128906 43.640625 122.796875 C 43.640625 123.460938 44.179688 124 44.84375 124 C 45.511719 124 46.050781 123.460938 46.050781 122.796875 Z M 46.050781 122.796875 "/>
<path fill-rule="nonzero" fill="rgb(0%, 0%, 100%)" fill-opacity="1" d="M 46.050781 107.207031 C 46.050781 106.539062 45.511719 106 44.84375 106 C 44.179688 106 43.640625 106.539062 43.640625 107.207031 C 43.640625 107.871094 44.179688 108.410156 44.84375 108.410156 C 45.511719 108.410156 46.050781 107.871094 46.050781 107.207031 Z M 46.050781 107.207031 "/>
<path fill-rule="nonzero" fill="rgb(0%, 0%, 100%)" fill-opacity="1" d="M 46.050781 91.613281 C 46.050781 90.949219 45.511719 90.410156 44.84375 90.410156 C 44.179688 90.410156 43.640625 90.949219 43.640625 91.613281 C 43.640625 92.28125 44.179688 92.820312 44.84375 92.820312 C 45.511719 92.820312 46.050781 92.28125 46.050781 91.613281 Z M 46.050781 91.613281 "/>
<path fill-rule="nonzero" fill="rgb(0%, 0%, 100%)" fill-opacity="1" d="M 46.050781 76.023438 C 46.050781 75.359375 45.511719 74.816406 44.84375 74.816406 C 44.179688 74.816406 43.640625 75.359375 43.640625 76.023438 C 43.640625 76.6875 44.179688 77.230469 44.84375 77.230469 C 45.511719 77.230469 46.050781 76.6875 46.050781 76.023438 Z M 46.050781 76.023438 "/>
<path fill-rule="nonzero" fill="rgb(0%, 0%, 100%)" fill-opacity="1" d="M 46.050781 60.433594 C 46.050781 59.765625 45.511719 59.226562 44.84375 59.226562 C 44.179688 59.226562 43.640625 59.765625 43.640625 60.433594 C 43.640625 61.097656 44.179688 61.636719 44.84375 61.636719 C 45.511719 61.636719 46.050781 61.097656 46.050781 60.433594 Z M 46.050781 60.433594 "/>
<path fill-rule="nonzero" fill="rgb(0%, 0%, 100%)" fill-opacity="1" d="M 46.050781 44.84375 C 46.050781 44.175781 45.511719 43.636719 44.84375 43.636719 C 44.179688 43.636719 43.640625 44.175781 43.640625 44.84375 C 43.640625 45.507812 44.179688 46.046875 44.84375 46.046875 C 45.511719 46.046875 46.050781 45.507812 46.050781 44.84375 Z M 46.050781 44.84375 "/>
<path fill-rule="nonzero" fill="rgb(0%, 0%, 100%)" fill-opacity="1" d="M 46.050781 29.25 C 46.050781 28.585938 45.511719 28.046875 44.84375 28.046875 C 44.179688 28.046875 43.640625 28.585938 43.640625 29.25 C 43.640625 29.917969 44.179688 30.457031 44.84375 30.457031 C 45.511719 30.457031 46.050781 29.917969 46.050781 29.25 Z M 46.050781 29.25 "/>
<path fill-rule="nonzero" fill="rgb(0%, 0%, 100%)" fill-opacity="1" d="M 46.050781 13.660156 C 46.050781 12.996094 45.511719 12.453125 44.84375 12.453125 C 44.179688 12.453125 43.640625 12.996094 43.640625 13.660156 C 43.640625 14.324219 44.179688 14.867188 44.84375 14.867188 C 45.511719 14.867188 46.050781 14.324219 46.050781 13.660156 Z M 46.050781 13.660156 "/>
<path fill-rule="nonzero" fill="rgb(0%, 0%, 100%)" fill-opacity="1" d="M 61.640625 138.386719 C 61.640625 137.722656 61.101562 137.179688 60.433594 137.179688 C 59.769531 137.179688 59.230469 137.722656 59.230469 138.386719 C 59.230469 139.050781 59.769531 139.59375 60.433594 139.59375 C 61.101562 139.59375 61.640625 139.050781 61.640625 138.386719 Z M 61.640625 138.386719 "/>
<path fill-rule="nonzero" fill="rgb(0%, 0%, 100%)" fill-opacity="1" d="M 61.640625 122.796875 C 61.640625 122.128906 61.101562 121.589844 60.433594 121.589844 C 59.769531 121.589844 59.230469 122.128906 59.230469 122.796875 C 59.230469 123.460938 59.769531 124 60.433594 124 C 61.101562 124 61.640625 123.460938 61.640625 122.796875 Z M 61.640625 122.796875 "/>
<path fill-rule="nonzero" fill="rgb(0%, 0%, 100%)" fill-opacity="1" d="M 61.640625 107.207031 C 61.640625 106.539062 61.101562 106 60.433594 106 C 59.769531 106 59.230469 106.539062 59.230469 107.207031 C 59.230469 107.871094 59.769531 108.410156 60.433594 108.410156 C 61.101562 108.410156 61.640625 107.871094 61.640625 107.207031 Z M 61.640625 107.207031 "/>
<path fill-rule="nonzero" fill="rgb(0%, 0%, 100%)" fill-opacity="1" d="M 61.640625 91.613281 C 61.640625 90.949219 61.101562 90.410156 60.433594 90.410156 C 59.769531 90.410156 59.230469 90.949219 59.230469 91.613281 C 59.230469 92.28125 59.769531 92.820312 60.433594 92.820312 C 61.101562 92.820312 61.640625 92.28125 61.640625 91.613281 Z M 61.640625 91.613281 "/>
<path fill-rule="nonzero" fill="rgb(0%, 0%, 100%)" fill-opacity="1" d="M 61.640625 76.023438 C 61.640625 75.359375 61.101562 74.816406 60.433594 74.816406 C 59.769531 74.816406 59.230469 75.359375 59.230469 76.023438 C 59.230469 76.6875 59.769531 77.230469 60.433594 77.230469 C 61.101562 77.230469 61.640625 76.6875 61.640625 76.023438 Z M 61.640625 76.023438 "/>
<path fill-rule="nonzero" fill="rgb(0%, 0%, 100%)" fill-opacity="1" d="M 61.640625 60.433594 C 61.640625 59.765625 61.101562 59.226562 60.433594 59.226562 C 59.769531 59.226562 59.230469 59.765625 59.230469 60.433594 C 59.230469 61.097656 59.769531 61.636719 60.433594 61.636719 C 61.101562 61.636719 61.640625 61.097656 61.640625 60.433594 Z M 61.640625 60.433594 "/>
<path fill-rule="nonzero" fill="rgb(0%, 0%, 100%)" fill-opacity="1" d="M 61.640625 44.84375 C 61.640625 44.175781 61.101562 43.636719 60.433594 43.636719 C 59.769531 43.636719 59.230469 44.175781 59.230469 44.84375 C 59.230469 45.507812 59.769531 46.046875 60.433594 46.046875 C 61.101562 46.046875 61.640625 45.507812 61.640625 44.84375 Z M 61.640625 44.84375 "/>
<path fill-rule="nonzero" fill="rgb(0%, 0%, 100%)" fill-opacity="1" d="M 61.640625 29.25 C 61.640625 28.585938 61.101562 28.046875 60.433594 28.046875 C 59.769531 28.046875 59.230469 28.585938 59.230469 29.25 C 59.230469 29.917969 59.769531 30.457031 60.433594 30.457031 C 61.101562 30.457031 61.640625 29.917969 61.640625 29.25 Z M 61.640625 29.25 "/>
<path fill-rule="nonzero" fill="rgb(0%, 0%, 100%)" fill-opacity="1" d="M 61.640625 13.660156 C 61.640625 12.996094 61.101562 12.453125 60.433594 12.453125 C 59.769531 12.453125 59.230469 12.996094 59.230469 13.660156 C 59.230469 14.324219 59.769531 14.867188 60.433594 14.867188 C 61.101562 14.867188 61.640625 14.324219 61.640625 13.660156 Z M 61.640625 13.660156 "/>
<path fill-rule="nonzero" fill="rgb(0%, 0%, 100%)" fill-opacity="1" d="M 77.230469 138.386719 C 77.230469 137.722656 76.691406 137.179688 76.027344 137.179688 C 75.359375 137.179688 74.820312 137.722656 74.820312 138.386719 C 74.820312 139.050781 75.359375 139.59375 76.027344 139.59375 C 76.691406 139.59375 77.230469 139.050781 77.230469 138.386719 Z M 77.230469 138.386719 "/>
<path fill-rule="nonzero" fill="rgb(0%, 0%, 100%)" fill-opacity="1" d="M 77.230469 122.796875 C 77.230469 122.128906 76.691406 121.589844 76.027344 121.589844 C 75.359375 121.589844 74.820312 122.128906 74.820312 122.796875 C 74.820312 123.460938 75.359375 124 76.027344 124 C 76.691406 124 77.230469 123.460938 77.230469 122.796875 Z M 77.230469 122.796875 "/>
<path fill-rule="nonzero" fill="rgb(0%, 0%, 100%)" fill-opacity="1" d="M 77.230469 107.207031 C 77.230469 106.539062 76.691406 106 76.027344 106 C 75.359375 106 74.820312 106.539062 74.820312 107.207031 C 74.820312 107.871094 75.359375 108.410156 76.027344 108.410156 C 76.691406 108.410156 77.230469 107.871094 77.230469 107.207031 Z M 77.230469 107.207031 "/>
<path fill-rule="nonzero" fill="rgb(0%, 0%, 100%)" fill-opacity="1" d="M 77.230469 91.613281 C 77.230469 90.949219 76.691406 90.410156 76.027344 90.410156 C 75.359375 90.410156 74.820312 90.949219 74.820312 91.613281 C 74.820312 92.28125 75.359375 92.820312 76.027344 92.820312 C 76.691406 92.820312 77.230469 92.28125 77.230469 91.613281 Z M 77.230469 91.613281 "/>
<path fill-rule="nonzero" fill="rgb(0%, 0%, 100%)" fill-opacity="1" d="M 77.230469 76.023438 C 77.230469 75.359375 76.691406 74.816406 76.027344 74.816406 C 75.359375 74.816406 74.820312 75.359375 74.820312 76.023438 C 74.820312 76.6875 75.359375 77.230469 76.027344 77.230469 C 76.691406 77.230469 77.230469 76.6875 77.230469 76.023438 Z M 77.230469 76.023438 "/>
<path fill-rule="nonzero" fill="rgb(0%, 0%, 100%)" fill-opacity="1" d="M 77.230469 60.433594 C 77.230469 59.765625 76.691406 59.226562 76.027344 59.226562 C 75.359375 59.226562 74.820312 59.765625 74.820312 60.433594 C 74.820312 61.097656 75.359375 61.636719 76.027344 61.636719 C 76.691406 61.636719 77.230469 61.097656 77.230469 60.433594 Z M 77.230469 60.433594 "/>
<path fill-rule="nonzero" fill="rgb(0%, 0%, 100%)" fill-opacity="1" d="M 77.230469 44.84375 C 77.230469 44.175781 76.691406 43.636719 76.027344 43.636719 C 75.359375 43.636719 74.820312 44.175781 74.820312 44.84375 C 74.820312 45.507812 75.359375 46.046875 76.027344 46.046875 C 76.691406 46.046875 77.230469 45.507812 77.230469 44.84375 Z M 77.230469 44.84375 "/>
<path fill-rule="nonzero" fill="rgb(0%, 0%, 100%)" fill-opacity="1" d="M 77.230469 29.25 C 77.230469 28.585938 76.691406 28.046875 76.027344 28.046875 C 75.359375 28.046875 74.820312 28.585938 74.820312 29.25 C 74.820312 29.917969 75.359375 30.457031 76.027344 30.457031 C 76.691406 30.457031 77.230469 29.917969 77.230469 29.25 Z M 77.230469 29.25 "/>
<path fill-rule="nonzero" fill="rgb(0%, 0%, 100%)" fill-opacity="1" d="M 77.230469 13.660156 C 77.230469 12.996094 76.691406 12.453125 76.027344 12.453125 C 75.359375 12.453125 74.820312 12.996094 74.820312 13.660156 C 74.820312 14.324219 75.359375 14.867188 76.027344 14.867188 C 76.691406 14.867188 77.230469 14.324219 77.230469 13.660156 Z M 77.230469 13.660156 "/>
<path fill-rule="nonzero" fill="rgb(0%, 0%, 100%)" fill-opacity="1" d="M 92.824219 138.386719 C 92.824219 137.722656 92.28125 137.179688 91.617188 137.179688 C 90.953125 137.179688 90.410156 137.722656 90.410156 138.386719 C 90.410156 139.050781 90.953125 139.59375 91.617188 139.59375 C 92.28125 139.59375 92.824219 139.050781 92.824219 138.386719 Z M 92.824219 138.386719 "/>
<path fill-rule="nonzero" fill="rgb(0%, 0%, 100%)" fill-opacity="1" d="M 92.824219 122.796875 C 92.824219 122.128906 92.28125 121.589844 91.617188 121.589844 C 90.953125 121.589844 90.410156 122.128906 90.410156 122.796875 C 90.410156 123.460938 90.953125 124 91.617188 124 C 92.28125 124 92.824219 123.460938 92.824219 122.796875 Z M 92.824219 122.796875 "/>
<path fill-rule="nonzero" fill="rgb(0%, 0%, 100%)" fill-opacity="1" d="M 92.824219 107.207031 C 92.824219 106.539062 92.28125 106 91.617188 106 C 90.953125 106 90.410156 106.539062 90.410156 107.207031 C 90.410156 107.871094 90.953125 108.410156 91.617188 108.410156 C 92.28125 108.410156 92.824219 107.871094 92.824219 107.207031 Z M 92.824219 107.207031 "/>
<path fill-rule="nonzero" fill="rgb(0%, 0%, 100%)" fill-opacity="1" d="M 92.824219 91.613281 C 92.824219 90.949219 92.28125 90.410156 91.617188 90.410156 C 90.953125 90.410156 90.410156 90.949219 90.410156 91.613281 C 90.410156 92.28125 90.953125 92.820312 91.617188 92.820312 C 92.28125 92.820312 92.824219 92.28125 92.824219 91.613281 Z M 92.824219 91.613281 "/>
<path fill-rule="nonzero" fill="rgb(0%, 0%, 100%)" fill-opacity="1" d="M 92.824219 76.023438 C 92.824219 75.359375 92.28125 74.816406 91.617188 74.816406 C 90.953125 74.816406 90.410156 75.359375 90.410156 76.023438 C 90.410156 76.6875 90.953125 77.230469 91.617188 77.230469 C 92.28125 77.230469 92.824219 76.6875 92.824219 76.023438 Z M 92.824219 76.023438 "/>
<path fill-rule="nonzero" fill="rgb(0%, 0%, 100%)" fill-opacity="1" d="M 92.824219 60.433594 C 92.824219 59.765625 92.28125 59.226562 91.617188 59.226562 C 90.953125 59.226562 90.410156 59.765625 90.410156 60.433594 C 90.410156 61.097656 90.953125 61.636719 91.617188 61.636719 C 92.28125 61.636719 92.824219 61.097656 92.824219 60.433594 Z M 92.824219 60.433594 "/>
<path fill-rule="nonzero" fill="rgb(0%, 0%, 100%)" fill-opacity="1" d="M 92.824219 44.84375 C 92.824219 44.175781 92.28125 43.636719 91.617188 43.636719 C 90.953125 43.636719 90.410156 44.175781 90.410156 44.84375 C 90.410156 45.507812 90.953125 46.046875 91.617188 46.046875 C 92.28125 46.046875 92.824219 45.507812 92.824219 44.84375 Z M 92.824219 44.84375 "/>
<path fill-rule="nonzero" fill="rgb(0%, 0%, 100%)" fill-opacity="1" d="M 92.824219 29.25 C 92.824219 28.585938 92.28125 28.046875 91.617188 28.046875 C 90.953125 28.046875 90.410156 28.585938 90.410156 29.25 C 90.410156 29.917969 90.953125 30.457031 91.617188 30.457031 C 92.28125 30.457031 92.824219 29.917969 92.824219 29.25 Z M 92.824219 29.25 "/>
<path fill-rule="nonzero" fill="rgb(0%, 0%, 100%)" fill-opacity="1" d="M 92.824219 13.660156 C 92.824219 12.996094 92.28125 12.453125 91.617188 12.453125 C 90.953125 12.453125 90.410156 12.996094 90.410156 13.660156 C 90.410156 14.324219 90.953125 14.867188 91.617188 14.867188 C 92.28125 14.867188 92.824219 14.324219 92.824219 13.660156 Z M 92.824219 13.660156 "/>
<path fill-rule="nonzero" fill="rgb(0%, 0%, 100%)" fill-opacity="1" d="M 108.414062 138.386719 C 108.414062 137.722656 107.875 137.179688 107.207031 137.179688 C 106.542969 137.179688 106.003906 137.722656 106.003906 138.386719 C 106.003906 139.050781 106.542969 139.59375 107.207031 139.59375 C 107.875 139.59375 108.414062 139.050781 108.414062 138.386719 Z M 108.414062 138.386719 "/>
<path fill-rule="nonzero" fill="rgb(0%, 0%, 100%)" fill-opacity="1" d="M 108.414062 122.796875 C 108.414062 122.128906 107.875 121.589844 107.207031 121.589844 C 106.542969 121.589844 106.003906 122.128906 106.003906 122.796875 C 106.003906 123.460938 106.542969 124 107.207031 124 C 107.875 124 108.414062 123.460938 108.414062 122.796875 Z M 108.414062 122.796875 "/>
<path fill-rule="nonzero" fill="rgb(0%, 0%, 100%)" fill-opacity="1" d="M 108.414062 107.207031 C 108.414062 106.539062 107.875 106 107.207031 106 C 106.542969 106 106.003906 106.539062 106.003906 107.207031 C 106.003906 107.871094 106.542969 108.410156 107.207031 108.410156 C 107.875 108.410156 108.414062 107.871094 108.414062 107.207031 Z M 108.414062 107.207031 "/>
<path fill-rule="nonzero" fill="rgb(0%, 0%, 100%)" fill-opacity="1" d="M 108.414062 91.613281 C 108.414062 90.949219 107.875 90.410156 107.207031 90.410156 C 106.542969 90.410156 106.003906 90.949219 106.003906 91.613281 C 106.003906 92.28125 106.542969 92.820312 107.207031 92.820312 C 107.875 92.820312 108.414062 92.28125 108.414062 91.613281 Z M 108.414062 91.613281 "/>
<path fill-rule="nonzero" fill="rgb(0%, 0%, 100%)" fill-opacity="1" d="M 108.414062 76.023438 C 108.414062 75.359375 107.875 74.816406 107.207031 74.816406 C 106.542969 74.816406 106.003906 75.359375 106.003906 76.023438 C 106.003906 76.6875 106.542969 77.230469 107.207031 77.230469 C 107.875 77.230469 108.414062 76.6875 108.414062 76.023438 Z M 108.414062 76.023438 "/>
<path fill-rule="nonzero" fill="rgb(0%, 0%, 100%)" fill-opacity="1" d="M 108.414062 60.433594 C 108.414062 59.765625 107.875 59.226562 107.207031 59.226562 C 106.542969 59.226562 106.003906 59.765625 106.003906 60.433594 C 106.003906 61.097656 106.542969 61.636719 107.207031 61.636719 C 107.875 61.636719 108.414062 61.097656 108.414062 60.433594 Z M 108.414062 60.433594 "/>
<path fill-rule="nonzero" fill="rgb(0%, 0%, 100%)" fill-opacity="1" d="M 108.414062 44.84375 C 108.414062 44.175781 107.875 43.636719 107.207031 43.636719 C 106.542969 43.636719 106.003906 44.175781 106.003906 44.84375 C 106.003906 45.507812 106.542969 46.046875 107.207031 46.046875 C 107.875 46.046875 108.414062 45.507812 108.414062 44.84375 Z M 108.414062 44.84375 "/>
<path fill-rule="nonzero" fill="rgb(0%, 0%, 100%)" fill-opacity="1" d="M 108.414062 29.25 C 108.414062 28.585938 107.875 28.046875 107.207031 28.046875 C 106.542969 28.046875 106.003906 28.585938 106.003906 29.25 C 106.003906 29.917969 106.542969 30.457031 107.207031 30.457031 C 107.875 30.457031 108.414062 29.917969 108.414062 29.25 Z M 108.414062 29.25 "/>
<path fill-rule="nonzero" fill="rgb(0%, 0%, 100%)" fill-opacity="1" d="M 108.414062 13.660156 C 108.414062 12.996094 107.875 12.453125 107.207031 12.453125 C 106.542969 12.453125 106.003906 12.996094 106.003906 13.660156 C 106.003906 14.324219 106.542969 14.867188 107.207031 14.867188 C 107.875 14.867188 108.414062 14.324219 108.414062 13.660156 Z M 108.414062 13.660156 "/>
<path fill-rule="nonzero" fill="rgb(0%, 0%, 100%)" fill-opacity="1" d="M 124.003906 138.386719 C 124.003906 137.722656 123.464844 137.179688 122.796875 137.179688 C 122.132812 137.179688 121.59375 137.722656 121.59375 138.386719 C 121.59375 139.050781 122.132812 139.59375 122.796875 139.59375 C 123.464844 139.59375 124.003906 139.050781 124.003906 138.386719 Z M 124.003906 138.386719 "/>
<path fill-rule="nonzero" fill="rgb(0%, 0%, 100%)" fill-opacity="1" d="M 124.003906 122.796875 C 124.003906 122.128906 123.464844 121.589844 122.796875 121.589844 C 122.132812 121.589844 121.59375 122.128906 121.59375 122.796875 C 121.59375 123.460938 122.132812 124 122.796875 124 C 123.464844 124 124.003906 123.460938 124.003906 122.796875 Z M 124.003906 122.796875 "/>
<path fill-rule="nonzero" fill="rgb(0%, 0%, 100%)" fill-opacity="1" d="M 124.003906 107.207031 C 124.003906 106.539062 123.464844 106 122.796875 106 C 122.132812 106 121.59375 106.539062 121.59375 107.207031 C 121.59375 107.871094 122.132812 108.410156 122.796875 108.410156 C 123.464844 108.410156 124.003906 107.871094 124.003906 107.207031 Z M 124.003906 107.207031 "/>
<path fill-rule="nonzero" fill="rgb(0%, 0%, 100%)" fill-opacity="1" d="M 124.003906 91.613281 C 124.003906 90.949219 123.464844 90.410156 122.796875 90.410156 C 122.132812 90.410156 121.59375 90.949219 121.59375 91.613281 C 121.59375 92.28125 122.132812 92.820312 122.796875 92.820312 C 123.464844 92.820312 124.003906 92.28125 124.003906 91.613281 Z M 124.003906 91.613281 "/>
<path fill-rule="nonzero" fill="rgb(0%, 0%, 100%)" fill-opacity="1" d="M 124.003906 76.023438 C 124.003906 75.359375 123.464844 74.816406 122.796875 74.816406 C 122.132812 74.816406 121.59375 75.359375 121.59375 76.023438 C 121.59375 76.6875 122.132812 77.230469 122.796875 77.230469 C 123.464844 77.230469 124.003906 76.6875 124.003906 76.023438 Z M 124.003906 76.023438 "/>
<path fill-rule="nonzero" fill="rgb(0%, 0%, 100%)" fill-opacity="1" d="M 124.003906 60.433594 C 124.003906 59.765625 123.464844 59.226562 122.796875 59.226562 C 122.132812 59.226562 121.59375 59.765625 121.59375 60.433594 C 121.59375 61.097656 122.132812 61.636719 122.796875 61.636719 C 123.464844 61.636719 124.003906 61.097656 124.003906 60.433594 Z M 124.003906 60.433594 "/>
<path fill-rule="nonzero" fill="rgb(0%, 0%, 100%)" fill-opacity="1" d="M 124.003906 44.84375 C 124.003906 44.175781 123.464844 43.636719 122.796875 43.636719 C 122.132812 43.636719 121.59375 44.175781 121.59375 44.84375 C 121.59375 45.507812 122.132812 46.046875 122.796875 46.046875 C 123.464844 46.046875 124.003906 45.507812 124.003906 44.84375 Z M 124.003906 44.84375 "/>
<path fill-rule="nonzero" fill="rgb(0%, 0%, 100%)" fill-opacity="1" d="M 124.003906 29.25 C 124.003906 28.585938 123.464844 28.046875 122.796875 28.046875 C 122.132812 28.046875 121.59375 28.585938 121.59375 29.25 C 121.59375 29.917969 122.132812 30.457031 122.796875 30.457031 C 123.464844 30.457031 124.003906 29.917969 124.003906 29.25 Z M 124.003906 29.25 "/>
<path fill-rule="nonzero" fill="rgb(0%, 0%, 100%)" fill-opacity="1" d="M 124.003906 13.660156 C 124.003906 12.996094 123.464844 12.453125 122.796875 12.453125 C 122.132812 12.453125 121.59375 12.996094 121.59375 13.660156 C 121.59375 14.324219 122.132812 14.867188 122.796875 14.867188 C 123.464844 14.867188 124.003906 14.324219 124.003906 13.660156 Z M 124.003906 13.660156 "/>
<path fill-rule="nonzero" fill="rgb(0%, 0%, 100%)" fill-opacity="1" d="M 139.59375 138.386719 C 139.59375 137.722656 139.054688 137.179688 138.390625 137.179688 C 137.722656 137.179688 137.183594 137.722656 137.183594 138.386719 C 137.183594 139.050781 137.722656 139.59375 138.390625 139.59375 C 139.054688 139.59375 139.59375 139.050781 139.59375 138.386719 Z M 139.59375 138.386719 "/>
<path fill-rule="nonzero" fill="rgb(0%, 0%, 100%)" fill-opacity="1" d="M 139.59375 122.796875 C 139.59375 122.128906 139.054688 121.589844 138.390625 121.589844 C 137.722656 121.589844 137.183594 122.128906 137.183594 122.796875 C 137.183594 123.460938 137.722656 124 138.390625 124 C 139.054688 124 139.59375 123.460938 139.59375 122.796875 Z M 139.59375 122.796875 "/>
<path fill-rule="nonzero" fill="rgb(0%, 0%, 100%)" fill-opacity="1" d="M 139.59375 107.207031 C 139.59375 106.539062 139.054688 106 138.390625 106 C 137.722656 106 137.183594 106.539062 137.183594 107.207031 C 137.183594 107.871094 137.722656 108.410156 138.390625 108.410156 C 139.054688 108.410156 139.59375 107.871094 139.59375 107.207031 Z M 139.59375 107.207031 "/>
<path fill-rule="nonzero" fill="rgb(0%, 0%, 100%)" fill-opacity="1" d="M 139.59375 91.613281 C 139.59375 90.949219 139.054688 90.410156 138.390625 90.410156 C 137.722656 90.410156 137.183594 90.949219 137.183594 91.613281 C 137.183594 92.28125 137.722656 92.820312 138.390625 92.820312 C 139.054688 92.820312 139.59375 92.28125 139.59375 91.613281 Z M 139.59375 91.613281 "/>
<path fill-rule="nonzero" fill="rgb(0%, 0%, 100%)" fill-opacity="1" d="M 139.59375 76.023438 C 139.59375 75.359375 139.054688 74.816406 138.390625 74.816406 C 137.722656 74.816406 137.183594 75.359375 137.183594 76.023438 C 137.183594 76.6875 137.722656 77.230469 138.390625 77.230469 C 139.054688 77.230469 139.59375 76.6875 139.59375 76.023438 Z M 139.59375 76.023438 "/>
<path fill-rule="nonzero" fill="rgb(0%, 0%, 100%)" fill-opacity="1" d="M 139.59375 60.433594 C 139.59375 59.765625 139.054688 59.226562 138.390625 59.226562 C 137.722656 59.226562 137.183594 59.765625 137.183594 60.433594 C 137.183594 61.097656 137.722656 61.636719 138.390625 61.636719 C 139.054688 61.636719 139.59375 61.097656 139.59375 60.433594 Z M 139.59375 60.433594 "/>
<path fill-rule="nonzero" fill="rgb(0%, 0%, 100%)" fill-opacity="1" d="M 139.59375 44.84375 C 139.59375 44.175781 139.054688 43.636719 138.390625 43.636719 C 137.722656 43.636719 137.183594 44.175781 137.183594 44.84375 C 137.183594 45.507812 137.722656 46.046875 138.390625 46.046875 C 139.054688 46.046875 139.59375 45.507812 139.59375 44.84375 Z M 139.59375 44.84375 "/>
<path fill-rule="nonzero" fill="rgb(0%, 0%, 100%)" fill-opacity="1" d="M 139.59375 29.25 C 139.59375 28.585938 139.054688 28.046875 138.390625 28.046875 C 137.722656 28.046875 137.183594 28.585938 137.183594 29.25 C 137.183594 29.917969 137.722656 30.457031 138.390625 30.457031 C 139.054688 30.457031 139.59375 29.917969 139.59375 29.25 Z M 139.59375 29.25 "/>
<path fill-rule="nonzero" fill="rgb(0%, 0%, 100%)" fill-opacity="1" d="M 139.59375 13.660156 C 139.59375 12.996094 139.054688 12.453125 138.390625 12.453125 C 137.722656 12.453125 137.183594 12.996094 137.183594 13.660156 C 137.183594 14.324219 137.722656 14.867188 138.390625 14.867188 C 139.054688 14.867188 139.59375 14.324219 139.59375 13.660156 Z M 139.59375 13.660156 "/>
<path fill-rule="nonzero" fill="rgb(100%, 0%, 0%)" fill-opacity="1" d="M 113.308594 124.355469 C 113.308594 123.570312 112.671875 122.929688 111.886719 122.929688 C 111.097656 122.929688 110.460938 123.570312 110.460938 124.355469 C 110.460938 125.140625 111.097656 125.78125 111.886719 125.78125 C 112.671875 125.78125 113.308594 125.140625 113.308594 124.355469 Z M 113.308594 124.355469 "/>
<path fill="none" stroke-width="0.3985" stroke-linecap="butt" stroke-linejoin="miter" stroke="rgb(0%, 0%, 0%)" stroke-opacity="1" stroke-miterlimit="10" d="M -70.159153 0.0002025 L 69.700222 0.0002025 " transform="matrix(1, 0, 0, -1, 76.02634, 76.02364)"/>
<path fill="none" stroke-width="0.31879" stroke-linecap="round" stroke-linejoin="round" stroke="rgb(0%, 0%, 0%)" stroke-opacity="1" stroke-miterlimit="10" d="M -1.19553 1.593953 C -1.093968 0.996296 -0.0002175 0.0978588 0.300564 0.0002025 C -0.0002175 -0.10136 -1.093968 -0.995891 -1.19553 -1.593547 " transform="matrix(1, 0, 0, -1, 145.72678, 76.02364)"/>
<path fill="none" stroke-width="0.3985" stroke-linecap="butt" stroke-linejoin="miter" stroke="rgb(0%, 0%, 0%)" stroke-opacity="1" stroke-miterlimit="10" d="M 0.00100375 -70.159954 L 0.00100375 69.699421 " transform="matrix(1, 0, 0, -1, 76.02634, 76.02364)"/>
<path fill="none" stroke-width="0.31879" stroke-linecap="round" stroke-linejoin="round" stroke="rgb(0%, 0%, 0%)" stroke-opacity="1" stroke-miterlimit="10" d="M -1.196331 1.592746 C -1.094769 0.99509 -0.00101875 0.100559 0.299763 -0.00100375 C -0.00101875 -0.09866 -1.094769 -0.997097 -1.196331 -1.594754 " transform="matrix(0, -1, -1, 0, 76.02634, 6.3232)"/>
</svg>
