<?xml version="1.0" encoding="UTF-8"?>
<svg xmlns="http://www.w3.org/2000/svg" xmlns:xlink="http://www.w3.org/1999/xlink" width="152.05pt" height="152.05pt" viewBox="0 0 152.05 152.05">
<path fill-rule="nonzero" fill="rgb(0%, 0%, 100%)" fill-opacity="1" d="M 16.425781 133.707031 C 16.425781 133.042969 15.886719 132.503906 15.222656 132.503906 C 14.554688 132.503906 14.015625 133.042969 14.015625 133.707031 C 14.015625 134.375 14.554688 134.914062 15.222656 134.914062 C 15.886719 134.914062 16.425781 134.375 16.425781 133.707031 Z M 16.425781 133.707031 "/>
<path fill-rule="nonzero" fill="rgb(0%, 0%, 100%)" fill-opacity="1" d="M 21.105469 135.269531 C 21.105469 134.601562 20.566406 134.0625 19.898438 134.0625 C 19.234375 134.0625 18.691406 134.601562 18.691406 135.269531 C 18.691406 135.933594 19.234375 136.472656 19.898438 136.472656 C 20.566406 136.472656 21.105469 135.933594 21.105469 135.269531 Z M 21.105469 135.269531 "/>
<path fill-rule="nonzero" fill="rgb(0%, 0%, 100%)" fill-opacity="1" d="M 25.78125 136.828125 C 25.78125 136.160156 25.242188 135.621094 24.574219 135.621094 C 23.910156 135.621094 23.371094 136.160156 23.371094 136.828125 C 23.371094 137.492188 23.910156 138.03125 24.574219 138.03125 C 25.242188 138.03125 25.78125 137.492188 25.78125 136.828125 Z M 25.78125 136.828125 "/>
<path fill-rule="nonzero" fill="rgb(0%, 0%, 100%)" fill-opacity="1" d="M 30.457031 138.386719 C 30.457031 137.71875 29.917969 137.179688 29.253906 137.179688 C 28.585938 137.179688 28.046875 137.71875 28.046875 138.386719 C 28.046875 139.050781 28.585938 139.589844 29.253906 139.589844 C 29.917969 139.589844 30.457031 139.050781 30.457031 138.386719 Z M 30.457031 138.386719 "/>
<path fill-rule="nonzero" fill="rgb(0%, 0%, 100%)" fill-opacity="1" d="M 35.136719 139.945312 C 35.136719 139.28125 34.597656 138.738281 33.929688 138.738281 C 33.265625 138.738281 32.726562 139.28125 32.726562 139.945312 C 32.726562 140.609375 33.265625 141.152344 33.929688 141.152344 C 34.597656 141.152344 35.136719 140.609375 35.136719 139.945312 Z M 35.136719 139.945312 "/>
<path fill-rule="nonzero" fill="rgb(0%, 0%, 100%)" fill-opacity="1" d="M 39.8125 141.503906 C 39.8125 140.839844 39.273438 140.300781 38.609375 140.300781 C 37.941406 140.300781 37.402344 140.839844 37.402344 141.503906 C 37.402344 142.171875 37.941406 142.710938 38.609375 142.710938 C 39.273438 142.710938 39.8125 142.171875 39.8125 141.503906 Z M 39.8125 141.503906 "/>
<path fill-rule="nonzero" fill="rgb(0%, 0%, 100%)" fill-opacity="1" d="M 16.425781 118.117188 C 16.425781 117.453125 15.886719 116.914062 15.222656 116.914062 C 14.554688 116.914062 14.015625 117.453125 14.015625 118.117188 C 14.015625 118.785156 14.554688 119.324219 15.222656 119.324219 C 15.886719 119.324219 16.425781 118.785156 16.425781 118.117188 Z M 16.425781 118.117188 "/>
<path fill-rule="nonzero" fill="rgb(0%, 0%, 100%)" fill-opacity="1" d="M 21.105469 119.675781 C 21.105469 119.011719 20.566406 118.472656 19.898438 118.472656 C 19.234375 118.472656 18.691406 119.011719 18.691406 119.675781 C 18.691406 120.34375 19.234375 120.882812 19.898438 120.882812 C 20.566406 120.882812 21.105469 120.34375 21.105469 119.675781 Z M 21.105469 119.675781 "/>
<path fill-rule="nonzero" fill="rgb(0%, 0%, 100%)" fill-opacity="1" d="M 25.78125 121.234375 C 25.78125 120.570312 25.242188 120.03125 24.574219 120.03125 C 23.910156 120.03125 23.371094 120.570312 23.371094 121.234375 C 23.371094 121.902344 23.910156 122.441406 24.574219 122.441406 C 25.242188 122.441406 25.78125 121.902344 25.78125 121.234375 Z M 25.78125 121.234375 "/>
<path fill-rule="nonzero" fill="rgb(0%, 0%, 100%)" fill-opacity="1" d="M 30.457031 122.796875 C 30.457031 122.128906 29.917969 121.589844 29.253906 121.589844 C 28.585938 121.589844 28.046875 122.128906 28.046875 122.796875 C 28.046875 123.460938 28.585938 124 29.253906 124 C 29.917969 124 30.457031 123.460938 30.457031 122.796875 Z M 30.457031 122.796875 "/>
<path fill-rule="nonzero" fill="rgb(0%, 0%, 100%)" fill-opacity="1" d="M 35.136719 124.355469 C 35.136719 123.6875 34.597656 123.148438 33.929688 123.148438 C 33.265625 123.148438 32.726562 123.6875 32.726562 124.355469 C 32.726562 125.019531 33.265625 125.558594 33.929688 125.558594 C 34.597656 125.558594 35.136719 125.019531 35.136719 124.355469 Z M 35.136719 124.355469 "/>
<path fill-rule="nonzero" fill="rgb(0%, 0%, 100%)" fill-opacity="1" d="M 39.8125 125.914062 C 39.8125 125.246094 39.273438 124.707031 38.609375 124.707031 C 37.941406 124.707031 37.402344 125.246094 37.402344 125.914062 C 37.402344 126.578125 37.941406 127.117188 38.609375 127.117188 C 39.273438 127.117188 39.8125 126.578125 39.8125 125.914062 Z M 39.8125 125.914062 "/>
<path fill-rule="nonzero" fill="rgb(0%, 0%, 100%)" fill-opacity="1" d="M 44.492188 127.472656 C 44.492188 126.808594 43.949219 126.265625 43.285156 126.265625 C 42.621094 126.265625 42.078125 126.808594 42.078125 127.472656 C 42.078125 128.136719 42.621094 128.679688 43.285156 128.679688 C 43.949219 128.679688 44.492188 128.136719 44.492188 127.472656 Z M 44.492188 127.472656 "/>
<path fill-rule="nonzero" fill="rgb(0%, 0%, 100%)" fill-opacity="1" d="M 49.167969 129.03125 C 49.167969 128.367188 48.628906 127.828125 47.960938 127.828125 C 47.296875 127.828125 46.757812 128.367188 46.757812 129.03125 C 46.757812 129.699219 47.296875 130.238281 47.960938 130.238281 C 48.628906 130.238281 49.167969 129.699219 49.167969 129.03125 Z M 49.167969 129.03125 "/>
<path fill-rule="nonzero" fill="rgb(0%, 0%, 100%)" fill-opacity="1" d="M 53.84375 130.589844 C 53.84375 129.925781 53.304688 129.386719 52.640625 129.386719 C 51.972656 129.386719 51.433594 129.925781 51.433594 130.589844 C 51.433594 131.257812 51.972656 131.796875 52.640625 131.796875 C 53.304688 131.796875 53.84375 131.257812 53.84375 130.589844 Z M 53.84375 130.589844 "/>
<path fill-rule="nonzero" fill="rgb(0%, 0%, 100%)" fill-opacity="1" d="M 58.523438 132.148438 C 58.523438 131.484375 57.984375 130.945312 57.316406 130.945312 C 56.652344 130.945312 56.113281 131.484375 56.113281 132.148438 C 56.113281 132.816406 56.652344 133.355469 57.316406 133.355469 C 57.984375 133.355469 58.523438 132.816406 58.523438 132.148438 Z M 58.523438 132.148438 "/>
<path fill-rule="nonzero" fill="rgb(0%, 0%, 100%)" fill-opacity="1" d="M 63.199219 133.710938 C 63.199219 133.042969 62.660156 132.503906 61.996094 132.503906 C 61.328125 132.503906 60.789062 133.042969 60.789062 133.710938 C 60.789062 134.375 61.328125 134.914062 61.996094 134.914062 C 62.660156 134.914062 63.199219 134.375 63.199219 133.710938 Z M 63.199219 133.710938 "/>
<path fill-rule="nonzero" fill="rgb(0%, 0%, 100%)" fill-opacity="1" d="M 67.878906 135.269531 C 67.878906 134.601562 67.335938 134.0625 66.671875 134.0625 C 66.007812 134.0625 65.464844 134.601562 65.464844 135.269531 C 65.464844 135.933594 66.007812 136.472656 66.671875 136.472656 C 67.335938 136.472656 67.878906 135.933594 67.878906 135.269531 Z M 67.878906 135.269531 "/>
<path fill-rule="nonzero" fill="rgb(0%, 0%, 100%)" fill-opacity="1" d="M 72.554688 136.828125 C 72.554688 136.160156 72.015625 135.621094 71.347656 135.621094 C 70.683594 135.621094 70.144531 136.160156 70.144531 136.828125 C 70.144531 137.492188 70.683594 138.035156 71.347656 138.035156 C 72.015625 138.035156 72.554688 137.492188 72.554688 136.828125 Z M 72.554688 136.828125 "/>
<path fill-rule="nonzero" fill="rgb(0%, 0%, 100%)" fill-opacity="1" d="M 77.230469 138.386719 C 77.230469 137.722656 76.691406 137.179688 76.027344 137.179688 C 75.359375 137.179688 74.820312 137.722656 74.820312 138.386719 C 74.820312 139.050781 75.359375 139.59375 76.027344 139.59375 C 76.691406 139.59375 77.230469 139.050781 77.230469 138.386719 Z M 77.230469 138.386719 "/>
<path fill-rule="nonzero" fill="rgb(0%, 0%, 100%)" fill-opacity="1" d="M 81.910156 139.945312 C 81.910156 139.28125 81.371094 138.742188 80.703125 138.742188 C 80.039062 138.742188 79.5 139.28125 79.5 139.945312 C 79.5 140.613281 80.039062 141.152344 80.703125 141.152344 C 81.371094 141.152344 81.910156 140.613281 81.910156 139.945312 Z M 81.910156 139.945312 "/>
<path fill-rule="nonzero" fill="rgb(0%, 0%, 100%)" fill-opacity="1" d="M 16.425781 102.527344 C 16.425781 101.859375 15.886719 101.320312 15.222656 101.320312 C 14.554688 101.320312 14.015625 101.859375 14.015625 102.527344 C 14.015625 103.191406 14.554688 103.730469 15.222656 103.730469 C 15.886719 103.730469 16.425781 103.191406 16.425781 102.527344 Z M 16.425781 102.527344 "/>
<path fill-rule="nonzero" fill="rgb(0%, 0%, 100%)" fill-opacity="1" d="M 21.105469 104.085938 C 21.105469 103.421875 20.566406 102.878906 19.898438 102.878906 C 19.234375 102.878906 18.691406 103.421875 18.691406 104.085938 C 18.691406 104.75 19.234375 105.292969 19.898438 105.292969 C 20.566406 105.292969 21.105469 104.75 21.105469 104.085938 Z M 21.105469 104.085938 "/>
<path fill-rule="nonzero" fill="rgb(0%, 0%, 100%)" fill-opacity="1" d="M 25.78125 105.644531 C 25.78125 104.980469 25.242188 104.441406 24.574219 104.441406 C 23.910156 104.441406 23.371094 104.980469 23.371094 105.644531 C 23.371094 106.3125 23.910156 106.851562 24.574219 106.851562 C 25.242188 106.851562 25.78125 106.3125 25.78125 105.644531 Z M 25.78125 105.644531 "/>
<path fill-rule="nonzero" fill="rgb(0%, 0%, 100%)" fill-opacity="1" d="M 30.457031 107.203125 C 30.457031 106.539062 29.917969 106 29.253906 106 C 28.585938 106 28.046875 106.539062 28.046875 107.203125 C 28.046875 107.871094 28.585938 108.410156 29.253906 108.410156 C 29.917969 108.410156 30.457031 107.871094 30.457031 107.203125 Z M 30.457031 107.203125 "/>
<path fill-rule="nonzero" fill="rgb(0%, 0%, 100%)" fill-opacity="1" d="M 35.136719 108.761719 C 35.136719 108.097656 34.597656 107.558594 33.929688 107.558594 C 33.265625 107.558594 32.726562 108.097656 32.726562 108.761719 C 32.726562 109.429688 33.265625 109.96875 33.929688 109.96875 C 34.597656 109.96875 35.136719 109.429688 35.136719 108.761719 Z M 35.136719 108.761719 "/>
<path fill-rule="nonzero" fill="rgb(0%, 0%, 100%)" fill-opacity="1" d="M 39.8125 110.324219 C 39.8125 109.65625 39.273438 109.117188 38.609375 109.117188 C 37.941406 109.117188 37.402344 109.65625 37.402344 110.324219 C 37.402344 110.988281 37.941406 111.527344 38.609375 111.527344 C 39.273438 111.527344 39.8125 110.988281 39.8125 110.324219 Z M 39.8125 110.324219 "/>
<path fill-rule="nonzero" fill="rgb(0%, 0%, 100%)" fill-opacity="1" d="M 44.492188 111.882812 C 44.492188 111.214844 43.949219 110.675781 43.285156 110.675781 C 42.621094 110.675781 42.078125 111.214844 42.078125 111.882812 C 42.078125 112.546875 42.621094 113.085938 43.285156 113.085938 C 43.949219 113.085938 44.492188 112.546875 44.492188 111.882812 Z M 44.492188 111.882812 "/>
<path fill-rule="nonzero" fill="rgb(0%, 0%, 100%)" fill-opacity="1" d="M 49.167969 113.441406 C 49.167969 112.773438 48.628906 112.234375 47.960938 112.234375 C 47.296875 112.234375 46.757812 112.773438 46.757812 113.441406 C 46.757812 114.105469 47.296875 114.648438 47.960938 114.648438 C 48.628906 114.648438 49.167969 114.105469 49.167969 113.441406 Z M 49.167969 113.441406 "/>
<path fill-rule="nonzero" fill="rgb(0%, 0%, 100%)" fill-opacity="1" d="M 53.84375 115 C 53.84375 114.335938 53.304688 113.792969 52.640625 113.792969 C 51.972656 113.792969 51.433594 114.335938 51.433594 115 C 51.433594 115.664062 51.972656 116.207031 52.640625 116.207031 C 53.304688 116.207031 53.84375 115.664062 53.84375 115 Z M 53.84375 115 "/>
<path fill-rule="nonzero" fill="rgb(0%, 0%, 100%)" fill-opacity="1" d="M 58.523438 116.558594 C 58.523438 115.894531 57.984375 115.355469 57.316406 115.355469 C 56.652344 115.355469 56.113281 115.894531 56.113281 116.558594 C 56.113281 117.226562 56.652344 117.765625 57.316406 117.765625 C 57.984375 117.765625 58.523438 117.226562 58.523438 116.558594 Z M 58.523438 116.558594 "/>
<path fill-rule="nonzero" fill="rgb(0%, 0%, 100%)" fill-opacity="1" d="M 63.199219 118.117188 C 63.199219 117.453125 62.660156 116.914062 61.996094 116.914062 C 61.328125 116.914062 60.789062 117.453125 60.789062 118.117188 C 60.789062 118.785156 61.328125 119.324219 61.996094 119.324219 C 62.660156 119.324219 63.199219 118.785156 63.199219 118.117188 Z M 63.199219 118.117188 "/>
<path fill-rule="nonzero" fill="rgb(0%, 0%, 100%)" fill-opacity="1" d="M 67.878906 119.679688 C 67.878906 119.011719 67.335938 118.472656 66.671875 118.472656 C 66.007812 118.472656 65.464844 119.011719 65.464844 119.679688 C 65.464844 120.34375 66.007812 120.882812 66.671875 120.882812 C 67.335938 120.882812 67.878906 120.34375 67.878906 119.679688 Z M 67.878906 119.679688 "/>
<path fill-rule="nonzero" fill="rgb(0%, 0%, 100%)" fill-opacity="1" d="M 72.554688 121.238281 C 72.554688 120.570312 72.015625 120.03125 71.347656 120.03125 C 70.683594 120.03125 70.144531 120.570312 70.144531 121.238281 C 70.144531 121.902344 70.683594 122.441406 71.347656 122.441406 C 72.015625 122.441406 72.554688 121.902344 72.554688 121.238281 Z M 72.554688 121.238281 "/>
<path fill-rule="nonzero" fill="rgb(0%, 0%, 100%)" fill-opacity="1" d="M 77.230469 122.796875 C 77.230469 122.128906 76.691406 121.589844 76.027344 121.589844 C 75.359375 121.589844 74.820312 122.128906 74.820312 122.796875 C 74.820312 123.460938 75.359375 124 76.027344 124 C 76.691406 124 77.230469 123.460938 77.230469 122.796875 Z M 77.230469 122.796875 "/>
<path fill-rule="nonzero" fill="rgb(0%, 0%, 100%)" fill-opacity="1" d="M 81.910156 124.355469 C 81.910156 123.691406 81.371094 123.148438 80.703125 123.148438 C 80.039062 123.148438 79.5 123.691406 79.5 124.355469 C 79.5 125.019531 80.039062 125.5625 80.703125 125.5625 C 81.371094 125.5625 81.910156 125.019531 81.910156 124.355469 Z M 81.910156 124.355469 "/>
<path fill-rule="nonzero" fill="rgb(0%, 0%, 100%)" fill-opacity="1" d="M 86.585938 125.914062 C 86.585938 125.25 86.046875 124.710938 85.382812 124.710938 C 84.714844 124.710938 84.175781 125.25 84.175781 125.914062 C 84.175781 126.582031 84.714844 127.121094 85.382812 127.121094 C 86.046875 127.121094 86.585938 126.582031 86.585938 125.914062 Z M 86.585938 125.914062 "/>
<path fill-rule="nonzero" fill="rgb(0%, 0%, 100%)" fill-opacity="1" d="M 91.265625 127.472656 C 91.265625 126.808594 90.722656 126.269531 90.058594 126.269531 C 89.390625 126.269531 88.851562 126.808594 88.851562 127.472656 C 88.851562 128.140625 89.390625 128.679688 90.058594 128.679688 C 90.722656 128.679688 91.265625 128.140625 91.265625 127.472656 Z M 91.265625 127.472656 "/>
<path fill-rule="nonzero" fill="rgb(0%, 0%, 100%)" fill-opacity="1" d="M 95.941406 129.03125 C 95.941406 128.367188 95.402344 127.828125 94.734375 127.828125 C 94.070312 127.828125 93.53125 128.367188 93.53125 129.03125 C 93.53125 129.699219 94.070312 130.238281 94.734375 130.238281 C 95.402344 130.238281 95.941406 129.699219 95.941406 129.03125 Z M 95.941406 129.03125 "/>
<path fill-rule="nonzero" fill="rgb(0%, 0%, 100%)" fill-opacity="1" d="M 100.617188 130.59375 C 100.617188 129.925781 100.078125 129.386719 99.414062 129.386719 C 98.746094 129.386719 98.207031 129.925781 98.207031 130.59375 C 98.207031 131.257812 98.746094 131.796875 99.414062 131.796875 C 100.078125 131.796875 100.617188 131.257812 100.617188 130.59375 Z M 100.617188 130.59375 "/>
<path fill-rule="nonzero" fill="rgb(0%, 0%, 100%)" fill-opacity="1" d="M 105.296875 132.152344 C 105.296875 131.484375 104.757812 130.945312 104.089844 130.945312 C 103.425781 130.945312 102.882812 131.484375 102.882812 132.152344 C 102.882812 132.816406 103.425781 133.355469 104.089844 133.355469 C 104.757812 133.355469 105.296875 132.816406 105.296875 132.152344 Z M 105.296875 132.152344 "/>
<path fill-rule="nonzero" fill="rgb(0%, 0%, 100%)" fill-opacity="1" d="M 109.972656 133.710938 C 109.972656 133.042969 109.433594 132.503906 108.765625 132.503906 C 108.101562 132.503906 107.5625 133.042969 107.5625 133.710938 C 107.5625 134.375 108.101562 134.914062 108.765625 134.914062 C 109.433594 134.914062 109.972656 134.375 109.972656 133.710938 Z M 109.972656 133.710938 "/>
<path fill-rule="nonzero" fill="rgb(0%, 0%, 100%)" fill-opacity="1" d="M 114.648438 135.269531 C 114.648438 134.605469 114.109375 134.0625 113.445312 134.0625 C 112.777344 134.0625 112.238281 134.605469 112.238281 135.269531 C 112.238281 135.933594 112.777344 136.476562 113.445312 136.476562 C 114.109375 136.476562 114.648438 135.933594 114.648438 135.269531 Z M 114.648438 135.269531 "/>
<path fill-rule="nonzero" fill="rgb(0%, 0%, 100%)" fill-opacity="1" d="M 119.328125 136.828125 C 119.328125 136.164062 118.789062 135.625 118.121094 135.625 C 117.457031 135.625 116.917969 136.164062 116.917969 136.828125 C 116.917969 137.496094 117.457031 138.035156 118.121094 138.035156 C 118.789062 138.035156 119.328125 137.496094 119.328125 136.828125 Z M 119.328125 136.828125 "/>
<path fill-rule="nonzero" fill="rgb(0%, 0%, 100%)" fill-opacity="1" d="M 124.003906 138.386719 C 124.003906 137.722656 123.464844 137.183594 122.800781 137.183594 C 122.132812 137.183594 121.59375 137.722656 121.59375 138.386719 C 121.59375 139.054688 122.132812 139.59375 122.800781 139.59375 C 123.464844 139.59375 124.003906 139.054688 124.003906 138.386719 Z M 124.003906 138.386719 "/>
<path fill-rule="nonzero" fill="rgb(0%, 0%, 100%)" fill-opacity="1" d="M 128.683594 139.945312 C 128.683594 139.28125 128.140625 138.742188 127.476562 138.742188 C 126.8125 138.742188 126.269531 139.28125 126.269531 139.945312 C 126.269531 140.613281 126.8125 141.152344 127.476562 141.152344 C 128.140625 141.152344 128.683594 140.613281 128.683594 139.945312 Z M 128.683594 139.945312 "/>
<path fill-rule="nonzero" fill="rgb(0%, 0%, 100%)" fill-opacity="1" d="M 16.425781 86.9375 C 16.425781 86.269531 15.886719 85.730469 15.222656 85.730469 C 14.554688 85.730469 14.015625 86.269531 14.015625 86.9375 C 14.015625 87.601562 14.554688 88.140625 15.222656 88.140625 C 15.886719 88.140625 16.425781 87.601562 16.425781 86.9375 Z M 16.425781 86.9375 "/>
<path fill-rule="nonzero" fill="rgb(0%, 0%, 100%)" fill-opacity="1" d="M 21.105469 88.496094 C 21.105469 87.828125 20.566406 87.289062 19.898438 87.289062 C 19.234375 87.289062 18.691406 87.828125 18.691406 88.496094 C 18.691406 89.160156 19.234375 89.699219 19.898438 89.699219 C 20.566406 89.699219 21.105469 89.160156 21.105469 88.496094 Z M 21.105469 88.496094 "/>
<path fill-rule="nonzero" fill="rgb(0%, 0%, 100%)" fill-opacity="1" d="M 25.78125 90.054688 C 25.78125 89.386719 25.242188 88.847656 24.574219 88.847656 C 23.910156 88.847656 23.371094 89.386719 23.371094 90.054688 C 23.371094 90.71875 23.910156 91.261719 24.574219 91.261719 C 25.242188 91.261719 25.78125 90.71875 25.78125 90.054688 Z M 25.78125 90.054688 "/>
<path fill-rule="nonzero" fill="rgb(0%, 0%, 100%)" fill-opacity="1" d="M 30.457031 91.613281 C 30.457031 90.949219 29.917969 90.40625 29.253906 90.40625 C 28.585938 90.40625 28.046875 90.949219 28.046875 91.613281 C 28.046875 92.277344 28.585938 92.820312 29.253906 92.820312 C 29.917969 92.820312 30.457031 92.277344 30.457031 91.613281 Z M 30.457031 91.613281 "/>
<path fill-rule="nonzero" fill="rgb(0%, 0%, 100%)" fill-opacity="1" d="M 35.136719 93.171875 C 35.136719 92.507812 34.597656 91.96875 33.929688 91.96875 C 33.265625 91.96875 32.726562 92.507812 32.726562 93.171875 C 32.726562 93.839844 33.265625 94.378906 33.929688 94.378906 C 34.597656 94.378906 35.136719 93.839844 35.136719 93.171875 Z M 35.136719 93.171875 "/>
<path fill-rule="nonzero" fill="rgb(0%, 0%, 100%)" fill-opacity="1" d="M 39.8125 94.730469 C 39.8125 94.066406 39.273438 93.527344 38.609375 93.527344 C 37.941406 93.527344 37.402344 94.066406 37.402344 94.730469 C 37.402344 95.398438 37.941406 95.9375 38.609375 95.9375 C 39.273438 95.9375 39.8125 95.398438 39.8125 94.730469 Z M 39.8125 94.730469 "/>
<path fill-rule="nonzero" fill="rgb(0%, 0%, 100%)" fill-opacity="1" d="M 44.492188 96.292969 C 44.492188 95.625 43.949219 95.085938 43.285156 95.085938 C 42.621094 95.085938 42.078125 95.625 42.078125 96.292969 C 42.078125 96.957031 42.621094 97.496094 43.285156 97.496094 C 43.949219 97.496094 44.492188 96.957031 44.492188 96.292969 Z M 44.492188 96.292969 "/>
<path fill-rule="nonzero" fill="rgb(0%, 0%, 100%)" fill-opacity="1" d="M 49.167969 97.851562 C 49.167969 97.183594 48.628906 96.644531 47.960938 96.644531 C 47.296875 96.644531 46.757812 97.183594 46.757812 97.851562 C 46.757812 98.515625 47.296875 99.054688 47.960938 99.054688 C 48.628906 99.054688 49.167969 98.515625 49.167969 97.851562 Z M 49.167969 97.851562 "/>
<path fill-rule="nonzero" fill="rgb(0%, 0%, 100%)" fill-opacity="1" d="M 53.84375 99.410156 C 53.84375 98.742188 53.304688 98.203125 52.640625 98.203125 C 51.972656 98.203125 51.433594 98.742188 51.433594 99.410156 C 51.433594 100.074219 51.972656 100.613281 52.640625 100.613281 C 53.304688 100.613281 53.84375 100.074219 53.84375 99.410156 Z M 53.84375 99.410156 "/>
<path fill-rule="nonzero" fill="rgb(0%, 0%, 100%)" fill-opacity="1" d="M 58.523438 100.96875 C 58.523438 100.304688 57.984375 99.761719 57.316406 99.761719 C 56.652344 99.761719 56.113281 100.304688 56.113281 100.96875 C 56.113281 101.632812 56.652344 102.175781 57.316406 102.175781 C 57.984375 102.175781 58.523438 101.632812 58.523438 100.96875 Z M 58.523438 100.96875 "/>
<path fill-rule="nonzero" fill="rgb(0%, 0%, 100%)" fill-opacity="1" d="M 63.199219 102.527344 C 63.199219 101.863281 62.660156 101.324219 61.996094 101.324219 C 61.328125 101.324219 60.789062 101.863281 60.789062 102.527344 C 60.789062 103.195312 61.328125 103.734375 61.996094 103.734375 C 62.660156 103.734375 63.199219 103.195312 63.199219 102.527344 Z M 63.199219 102.527344 "/>
<path fill-rule="nonzero" fill="rgb(0%, 0%, 100%)" fill-opacity="1" d="M 67.878906 104.085938 C 67.878906 103.421875 67.335938 102.882812 66.671875 102.882812 C 66.007812 102.882812 65.464844 103.421875 65.464844 104.085938 C 65.464844 104.753906 66.007812 105.292969 66.671875 105.292969 C 67.335938 105.292969 67.878906 104.753906 67.878906 104.085938 Z M 67.878906 104.085938 "/>
<path fill-rule="nonzero" fill="rgb(0%, 0%, 100%)" fill-opacity="1" d="M 72.554688 105.644531 C 72.554688 104.980469 72.015625 104.441406 71.347656 104.441406 C 70.683594 104.441406 70.144531 104.980469 70.144531 105.644531 C 70.144531 106.3125 70.683594 106.851562 71.347656 106.851562 C 72.015625 106.851562 72.554688 106.3125 72.554688 105.644531 Z M 72.554688 105.644531 "/>
<path fill-rule="nonzero" fill="rgb(0%, 0%, 100%)" fill-opacity="1" d="M 77.230469 107.207031 C 77.230469 106.539062 76.691406 106 76.027344 106 C 75.359375 106 74.820312 106.539062 74.820312 107.207031 C 74.820312 107.871094 75.359375 108.410156 76.027344 108.410156 C 76.691406 108.410156 77.230469 107.871094 77.230469 107.207031 Z M 77.230469 107.207031 "/>
<path fill-rule="nonzero" fill="rgb(0%, 0%, 100%)" fill-opacity="1" d="M 81.910156 108.765625 C 81.910156 108.097656 81.371094 107.558594 80.703125 107.558594 C 80.039062 107.558594 79.5 108.097656 79.5 108.765625 C 79.5 109.429688 80.039062 109.96875 80.703125 109.96875 C 81.371094 109.96875 81.910156 109.429688 81.910156 108.765625 Z M 81.910156 108.765625 "/>
<path fill-rule="nonzero" fill="rgb(0%, 0%, 100%)" fill-opacity="1" d="M 86.585938 110.324219 C 86.585938 109.65625 86.046875 109.117188 85.382812 109.117188 C 84.714844 109.117188 84.175781 109.65625 84.175781 110.324219 C 84.175781 110.988281 84.714844 111.527344 85.382812 111.527344 C 86.046875 111.527344 86.585938 110.988281 86.585938 110.324219 Z M 86.585938 110.324219 "/>
<path fill-rule="nonzero" fill="rgb(0%, 0%, 100%)" fill-opacity="1" d="M 91.265625 111.882812 C 91.265625 111.21875 90.722656 110.675781 90.058594 110.675781 C 89.390625 110.675781 88.851562 111.21875 88.851562 111.882812 C 88.851562 112.546875 89.390625 113.089844 90.058594 113.089844 C 90.722656 113.089844 91.265625 112.546875 91.265625 111.882812 Z M 91.265625 111.882812 "/>
<path fill-rule="nonzero" fill="rgb(0%, 0%, 100%)" fill-opacity="1" d="M 95.941406 113.441406 C 95.941406 112.777344 95.402344 112.238281 94.734375 112.238281 C 94.070312 112.238281 93.53125 112.777344 93.53125 113.441406 C 93.53125 114.109375 94.070312 114.648438 94.734375 114.648438 C 95.402344 114.648438 95.941406 114.109375 95.941406 113.441406 Z M 95.941406 113.441406 "/>
<path fill-rule="nonzero" fill="rgb(0%, 0%, 100%)" fill-opacity="1" d="M 100.617188 115 C 100.617188 114.335938 100.078125 113.796875 99.414062 113.796875 C 98.746094 113.796875 98.207031 114.335938 98.207031 115 C 98.207031 115.667969 98.746094 116.207031 99.414062 116.207031 C 100.078125 116.207031 100.617188 115.667969 100.617188 115 Z M 100.617188 115 "/>
<path fill-rule="nonzero" fill="rgb(0%, 0%, 100%)" fill-opacity="1" d="M 105.296875 116.558594 C 105.296875 115.894531 104.757812 115.355469 104.089844 115.355469 C 103.425781 115.355469 102.882812 115.894531 102.882812 116.558594 C 102.882812 117.226562 103.425781 117.765625 104.089844 117.765625 C 104.757812 117.765625 105.296875 117.226562 105.296875 116.558594 Z M 105.296875 116.558594 "/>
<path fill-rule="nonzero" fill="rgb(0%, 0%, 100%)" fill-opacity="1" d="M 109.972656 118.121094 C 109.972656 117.453125 109.433594 116.914062 108.765625 116.914062 C 108.101562 116.914062 107.5625 117.453125 107.5625 118.121094 C 107.5625 118.785156 108.101562 119.324219 108.765625 119.324219 C 109.433594 119.324219 109.972656 118.785156 109.972656 118.121094 Z M 109.972656 118.121094 "/>
<path fill-rule="nonzero" fill="rgb(0%, 0%, 100%)" fill-opacity="1" d="M 114.648438 119.679688 C 114.648438 119.011719 114.109375 118.472656 113.445312 118.472656 C 112.777344 118.472656 112.238281 119.011719 112.238281 119.679688 C 112.238281 120.34375 112.777344 120.882812 113.445312 120.882812 C 114.109375 120.882812 114.648438 120.34375 114.648438 119.679688 Z M 114.648438 119.679688 "/>
<path fill-rule="nonzero" fill="rgb(0%, 0%, 100%)" fill-opacity="1" d="M 119.328125 121.238281 C 119.328125 120.570312 118.789062 120.03125 118.121094 120.03125 C 117.457031 120.03125 116.917969 120.570312 116.917969 121.238281 C 116.917969 121.902344 117.457031 122.445312 118.121094 122.445312 C 118.789062 122.445312 119.328125 121.902344 119.328125 121.238281 Z M 119.328125 121.238281 "/>
<path fill-rule="nonzero" fill="rgb(0%, 0%, 100%)" fill-opacity="1" d="M 124.003906 122.796875 C 124.003906 122.132812 123.464844 121.589844 122.800781 121.589844 C 122.132812 121.589844 121.59375 122.132812 121.59375 122.796875 C 121.59375 123.460938 122.132812 124.003906 122.800781 124.003906 C 123.464844 124.003906 124.003906 123.460938 124.003906 122.796875 Z M 124.003906 122.796875 "/>
<path fill-rule="nonzero" fill="rgb(0%, 0%, 100%)" fill-opacity="1" d="M 128.683594 124.355469 C 128.683594 123.691406 128.140625 123.152344 127.476562 123.152344 C 126.8125 123.152344 126.269531 123.691406 126.269531 124.355469 C 126.269531 125.023438 126.8125 125.5625 127.476562 125.5625 C 128.140625 125.5625 128.683594 125.023438 128.683594 124.355469 Z M 128.683594 124.355469 "/>
<path fill-rule="nonzero" fill="rgb(0%, 0%, 100%)" fill-opacity="1" d="M 133.359375 125.914062 C 133.359375 125.25 132.820312 124.710938 132.152344 124.710938 C 131.488281 124.710938 130.949219 125.25 130.949219 125.914062 C 130.949219 126.582031 131.488281 127.121094 132.152344 127.121094 C 132.820312 127.121094 133.359375 126.582031 133.359375 125.914062 Z M 133.359375 125.914062 "/>
<path fill-rule="nonzero" fill="rgb(0%, 0%, 100%)" fill-opacity="1" d="M 138.035156 127.476562 C 138.035156 126.808594 137.496094 126.269531 136.832031 126.269531 C 136.164062 126.269531 135.625 126.808594 135.625 127.476562 C 135.625 128.140625 136.164062 128.679688 136.832031 128.679688 C 137.496094 128.679688 138.035156 128.140625 138.035156 127.476562 Z M 138.035156 127.476562 "/>
<path fill-rule="nonzero" fill="rgb(0%, 0%, 100%)" fill-opacity="1" d="M 16.425781 71.34375 C 16.425781 70.679688 15.886719 70.140625 15.222656 70.140625 C 14.554688 70.140625 14.015625 70.679688 14.015625 71.34375 C 14.015625 72.011719 14.554688 72.550781 15.222656 72.550781 C 15.886719 72.550781 16.425781 72.011719 16.425781 71.34375 Z M 16.425781 71.34375 "/>
<path fill-rule="nonzero" fill="rgb(0%, 0%, 100%)" fill-opacity="1" d="M 21.105469 72.90625 C 21.105469 72.238281 20.566406 71.699219 19.898438 71.699219 C 19.234375 71.699219 18.691406 72.238281 18.691406 72.90625 C 18.691406 73.570312 19.234375 74.109375 19.898438 74.109375 C 20.566406 74.109375 21.105469 73.570312 21.105469 72.90625 Z M 21.105469 72.90625 "/>
<path fill-rule="nonzero" fill="rgb(0%, 0%, 100%)" fill-opacity="1" d="M 25.78125 74.464844 C 25.78125 73.796875 25.242188 73.257812 24.574219 73.257812 C 23.910156 73.257812 23.371094 73.796875 23.371094 74.464844 C 23.371094 75.128906 23.910156 75.667969 24.574219 75.667969 C 25.242188 75.667969 25.78125 75.128906 25.78125 74.464844 Z M 25.78125 74.464844 "/>
<path fill-rule="nonzero" fill="rgb(0%, 0%, 100%)" fill-opacity="1" d="M 30.457031 76.023438 C 30.457031 75.355469 29.917969 74.816406 29.253906 74.816406 C 28.585938 74.816406 28.046875 75.355469 28.046875 76.023438 C 28.046875 76.6875 28.585938 77.226562 29.253906 77.226562 C 29.917969 77.226562 30.457031 76.6875 30.457031 76.023438 Z M 30.457031 76.023438 "/>
<path fill-rule="nonzero" fill="rgb(0%, 0%, 100%)" fill-opacity="1" d="M 35.136719 77.582031 C 35.136719 76.917969 34.597656 76.375 33.929688 76.375 C 33.265625 76.375 32.726562 76.917969 32.726562 77.582031 C 32.726562 78.246094 33.265625 78.789062 33.929688 78.789062 C 34.597656 78.789062 35.136719 78.246094 35.136719 77.582031 Z M 35.136719 77.582031 "/>
<path fill-rule="nonzero" fill="rgb(0%, 0%, 100%)" fill-opacity="1" d="M 39.8125 79.140625 C 39.8125 78.476562 39.273438 77.933594 38.609375 77.933594 C 37.941406 77.933594 37.402344 78.476562 37.402344 79.140625 C 37.402344 79.808594 37.941406 80.347656 38.609375 80.347656 C 39.273438 80.347656 39.8125 79.808594 39.8125 79.140625 Z M 39.8125 79.140625 "/>
<path fill-rule="nonzero" fill="rgb(0%, 0%, 100%)" fill-opacity="1" d="M 44.492188 80.699219 C 44.492188 80.035156 43.949219 79.496094 43.285156 79.496094 C 42.621094 79.496094 42.078125 80.035156 42.078125 80.699219 C 42.078125 81.367188 42.621094 81.90625 43.285156 81.90625 C 43.949219 81.90625 44.492188 81.367188 44.492188 80.699219 Z M 44.492188 80.699219 "/>
<path fill-rule="nonzero" fill="rgb(0%, 0%, 100%)" fill-opacity="1" d="M 49.167969 82.257812 C 49.167969 81.59375 48.628906 81.054688 47.960938 81.054688 C 47.296875 81.054688 46.757812 81.59375 46.757812 82.257812 C 46.757812 82.925781 47.296875 83.464844 47.960938 83.464844 C 48.628906 83.464844 49.167969 82.925781 49.167969 82.257812 Z M 49.167969 82.257812 "/>
<path fill-rule="nonzero" fill="rgb(0%, 0%, 100%)" fill-opacity="1" d="M 53.84375 83.820312 C 53.84375 83.152344 53.304688 82.613281 52.640625 82.613281 C 51.972656 82.613281 51.433594 83.152344 51.433594 83.820312 C 51.433594 84.484375 51.972656 85.023438 52.640625 85.023438 C 53.304688 85.023438 53.84375 84.484375 53.84375 83.820312 Z M 53.84375 83.820312 "/>
<path fill-rule="nonzero" fill="rgb(0%, 0%, 100%)" fill-opacity="1" d="M 58.523438 85.378906 C 58.523438 84.710938 57.984375 84.171875 57.316406 84.171875 C 56.652344 84.171875 56.113281 84.710938 56.113281 85.378906 C 56.113281 86.042969 56.652344 86.582031 57.316406 86.582031 C 57.984375 86.582031 58.523438 86.042969 58.523438 85.378906 Z M 58.523438 85.378906 "/>
<path fill-rule="nonzero" fill="rgb(0%, 0%, 100%)" fill-opacity="1" d="M 63.199219 86.9375 C 63.199219 86.269531 62.660156 85.730469 61.996094 85.730469 C 61.328125 85.730469 60.789062 86.269531 60.789062 86.9375 C 60.789062 87.601562 61.328125 88.140625 61.996094 88.140625 C 62.660156 88.140625 63.199219 87.601562 63.199219 86.9375 Z M 63.199219 86.9375 "/>
<path fill-rule="nonzero" fill="rgb(0%, 0%, 100%)" fill-opacity="1" d="M 67.878906 88.496094 C 67.878906 87.832031 67.335938 87.289062 66.671875 87.289062 C 66.007812 87.289062 65.464844 87.832031 65.464844 88.496094 C 65.464844 89.160156 66.007812 89.703125 66.671875 89.703125 C 67.335938 89.703125 67.878906 89.160156 67.878906 88.496094 Z M 67.878906 88.496094 "/>
<path fill-rule="nonzero" fill="rgb(0%, 0%, 100%)" fill-opacity="1" d="M 72.554688 90.054688 C 72.554688 89.390625 72.015625 88.851562 71.347656 88.851562 C 70.683594 88.851562 70.144531 89.390625 70.144531 90.054688 C 70.144531 90.722656 70.683594 91.261719 71.347656 91.261719 C 72.015625 91.261719 72.554688 90.722656 72.554688 90.054688 Z M 72.554688 90.054688 "/>
<path fill-rule="nonzero" fill="rgb(0%, 0%, 100%)" fill-opacity="1" d="M 77.230469 91.613281 C 77.230469 90.949219 76.691406 90.410156 76.027344 90.410156 C 75.359375 90.410156 74.820312 90.949219 74.820312 91.613281 C 74.820312 92.28125 75.359375 92.820312 76.027344 92.820312 C 76.691406 92.820312 77.230469 92.28125 77.230469 91.613281 Z M 77.230469 91.613281 "/>
<path fill-rule="nonzero" fill="rgb(0%, 0%, 100%)" fill-opacity="1" d="M 81.910156 93.171875 C 81.910156 92.507812 81.371094 91.96875 80.703125 91.96875 C 80.039062 91.96875 79.5 92.507812 79.5 93.171875 C 79.5 93.839844 80.039062 94.378906 80.703125 94.378906 C 81.371094 94.378906 81.910156 93.839844 81.910156 93.171875 Z M 81.910156 93.171875 "/>
<path fill-rule="nonzero" fill="rgb(0%, 0%, 100%)" fill-opacity="1" d="M 86.585938 94.734375 C 86.585938 94.066406 86.046875 93.527344 85.382812 93.527344 C 84.714844 93.527344 84.175781 94.066406 84.175781 94.734375 C 84.175781 95.398438 84.714844 95.9375 85.382812 95.9375 C 86.046875 95.9375 86.585938 95.398438 86.585938 94.734375 Z M 86.585938 94.734375 "/>
<path fill-rule="nonzero" fill="rgb(0%, 0%, 100%)" fill-opacity="1" d="M 91.265625 96.292969 C 91.265625 95.625 90.722656 95.085938 90.058594 95.085938 C 89.390625 95.085938 88.851562 95.625 88.851562 96.292969 C 88.851562 96.957031 89.390625 97.496094 90.058594 97.496094 C 90.722656 97.496094 91.265625 96.957031 91.265625 96.292969 Z M 91.265625 96.292969 "/>
<path fill-rule="nonzero" fill="rgb(0%, 0%, 100%)" fill-opacity="1" d="M 95.941406 97.851562 C 95.941406 97.183594 95.402344 96.644531 94.734375 96.644531 C 94.070312 96.644531 93.53125 97.183594 93.53125 97.851562 C 93.53125 98.515625 94.070312 99.054688 94.734375 99.054688 C 95.402344 99.054688 95.941406 98.515625 95.941406 97.851562 Z M 95.941406 97.851562 "/>
<path fill-rule="nonzero" fill="rgb(0%, 0%, 100%)" fill-opacity="1" d="M 100.617188 99.410156 C 100.617188 98.746094 100.078125 98.203125 99.414062 98.203125 C 98.746094 98.203125 98.207031 98.746094 98.207031 99.410156 C 98.207031 100.074219 98.746094 100.617188 99.414062 100.617188 C 100.078125 100.617188 100.617188 100.074219 100.617188 99.410156 Z M 100.617188 99.410156 "/>
<path fill-rule="nonzero" fill="rgb(0%, 0%, 100%)" fill-opacity="1" d="M 105.296875 100.96875 C 105.296875 100.304688 104.757812 99.765625 104.089844 99.765625 C 103.425781 99.765625 102.882812 100.304688 102.882812 100.96875 C 102.882812 101.636719 103.425781 102.175781 104.089844 102.175781 C 104.757812 102.175781 105.296875 101.636719 105.296875 100.96875 Z M 105.296875 100.96875 "/>
<path fill-rule="nonzero" fill="rgb(0%, 0%, 100%)" fill-opacity="1" d="M 109.972656 102.527344 C 109.972656 101.863281 109.433594 101.324219 108.765625 101.324219 C 108.101562 101.324219 107.5625 101.863281 107.5625 102.527344 C 107.5625 103.195312 108.101562 103.734375 108.765625 103.734375 C 109.433594 103.734375 109.972656 103.195312 109.972656 102.527344 Z M 109.972656 102.527344 "/>
<path fill-rule="nonzero" fill="rgb(0%, 0%, 100%)" fill-opacity="1" d="M 114.648438 104.085938 C 114.648438 103.421875 114.109375 102.882812 113.445312 102.882812 C 112.777344 102.882812 112.238281 103.421875 112.238281 104.085938 C 112.238281 104.753906 112.777344 105.292969 113.445312 105.292969 C 114.109375 105.292969 114.648438 104.753906 114.648438 104.085938 Z M 114.648438 104.085938 "/>
<path fill-rule="nonzero" fill="rgb(0%, 0%, 100%)" fill-opacity="1" d="M 119.328125 105.648438 C 119.328125 104.980469 118.789062 104.441406 118.121094 104.441406 C 117.457031 104.441406 116.917969 104.980469 116.917969 105.648438 C 116.917969 106.3125 117.457031 106.851562 118.121094 106.851562 C 118.789062 106.851562 119.328125 106.3125 119.328125 105.648438 Z M 119.328125 105.648438 "/>
<path fill-rule="nonzero" fill="rgb(0%, 0%, 100%)" fill-opacity="1" d="M 124.003906 107.207031 C 124.003906 106.539062 123.464844 106 122.800781 106 C 122.132812 106 121.59375 106.539062 121.59375 107.207031 C 121.59375 107.871094 122.132812 108.410156 122.800781 108.410156 C 123.464844 108.410156 124.003906 107.871094 124.003906 107.207031 Z M 124.003906 107.207031 "/>
<path fill-rule="nonzero" fill="rgb(0%, 0%, 100%)" fill-opacity="1" d="M 128.683594 108.765625 C 128.683594 108.101562 128.140625 107.558594 127.476562 107.558594 C 126.8125 107.558594 126.269531 108.101562 126.269531 108.765625 C 126.269531 109.429688 126.8125 109.972656 127.476562 109.972656 C 128.140625 109.972656 128.683594 109.429688 128.683594 108.765625 Z M 128.683594 108.765625 "/>
<path fill-rule="nonzero" fill="rgb(0%, 0%, 100%)" fill-opacity="1" d="M 133.359375 110.324219 C 133.359375 109.660156 132.820312 109.117188 132.152344 109.117188 C 131.488281 109.117188 130.949219 109.660156 130.949219 110.324219 C 130.949219 110.992188 131.488281 111.53125 132.152344 111.53125 C 132.820312 111.53125 133.359375 110.992188 133.359375 110.324219 Z M 133.359375 110.324219 "/>
<path fill-rule="nonzero" fill="rgb(0%, 0%, 100%)" fill-opacity="1" d="M 138.035156 111.882812 C 138.035156 111.21875 137.496094 110.679688 136.832031 110.679688 C 136.164062 110.679688 135.625 111.21875 135.625 111.882812 C 135.625 112.550781 136.164062 113.089844 136.832031 113.089844 C 137.496094 113.089844 138.035156 112.550781 138.035156 111.882812 Z M 138.035156 111.882812 "/>
<path fill-rule="nonzero" fill="rgb(0%, 0%, 100%)" fill-opacity="1" d="M 16.425781 55.753906 C 16.425781 55.089844 15.886719 54.550781 15.222656 54.550781 C 14.554688 54.550781 14.015625 55.089844 14.015625 55.753906 C 14.015625 56.421875 14.554688 56.960938 15.222656 56.960938 C 15.886719 56.960938 16.425781 56.421875 16.425781 55.753906 Z M 16.425781 55.753906 "/>
<path fill-rule="nonzero" fill="rgb(0%, 0%, 100%)" fill-opacity="1" d="M 21.105469 57.3125 C 21.105469 56.648438 20.566406 56.109375 19.898438 56.109375 C 19.234375 56.109375 18.691406 56.648438 18.691406 57.3125 C 18.691406 57.980469 19.234375 58.519531 19.898438 58.519531 C 20.566406 58.519531 21.105469 57.980469 21.105469 57.3125 Z M 21.105469 57.3125 "/>
<path fill-rule="nonzero" fill="rgb(0%, 0%, 100%)" fill-opacity="1" d="M 25.78125 58.871094 C 25.78125 58.207031 25.242188 57.667969 24.574219 57.667969 C 23.910156 57.667969 23.371094 58.207031 23.371094 58.871094 C 23.371094 59.539062 23.910156 60.078125 24.574219 60.078125 C 25.242188 60.078125 25.78125 59.539062 25.78125 58.871094 Z M 25.78125 58.871094 "/>
<path fill-rule="nonzero" fill="rgb(0%, 0%, 100%)" fill-opacity="1" d="M 30.457031 60.433594 C 30.457031 59.765625 29.917969 59.226562 29.253906 59.226562 C 28.585938 59.226562 28.046875 59.765625 28.046875 60.433594 C 28.046875 61.097656 28.585938 61.636719 29.253906 61.636719 C 29.917969 61.636719 30.457031 61.097656 30.457031 60.433594 Z M 30.457031 60.433594 "/>
<path fill-rule="nonzero" fill="rgb(0%, 0%, 100%)" fill-opacity="1" d="M 35.136719 61.992188 C 35.136719 61.324219 34.597656 60.785156 33.929688 60.785156 C 33.265625 60.785156 32.726562 61.324219 32.726562 61.992188 C 32.726562 62.65625 33.265625 63.195312 33.929688 63.195312 C 34.597656 63.195312 35.136719 62.65625 35.136719 61.992188 Z M 35.136719 61.992188 "/>
<path fill-rule="nonzero" fill="rgb(0%, 0%, 100%)" fill-opacity="1" d="M 39.8125 63.550781 C 39.8125 62.882812 39.273438 62.34375 38.609375 62.34375 C 37.941406 62.34375 37.402344 62.882812 37.402344 63.550781 C 37.402344 64.214844 37.941406 64.753906 38.609375 64.753906 C 39.273438 64.753906 39.8125 64.214844 39.8125 63.550781 Z M 39.8125 63.550781 "/>
<path fill-rule="nonzero" fill="rgb(0%, 0%, 100%)" fill-opacity="1" d="M 44.492188 65.109375 C 44.492188 64.445312 43.949219 63.902344 43.285156 63.902344 C 42.621094 63.902344 42.078125 64.445312 42.078125 65.109375 C 42.078125 65.773438 42.621094 66.316406 43.285156 66.316406 C 43.949219 66.316406 44.492188 65.773438 44.492188 65.109375 Z M 44.492188 65.109375 "/>
<path fill-rule="nonzero" fill="rgb(0%, 0%, 100%)" fill-opacity="1" d="M 49.167969 66.667969 C 49.167969 66.003906 48.628906 65.464844 47.960938 65.464844 C 47.296875 65.464844 46.757812 66.003906 46.757812 66.667969 C 46.757812 67.335938 47.296875 67.875 47.960938 67.875 C 48.628906 67.875 49.167969 67.335938 49.167969 66.667969 Z M 49.167969 66.667969 "/>
<path fill-rule="nonzero" fill="rgb(0%, 0%, 100%)" fill-opacity="1" d="M 53.84375 68.226562 C 53.84375 67.5625 53.304688 67.023438 52.640625 67.023438 C 51.972656 67.023438 51.433594 67.5625 51.433594 68.226562 C 51.433594 68.894531 51.972656 69.433594 52.640625 69.433594 C 53.304688 69.433594 53.84375 68.894531 53.84375 68.226562 Z M 53.84375 68.226562 "/>
<path fill-rule="nonzero" fill="rgb(0%, 0%, 100%)" fill-opacity="1" d="M 58.523438 69.785156 C 58.523438 69.121094 57.984375 68.582031 57.316406 68.582031 C 56.652344 68.582031 56.113281 69.121094 56.113281 69.785156 C 56.113281 70.453125 56.652344 70.992188 57.316406 70.992188 C 57.984375 70.992188 58.523438 70.453125 58.523438 69.785156 Z M 58.523438 69.785156 "/>
<path fill-rule="nonzero" fill="rgb(0%, 0%, 100%)" fill-opacity="1" d="M 63.199219 71.347656 C 63.199219 70.679688 62.660156 70.140625 61.996094 70.140625 C 61.328125 70.140625 60.789062 70.679688 60.789062 71.347656 C 60.789062 72.011719 61.328125 72.550781 61.996094 72.550781 C 62.660156 72.550781 63.199219 72.011719 63.199219 71.347656 Z M 63.199219 71.347656 "/>
<path fill-rule="nonzero" fill="rgb(0%, 0%, 100%)" fill-opacity="1" d="M 67.878906 72.90625 C 67.878906 72.238281 67.335938 71.699219 66.671875 71.699219 C 66.007812 71.699219 65.464844 72.238281 65.464844 72.90625 C 65.464844 73.570312 66.007812 74.109375 66.671875 74.109375 C 67.335938 74.109375 67.878906 73.570312 67.878906 72.90625 Z M 67.878906 72.90625 "/>
<path fill-rule="nonzero" fill="rgb(0%, 0%, 100%)" fill-opacity="1" d="M 72.554688 74.464844 C 72.554688 73.796875 72.015625 73.257812 71.347656 73.257812 C 70.683594 73.257812 70.144531 73.796875 70.144531 74.464844 C 70.144531 75.128906 70.683594 75.671875 71.347656 75.671875 C 72.015625 75.671875 72.554688 75.128906 72.554688 74.464844 Z M 72.554688 74.464844 "/>
<path fill-rule="nonzero" fill="rgb(0%, 0%, 100%)" fill-opacity="1" d="M 77.230469 76.023438 C 77.230469 75.359375 76.691406 74.816406 76.027344 74.816406 C 75.359375 74.816406 74.820312 75.359375 74.820312 76.023438 C 74.820312 76.6875 75.359375 77.230469 76.027344 77.230469 C 76.691406 77.230469 77.230469 76.6875 77.230469 76.023438 Z M 77.230469 76.023438 "/>
<path fill-rule="nonzero" fill="rgb(100%, 0%, 0%)" fill-opacity="1" d="M 82.128906 77.582031 C 82.128906 76.796875 81.492188 76.15625 80.703125 76.15625 C 79.917969 76.15625 79.277344 76.796875 79.277344 77.582031 C 79.277344 78.371094 79.917969 79.007812 80.703125 79.007812 C 81.492188 79.007812 82.128906 78.371094 82.128906 77.582031 Z M 82.128906 77.582031 "/>
<path fill-rule="nonzero" fill="rgb(0%, 0%, 100%)" fill-opacity="1" d="M 86.585938 79.140625 C 86.585938 78.476562 86.046875 77.9375 85.382812 77.9375 C 84.714844 77.9375 84.175781 78.476562 84.175781 79.140625 C 84.175781 79.808594 84.714844 80.347656 85.382812 80.347656 C 86.046875 80.347656 86.585938 79.808594 86.585938 79.140625 Z M 86.585938 79.140625 "/>
<path fill-rule="nonzero" fill="rgb(0%, 0%, 100%)" fill-opacity="1" d="M 91.265625 80.699219 C 91.265625 80.035156 90.722656 79.496094 90.058594 79.496094 C 89.390625 79.496094 88.851562 80.035156 88.851562 80.699219 C 88.851562 81.367188 89.390625 81.90625 90.058594 81.90625 C 90.722656 81.90625 91.265625 81.367188 91.265625 80.699219 Z M 91.265625 80.699219 "/>
<path fill-rule="nonzero" fill="rgb(0%, 0%, 100%)" fill-opacity="1" d="M 95.941406 82.261719 C 95.941406 81.59375 95.402344 81.054688 94.734375 81.054688 C 94.070312 81.054688 93.53125 81.59375 93.53125 82.261719 C 93.53125 82.925781 94.070312 83.464844 94.734375 83.464844 C 95.402344 83.464844 95.941406 82.925781 95.941406 82.261719 Z M 95.941406 82.261719 "/>
<path fill-rule="nonzero" fill="rgb(0%, 0%, 100%)" fill-opacity="1" d="M 100.617188 83.820312 C 100.617188 83.152344 100.078125 82.613281 99.414062 82.613281 C 98.746094 82.613281 98.207031 83.152344 98.207031 83.820312 C 98.207031 84.484375 98.746094 85.023438 99.414062 85.023438 C 100.078125 85.023438 100.617188 84.484375 100.617188 83.820312 Z M 100.617188 83.820312 "/>
<path fill-rule="nonzero" fill="rgb(0%, 0%, 100%)" fill-opacity="1" d="M 105.296875 85.378906 C 105.296875 84.714844 104.757812 84.171875 104.089844 84.171875 C 103.425781 84.171875 102.882812 84.714844 102.882812 85.378906 C 102.882812 86.042969 103.425781 86.585938 104.089844 86.585938 C 104.757812 86.585938 105.296875 86.042969 105.296875 85.378906 Z M 105.296875 85.378906 "/>
<path fill-rule="nonzero" fill="rgb(0%, 0%, 100%)" fill-opacity="1" d="M 109.972656 86.9375 C 109.972656 86.273438 109.433594 85.730469 108.765625 85.730469 C 108.101562 85.730469 107.5625 86.273438 107.5625 86.9375 C 107.5625 87.605469 108.101562 88.144531 108.765625 88.144531 C 109.433594 88.144531 109.972656 87.605469 109.972656 86.9375 Z M 109.972656 86.9375 "/>
<path fill-rule="nonzero" fill="rgb(0%, 0%, 100%)" fill-opacity="1" d="M 114.648438 88.496094 C 114.648438 87.832031 114.109375 87.292969 113.445312 87.292969 C 112.777344 87.292969 112.238281 87.832031 112.238281 88.496094 C 112.238281 89.164062 112.777344 89.703125 113.445312 89.703125 C 114.109375 89.703125 114.648438 89.164062 114.648438 88.496094 Z M 114.648438 88.496094 "/>
<path fill-rule="nonzero" fill="rgb(0%, 0%, 100%)" fill-opacity="1" d="M 119.328125 90.054688 C 119.328125 89.390625 118.789062 88.851562 118.121094 88.851562 C 117.457031 88.851562 116.917969 89.390625 116.917969 90.054688 C 116.917969 90.722656 117.457031 91.261719 118.121094 91.261719 C 118.789062 91.261719 119.328125 90.722656 119.328125 90.054688 Z M 119.328125 90.054688 "/>
<path fill-rule="nonzero" fill="rgb(0%, 0%, 100%)" fill-opacity="1" d="M 124.003906 91.617188 C 124.003906 90.949219 123.464844 90.410156 122.800781 90.410156 C 122.132812 90.410156 121.59375 90.949219 121.59375 91.617188 C 121.59375 92.28125 122.132812 92.820312 122.800781 92.820312 C 123.464844 92.820312 124.003906 92.28125 124.003906 91.617188 Z M 124.003906 91.617188 "/>
<path fill-rule="nonzero" fill="rgb(0%, 0%, 100%)" fill-opacity="1" d="M 128.683594 93.175781 C 128.683594 92.507812 128.140625 91.96875 127.476562 91.96875 C 126.8125 91.96875 126.269531 92.507812 126.269531 93.175781 C 126.269531 93.839844 126.8125 94.378906 127.476562 94.378906 C 128.140625 94.378906 128.683594 93.839844 128.683594 93.175781 Z M 128.683594 93.175781 "/>
<path fill-rule="nonzero" fill="rgb(0%, 0%, 100%)" fill-opacity="1" d="M 133.359375 94.734375 C 133.359375 94.066406 132.820312 93.527344 132.152344 93.527344 C 131.488281 93.527344 130.949219 94.066406 130.949219 94.734375 C 130.949219 95.398438 131.488281 95.9375 132.152344 95.9375 C 132.820312 95.9375 133.359375 95.398438 133.359375 94.734375 Z M 133.359375 94.734375 "/>
<path fill-rule="nonzero" fill="rgb(0%, 0%, 100%)" fill-opacity="1" d="M 138.035156 96.292969 C 138.035156 95.628906 137.496094 95.085938 136.832031 95.085938 C 136.164062 95.085938 135.625 95.628906 135.625 96.292969 C 135.625 96.957031 136.164062 97.5 136.832031 97.5 C 137.496094 97.5 138.035156 96.957031 138.035156 96.292969 Z M 138.035156 96.292969 "/>
<path fill-rule="nonzero" fill="rgb(0%, 0%, 100%)" fill-opacity="1" d="M 16.425781 40.164062 C 16.425781 39.496094 15.886719 38.957031 15.222656 38.957031 C 14.554688 38.957031 14.015625 39.496094 14.015625 40.164062 C 14.015625 40.828125 14.554688 41.367188 15.222656 41.367188 C 15.886719 41.367188 16.425781 40.828125 16.425781 40.164062 Z M 16.425781 40.164062 "/>
<path fill-rule="nonzero" fill="rgb(0%, 0%, 100%)" fill-opacity="1" d="M 21.105469 41.722656 C 21.105469 41.058594 20.566406 40.515625 19.898438 40.515625 C 19.234375 40.515625 18.691406 41.058594 18.691406 41.722656 C 18.691406 42.386719 19.234375 42.929688 19.898438 42.929688 C 20.566406 42.929688 21.105469 42.386719 21.105469 41.722656 Z M 21.105469 41.722656 "/>
<path fill-rule="nonzero" fill="rgb(0%, 0%, 100%)" fill-opacity="1" d="M 25.78125 43.28125 C 25.78125 42.617188 25.242188 42.078125 24.574219 42.078125 C 23.910156 42.078125 23.371094 42.617188 23.371094 43.28125 C 23.371094 43.949219 23.910156 44.488281 24.574219 44.488281 C 25.242188 44.488281 25.78125 43.949219 25.78125 43.28125 Z M 25.78125 43.28125 "/>
<path fill-rule="nonzero" fill="rgb(0%, 0%, 100%)" fill-opacity="1" d="M 30.457031 44.839844 C 30.457031 44.175781 29.917969 43.636719 29.253906 43.636719 C 28.585938 43.636719 28.046875 44.175781 28.046875 44.839844 C 28.046875 45.507812 28.585938 46.046875 29.253906 46.046875 C 29.917969 46.046875 30.457031 45.507812 30.457031 44.839844 Z M 30.457031 44.839844 "/>
<path fill-rule="nonzero" fill="rgb(0%, 0%, 100%)" fill-opacity="1" d="M 35.136719 46.398438 C 35.136719 45.734375 34.597656 45.195312 33.929688 45.195312 C 33.265625 45.195312 32.726562 45.734375 32.726562 46.398438 C 32.726562 47.066406 33.265625 47.605469 33.929688 47.605469 C 34.597656 47.605469 35.136719 47.066406 35.136719 46.398438 Z M 35.136719 46.398438 "/>
<path fill-rule="nonzero" fill="rgb(0%, 0%, 100%)" fill-opacity="1" d="M 39.8125 47.960938 C 39.8125 47.292969 39.273438 46.753906 38.609375 46.753906 C 37.941406 46.753906 37.402344 47.292969 37.402344 47.960938 C 37.402344 48.625 37.941406 49.164062 38.609375 49.164062 C 39.273438 49.164062 39.8125 48.625 39.8125 47.960938 Z M 39.8125 47.960938 "/>
<path fill-rule="nonzero" fill="rgb(0%, 0%, 100%)" fill-opacity="1" d="M 44.492188 49.519531 C 44.492188 48.851562 43.949219 48.3125 43.285156 48.3125 C 42.621094 48.3125 42.078125 48.851562 42.078125 49.519531 C 42.078125 50.183594 42.621094 50.722656 43.285156 50.722656 C 43.949219 50.722656 44.492188 50.183594 44.492188 49.519531 Z M 44.492188 49.519531 "/>
<path fill-rule="nonzero" fill="rgb(0%, 0%, 100%)" fill-opacity="1" d="M 49.167969 51.078125 C 49.167969 50.410156 48.628906 49.871094 47.960938 49.871094 C 47.296875 49.871094 46.757812 50.410156 46.757812 51.078125 C 46.757812 51.742188 47.296875 52.285156 47.960938 52.285156 C 48.628906 52.285156 49.167969 51.742188 49.167969 51.078125 Z M 49.167969 51.078125 "/>
<path fill-rule="nonzero" fill="rgb(0%, 0%, 100%)" fill-opacity="1" d="M 53.84375 52.636719 C 53.84375 51.972656 53.304688 51.429688 52.640625 51.429688 C 51.972656 51.429688 51.433594 51.972656 51.433594 52.636719 C 51.433594 53.300781 51.972656 53.84375 52.640625 53.84375 C 53.304688 53.84375 53.84375 53.300781 53.84375 52.636719 Z M 53.84375 52.636719 "/>
<path fill-rule="nonzero" fill="rgb(0%, 0%, 100%)" fill-opacity="1" d="M 58.523438 54.195312 C 58.523438 53.53125 57.984375 52.992188 57.316406 52.992188 C 56.652344 52.992188 56.113281 53.53125 56.113281 54.195312 C 56.113281 54.863281 56.652344 55.402344 57.316406 55.402344 C 57.984375 55.402344 58.523438 54.863281 58.523438 54.195312 Z M 58.523438 54.195312 "/>
<path fill-rule="nonzero" fill="rgb(0%, 0%, 100%)" fill-opacity="1" d="M 63.199219 55.753906 C 63.199219 55.089844 62.660156 54.550781 61.996094 54.550781 C 61.328125 54.550781 60.789062 55.089844 60.789062 55.753906 C 60.789062 56.421875 61.328125 56.960938 61.996094 56.960938 C 62.660156 56.960938 63.199219 56.421875 63.199219 55.753906 Z M 63.199219 55.753906 "/>
<path fill-rule="nonzero" fill="rgb(0%, 0%, 100%)" fill-opacity="1" d="M 67.878906 57.316406 C 67.878906 56.648438 67.335938 56.109375 66.671875 56.109375 C 66.007812 56.109375 65.464844 56.648438 65.464844 57.316406 C 65.464844 57.980469 66.007812 58.519531 66.671875 58.519531 C 67.335938 58.519531 67.878906 57.980469 67.878906 57.316406 Z M 67.878906 57.316406 "/>
<path fill-rule="nonzero" fill="rgb(0%, 0%, 100%)" fill-opacity="1" d="M 72.554688 58.875 C 72.554688 58.207031 72.015625 57.667969 71.347656 57.667969 C 70.683594 57.667969 70.144531 58.207031 70.144531 58.875 C 70.144531 59.539062 70.683594 60.078125 71.347656 60.078125 C 72.015625 60.078125 72.554688 59.539062 72.554688 58.875 Z M 72.554688 58.875 "/>
<path fill-rule="nonzero" fill="rgb(0%, 0%, 100%)" fill-opacity="1" d="M 77.230469 60.433594 C 77.230469 59.765625 76.691406 59.226562 76.027344 59.226562 C 75.359375 59.226562 74.820312 59.765625 74.820312 60.433594 C 74.820312 61.097656 75.359375 61.636719 76.027344 61.636719 C 76.691406 61.636719 77.230469 61.097656 77.230469 60.433594 Z M 77.230469 60.433594 "/>
<path fill-rule="nonzero" fill="rgb(0%, 0%, 100%)" fill-opacity="1" d="M 81.910156 61.992188 C 81.910156 61.328125 81.371094 60.785156 80.703125 60.785156 C 80.039062 60.785156 79.5 61.328125 79.5 61.992188 C 79.5 62.65625 80.039062 63.199219 80.703125 63.199219 C 81.371094 63.199219 81.910156 62.65625 81.910156 61.992188 Z M 81.910156 61.992188 "/>
<path fill-rule="nonzero" fill="rgb(0%, 0%, 100%)" fill-opacity="1" d="M 86.585938 63.550781 C 86.585938 62.886719 86.046875 62.34375 85.382812 62.34375 C 84.714844 62.34375 84.175781 62.886719 84.175781 63.550781 C 84.175781 64.21875 84.714844 64.757812 85.382812 64.757812 C 86.046875 64.757812 86.585938 64.21875 86.585938 63.550781 Z M 86.585938 63.550781 "/>
<path fill-rule="nonzero" fill="rgb(0%, 0%, 100%)" fill-opacity="1" d="M 91.265625 65.109375 C 91.265625 64.445312 90.722656 63.90625 90.058594 63.90625 C 89.390625 63.90625 88.851562 64.445312 88.851562 65.109375 C 88.851562 65.777344 89.390625 66.316406 90.058594 66.316406 C 90.722656 66.316406 91.265625 65.777344 91.265625 65.109375 Z M 91.265625 65.109375 "/>
<path fill-rule="nonzero" fill="rgb(0%, 0%, 100%)" fill-opacity="1" d="M 95.941406 66.667969 C 95.941406 66.003906 95.402344 65.464844 94.734375 65.464844 C 94.070312 65.464844 93.53125 66.003906 93.53125 66.667969 C 93.53125 67.335938 94.070312 67.875 94.734375 67.875 C 95.402344 67.875 95.941406 67.335938 95.941406 66.667969 Z M 95.941406 66.667969 "/>
<path fill-rule="nonzero" fill="rgb(0%, 0%, 100%)" fill-opacity="1" d="M 100.617188 68.230469 C 100.617188 67.5625 100.078125 67.023438 99.414062 67.023438 C 98.746094 67.023438 98.207031 67.5625 98.207031 68.230469 C 98.207031 68.894531 98.746094 69.433594 99.414062 69.433594 C 100.078125 69.433594 100.617188 68.894531 100.617188 68.230469 Z M 100.617188 68.230469 "/>
<path fill-rule="nonzero" fill="rgb(0%, 0%, 100%)" fill-opacity="1" d="M 105.296875 69.789062 C 105.296875 69.121094 104.757812 68.582031 104.089844 68.582031 C 103.425781 68.582031 102.882812 69.121094 102.882812 69.789062 C 102.882812 70.453125 103.425781 70.992188 104.089844 70.992188 C 104.757812 70.992188 105.296875 70.453125 105.296875 69.789062 Z M 105.296875 69.789062 "/>
<path fill-rule="nonzero" fill="rgb(0%, 0%, 100%)" fill-opacity="1" d="M 109.972656 71.347656 C 109.972656 70.679688 109.433594 70.140625 108.765625 70.140625 C 108.101562 70.140625 107.5625 70.679688 107.5625 71.347656 C 107.5625 72.011719 108.101562 72.550781 108.765625 72.550781 C 109.433594 72.550781 109.972656 72.011719 109.972656 71.347656 Z M 109.972656 71.347656 "/>
<path fill-rule="nonzero" fill="rgb(0%, 0%, 100%)" fill-opacity="1" d="M 114.648438 72.90625 C 114.648438 72.242188 114.109375 71.699219 113.445312 71.699219 C 112.777344 71.699219 112.238281 72.242188 112.238281 72.90625 C 112.238281 73.570312 112.777344 74.113281 113.445312 74.113281 C 114.109375 74.113281 114.648438 73.570312 114.648438 72.90625 Z M 114.648438 72.90625 "/>
<path fill-rule="nonzero" fill="rgb(0%, 0%, 100%)" fill-opacity="1" d="M 119.328125 74.464844 C 119.328125 73.800781 118.789062 73.261719 118.121094 73.261719 C 117.457031 73.261719 116.917969 73.800781 116.917969 74.464844 C 116.917969 75.132812 117.457031 75.671875 118.121094 75.671875 C 118.789062 75.671875 119.328125 75.132812 119.328125 74.464844 Z M 119.328125 74.464844 "/>
<path fill-rule="nonzero" fill="rgb(0%, 0%, 100%)" fill-opacity="1" d="M 124.003906 76.023438 C 124.003906 75.359375 123.464844 74.820312 122.800781 74.820312 C 122.132812 74.820312 121.59375 75.359375 121.59375 76.023438 C 121.59375 76.691406 122.132812 77.230469 122.800781 77.230469 C 123.464844 77.230469 124.003906 76.691406 124.003906 76.023438 Z M 124.003906 76.023438 "/>
<path fill-rule="nonzero" fill="rgb(0%, 0%, 100%)" fill-opacity="1" d="M 128.683594 77.582031 C 128.683594 76.917969 128.140625 76.378906 127.476562 76.378906 C 126.8125 76.378906 126.269531 76.917969 126.269531 77.582031 C 126.269531 78.25 126.8125 78.789062 127.476562 78.789062 C 128.140625 78.789062 128.683594 78.25 128.683594 77.582031 Z M 128.683594 77.582031 "/>
<path fill-rule="nonzero" fill="rgb(0%, 0%, 100%)" fill-opacity="1" d="M 133.359375 79.144531 C 133.359375 78.476562 132.820312 77.9375 132.152344 77.9375 C 131.488281 77.9375 130.949219 78.476562 130.949219 79.144531 C 130.949219 79.808594 131.488281 80.347656 132.152344 80.347656 C 132.820312 80.347656 133.359375 79.808594 133.359375 79.144531 Z M 133.359375 79.144531 "/>
<path fill-rule="nonzero" fill="rgb(0%, 0%, 100%)" fill-opacity="1" d="M 138.035156 80.703125 C 138.035156 80.035156 137.496094 79.496094 136.832031 79.496094 C 136.164062 79.496094 135.625 80.035156 135.625 80.703125 C 135.625 81.367188 136.164062 81.90625 136.832031 81.90625 C 137.496094 81.90625 138.035156 81.367188 138.035156 80.703125 Z M 138.035156 80.703125 "/>
<path fill-rule="nonzero" fill="rgb(0%, 0%, 100%)" fill-opacity="1" d="M 16.425781 24.574219 C 16.425781 23.90625 15.886719 23.367188 15.222656 23.367188 C 14.554688 23.367188 14.015625 23.90625 14.015625 24.574219 C 14.015625 25.238281 14.554688 25.777344 15.222656 25.777344 C 15.886719 25.777344 16.425781 25.238281 16.425781 24.574219 Z M 16.425781 24.574219 "/>
<path fill-rule="nonzero" fill="rgb(0%, 0%, 100%)" fill-opacity="1" d="M 21.105469 26.132812 C 21.105469 25.464844 20.566406 24.925781 19.898438 24.925781 C 19.234375 24.925781 18.691406 25.464844 18.691406 26.132812 C 18.691406 26.796875 19.234375 27.335938 19.898438 27.335938 C 20.566406 27.335938 21.105469 26.796875 21.105469 26.132812 Z M 21.105469 26.132812 "/>
<path fill-rule="nonzero" fill="rgb(0%, 0%, 100%)" fill-opacity="1" d="M 25.78125 27.691406 C 25.78125 27.023438 25.242188 26.484375 24.574219 26.484375 C 23.910156 26.484375 23.371094 27.023438 23.371094 27.691406 C 23.371094 28.355469 23.910156 28.898438 24.574219 28.898438 C 25.242188 28.898438 25.78125 28.355469 25.78125 27.691406 Z M 25.78125 27.691406 "/>
<path fill-rule="nonzero" fill="rgb(0%, 0%, 100%)" fill-opacity="1" d="M 30.457031 29.25 C 30.457031 28.585938 29.917969 28.042969 29.253906 28.042969 C 28.585938 28.042969 28.046875 28.585938 28.046875 29.25 C 28.046875 29.914062 28.585938 30.457031 29.253906 30.457031 C 29.917969 30.457031 30.457031 29.914062 30.457031 29.25 Z M 30.457031 29.25 "/>
<path fill-rule="nonzero" fill="rgb(0%, 0%, 100%)" fill-opacity="1" d="M 35.136719 30.808594 C 35.136719 30.144531 34.597656 29.605469 33.929688 29.605469 C 33.265625 29.605469 32.726562 30.144531 32.726562 30.808594 C 32.726562 31.476562 33.265625 32.015625 33.929688 32.015625 C 34.597656 32.015625 35.136719 31.476562 35.136719 30.808594 Z M 35.136719 30.808594 "/>
<path fill-rule="nonzero" fill="rgb(0%, 0%, 100%)" fill-opacity="1" d="M 39.8125 32.367188 C 39.8125 31.703125 39.273438 31.164062 38.609375 31.164062 C 37.941406 31.164062 37.402344 31.703125 37.402344 32.367188 C 37.402344 33.035156 37.941406 33.574219 38.609375 33.574219 C 39.273438 33.574219 39.8125 33.035156 39.8125 32.367188 Z M 39.8125 32.367188 "/>
<path fill-rule="nonzero" fill="rgb(0%, 0%, 100%)" fill-opacity="1" d="M 44.492188 33.929688 C 44.492188 33.261719 43.949219 32.722656 43.285156 32.722656 C 42.621094 32.722656 42.078125 33.261719 42.078125 33.929688 C 42.078125 34.59375 42.621094 35.132812 43.285156 35.132812 C 43.949219 35.132812 44.492188 34.59375 44.492188 33.929688 Z M 44.492188 33.929688 "/>
<path fill-rule="nonzero" fill="rgb(0%, 0%, 100%)" fill-opacity="1" d="M 49.167969 35.488281 C 49.167969 34.820312 48.628906 34.28125 47.960938 34.28125 C 47.296875 34.28125 46.757812 34.820312 46.757812 35.488281 C 46.757812 36.152344 47.296875 36.691406 47.960938 36.691406 C 48.628906 36.691406 49.167969 36.152344 49.167969 35.488281 Z M 49.167969 35.488281 "/>
<path fill-rule="nonzero" fill="rgb(0%, 0%, 100%)" fill-opacity="1" d="M 53.84375 37.046875 C 53.84375 36.378906 53.304688 35.839844 52.640625 35.839844 C 51.972656 35.839844 51.433594 36.378906 51.433594 37.046875 C 51.433594 37.710938 51.972656 38.25 52.640625 38.25 C 53.304688 38.25 53.84375 37.710938 53.84375 37.046875 Z M 53.84375 37.046875 "/>
<path fill-rule="nonzero" fill="rgb(0%, 0%, 100%)" fill-opacity="1" d="M 58.523438 38.605469 C 58.523438 37.941406 57.984375 37.398438 57.316406 37.398438 C 56.652344 37.398438 56.113281 37.941406 56.113281 38.605469 C 56.113281 39.269531 56.652344 39.8125 57.316406 39.8125 C 57.984375 39.8125 58.523438 39.269531 58.523438 38.605469 Z M 58.523438 38.605469 "/>
<path fill-rule="nonzero" fill="rgb(0%, 0%, 100%)" fill-opacity="1" d="M 63.199219 40.164062 C 63.199219 39.5 62.660156 38.957031 61.996094 38.957031 C 61.328125 38.957031 60.789062 39.5 60.789062 40.164062 C 60.789062 40.832031 61.328125 41.371094 61.996094 41.371094 C 62.660156 41.371094 63.199219 40.832031 63.199219 40.164062 Z M 63.199219 40.164062 "/>
<path fill-rule="nonzero" fill="rgb(0%, 0%, 100%)" fill-opacity="1" d="M 67.878906 41.722656 C 67.878906 41.058594 67.335938 40.519531 66.671875 40.519531 C 66.007812 40.519531 65.464844 41.058594 65.464844 41.722656 C 65.464844 42.390625 66.007812 42.929688 66.671875 42.929688 C 67.335938 42.929688 67.878906 42.390625 67.878906 41.722656 Z M 67.878906 41.722656 "/>
<path fill-rule="nonzero" fill="rgb(0%, 0%, 100%)" fill-opacity="1" d="M 72.554688 43.28125 C 72.554688 42.617188 72.015625 42.078125 71.347656 42.078125 C 70.683594 42.078125 70.144531 42.617188 70.144531 43.28125 C 70.144531 43.949219 70.683594 44.488281 71.347656 44.488281 C 72.015625 44.488281 72.554688 43.949219 72.554688 43.28125 Z M 72.554688 43.28125 "/>
<path fill-rule="nonzero" fill="rgb(0%, 0%, 100%)" fill-opacity="1" d="M 77.230469 44.84375 C 77.230469 44.175781 76.691406 43.636719 76.027344 43.636719 C 75.359375 43.636719 74.820312 44.175781 74.820312 44.84375 C 74.820312 45.507812 75.359375 46.046875 76.027344 46.046875 C 76.691406 46.046875 77.230469 45.507812 77.230469 44.84375 Z M 77.230469 44.84375 "/>
<path fill-rule="nonzero" fill="rgb(0%, 0%, 100%)" fill-opacity="1" d="M 81.910156 46.402344 C 81.910156 45.734375 81.371094 45.195312 80.703125 45.195312 C 80.039062 45.195312 79.5 45.734375 79.5 46.402344 C 79.5 47.066406 80.039062 47.605469 80.703125 47.605469 C 81.371094 47.605469 81.910156 47.066406 81.910156 46.402344 Z M 81.910156 46.402344 "/>
<path fill-rule="nonzero" fill="rgb(0%, 0%, 100%)" fill-opacity="1" d="M 86.585938 47.960938 C 86.585938 47.292969 86.046875 46.753906 85.382812 46.753906 C 84.714844 46.753906 84.175781 47.292969 84.175781 47.960938 C 84.175781 48.625 84.714844 49.164062 85.382812 49.164062 C 86.046875 49.164062 86.585938 48.625 86.585938 47.960938 Z M 86.585938 47.960938 "/>
<path fill-rule="nonzero" fill="rgb(0%, 0%, 100%)" fill-opacity="1" d="M 91.265625 49.519531 C 91.265625 48.855469 90.722656 48.3125 90.058594 48.3125 C 89.390625 48.3125 88.851562 48.855469 88.851562 49.519531 C 88.851562 50.183594 89.390625 50.726562 90.058594 50.726562 C 90.722656 50.726562 91.265625 50.183594 91.265625 49.519531 Z M 91.265625 49.519531 "/>
<path fill-rule="nonzero" fill="rgb(0%, 0%, 100%)" fill-opacity="1" d="M 95.941406 51.078125 C 95.941406 50.414062 95.402344 49.875 94.734375 49.875 C 94.070312 49.875 93.53125 50.414062 93.53125 51.078125 C 93.53125 51.746094 94.070312 52.285156 94.734375 52.285156 C 95.402344 52.285156 95.941406 51.746094 95.941406 51.078125 Z M 95.941406 51.078125 "/>
<path fill-rule="nonzero" fill="rgb(0%, 0%, 100%)" fill-opacity="1" d="M 100.617188 52.636719 C 100.617188 51.972656 100.078125 51.433594 99.414062 51.433594 C 98.746094 51.433594 98.207031 51.972656 98.207031 52.636719 C 98.207031 53.304688 98.746094 53.84375 99.414062 53.84375 C 100.078125 53.84375 100.617188 53.304688 100.617188 52.636719 Z M 100.617188 52.636719 "/>
<path fill-rule="nonzero" fill="rgb(0%, 0%, 100%)" fill-opacity="1" d="M 105.296875 54.195312 C 105.296875 53.53125 104.757812 52.992188 104.089844 52.992188 C 103.425781 52.992188 102.882812 53.53125 102.882812 54.195312 C 102.882812 54.863281 103.425781 55.402344 104.089844 55.402344 C 104.757812 55.402344 105.296875 54.863281 105.296875 54.195312 Z M 105.296875 54.195312 "/>
<path fill-rule="nonzero" fill="rgb(0%, 0%, 100%)" fill-opacity="1" d="M 109.972656 55.757812 C 109.972656 55.089844 109.433594 54.550781 108.765625 54.550781 C 108.101562 54.550781 107.5625 55.089844 107.5625 55.757812 C 107.5625 56.421875 108.101562 56.960938 108.765625 56.960938 C 109.433594 56.960938 109.972656 56.421875 109.972656 55.757812 Z M 109.972656 55.757812 "/>
<path fill-rule="nonzero" fill="rgb(0%, 0%, 100%)" fill-opacity="1" d="M 114.648438 57.316406 C 114.648438 56.648438 114.109375 56.109375 113.445312 56.109375 C 112.777344 56.109375 112.238281 56.648438 112.238281 57.316406 C 112.238281 57.980469 112.777344 58.519531 113.445312 58.519531 C 114.109375 58.519531 114.648438 57.980469 114.648438 57.316406 Z M 114.648438 57.316406 "/>
<path fill-rule="nonzero" fill="rgb(0%, 0%, 100%)" fill-opacity="1" d="M 119.328125 58.875 C 119.328125 58.207031 118.789062 57.667969 118.121094 57.667969 C 117.457031 57.667969 116.917969 58.207031 116.917969 58.875 C 116.917969 59.539062 117.457031 60.082031 118.121094 60.082031 C 118.789062 60.082031 119.328125 59.539062 119.328125 58.875 Z M 119.328125 58.875 "/>
<path fill-rule="nonzero" fill="rgb(0%, 0%, 100%)" fill-opacity="1" d="M 124.003906 60.433594 C 124.003906 59.769531 123.464844 59.226562 122.800781 59.226562 C 122.132812 59.226562 121.59375 59.769531 121.59375 60.433594 C 121.59375 61.097656 122.132812 61.640625 122.800781 61.640625 C 123.464844 61.640625 124.003906 61.097656 124.003906 60.433594 Z M 124.003906 60.433594 "/>
<path fill-rule="nonzero" fill="rgb(0%, 0%, 100%)" fill-opacity="1" d="M 128.683594 61.992188 C 128.683594 61.328125 128.140625 60.789062 127.476562 60.789062 C 126.8125 60.789062 126.269531 61.328125 126.269531 61.992188 C 126.269531 62.660156 126.8125 63.199219 127.476562 63.199219 C 128.140625 63.199219 128.683594 62.660156 128.683594 61.992188 Z M 128.683594 61.992188 "/>
<path fill-rule="nonzero" fill="rgb(0%, 0%, 100%)" fill-opacity="1" d="M 133.359375 63.550781 C 133.359375 62.886719 132.820312 62.347656 132.152344 62.347656 C 131.488281 62.347656 130.949219 62.886719 130.949219 63.550781 C 130.949219 64.21875 131.488281 64.757812 132.152344 64.757812 C 132.820312 64.757812 133.359375 64.21875 133.359375 63.550781 Z M 133.359375 63.550781 "/>
<path fill-rule="nonzero" fill="rgb(0%, 0%, 100%)" fill-opacity="1" d="M 138.035156 65.109375 C 138.035156 64.445312 137.496094 63.90625 136.832031 63.90625 C 136.164062 63.90625 135.625 64.445312 135.625 65.109375 C 135.625 65.777344 136.164062 66.316406 136.832031 66.316406 C 137.496094 66.316406 138.035156 65.777344 138.035156 65.109375 Z M 138.035156 65.109375 "/>
<path fill-rule="nonzero" fill="rgb(0%, 0%, 100%)" fill-opacity="1" d="M 25.78125 12.101562 C 25.78125 11.433594 25.242188 10.894531 24.574219 10.894531 C 23.910156 10.894531 23.371094 11.433594 23.371094 12.101562 C 23.371094 12.765625 23.910156 13.304688 24.574219 13.304688 C 25.242188 13.304688 25.78125 12.765625 25.78125 12.101562 Z M 25.78125 12.101562 "/>
<path fill-rule="nonzero" fill="rgb(0%, 0%, 100%)" fill-opacity="1" d="M 30.457031 13.660156 C 30.457031 12.992188 29.917969 12.453125 29.253906 12.453125 C 28.585938 12.453125 28.046875 12.992188 28.046875 13.660156 C 28.046875 14.324219 28.585938 14.863281 29.253906 14.863281 C 29.917969 14.863281 30.457031 14.324219 30.457031 13.660156 Z M 30.457031 13.660156 "/>
<path fill-rule="nonzero" fill="rgb(0%, 0%, 100%)" fill-opacity="1" d="M 35.136719 15.21875 C 35.136719 14.554688 34.597656 14.011719 33.929688 14.011719 C 33.265625 14.011719 32.726562 14.554688 32.726562 15.21875 C 32.726562 15.882812 33.265625 16.425781 33.929688 16.425781 C 34.597656 16.425781 35.136719 15.882812 35.136719 15.21875 Z M 35.136719 15.21875 "/>
<path fill-rule="nonzero" fill="rgb(0%, 0%, 100%)" fill-opacity="1" d="M 39.8125 16.777344 C 39.8125 16.113281 39.273438 15.570312 38.609375 15.570312 C 37.941406 15.570312 37.402344 16.113281 37.402344 16.777344 C 37.402344 17.445312 37.941406 17.984375 38.609375 17.984375 C 39.273438 17.984375 39.8125 17.445312 39.8125 16.777344 Z M 39.8125 16.777344 "/>
<path fill-rule="nonzero" fill="rgb(0%, 0%, 100%)" fill-opacity="1" d="M 44.492188 18.335938 C 44.492188 17.671875 43.949219 17.132812 43.285156 17.132812 C 42.621094 17.132812 42.078125 17.671875 42.078125 18.335938 C 42.078125 19.003906 42.621094 19.542969 43.285156 19.542969 C 43.949219 19.542969 44.492188 19.003906 44.492188 18.335938 Z M 44.492188 18.335938 "/>
<path fill-rule="nonzero" fill="rgb(0%, 0%, 100%)" fill-opacity="1" d="M 49.167969 19.894531 C 49.167969 19.230469 48.628906 18.691406 47.960938 18.691406 C 47.296875 18.691406 46.757812 19.230469 46.757812 19.894531 C 46.757812 20.5625 47.296875 21.101562 47.960938 21.101562 C 48.628906 21.101562 49.167969 20.5625 49.167969 19.894531 Z M 49.167969 19.894531 "/>
<path fill-rule="nonzero" fill="rgb(0%, 0%, 100%)" fill-opacity="1" d="M 53.84375 21.457031 C 53.84375 20.789062 53.304688 20.25 52.640625 20.25 C 51.972656 20.25 51.433594 20.789062 51.433594 21.457031 C 51.433594 22.121094 51.972656 22.660156 52.640625 22.660156 C 53.304688 22.660156 53.84375 22.121094 53.84375 21.457031 Z M 53.84375 21.457031 "/>
<path fill-rule="nonzero" fill="rgb(0%, 0%, 100%)" fill-opacity="1" d="M 58.523438 23.015625 C 58.523438 22.347656 57.984375 21.808594 57.316406 21.808594 C 56.652344 21.808594 56.113281 22.347656 56.113281 23.015625 C 56.113281 23.679688 56.652344 24.21875 57.316406 24.21875 C 57.984375 24.21875 58.523438 23.679688 58.523438 23.015625 Z M 58.523438 23.015625 "/>
<path fill-rule="nonzero" fill="rgb(0%, 0%, 100%)" fill-opacity="1" d="M 63.199219 24.574219 C 63.199219 23.90625 62.660156 23.367188 61.996094 23.367188 C 61.328125 23.367188 60.789062 23.90625 60.789062 24.574219 C 60.789062 25.238281 61.328125 25.777344 61.996094 25.777344 C 62.660156 25.777344 63.199219 25.238281 63.199219 24.574219 Z M 63.199219 24.574219 "/>
<path fill-rule="nonzero" fill="rgb(0%, 0%, 100%)" fill-opacity="1" d="M 67.878906 26.132812 C 67.878906 25.46875 67.335938 24.925781 66.671875 24.925781 C 66.007812 24.925781 65.464844 25.46875 65.464844 26.132812 C 65.464844 26.796875 66.007812 27.339844 66.671875 27.339844 C 67.335938 27.339844 67.878906 26.796875 67.878906 26.132812 Z M 67.878906 26.132812 "/>
<path fill-rule="nonzero" fill="rgb(0%, 0%, 100%)" fill-opacity="1" d="M 72.554688 27.691406 C 72.554688 27.027344 72.015625 26.488281 71.347656 26.488281 C 70.683594 26.488281 70.144531 27.027344 70.144531 27.691406 C 70.144531 28.359375 70.683594 28.898438 71.347656 28.898438 C 72.015625 28.898438 72.554688 28.359375 72.554688 27.691406 Z M 72.554688 27.691406 "/>
<path fill-rule="nonzero" fill="rgb(0%, 0%, 100%)" fill-opacity="1" d="M 77.230469 29.25 C 77.230469 28.585938 76.691406 28.046875 76.027344 28.046875 C 75.359375 28.046875 74.820312 28.585938 74.820312 29.25 C 74.820312 29.917969 75.359375 30.457031 76.027344 30.457031 C 76.691406 30.457031 77.230469 29.917969 77.230469 29.25 Z M 77.230469 29.25 "/>
<path fill-rule="nonzero" fill="rgb(0%, 0%, 100%)" fill-opacity="1" d="M 81.910156 30.808594 C 81.910156 30.144531 81.371094 29.605469 80.703125 29.605469 C 80.039062 29.605469 79.5 30.144531 79.5 30.808594 C 79.5 31.476562 80.039062 32.015625 80.703125 32.015625 C 81.371094 32.015625 81.910156 31.476562 81.910156 30.808594 Z M 81.910156 30.808594 "/>
<path fill-rule="nonzero" fill="rgb(0%, 0%, 100%)" fill-opacity="1" d="M 86.585938 32.371094 C 86.585938 31.703125 86.046875 31.164062 85.382812 31.164062 C 84.714844 31.164062 84.175781 31.703125 84.175781 32.371094 C 84.175781 33.035156 84.714844 33.574219 85.382812 33.574219 C 86.046875 33.574219 86.585938 33.035156 86.585938 32.371094 Z M 86.585938 32.371094 "/>
<path fill-rule="nonzero" fill="rgb(0%, 0%, 100%)" fill-opacity="1" d="M 91.265625 33.929688 C 91.265625 33.261719 90.722656 32.722656 90.058594 32.722656 C 89.390625 32.722656 88.851562 33.261719 88.851562 33.929688 C 88.851562 34.59375 89.390625 35.132812 90.058594 35.132812 C 90.722656 35.132812 91.265625 34.59375 91.265625 33.929688 Z M 91.265625 33.929688 "/>
<path fill-rule="nonzero" fill="rgb(0%, 0%, 100%)" fill-opacity="1" d="M 95.941406 35.488281 C 95.941406 34.820312 95.402344 34.28125 94.734375 34.28125 C 94.070312 34.28125 93.53125 34.820312 93.53125 35.488281 C 93.53125 36.152344 94.070312 36.695312 94.734375 36.695312 C 95.402344 36.695312 95.941406 36.152344 95.941406 35.488281 Z M 95.941406 35.488281 "/>
<path fill-rule="nonzero" fill="rgb(0%, 0%, 100%)" fill-opacity="1" d="M 100.617188 37.046875 C 100.617188 36.382812 100.078125 35.839844 99.414062 35.839844 C 98.746094 35.839844 98.207031 36.382812 98.207031 37.046875 C 98.207031 37.710938 98.746094 38.253906 99.414062 38.253906 C 100.078125 38.253906 100.617188 37.710938 100.617188 37.046875 Z M 100.617188 37.046875 "/>
<path fill-rule="nonzero" fill="rgb(0%, 0%, 100%)" fill-opacity="1" d="M 105.296875 38.605469 C 105.296875 37.941406 104.757812 37.402344 104.089844 37.402344 C 103.425781 37.402344 102.882812 37.941406 102.882812 38.605469 C 102.882812 39.273438 103.425781 39.8125 104.089844 39.8125 C 104.757812 39.8125 105.296875 39.273438 105.296875 38.605469 Z M 105.296875 38.605469 "/>
<path fill-rule="nonzero" fill="rgb(0%, 0%, 100%)" fill-opacity="1" d="M 109.972656 40.164062 C 109.972656 39.5 109.433594 38.960938 108.765625 38.960938 C 108.101562 38.960938 107.5625 39.5 107.5625 40.164062 C 107.5625 40.832031 108.101562 41.371094 108.765625 41.371094 C 109.433594 41.371094 109.972656 40.832031 109.972656 40.164062 Z M 109.972656 40.164062 "/>
<path fill-rule="nonzero" fill="rgb(0%, 0%, 100%)" fill-opacity="1" d="M 114.648438 41.722656 C 114.648438 41.058594 114.109375 40.519531 113.445312 40.519531 C 112.777344 40.519531 112.238281 41.058594 112.238281 41.722656 C 112.238281 42.390625 112.777344 42.929688 113.445312 42.929688 C 114.109375 42.929688 114.648438 42.390625 114.648438 41.722656 Z M 114.648438 41.722656 "/>
<path fill-rule="nonzero" fill="rgb(0%, 0%, 100%)" fill-opacity="1" d="M 119.328125 43.285156 C 119.328125 42.617188 118.789062 42.078125 118.121094 42.078125 C 117.457031 42.078125 116.917969 42.617188 116.917969 43.285156 C 116.917969 43.949219 117.457031 44.488281 118.121094 44.488281 C 118.789062 44.488281 119.328125 43.949219 119.328125 43.285156 Z M 119.328125 43.285156 "/>
<path fill-rule="nonzero" fill="rgb(0%, 0%, 100%)" fill-opacity="1" d="M 124.003906 44.84375 C 124.003906 44.175781 123.464844 43.636719 122.800781 43.636719 C 122.132812 43.636719 121.59375 44.175781 121.59375 44.84375 C 121.59375 45.507812 122.132812 46.046875 122.800781 46.046875 C 123.464844 46.046875 124.003906 45.507812 124.003906 44.84375 Z M 124.003906 44.84375 "/>
<path fill-rule="nonzero" fill="rgb(0%, 0%, 100%)" fill-opacity="1" d="M 128.683594 46.402344 C 128.683594 45.738281 128.140625 45.195312 127.476562 45.195312 C 126.8125 45.195312 126.269531 45.738281 126.269531 46.402344 C 126.269531 47.066406 126.8125 47.609375 127.476562 47.609375 C 128.140625 47.609375 128.683594 47.066406 128.683594 46.402344 Z M 128.683594 46.402344 "/>
<path fill-rule="nonzero" fill="rgb(0%, 0%, 100%)" fill-opacity="1" d="M 133.359375 47.960938 C 133.359375 47.296875 132.820312 46.753906 132.152344 46.753906 C 131.488281 46.753906 130.949219 47.296875 130.949219 47.960938 C 130.949219 48.628906 131.488281 49.167969 132.152344 49.167969 C 132.820312 49.167969 133.359375 48.628906 133.359375 47.960938 Z M 133.359375 47.960938 "/>
<path fill-rule="nonzero" fill="rgb(0%, 0%, 100%)" fill-opacity="1" d="M 138.035156 49.519531 C 138.035156 48.855469 137.496094 48.316406 136.832031 48.316406 C 136.164062 48.316406 135.625 48.855469 135.625 49.519531 C 135.625 50.1875 136.164062 50.726562 136.832031 50.726562 C 137.496094 50.726562 138.035156 50.1875 138.035156 49.519531 Z M 138.035156 49.519531 "/>
<path fill-rule="nonzero" fill="rgb(0%, 0%, 100%)" fill-opacity="1" d="M 72.554688 12.101562 C 72.554688 11.433594 72.015625 10.894531 71.347656 10.894531 C 70.683594 10.894531 70.144531 11.433594 70.144531 12.101562 C 70.144531 12.765625 70.683594 13.304688 71.347656 13.304688 C 72.015625 13.304688 72.554688 12.765625 72.554688 12.101562 Z M 72.554688 12.101562 "/>
<path fill-rule="nonzero" fill="rgb(0%, 0%, 100%)" fill-opacity="1" d="M 77.230469 13.660156 C 77.230469 12.996094 76.691406 12.453125 76.027344 12.453125 C 75.359375 12.453125 74.820312 12.996094 74.820312 13.660156 C 74.820312 14.324219 75.359375 14.867188 76.027344 14.867188 C 76.691406 14.867188 77.230469 14.324219 77.230469 13.660156 Z M 77.230469 13.660156 "/>
<path fill-rule="nonzero" fill="rgb(0%, 0%, 100%)" fill-opacity="1" d="M 81.910156 15.21875 C 81.910156 14.554688 81.371094 14.015625 80.703125 14.015625 C 80.039062 14.015625 79.5 14.554688 79.5 15.21875 C 79.5 15.886719 80.039062 16.425781 80.703125 16.425781 C 81.371094 16.425781 81.910156 15.886719 81.910156 15.21875 Z M 81.910156 15.21875 "/>
<path fill-rule="nonzero" fill="rgb(0%, 0%, 100%)" fill-opacity="1" d="M 86.585938 16.777344 C 86.585938 16.113281 86.046875 15.574219 85.382812 15.574219 C 84.714844 15.574219 84.175781 16.113281 84.175781 16.777344 C 84.175781 17.445312 84.714844 17.984375 85.382812 17.984375 C 86.046875 17.984375 86.585938 17.445312 86.585938 16.777344 Z M 86.585938 16.777344 "/>
<path fill-rule="nonzero" fill="rgb(0%, 0%, 100%)" fill-opacity="1" d="M 91.265625 18.335938 C 91.265625 17.671875 90.722656 17.132812 90.058594 17.132812 C 89.390625 17.132812 88.851562 17.671875 88.851562 18.335938 C 88.851562 19.003906 89.390625 19.542969 90.058594 19.542969 C 90.722656 19.542969 91.265625 19.003906 91.265625 18.335938 Z M 91.265625 18.335938 "/>
<path fill-rule="nonzero" fill="rgb(0%, 0%, 100%)" fill-opacity="1" d="M 95.941406 19.898438 C 95.941406 19.230469 95.402344 18.691406 94.734375 18.691406 C 94.070312 18.691406 93.53125 19.230469 93.53125 19.898438 C 93.53125 20.5625 94.070312 21.101562 94.734375 21.101562 C 95.402344 21.101562 95.941406 20.5625 95.941406 19.898438 Z M 95.941406 19.898438 "/>
<path fill-rule="nonzero" fill="rgb(0%, 0%, 100%)" fill-opacity="1" d="M 100.617188 21.457031 C 100.617188 20.789062 100.078125 20.25 99.414062 20.25 C 98.746094 20.25 98.207031 20.789062 98.207031 21.457031 C 98.207031 22.121094 98.746094 22.660156 99.414062 22.660156 C 100.078125 22.660156 100.617188 22.121094 100.617188 21.457031 Z M 100.617188 21.457031 "/>
<path fill-rule="nonzero" fill="rgb(0%, 0%, 100%)" fill-opacity="1" d="M 105.296875 23.015625 C 105.296875 22.351562 104.757812 21.808594 104.089844 21.808594 C 103.425781 21.808594 102.882812 22.351562 102.882812 23.015625 C 102.882812 23.679688 103.425781 24.222656 104.089844 24.222656 C 104.757812 24.222656 105.296875 23.679688 105.296875 23.015625 Z M 105.296875 23.015625 "/>
<path fill-rule="nonzero" fill="rgb(0%, 0%, 100%)" fill-opacity="1" d="M 109.972656 24.574219 C 109.972656 23.910156 109.433594 23.367188 108.765625 23.367188 C 108.101562 23.367188 107.5625 23.910156 107.5625 24.574219 C 107.5625 25.242188 108.101562 25.78125 108.765625 25.78125 C 109.433594 25.78125 109.972656 25.242188 109.972656 24.574219 Z M 109.972656 24.574219 "/>
<path fill-rule="nonzero" fill="rgb(0%, 0%, 100%)" fill-opacity="1" d="M 114.648438 26.132812 C 114.648438 25.46875 114.109375 24.929688 113.445312 24.929688 C 112.777344 24.929688 112.238281 25.46875 112.238281 26.132812 C 112.238281 26.800781 112.777344 27.339844 113.445312 27.339844 C 114.109375 27.339844 114.648438 26.800781 114.648438 26.132812 Z M 114.648438 26.132812 "/>
<path fill-rule="nonzero" fill="rgb(0%, 0%, 100%)" fill-opacity="1" d="M 119.328125 27.691406 C 119.328125 27.027344 118.789062 26.488281 118.121094 26.488281 C 117.457031 26.488281 116.917969 27.027344 116.917969 27.691406 C 116.917969 28.359375 117.457031 28.898438 118.121094 28.898438 C 118.789062 28.898438 119.328125 28.359375 119.328125 27.691406 Z M 119.328125 27.691406 "/>
<path fill-rule="nonzero" fill="rgb(0%, 0%, 100%)" fill-opacity="1" d="M 124.003906 29.253906 C 124.003906 28.585938 123.464844 28.046875 122.800781 28.046875 C 122.132812 28.046875 121.59375 28.585938 121.59375 29.253906 C 121.59375 29.917969 122.132812 30.457031 122.800781 30.457031 C 123.464844 30.457031 124.003906 29.917969 124.003906 29.253906 Z M 124.003906 29.253906 "/>
<path fill-rule="nonzero" fill="rgb(0%, 0%, 100%)" fill-opacity="1" d="M 128.683594 30.8125 C 128.683594 30.144531 128.140625 29.605469 127.476562 29.605469 C 126.8125 29.605469 126.269531 30.144531 126.269531 30.8125 C 126.269531 31.476562 126.8125 32.015625 127.476562 32.015625 C 128.140625 32.015625 128.683594 31.476562 128.683594 30.8125 Z M 128.683594 30.8125 "/>
<path fill-rule="nonzero" fill="rgb(0%, 0%, 100%)" fill-opacity="1" d="M 133.359375 32.371094 C 133.359375 31.703125 132.820312 31.164062 132.152344 31.164062 C 131.488281 31.164062 130.949219 31.703125 130.949219 32.371094 C 130.949219 33.035156 131.488281 33.574219 132.152344 33.574219 C 132.820312 33.574219 133.359375 33.035156 133.359375 32.371094 Z M 133.359375 32.371094 "/>
<path fill-rule="nonzero" fill="rgb(0%, 0%, 100%)" fill-opacity="1" d="M 138.035156 33.929688 C 138.035156 33.265625 137.496094 32.722656 136.832031 32.722656 C 136.164062 32.722656 135.625 33.265625 135.625 33.929688 C 135.625 34.59375 136.164062 35.136719 136.832031 35.136719 C 137.496094 35.136719 138.035156 34.59375 138.035156 33.929688 Z M 138.035156 33.929688 "/>
<path fill-rule="nonzero" fill="rgb(0%, 0%, 100%)" fill-opacity="1" d="M 114.648438 10.542969 C 114.648438 9.878906 114.109375 9.335938 113.445312 9.335938 C 112.777344 9.335938 112.238281 9.878906 112.238281 10.542969 C 112.238281 11.207031 112.777344 11.75 113.445312 11.75 C 114.109375 11.75 114.648438 11.207031 114.648438 10.542969 Z M 114.648438 10.542969 "/>
<path fill-rule="nonzero" fill="rgb(0%, 0%, 100%)" fill-opacity="1" d="M 119.328125 12.101562 C 119.328125 11.4375 118.789062 10.898438 118.121094 10.898438 C 117.457031 10.898438 116.917969 11.4375 116.917969 12.101562 C 116.917969 12.769531 117.457031 13.308594 118.121094 13.308594 C 118.789062 13.308594 119.328125 12.769531 119.328125 12.101562 Z M 119.328125 12.101562 "/>
<path fill-rule="nonzero" fill="rgb(0%, 0%, 100%)" fill-opacity="1" d="M 124.003906 13.660156 C 124.003906 12.996094 123.464844 12.457031 122.800781 12.457031 C 122.132812 12.457031 121.59375 12.996094 121.59375 13.660156 C 121.59375 14.328125 122.132812 14.867188 122.800781 14.867188 C 123.464844 14.867188 124.003906 14.328125 124.003906 13.660156 Z M 124.003906 13.660156 "/>
<path fill-rule="nonzero" fill="rgb(0%, 0%, 100%)" fill-opacity="1" d="M 128.683594 15.21875 C 128.683594 14.554688 128.140625 14.015625 127.476562 14.015625 C 126.8125 14.015625 126.269531 14.554688 126.269531 15.21875 C 126.269531 15.886719 126.8125 16.425781 127.476562 16.425781 C 128.140625 16.425781 128.683594 15.886719 128.683594 15.21875 Z M 128.683594 15.21875 "/>
<path fill-rule="nonzero" fill="rgb(0%, 0%, 100%)" fill-opacity="1" d="M 133.359375 16.78125 C 133.359375 16.113281 132.820312 15.574219 132.152344 15.574219 C 131.488281 15.574219 130.949219 16.113281 130.949219 16.78125 C 130.949219 17.445312 131.488281 17.984375 132.152344 17.984375 C 132.820312 17.984375 133.359375 17.445312 133.359375 16.78125 Z M 133.359375 16.78125 "/>
<path fill-rule="nonzero" fill="rgb(0%, 0%, 100%)" fill-opacity="1" d="M 138.035156 18.339844 C 138.035156 17.671875 137.496094 17.132812 136.832031 17.132812 C 136.164062 17.132812 135.625 17.671875 135.625 18.339844 C 135.625 19.003906 136.164062 19.542969 136.832031 19.542969 C 137.496094 19.542969 138.035156 19.003906 138.035156 18.339844 Z M 138.035156 18.339844 "/>
<path fill="none" stroke-width="0.3985" stroke-linecap="butt" stroke-linejoin="miter" stroke="rgb(0%, 0%, 0%)" stroke-opacity="1" stroke-miterlimit="10" d="M -70.159153 0.0002025 L 69.700222 0.0002025 " transform="matrix(1, 0, 0, -1, 76.02634, 76.02364)"/>
<path fill="none" stroke-width="0.31879" stroke-linecap="round" stroke-linejoin="round" stroke="rgb(0%, 0%, 0%)" stroke-opacity="1" stroke-miterlimit="10" d="M -1.19553 1.593953 C -1.093968 0.996296 -0.0002175 0.0978588 0.300564 0.0002025 C -0.0002175 -0.10136 -1.093968 -0.995891 -1.19553 -1.593547 " transform="matrix(1, 0, 0, -1, 145.72678, 76.02364)"/>
<path fill="none" stroke-width="0.3985" stroke-linecap="butt" stroke-linejoin="miter" stroke="rgb(0%, 0%, 0%)" stroke-opacity="1" stroke-miterlimit="10" d="M 0.00100375 -70.159954 L 0.00100375 69.699421 " transform="matrix(1, 0, 0, -1, 76.02634, 76.02364)"/>
<path fill="none" stroke-width="0.31879" stroke-linecap="round" stroke-linejoin="round" stroke="rgb(0%, 0%, 0%)" stroke-opacity="1" stroke-miterlimit="10" d="M -1.196331 1.592746 C -1.094769 0.99509 -0.00101875 0.100559 0.299763 -0.00100375 C -0.00101875 -0.09866 -1.094769 -0.997097 -1.196331 -1.594754 " transform="matrix(0, -1, -1, 0, 76.02634, 6.3232)"/>
</svg>
