<?xml version="1.0" encoding="UTF-8"?>
<svg xmlns="http://www.w3.org/2000/svg" xmlns:xlink="http://www.w3.org/1999/xlink" width="165.94pt" height="165.94pt" viewBox="0 0 165.94 165.94">
<path fill="none" stroke-width="0.3985" stroke-linecap="butt" stroke-linejoin="miter" stroke="rgb(50%, 50%, 50%)" stroke-opacity="1" stroke-miterlimit="10" d="M -77.103803 0.00025 L 76.646197 0.00025 " transform="matrix(1, 0, 0, -1, 82.97099, 82.969)"/>
<path fill="none" stroke-width="0.31879" stroke-linecap="round" stroke-linejoin="round" stroke="rgb(50%, 50%, 50%)" stroke-opacity="1" stroke-miterlimit="10" d="M -1.194285 1.594 C -1.096629 0.996344 0.0010275 0.0979062 0.297903 0.00025 C 0.0010275 -0.101313 -1.096629 -0.995844 -1.194285 -1.5935 " transform="matrix(1, 0, 0, -1, 159.61616, 82.969)"/>
<path fill="none" stroke-width="0.3985" stroke-linecap="butt" stroke-linejoin="miter" stroke="rgb(50%, 50%, 50%)" stroke-opacity="1" stroke-miterlimit="10" d="M 0.00166625 -77.105219 L 0.00166625 76.644781 " transform="matrix(1, 0, 0, -1, 82.97099, 82.969)"/>
<path fill="none" stroke-width="0.31879" stroke-linecap="round" stroke-linejoin="round" stroke="rgb(50%, 50%, 50%)" stroke-opacity="1" stroke-miterlimit="10" d="M -1.195701 1.592084 C -1.094139 0.994428 -0.00038875 0.0998963 0.300392 -0.00166625 C -0.00038875 -0.0993225 -1.094139 -0.99776 -1.195701 -1.595416 " transform="matrix(0, -1, -1, 0, 82.97099, 6.32383)"/>
<path fill="none" stroke-width="0.79701" stroke-linecap="butt" stroke-linejoin="miter" stroke="rgb(100%, 0%, 0%)" stroke-opacity="1" stroke-miterlimit="10" d="M -68.03349 -7.558344 L -67.006146 -7.675531 L -65.982709 -7.792719 L -64.959271 -7.917719 L -63.931928 -8.042719 L -62.90849 -8.175531 L -61.881146 -8.308344 L -60.857709 -8.448969 L -59.834271 -8.5935 L -58.806928 -8.745844 L -57.78349 -8.898188 L -56.760053 -9.06225 L -55.732709 -9.226313 L -54.709271 -9.398188 L -53.681928 -9.577875 L -52.65849 -9.765375 L -51.635053 -9.960688 L -50.607709 -10.163813 L -49.584271 -10.370844 L -48.556928 -10.589594 L -47.53349 -10.816156 L -46.510053 -11.058344 L -45.482709 -11.308344 L -44.459271 -11.566156 L -43.431928 -11.839594 L -42.40849 -12.12475 L -41.385053 -12.425531 L -40.357709 -12.741938 L -39.334271 -13.073969 L -38.310834 -13.421625 L -37.28349 -13.792719 L -36.260053 -14.183344 L -35.232709 -14.5935 L -34.209271 -15.031 L -33.185834 -15.495844 L -32.15849 -15.988031 L -31.135053 -16.515375 L -30.107709 -17.081781 L -29.084271 -17.683344 L -28.060834 -18.327875 L -27.03349 -19.023188 L -26.010053 -19.769281 L -24.986615 -20.585688 L -23.959271 -21.464594 L -22.935834 -22.421625 L -21.90849 -23.472406 L -20.885053 -24.62475 L -19.861615 -25.894281 L -18.834271 -27.304438 L -17.810834 -28.87475 L -16.78349 -30.640375 L -15.760053 -32.632563 L -14.736615 -34.902094 L -13.709271 -37.511469 L -12.685834 -40.542719 L -11.662396 -44.109125 L -10.635053 -48.351313 L -9.611615 -53.511469 L -8.584271 -59.902094 L -7.560834 -68.023188 " transform="matrix(1, 0, 0, -1, 82.97099, 82.969)"/>
<path fill="none" stroke-width="0.79701" stroke-linecap="butt" stroke-linejoin="miter" stroke="rgb(100%, 0%, 0%)" stroke-opacity="1" stroke-miterlimit="10" d="M 7.56026 68.023687 L 8.587604 59.902594 L 9.611041 53.511969 L 10.634479 48.351812 L 11.661822 44.109625 L 12.68526 40.543219 L 13.708697 37.511969 L 14.736041 34.902594 L 15.759479 32.629156 L 16.786822 30.640875 L 17.81026 28.87525 L 18.833697 27.301031 L 19.861041 25.894781 L 20.884479 24.62525 L 21.911822 23.472906 L 22.93526 22.422125 L 23.958697 21.465094 L 24.986041 20.586187 L 26.009479 19.769781 L 27.032916 19.023687 L 28.06026 18.328375 L 29.083697 17.683844 L 30.111041 17.082281 L 31.134479 16.515875 L 32.157916 15.988531 L 33.18526 15.496344 L 34.208697 15.0315 L 35.236041 14.594 L 36.259479 14.183844 L 37.282916 13.793219 L 38.31026 13.422125 L 39.333697 13.074469 L 40.357135 12.742437 L 41.384479 12.426031 L 42.407916 12.12525 L 43.43526 11.840094 L 44.458697 11.566656 L 45.482135 11.308844 L 46.509479 11.058844 L 47.532916 10.816656 L 48.56026 10.590094 L 49.583697 10.371344 L 50.607135 10.160406 L 51.634479 9.961187 L 52.657916 9.765875 L 53.68526 9.578375 L 54.708697 9.398687 L 55.732135 9.226812 L 56.759479 9.06275 L 57.782916 8.898687 L 58.806354 8.746344 L 59.833697 8.594 L 60.857135 8.449469 L 61.884479 8.308844 L 63.931354 8.043219 L 64.958697 7.918219 L 65.982135 7.793219 L 67.009479 7.676031 L 68.032916 7.558844 " transform="matrix(1, 0, 0, -1, 82.97099, 82.969)"/>
<path fill="none" stroke-width="0.79701" stroke-linecap="butt" stroke-linejoin="miter" stroke="rgb(0%, 0%, 100%)" stroke-opacity="1" stroke-dasharray="2.98883 2.98883" stroke-miterlimit="10" d="M -11.338178 -45.355219 C 27.212604 -45.355219 27.212604 45.355719 11.337604 45.355719 " transform="matrix(1, 0, 0, -1, 82.97099, 82.969)"/>
</svg>
