<?xml version="1.0" encoding="UTF-8"?>
<svg xmlns="http://www.w3.org/2000/svg" xmlns:xlink="http://www.w3.org/1999/xlink" width="147.95pt" height="87.71pt" viewBox="0 0 147.95 87.71">
<defs>
<g>
<g id="glyph-0-0">
<path d="M 3.71875 -3.765625 C 3.53125 -4.140625 3.25 -4.40625 2.796875 -4.40625 C 1.640625 -4.40625 0.40625 -2.9375 0.40625 -1.484375 C 0.40625 -0.546875 0.953125 0.109375 1.71875 0.109375 C 1.921875 0.109375 2.421875 0.0625 3.015625 -0.640625 C 3.09375 -0.21875 3.453125 0.109375 3.921875 0.109375 C 4.28125 0.109375 4.5 -0.125 4.671875 -0.4375 C 4.828125 -0.796875 4.96875 -1.40625 4.96875 -1.421875 C 4.96875 -1.53125 4.875 -1.53125 4.84375 -1.53125 C 4.75 -1.53125 4.734375 -1.484375 4.703125 -1.34375 C 4.53125 -0.703125 4.359375 -0.109375 3.953125 -0.109375 C 3.671875 -0.109375 3.65625 -0.375 3.65625 -0.5625 C 3.65625 -0.78125 3.671875 -0.875 3.78125 -1.3125 C 3.890625 -1.71875 3.90625 -1.828125 4 -2.203125 L 4.359375 -3.59375 C 4.421875 -3.875 4.421875 -3.890625 4.421875 -3.9375 C 4.421875 -4.109375 4.3125 -4.203125 4.140625 -4.203125 C 3.890625 -4.203125 3.75 -3.984375 3.71875 -3.765625 Z M 3.078125 -1.1875 C 3.015625 -1 3.015625 -0.984375 2.875 -0.8125 C 2.4375 -0.265625 2.03125 -0.109375 1.75 -0.109375 C 1.25 -0.109375 1.109375 -0.65625 1.109375 -1.046875 C 1.109375 -1.546875 1.421875 -2.765625 1.65625 -3.234375 C 1.96875 -3.8125 2.40625 -4.1875 2.8125 -4.1875 C 3.453125 -4.1875 3.59375 -3.375 3.59375 -3.3125 C 3.59375 -3.25 3.578125 -3.1875 3.5625 -3.140625 Z M 3.078125 -1.1875 "/>
</g>
<g id="glyph-0-1">
<path d="M 2.375 -6.8125 C 2.375 -6.8125 2.375 -6.921875 2.25 -6.921875 C 2.03125 -6.921875 1.296875 -6.84375 1.03125 -6.8125 C 0.953125 -6.8125 0.84375 -6.796875 0.84375 -6.625 C 0.84375 -6.5 0.9375 -6.5 1.09375 -6.5 C 1.5625 -6.5 1.578125 -6.4375 1.578125 -6.328125 C 1.578125 -6.265625 1.5 -5.921875 1.453125 -5.71875 L 0.625 -2.46875 C 0.515625 -1.96875 0.46875 -1.796875 0.46875 -1.453125 C 0.46875 -0.515625 1 0.109375 1.734375 0.109375 C 2.90625 0.109375 4.140625 -1.375 4.140625 -2.8125 C 4.140625 -3.71875 3.609375 -4.40625 2.8125 -4.40625 C 2.359375 -4.40625 1.9375 -4.109375 1.640625 -3.8125 Z M 1.453125 -3.046875 C 1.5 -3.265625 1.5 -3.28125 1.59375 -3.390625 C 2.078125 -4.03125 2.53125 -4.1875 2.796875 -4.1875 C 3.15625 -4.1875 3.421875 -3.890625 3.421875 -3.25 C 3.421875 -2.65625 3.09375 -1.515625 2.90625 -1.140625 C 2.578125 -0.46875 2.125 -0.109375 1.734375 -0.109375 C 1.390625 -0.109375 1.0625 -0.375 1.0625 -1.109375 C 1.0625 -1.3125 1.0625 -1.5 1.21875 -2.125 Z M 1.453125 -3.046875 "/>
</g>
</g>
<clipPath id="clip-0">
<path clip-rule="nonzero" d="M 0 0 L 117 0 L 117 87.710938 L 0 87.710938 Z M 0 0 "/>
</clipPath>
<clipPath id="clip-1">
<path clip-rule="nonzero" d="M 32 0 L 147.949219 0 L 147.949219 87.710938 L 32 87.710938 Z M 32 0 "/>
</clipPath>
<clipPath id="clip-2">
<path clip-rule="nonzero" d="M 79 41 L 127 41 L 127 87.710938 L 79 87.710938 Z M 79 41 "/>
</clipPath>
</defs>
<g clip-path="url(#clip-0)">
<path fill="none" stroke-width="2.98883" stroke-linecap="butt" stroke-linejoin="miter" stroke="rgb(79.998779%, 79.998779%, 79.998779%)" stroke-opacity="1" stroke-miterlimit="10" d="M 0.00015 0.00188125 C 0.00015 15.654225 -12.691256 28.345631 -28.347506 28.345631 C -44.003756 28.345631 -56.695162 15.654225 -56.695162 0.00188125 C -56.695162 -15.654369 -44.003756 -28.345775 -28.347506 -28.345775 C -12.691256 -28.345775 0.00015 -15.654369 0.00015 0.00188125 Z M 0.00015 0.00188125 " transform="matrix(1, 0, 0, -1, 74.4686, 43.85735)"/>
</g>
<g clip-path="url(#clip-1)">
<path fill="none" stroke-width="2.98883" stroke-linecap="butt" stroke-linejoin="miter" stroke="rgb(79.998779%, 79.998779%, 79.998779%)" stroke-opacity="1" stroke-miterlimit="10" d="M 56.695463 0.00188125 C 56.695463 15.654225 44.004056 28.345631 28.347806 28.345631 C 12.691556 28.345631 0.00015 15.654225 0.00015 0.00188125 C 0.00015 -15.654369 12.691556 -28.345775 28.347806 -28.345775 C 44.004056 -28.345775 56.695463 -15.654369 56.695463 0.00188125 Z M 56.695463 0.00188125 " transform="matrix(1, 0, 0, -1, 74.4686, 43.85735)"/>
</g>
<path fill-rule="nonzero" fill="rgb(0%, 0%, 0%)" fill-opacity="1" d="M 76.261719 43.855469 C 76.261719 42.867188 75.460938 42.0625 74.46875 42.0625 C 73.476562 42.0625 72.675781 42.867188 72.675781 43.855469 C 72.675781 44.847656 73.476562 45.652344 74.46875 45.652344 C 75.460938 45.652344 76.261719 44.847656 76.261719 43.855469 Z M 76.261719 43.855469 "/>
<path fill="none" stroke-width="0.3985" stroke-linecap="butt" stroke-linejoin="miter" stroke="rgb(100%, 0%, 0%)" stroke-opacity="1" stroke-miterlimit="10" d="M -10.773287 20.408131 C -10.773287 30.115162 -18.640475 37.986256 -28.347506 37.986256 C -38.054537 37.986256 -45.921725 30.115162 -45.921725 20.408131 C -45.921725 10.705006 -38.054537 2.833912 -28.347506 2.833912 C -18.640475 2.833912 -10.773287 10.705006 -10.773287 20.408131 Z M -10.773287 20.408131 " transform="matrix(1, 0, 0, -1, 74.4686, 43.85735)"/>
<path fill-rule="nonzero" fill="rgb(100%, 0%, 0%)" fill-opacity="1" stroke-width="0.3985" stroke-linecap="butt" stroke-linejoin="miter" stroke="rgb(100%, 0%, 0%)" stroke-opacity="1" stroke-miterlimit="10" d="M 3.76023 -0.000045 C 3.299292 0.113236 1.268042 0.749955 -0.00148875 1.445267 L -0.00148875 -1.445358 C 1.268042 -0.750045 3.299292 -0.113326 3.76023 -0.000045 Z M 3.76023 -0.000045 " transform="matrix(0, 1, 1, 0, 28.54692, 18.86477)"/>
<g clip-path="url(#clip-2)">
<path fill="none" stroke-width="0.3985" stroke-linecap="butt" stroke-linejoin="miter" stroke="rgb(0%, 0%, 100%)" stroke-opacity="1" stroke-miterlimit="10" d="M 45.922025 -20.408275 C 45.922025 -10.70515 38.054838 -2.834056 28.347806 -2.834056 C 18.640775 -2.834056 10.773588 -10.70515 10.773588 -20.408275 C 10.773588 -30.115306 18.640775 -37.9864 28.347806 -37.9864 C 38.054838 -37.9864 45.922025 -30.115306 45.922025 -20.408275 Z M 45.922025 -20.408275 " transform="matrix(1, 0, 0, -1, 74.4686, 43.85735)"/>
</g>
<path fill-rule="nonzero" fill="rgb(0%, 0%, 100%)" fill-opacity="1" stroke-width="0.3985" stroke-linecap="butt" stroke-linejoin="miter" stroke="rgb(0%, 0%, 100%)" stroke-opacity="1" stroke-miterlimit="10" d="M 3.761608 0.00172277 C 3.300659 0.111091 1.269355 0.751688 -0.000215194 1.446989 L -0.000157301 -1.4476 C 1.269385 -0.752248 3.300663 -0.11157 3.761608 0.00172277 Z M 3.761608 0.00172277 " transform="matrix(-0.00002, 0.99998, 0.99998, 0.00002, 85.24054, 59.68378)"/>
<g fill="rgb(100%, 0%, 0%)" fill-opacity="1">
<use xlink:href="#glyph-0-0" x="8.98896" y="46.00209"/>
</g>
<g fill="rgb(0%, 0%, 100%)" fill-opacity="1">
<use xlink:href="#glyph-0-1" x="134.68204" y="47.31662"/>
</g>
</svg>
