<?xml version="1.0" encoding="UTF-8"?>
<svg xmlns="http://www.w3.org/2000/svg" xmlns:xlink="http://www.w3.org/1999/xlink" width="91.11pt" height="115.1pt" viewBox="0 0 91.11 115.1">
<defs>
<g>
<g id="glyph-0-0">
<path d="M 5.0625 -2.703125 C 4.53125 -3.375 4.40625 -3.53125 4.09375 -3.78125 C 3.53125 -4.234375 2.984375 -4.40625 2.46875 -4.40625 C 1.3125 -4.40625 0.546875 -3.3125 0.546875 -2.140625 C 0.546875 -1 1.28125 0.109375 2.4375 0.109375 C 3.578125 0.109375 4.40625 -0.796875 4.890625 -1.59375 C 5.4375 -0.921875 5.546875 -0.765625 5.859375 -0.515625 C 6.421875 -0.0625 6.984375 0.109375 7.484375 0.109375 C 8.65625 0.109375 9.40625 -0.984375 9.40625 -2.15625 C 9.40625 -3.296875 8.671875 -4.40625 7.53125 -4.40625 C 6.375 -4.40625 5.546875 -3.5 5.0625 -2.703125 Z M 5.328125 -2.359375 C 5.734375 -3.078125 6.46875 -4.09375 7.59375 -4.09375 C 8.65625 -4.09375 9.1875 -3.046875 9.1875 -2.15625 C 9.1875 -1.171875 8.515625 -0.375 7.640625 -0.375 C 7.0625 -0.375 6.625 -0.78125 6.40625 -1 C 6.15625 -1.265625 5.9375 -1.578125 5.328125 -2.359375 Z M 4.640625 -1.9375 C 4.234375 -1.21875 3.484375 -0.203125 2.359375 -0.203125 C 1.3125 -0.203125 0.765625 -1.25 0.765625 -2.140625 C 0.765625 -3.125 1.4375 -3.921875 2.3125 -3.921875 C 2.890625 -3.921875 3.34375 -3.515625 3.546875 -3.296875 C 3.796875 -3.03125 4.03125 -2.71875 4.640625 -1.9375 Z M 4.640625 -1.9375 "/>
</g>
<g id="glyph-1-0">
<path d="M 4.578125 -3.1875 C 4.578125 -3.984375 4.53125 -4.78125 4.1875 -5.515625 C 3.734375 -6.484375 2.90625 -6.640625 2.5 -6.640625 C 1.890625 -6.640625 1.171875 -6.375 0.75 -5.453125 C 0.4375 -4.765625 0.390625 -3.984375 0.390625 -3.1875 C 0.390625 -2.4375 0.421875 -1.546875 0.84375 -0.78125 C 1.265625 0.015625 2 0.21875 2.484375 0.21875 C 3.015625 0.21875 3.78125 0.015625 4.21875 -0.9375 C 4.53125 -1.625 4.578125 -2.40625 4.578125 -3.1875 Z M 2.484375 0 C 2.09375 0 1.5 -0.25 1.328125 -1.203125 C 1.21875 -1.796875 1.21875 -2.71875 1.21875 -3.3125 C 1.21875 -3.953125 1.21875 -4.609375 1.296875 -5.140625 C 1.484375 -6.328125 2.234375 -6.421875 2.484375 -6.421875 C 2.8125 -6.421875 3.46875 -6.234375 3.65625 -5.25 C 3.765625 -4.6875 3.765625 -3.9375 3.765625 -3.3125 C 3.765625 -2.5625 3.765625 -1.890625 3.65625 -1.25 C 3.5 -0.296875 2.9375 0 2.484375 0 Z M 2.484375 0 "/>
</g>
</g>
</defs>
<path fill="none" stroke-width="0.3985" stroke-linecap="butt" stroke-linejoin="miter" stroke="rgb(100%, 0%, 0%)" stroke-opacity="1" stroke-miterlimit="10" d="M 39.684911 0.000855 C 39.684911 21.918824 21.919286 39.684449 0.0013175 39.684449 C -21.916651 39.684449 -39.686183 21.918824 -39.686183 0.000855 C -39.686183 -21.917114 -21.916651 -39.686645 0.0013175 -39.686645 C 21.919286 -39.686645 39.684911 -21.917114 39.684911 0.000855 Z M 39.684911 0.000855 " transform="matrix(1, 0, 0, -1, 45.55337, 56.48523)"/>
<path fill-rule="nonzero" fill="rgb(26.196289%, 51.779175%, 63.139343%)" fill-opacity="1" d="M 48.0625 16.800781 C 48.0625 15.414062 46.941406 14.289062 45.554688 14.289062 C 44.167969 14.289062 43.042969 15.414062 43.042969 16.800781 C 43.042969 18.1875 44.167969 19.308594 45.554688 19.308594 C 46.941406 19.308594 48.0625 18.1875 48.0625 16.800781 Z M 48.0625 16.800781 "/>
<g fill="rgb(26.196289%, 51.779175%, 63.139343%)" fill-opacity="1">
<use xlink:href="#glyph-0-0" x="40.57199" y="13.28006"/>
</g>
<path fill-rule="nonzero" fill="rgb(100%, 0%, 0%)" fill-opacity="1" d="M 48.0625 96.171875 C 48.0625 94.785156 46.941406 93.660156 45.554688 93.660156 C 44.167969 93.660156 43.042969 94.785156 43.042969 96.171875 C 43.042969 97.558594 44.167969 98.679688 45.554688 98.679688 C 46.941406 98.679688 48.0625 97.558594 48.0625 96.171875 Z M 48.0625 96.171875 "/>
<g fill="rgb(100%, 0%, 0%)" fill-opacity="1">
<use xlink:href="#glyph-1-0" x="43.06268" y="106.11084"/>
</g>
</svg>
