<?xml version="1.0" encoding="UTF-8"?>
<svg xmlns="http://www.w3.org/2000/svg" xmlns:xlink="http://www.w3.org/1999/xlink" width="125.12pt" height="131.3pt" viewBox="0 0 125.12 131.3">
<defs>
<g>
<g id="glyph-0-0">
<path d="M 2.671875 -3.125 L 3.03125 -3.125 L 4.53125 -0.8125 C 4.625 -0.65625 4.859375 -0.265625 4.96875 -0.125 C 5.046875 0 5.078125 0 5.296875 0 L 6.671875 0 C 6.859375 0 7.015625 0 7.015625 -0.171875 C 7.015625 -0.265625 6.953125 -0.328125 6.859375 -0.34375 C 6.484375 -0.421875 6 -1.09375 5.765625 -1.40625 C 5.6875 -1.5 5.1875 -2.15625 4.53125 -3.234375 C 5.40625 -3.40625 6.265625 -3.78125 6.265625 -4.96875 C 6.265625 -6.34375 4.8125 -6.828125 3.625 -6.828125 L 0.5 -6.828125 C 0.3125 -6.828125 0.15625 -6.828125 0.15625 -6.65625 C 0.15625 -6.484375 0.34375 -6.484375 0.421875 -6.484375 C 1 -6.484375 1.046875 -6.40625 1.046875 -5.90625 L 1.046875 -0.921875 C 1.046875 -0.421875 1 -0.34375 0.421875 -0.34375 C 0.34375 -0.34375 0.15625 -0.34375 0.15625 -0.171875 C 0.15625 0 0.3125 0 0.5 0 L 3.234375 0 C 3.40625 0 3.5625 0 3.5625 -0.171875 C 3.5625 -0.34375 3.390625 -0.34375 3.28125 -0.34375 C 2.71875 -0.34375 2.671875 -0.421875 2.671875 -0.921875 Z M 4.59375 -3.625 C 4.875 -3.984375 4.90625 -4.515625 4.90625 -4.953125 C 4.90625 -5.4375 4.84375 -5.96875 4.53125 -6.375 C 4.9375 -6.28125 5.921875 -5.96875 5.921875 -4.96875 C 5.921875 -4.3125 5.625 -3.8125 4.59375 -3.625 Z M 2.671875 -5.9375 C 2.671875 -6.15625 2.671875 -6.484375 3.296875 -6.484375 C 4.140625 -6.484375 4.5625 -6.125 4.5625 -4.953125 C 4.5625 -3.671875 4.25 -3.484375 2.671875 -3.484375 Z M 1.3125 -0.34375 C 1.390625 -0.53125 1.390625 -0.8125 1.390625 -0.890625 L 1.390625 -5.9375 C 1.390625 -6.03125 1.390625 -6.296875 1.3125 -6.484375 L 2.453125 -6.484375 C 2.328125 -6.3125 2.328125 -6.125 2.328125 -5.96875 L 2.328125 -0.890625 C 2.328125 -0.796875 2.328125 -0.53125 2.40625 -0.34375 Z M 3.4375 -3.125 C 3.515625 -3.140625 3.546875 -3.15625 3.625 -3.15625 C 3.78125 -3.15625 4 -3.171875 4.140625 -3.1875 C 4.296875 -2.953125 5.375 -1.171875 6.203125 -0.34375 L 5.234375 -0.34375 Z M 3.4375 -3.125 "/>
</g>
<g id="glyph-0-1">
<path d="M 2.609375 -3.078125 C 2.65625 -3.078125 2.859375 -3.078125 2.875 -3.0625 L 3.21875 -3.0625 C 5.25 -3.0625 5.96875 -4 5.96875 -4.953125 C 5.96875 -6.375 4.6875 -6.828125 3.40625 -6.828125 L 0.5 -6.828125 C 0.3125 -6.828125 0.15625 -6.828125 0.15625 -6.65625 C 0.15625 -6.484375 0.34375 -6.484375 0.421875 -6.484375 C 0.953125 -6.484375 0.984375 -6.40625 0.984375 -5.90625 L 0.984375 -0.921875 C 0.984375 -0.421875 0.953125 -0.34375 0.4375 -0.34375 C 0.34375 -0.34375 0.15625 -0.34375 0.15625 -0.171875 C 0.15625 0 0.3125 0 0.5 0 L 3.171875 0 C 3.34375 0 3.5 0 3.5 -0.171875 C 3.5 -0.34375 3.328125 -0.34375 3.21875 -0.34375 C 2.65625 -0.34375 2.609375 -0.421875 2.609375 -0.921875 Z M 4.25 -3.515625 C 4.578125 -3.9375 4.609375 -4.5625 4.609375 -4.96875 C 4.609375 -5.5 4.5625 -6.015625 4.296875 -6.390625 C 4.84375 -6.265625 5.625 -5.96875 5.625 -4.953125 C 5.625 -4.25 5.171875 -3.75 4.25 -3.515625 Z M 2.609375 -5.9375 C 2.609375 -6.140625 2.609375 -6.484375 3.203125 -6.484375 C 3.921875 -6.484375 4.25 -6.203125 4.25 -4.96875 C 4.25 -3.53125 3.734375 -3.421875 3.109375 -3.421875 L 2.609375 -3.421875 Z M 1.25 -0.34375 C 1.328125 -0.53125 1.328125 -0.765625 1.328125 -0.890625 L 1.328125 -5.9375 C 1.328125 -6.0625 1.328125 -6.296875 1.25 -6.484375 L 2.390625 -6.484375 C 2.265625 -6.3125 2.265625 -6.125 2.265625 -5.96875 L 2.265625 -0.890625 C 2.265625 -0.796875 2.265625 -0.53125 2.34375 -0.34375 Z M 1.25 -0.34375 "/>
</g>
<g id="glyph-1-0">
<path d="M 3.515625 -1.265625 L 3.28125 -1.265625 C 3.265625 -1.109375 3.1875 -0.703125 3.09375 -0.640625 C 3.046875 -0.59375 2.515625 -0.59375 2.40625 -0.59375 L 1.125 -0.59375 C 1.859375 -1.234375 2.109375 -1.4375 2.515625 -1.765625 C 3.03125 -2.171875 3.515625 -2.609375 3.515625 -3.265625 C 3.515625 -4.109375 2.78125 -4.625 1.890625 -4.625 C 1.03125 -4.625 0.4375 -4.015625 0.4375 -3.375 C 0.4375 -3.03125 0.734375 -2.984375 0.8125 -2.984375 C 0.96875 -2.984375 1.171875 -3.109375 1.171875 -3.359375 C 1.171875 -3.484375 1.125 -3.734375 0.765625 -3.734375 C 0.984375 -4.21875 1.453125 -4.375 1.78125 -4.375 C 2.484375 -4.375 2.84375 -3.828125 2.84375 -3.265625 C 2.84375 -2.65625 2.40625 -2.1875 2.1875 -1.9375 L 0.515625 -0.265625 C 0.4375 -0.203125 0.4375 -0.1875 0.4375 0 L 3.3125 0 Z M 3.515625 -1.265625 "/>
</g>
</g>
<clipPath id="clip-0">
<path clip-rule="nonzero" d="M 53 113 L 72 113 L 72 131.300781 L 53 131.300781 Z M 53 113 "/>
</clipPath>
</defs>
<path fill-rule="nonzero" fill="rgb(100%, 98.724365%, 75%)" fill-opacity="1" d="M 119.253906 65.550781 C 119.253906 34.238281 93.871094 8.855469 62.5625 8.855469 C 31.25 8.855469 5.867188 34.238281 5.867188 65.550781 C 5.867188 96.863281 31.25 122.242188 62.5625 122.242188 C 93.871094 122.242188 119.253906 96.863281 119.253906 65.550781 Z M 119.253906 65.550781 "/>
<path fill="none" stroke-width="0.3985" stroke-linecap="butt" stroke-linejoin="miter" stroke="rgb(0%, 0%, 0%)" stroke-opacity="1" stroke-miterlimit="10" d="M 0.00109 -56.691667 C 31.309684 -56.691667 56.692496 -31.312761 56.692496 -0.00026125 C 56.692496 31.312239 31.309684 56.695051 0.00109 56.695051 " transform="matrix(1, 0, 0, -1, 62.56141, 65.55052)"/>
<path fill="none" stroke-width="0.3985" stroke-linecap="butt" stroke-linejoin="miter" stroke="rgb(0%, 0%, 0%)" stroke-opacity="1" stroke-dasharray="2.98883 2.98883" stroke-miterlimit="10" d="M 0.00109 56.695051 C -31.31141 56.695051 -56.694223 31.312239 -56.694223 -0.00026125 C -56.694223 -31.312761 -31.31141 -56.691667 0.00109 -56.691667 " transform="matrix(1, 0, 0, -1, 62.56141, 65.55052)"/>
<path fill-rule="nonzero" fill="rgb(0%, 0%, 0%)" fill-opacity="1" d="M 65.75 8.855469 C 65.75 7.097656 64.320312 5.667969 62.5625 5.667969 C 60.800781 5.667969 59.375 7.097656 59.375 8.855469 C 59.375 10.617188 60.800781 12.046875 62.5625 12.046875 C 64.320312 12.046875 65.75 10.617188 65.75 8.855469 Z M 65.75 8.855469 "/>
<path fill-rule="nonzero" fill="rgb(100%, 100%, 100%)" fill-opacity="1" d="M 65.75 122.242188 C 65.75 120.484375 64.320312 119.054688 62.5625 119.054688 C 60.800781 119.054688 59.375 120.484375 59.375 122.242188 C 59.375 124.003906 60.800781 125.433594 62.5625 125.433594 C 64.320312 125.433594 65.75 124.003906 65.75 122.242188 Z M 65.75 122.242188 "/>
<g clip-path="url(#clip-0)">
<path fill="none" stroke-width="0.3985" stroke-linecap="butt" stroke-linejoin="miter" stroke="rgb(0%, 0%, 0%)" stroke-opacity="1" stroke-miterlimit="10" d="M 3.18859 -56.691667 C 3.18859 -54.933855 1.758902 -53.504167 0.00109 -53.504167 C -1.760629 -53.504167 -3.18641 -54.933855 -3.18641 -56.691667 C -3.18641 -58.453386 -1.760629 -59.883074 0.00109 -59.883074 C 1.758902 -59.883074 3.18859 -58.453386 3.18859 -56.691667 Z M 3.18859 -56.691667 " transform="matrix(1, 0, 0, -1, 62.56141, 65.55052)"/>
</g>
<g fill="rgb(0%, 0%, 0%)" fill-opacity="1">
<use xlink:href="#glyph-0-0" x="53.68485" y="69.99779"/>
<use xlink:href="#glyph-0-1" x="60.877876" y="69.99779"/>
</g>
<g fill="rgb(0%, 0%, 0%)" fill-opacity="1">
<use xlink:href="#glyph-1-0" x="66.96838" y="65.5976"/>
</g>
</svg>
