<?xml version="1.0" encoding="UTF-8"?>
<svg xmlns="http://www.w3.org/2000/svg" xmlns:xlink="http://www.w3.org/1999/xlink" width="125.12pt" height="68.43pt" viewBox="0 0 125.12 68.43">
<defs>
<clipPath id="clip-0">
<path clip-rule="nonzero" d="M 0 0 L 69 0 L 69 68.429688 L 0 68.429688 Z M 0 0 "/>
</clipPath>
<clipPath id="clip-1">
<path clip-rule="nonzero" d="M 56 0 L 125 0 L 125 68.429688 L 56 68.429688 Z M 56 0 "/>
</clipPath>
</defs>
<g clip-path="url(#clip-0)">
<path fill="none" stroke-width="0.3985" stroke-linecap="butt" stroke-linejoin="miter" stroke="rgb(0%, 0%, 0%)" stroke-opacity="1" stroke-miterlimit="10" d="M 0.00109 0.00018625 C 0.00109 15.656436 -12.690316 28.347842 -28.346566 28.347842 C -44.002816 28.347842 -56.694223 15.656436 -56.694223 0.00018625 C -56.694223 -15.656064 -44.002816 -28.34747 -28.346566 -28.34747 C -12.690316 -28.34747 0.00109 -15.656064 0.00109 0.00018625 Z M 0.00109 0.00018625 " transform="matrix(1, 0, 0, -1, 62.56141, 34.21503)"/>
</g>
<g clip-path="url(#clip-1)">
<path fill="none" stroke-width="0.3985" stroke-linecap="butt" stroke-linejoin="miter" stroke="rgb(0%, 0%, 0%)" stroke-opacity="1" stroke-miterlimit="10" d="M 56.692496 0.00018625 C 56.692496 15.656436 44.00109 28.347842 28.348746 28.347842 C 12.692496 28.347842 0.00109 15.656436 0.00109 0.00018625 C 0.00109 -15.656064 12.692496 -28.34747 28.348746 -28.34747 C 44.00109 -28.34747 56.692496 -15.656064 56.692496 0.00018625 Z M 56.692496 0.00018625 " transform="matrix(1, 0, 0, -1, 62.56141, 34.21503)"/>
</g>
<path fill-rule="nonzero" fill="rgb(0%, 0%, 0%)" fill-opacity="1" d="M 64.953125 34.214844 C 64.953125 32.894531 63.882812 31.824219 62.5625 31.824219 C 61.242188 31.824219 60.171875 32.894531 60.171875 34.214844 C 60.171875 35.535156 61.242188 36.605469 62.5625 36.605469 C 63.882812 36.605469 64.953125 35.535156 64.953125 34.214844 Z M 64.953125 34.214844 "/>
</svg>
