<?xml version="1.0" encoding="UTF-8"?>
<svg xmlns="http://www.w3.org/2000/svg" xmlns:xlink="http://www.w3.org/1999/xlink" width="315.15pt" height="119.96pt" viewBox="0 0 315.15 119.96">
<defs>
<g>
<g id="glyph-0-0">
<path d="M 4.578125 -3.1875 C 4.578125 -3.984375 4.53125 -4.78125 4.1875 -5.515625 C 3.734375 -6.484375 2.90625 -6.640625 2.5 -6.640625 C 1.890625 -6.640625 1.171875 -6.375 0.75 -5.453125 C 0.4375 -4.765625 0.390625 -3.984375 0.390625 -3.1875 C 0.390625 -2.4375 0.421875 -1.546875 0.84375 -0.78125 C 1.265625 0.015625 2 0.21875 2.484375 0.21875 C 3.015625 0.21875 3.78125 0.015625 4.21875 -0.9375 C 4.53125 -1.625 4.578125 -2.40625 4.578125 -3.1875 Z M 2.484375 0 C 2.09375 0 1.5 -0.25 1.328125 -1.203125 C 1.21875 -1.796875 1.21875 -2.71875 1.21875 -3.3125 C 1.21875 -3.953125 1.21875 -4.609375 1.296875 -5.140625 C 1.484375 -6.328125 2.234375 -6.421875 2.484375 -6.421875 C 2.8125 -6.421875 3.46875 -6.234375 3.65625 -5.25 C 3.765625 -4.6875 3.765625 -3.9375 3.765625 -3.3125 C 3.765625 -2.5625 3.765625 -1.890625 3.65625 -1.25 C 3.5 -0.296875 2.9375 0 2.484375 0 Z M 2.484375 0 "/>
</g>
<g id="glyph-1-0">
<path d="M 7.578125 -6.921875 C 7.578125 -6.953125 7.5625 -7.03125 7.46875 -7.03125 C 7.4375 -7.03125 7.421875 -7.015625 7.3125 -6.90625 L 6.625 -6.140625 C 6.53125 -6.28125 6.078125 -7.03125 4.96875 -7.03125 C 2.734375 -7.03125 0.5 -4.828125 0.5 -2.515625 C 0.5 -0.875 1.671875 0.21875 3.203125 0.21875 C 4.0625 0.21875 4.828125 -0.171875 5.359375 -0.640625 C 6.28125 -1.453125 6.453125 -2.359375 6.453125 -2.390625 C 6.453125 -2.5 6.34375 -2.5 6.328125 -2.5 C 6.265625 -2.5 6.21875 -2.46875 6.203125 -2.390625 C 6.109375 -2.109375 5.875 -1.390625 5.1875 -0.8125 C 4.5 -0.265625 3.875 -0.09375 3.359375 -0.09375 C 2.46875 -0.09375 1.40625 -0.609375 1.40625 -2.15625 C 1.40625 -2.734375 1.609375 -4.34375 2.609375 -5.515625 C 3.21875 -6.21875 4.15625 -6.71875 5.046875 -6.71875 C 6.0625 -6.71875 6.65625 -5.953125 6.65625 -4.796875 C 6.65625 -4.390625 6.625 -4.390625 6.625 -4.28125 C 6.625 -4.1875 6.734375 -4.1875 6.765625 -4.1875 C 6.890625 -4.1875 6.890625 -4.203125 6.953125 -4.390625 Z M 7.578125 -6.921875 "/>
</g>
<g id="glyph-1-1">
<path d="M 1.90625 -0.53125 C 1.90625 -0.8125 1.671875 -1.0625 1.390625 -1.0625 C 1.09375 -1.0625 0.859375 -0.8125 0.859375 -0.53125 C 0.859375 -0.234375 1.09375 0 1.390625 0 C 1.671875 0 1.90625 -0.234375 1.90625 -0.53125 Z M 1.90625 -0.53125 "/>
</g>
<g id="glyph-1-2">
<path d="M 1.78125 -1.140625 C 1.390625 -0.484375 1 -0.34375 0.5625 -0.3125 C 0.4375 -0.296875 0.34375 -0.296875 0.34375 -0.109375 C 0.34375 -0.046875 0.40625 0 0.484375 0 C 0.75 0 1.0625 -0.03125 1.328125 -0.03125 C 1.671875 -0.03125 2.015625 0 2.328125 0 C 2.390625 0 2.515625 0 2.515625 -0.1875 C 2.515625 -0.296875 2.4375 -0.3125 2.359375 -0.3125 C 2.140625 -0.328125 1.890625 -0.40625 1.890625 -0.65625 C 1.890625 -0.78125 1.953125 -0.890625 2.03125 -1.03125 L 2.796875 -2.296875 L 5.296875 -2.296875 C 5.3125 -2.09375 5.453125 -0.734375 5.453125 -0.640625 C 5.453125 -0.34375 4.9375 -0.3125 4.734375 -0.3125 C 4.59375 -0.3125 4.5 -0.3125 4.5 -0.109375 C 4.5 0 4.609375 0 4.640625 0 C 5.046875 0 5.46875 -0.03125 5.875 -0.03125 C 6.125 -0.03125 6.765625 0 7.015625 0 C 7.0625 0 7.1875 0 7.1875 -0.203125 C 7.1875 -0.3125 7.09375 -0.3125 6.953125 -0.3125 C 6.34375 -0.3125 6.34375 -0.375 6.3125 -0.671875 L 5.703125 -6.890625 C 5.6875 -7.09375 5.6875 -7.140625 5.515625 -7.140625 C 5.359375 -7.140625 5.3125 -7.0625 5.25 -6.96875 Z M 2.984375 -2.609375 L 4.9375 -5.90625 L 5.265625 -2.609375 Z M 2.984375 -2.609375 "/>
</g>
<g id="glyph-2-0">
<path d="M 0.84375 -0.4375 C 0.828125 -0.34375 0.78125 -0.171875 0.78125 -0.15625 C 0.78125 0 0.90625 0.0625 1.015625 0.0625 C 1.140625 0.0625 1.25 -0.015625 1.296875 -0.078125 C 1.328125 -0.140625 1.375 -0.375 1.421875 -0.515625 C 1.453125 -0.640625 1.53125 -0.96875 1.5625 -1.140625 C 1.609375 -1.296875 1.65625 -1.453125 1.6875 -1.609375 C 1.765625 -1.890625 1.78125 -1.953125 1.984375 -2.234375 C 2.171875 -2.515625 2.5 -2.875 3.03125 -2.875 C 3.421875 -2.875 3.4375 -2.515625 3.4375 -2.390625 C 3.4375 -1.96875 3.140625 -1.203125 3.03125 -0.90625 C 2.953125 -0.703125 2.921875 -0.640625 2.921875 -0.53125 C 2.921875 -0.15625 3.21875 0.0625 3.578125 0.0625 C 4.28125 0.0625 4.578125 -0.890625 4.578125 -1 C 4.578125 -1.09375 4.5 -1.09375 4.46875 -1.09375 C 4.375 -1.09375 4.375 -1.046875 4.34375 -0.96875 C 4.1875 -0.40625 3.875 -0.125 3.609375 -0.125 C 3.453125 -0.125 3.421875 -0.21875 3.421875 -0.375 C 3.421875 -0.53125 3.46875 -0.625 3.59375 -0.9375 C 3.671875 -1.15625 3.953125 -1.890625 3.953125 -2.28125 C 3.953125 -2.953125 3.421875 -3.078125 3.046875 -3.078125 C 2.46875 -3.078125 2.078125 -2.71875 1.875 -2.4375 C 1.828125 -2.921875 1.421875 -3.078125 1.125 -3.078125 C 0.828125 -3.078125 0.671875 -2.859375 0.578125 -2.703125 C 0.421875 -2.4375 0.328125 -2.046875 0.328125 -2 C 0.328125 -1.921875 0.421875 -1.921875 0.453125 -1.921875 C 0.546875 -1.921875 0.546875 -1.9375 0.59375 -2.125 C 0.703125 -2.53125 0.84375 -2.875 1.109375 -2.875 C 1.296875 -2.875 1.34375 -2.71875 1.34375 -2.53125 C 1.34375 -2.40625 1.28125 -2.140625 1.21875 -1.953125 C 1.171875 -1.765625 1.109375 -1.484375 1.078125 -1.328125 Z M 0.84375 -0.4375 "/>
</g>
<g id="glyph-2-1">
<path d="M 2.84375 -2.75 L 3.515625 -2.75 C 3.65625 -2.75 3.75 -2.75 3.75 -2.90625 C 3.75 -3 3.65625 -3 3.53125 -3 L 2.890625 -3 C 3.046875 -3.890625 3.09375 -4.203125 3.15625 -4.40625 C 3.1875 -4.5625 3.34375 -4.703125 3.515625 -4.703125 C 3.515625 -4.703125 3.703125 -4.703125 3.84375 -4.625 C 3.546875 -4.53125 3.53125 -4.28125 3.53125 -4.25 C 3.53125 -4.09375 3.65625 -3.984375 3.8125 -3.984375 C 4 -3.984375 4.203125 -4.140625 4.203125 -4.40625 C 4.203125 -4.734375 3.875 -4.90625 3.515625 -4.90625 C 3.203125 -4.90625 2.859375 -4.734375 2.671875 -4.390625 C 2.53125 -4.125 2.484375 -3.8125 2.328125 -3 L 1.78125 -3 C 1.640625 -3 1.546875 -3 1.546875 -2.84375 C 1.546875 -2.75 1.640625 -2.75 1.765625 -2.75 L 2.28125 -2.75 C 2.28125 -2.703125 1.84375 -0.203125 1.671875 0.546875 C 1.640625 0.703125 1.515625 1.21875 1.1875 1.21875 C 1.171875 1.21875 1.015625 1.21875 0.875 1.140625 C 1.15625 1.046875 1.1875 0.796875 1.1875 0.765625 C 1.1875 0.609375 1.0625 0.5 0.90625 0.5 C 0.71875 0.5 0.515625 0.65625 0.515625 0.921875 C 0.515625 1.234375 0.84375 1.421875 1.1875 1.421875 C 1.625 1.421875 1.9375 0.96875 2.015625 0.8125 C 2.265625 0.34375 2.4375 -0.515625 2.453125 -0.59375 Z M 2.84375 -2.75 "/>
</g>
<g id="glyph-3-0">
<path d="M 3.21875 -1.578125 L 5.359375 -1.578125 C 5.453125 -1.578125 5.609375 -1.578125 5.609375 -1.734375 C 5.609375 -1.921875 5.453125 -1.921875 5.359375 -1.921875 L 3.21875 -1.921875 L 3.21875 -4.0625 C 3.21875 -4.140625 3.21875 -4.3125 3.0625 -4.3125 C 2.890625 -4.3125 2.890625 -4.15625 2.890625 -4.0625 L 2.890625 -1.921875 L 0.75 -1.921875 C 0.65625 -1.921875 0.484375 -1.921875 0.484375 -1.75 C 0.484375 -1.578125 0.640625 -1.578125 0.75 -1.578125 L 2.890625 -1.578125 L 2.890625 0.5625 C 2.890625 0.65625 2.890625 0.828125 3.046875 0.828125 C 3.21875 0.828125 3.21875 0.65625 3.21875 0.5625 Z M 3.21875 -1.578125 "/>
</g>
<g id="glyph-3-1">
<path d="M 3.515625 -1.265625 L 3.28125 -1.265625 C 3.265625 -1.109375 3.1875 -0.703125 3.09375 -0.640625 C 3.046875 -0.59375 2.515625 -0.59375 2.40625 -0.59375 L 1.125 -0.59375 C 1.859375 -1.234375 2.109375 -1.4375 2.515625 -1.765625 C 3.03125 -2.171875 3.515625 -2.609375 3.515625 -3.265625 C 3.515625 -4.109375 2.78125 -4.625 1.890625 -4.625 C 1.03125 -4.625 0.4375 -4.015625 0.4375 -3.375 C 0.4375 -3.03125 0.734375 -2.984375 0.8125 -2.984375 C 0.96875 -2.984375 1.171875 -3.109375 1.171875 -3.359375 C 1.171875 -3.484375 1.125 -3.734375 0.765625 -3.734375 C 0.984375 -4.21875 1.453125 -4.375 1.78125 -4.375 C 2.484375 -4.375 2.84375 -3.828125 2.84375 -3.265625 C 2.84375 -2.65625 2.40625 -2.1875 2.1875 -1.9375 L 0.515625 -0.265625 C 0.4375 -0.203125 0.4375 -0.1875 0.4375 0 L 3.3125 0 Z M 3.515625 -1.265625 "/>
</g>
<g id="glyph-3-2">
<path d="M 2.328125 -4.4375 C 2.328125 -4.625 2.328125 -4.625 2.125 -4.625 C 1.671875 -4.1875 1.046875 -4.1875 0.765625 -4.1875 L 0.765625 -3.9375 C 0.921875 -3.9375 1.390625 -3.9375 1.765625 -4.125 L 1.765625 -0.578125 C 1.765625 -0.34375 1.765625 -0.25 1.078125 -0.25 L 0.8125 -0.25 L 0.8125 0 C 0.9375 0 1.796875 -0.03125 2.046875 -0.03125 C 2.265625 -0.03125 3.140625 0 3.296875 0 L 3.296875 -0.25 L 3.03125 -0.25 C 2.328125 -0.25 2.328125 -0.34375 2.328125 -0.578125 Z M 2.328125 -4.4375 "/>
</g>
<g id="glyph-4-0">
<path d="M 5.1875 -1.578125 C 5.296875 -1.578125 5.46875 -1.578125 5.46875 -1.734375 C 5.46875 -1.921875 5.296875 -1.921875 5.1875 -1.921875 L 1.03125 -1.921875 C 0.921875 -1.921875 0.75 -1.921875 0.75 -1.75 C 0.75 -1.578125 0.90625 -1.578125 1.03125 -1.578125 Z M 5.1875 -1.578125 "/>
</g>
<g id="glyph-5-0">
<path d="M 0.96875 -0.484375 C 0.9375 -0.359375 0.890625 -0.140625 0.890625 -0.125 C 0.890625 -0.015625 0.984375 0.0625 1.078125 0.0625 C 1.140625 0.0625 1.25 0.015625 1.3125 -0.109375 C 1.3125 -0.140625 1.375 -0.375 1.40625 -0.5 C 1.578125 -1.171875 1.578125 -1.1875 1.578125 -1.203125 C 1.65625 -1.328125 2.015625 -2.03125 2.609375 -2.03125 C 2.859375 -2.03125 2.96875 -1.90625 2.96875 -1.671875 C 2.96875 -1.390625 2.75 -0.875 2.640625 -0.59375 C 2.609375 -0.53125 2.59375 -0.46875 2.59375 -0.390625 C 2.59375 -0.125 2.84375 0.0625 3.140625 0.0625 C 3.671875 0.0625 3.9375 -0.59375 3.9375 -0.71875 C 3.9375 -0.78125 3.859375 -0.78125 3.84375 -0.78125 C 3.75 -0.78125 3.75 -0.765625 3.71875 -0.671875 C 3.625 -0.375 3.390625 -0.109375 3.15625 -0.109375 C 3.046875 -0.109375 3 -0.1875 3 -0.296875 C 3 -0.40625 3.03125 -0.453125 3.078125 -0.5625 C 3.15625 -0.765625 3.390625 -1.328125 3.390625 -1.609375 C 3.390625 -1.984375 3.125 -2.203125 2.640625 -2.203125 C 2.1875 -2.203125 1.875 -1.921875 1.703125 -1.703125 C 1.6875 -2.125 1.28125 -2.203125 1.09375 -2.203125 C 0.59375 -2.203125 0.453125 -1.4375 0.453125 -1.4375 C 0.453125 -1.359375 0.53125 -1.359375 0.5625 -1.359375 C 0.640625 -1.359375 0.65625 -1.390625 0.671875 -1.453125 C 0.75 -1.75 0.859375 -2.03125 1.078125 -2.03125 C 1.234375 -2.03125 1.28125 -1.875 1.28125 -1.765625 C 1.28125 -1.703125 1.21875 -1.515625 1.203125 -1.375 C 1.15625 -1.25 1.109375 -1.046875 1.09375 -0.9375 Z M 0.96875 -0.484375 "/>
</g>
<g id="glyph-6-0">
<path d="M 4.390625 -1.109375 C 4.46875 -1.109375 4.59375 -1.109375 4.59375 -1.25 C 4.59375 -1.390625 4.46875 -1.390625 4.390625 -1.390625 L 1.015625 -1.390625 C 0.9375 -1.390625 0.796875 -1.390625 0.796875 -1.25 C 0.796875 -1.109375 0.9375 -1.109375 1.015625 -1.109375 Z M 4.390625 -1.109375 "/>
</g>
<g id="glyph-7-0">
<path d="M 1.984375 -3.171875 C 1.984375 -3.3125 1.96875 -3.3125 1.796875 -3.3125 C 1.453125 -3 0.890625 -3 0.796875 -3 L 0.71875 -3 L 0.71875 -2.78125 L 0.796875 -2.78125 C 0.90625 -2.78125 1.234375 -2.796875 1.53125 -2.921875 L 1.53125 -0.421875 C 1.53125 -0.28125 1.53125 -0.21875 1 -0.21875 L 0.75 -0.21875 L 0.75 0 C 1.015625 -0.015625 1.46875 -0.015625 1.75 -0.015625 C 2.046875 -0.015625 2.484375 -0.015625 2.765625 0 L 2.765625 -0.21875 L 2.515625 -0.21875 C 1.984375 -0.21875 1.984375 -0.28125 1.984375 -0.421875 Z M 1.984375 -3.171875 "/>
</g>
<g id="glyph-7-1">
<path d="M 2.703125 -1.109375 L 4.4375 -1.109375 C 4.5 -1.109375 4.640625 -1.109375 4.640625 -1.25 C 4.640625 -1.390625 4.5 -1.390625 4.4375 -1.390625 L 2.703125 -1.390625 L 2.703125 -3.125 C 2.703125 -3.1875 2.703125 -3.328125 2.5625 -3.328125 C 2.421875 -3.328125 2.421875 -3.1875 2.421875 -3.125 L 2.421875 -1.390625 L 0.6875 -1.390625 C 0.625 -1.390625 0.484375 -1.390625 0.484375 -1.25 C 0.484375 -1.109375 0.625 -1.109375 0.6875 -1.109375 L 2.421875 -1.109375 L 2.421875 0.625 C 2.421875 0.703125 2.421875 0.828125 2.5625 0.828125 C 2.703125 0.828125 2.703125 0.703125 2.703125 0.625 Z M 2.703125 -1.109375 "/>
</g>
</g>
</defs>
<g fill="rgb(0%, 0%, 0%)" fill-opacity="1">
<use xlink:href="#glyph-0-0" x="86.49726" y="15.74486"/>
</g>
<g fill="rgb(0%, 0%, 0%)" fill-opacity="1">
<use xlink:href="#glyph-0-0" x="150.15056" y="15.74486"/>
</g>
<g fill="rgb(0%, 0%, 0%)" fill-opacity="1">
<use xlink:href="#glyph-0-0" x="223.83572" y="15.74486"/>
</g>
<g fill="rgb(0%, 0%, 0%)" fill-opacity="1">
<use xlink:href="#glyph-0-0" x="296.88491" y="15.74486"/>
</g>
<g fill="rgb(0%, 0%, 0%)" fill-opacity="1">
<use xlink:href="#glyph-1-0" x="117.09225" y="37.82244"/>
</g>
<g fill="rgb(0%, 0%, 0%)" fill-opacity="1">
<use xlink:href="#glyph-2-0" x="124.21276" y="39.31682"/>
</g>
<g fill="rgb(0%, 0%, 0%)" fill-opacity="1">
<use xlink:href="#glyph-1-0" x="254.37532" y="37.82244"/>
</g>
<g fill="rgb(0%, 0%, 0%)" fill-opacity="1">
<use xlink:href="#glyph-2-0" x="261.49583" y="39.31682"/>
</g>
<g fill="rgb(0%, 0%, 0%)" fill-opacity="1">
<use xlink:href="#glyph-3-0" x="266.42069" y="39.31682"/>
<use xlink:href="#glyph-3-1" x="272.536755" y="39.31682"/>
</g>
<g fill="rgb(100%, 0%, 0%)" fill-opacity="1">
<use xlink:href="#glyph-1-1" x="9.96116" y="62.22461"/>
</g>
<g fill="rgb(100%, 0%, 0%)" fill-opacity="1">
<use xlink:href="#glyph-1-1" x="14.37461" y="62.22461"/>
</g>
<g fill="rgb(100%, 0%, 0%)" fill-opacity="1">
<use xlink:href="#glyph-1-1" x="18.798022" y="62.22461"/>
</g>
<g fill="rgb(100%, 0%, 0%)" fill-opacity="1">
<use xlink:href="#glyph-1-2" x="77.44136" y="62.22461"/>
</g>
<g fill="rgb(100%, 0%, 0%)" fill-opacity="1">
<use xlink:href="#glyph-2-0" x="84.91336" y="63.71899"/>
</g>
<g fill="rgb(100%, 0%, 0%)" fill-opacity="1">
<use xlink:href="#glyph-4-0" x="89.83822" y="63.71899"/>
</g>
<g fill="rgb(100%, 0%, 0%)" fill-opacity="1">
<use xlink:href="#glyph-3-2" x="96.0649" y="63.71899"/>
</g>
<g fill="rgb(100%, 0%, 0%)" fill-opacity="1">
<use xlink:href="#glyph-1-2" x="146.19369" y="62.22461"/>
</g>
<g fill="rgb(100%, 0%, 0%)" fill-opacity="1">
<use xlink:href="#glyph-2-0" x="153.66569" y="63.71899"/>
</g>
<g fill="rgb(100%, 0%, 0%)" fill-opacity="1">
<use xlink:href="#glyph-1-2" x="214.83517" y="62.22461"/>
</g>
<g fill="rgb(100%, 0%, 0%)" fill-opacity="1">
<use xlink:href="#glyph-2-0" x="222.30717" y="63.71899"/>
</g>
<g fill="rgb(100%, 0%, 0%)" fill-opacity="1">
<use xlink:href="#glyph-3-0" x="227.23203" y="63.71899"/>
<use xlink:href="#glyph-3-2" x="233.348095" y="63.71899"/>
</g>
<g fill="rgb(0%, 0%, 0%)" fill-opacity="1">
<use xlink:href="#glyph-1-1" x="293.56403" y="62.22461"/>
</g>
<g fill="rgb(0%, 0%, 0%)" fill-opacity="1">
<use xlink:href="#glyph-1-1" x="297.97748" y="62.22461"/>
</g>
<g fill="rgb(0%, 0%, 0%)" fill-opacity="1">
<use xlink:href="#glyph-1-1" x="302.400892" y="62.22461"/>
</g>
<g fill="rgb(0%, 0%, 0%)" fill-opacity="1">
<use xlink:href="#glyph-1-0" x="38.14202" y="86.62679"/>
</g>
<g fill="rgb(0%, 0%, 0%)" fill-opacity="1">
<use xlink:href="#glyph-2-0" x="45.26253" y="88.12117"/>
</g>
<g fill="rgb(0%, 0%, 0%)" fill-opacity="1">
<use xlink:href="#glyph-4-0" x="50.18739" y="88.12117"/>
</g>
<g fill="rgb(0%, 0%, 0%)" fill-opacity="1">
<use xlink:href="#glyph-3-2" x="56.41407" y="88.12117"/>
</g>
<g fill="rgb(0%, 0%, 0%)" fill-opacity="1">
<use xlink:href="#glyph-1-0" x="175.64653" y="86.62679"/>
</g>
<g fill="rgb(0%, 0%, 0%)" fill-opacity="1">
<use xlink:href="#glyph-2-0" x="182.76704" y="88.12117"/>
</g>
<g fill="rgb(0%, 0%, 0%)" fill-opacity="1">
<use xlink:href="#glyph-3-0" x="187.6919" y="88.12117"/>
<use xlink:href="#glyph-3-2" x="193.807965" y="88.12117"/>
</g>
<g fill="rgb(0%, 0%, 0%)" fill-opacity="1">
<use xlink:href="#glyph-0-0" x="13.28204" y="110.64153"/>
</g>
<g fill="rgb(0%, 0%, 0%)" fill-opacity="1">
<use xlink:href="#glyph-0-0" x="86.49726" y="110.64153"/>
</g>
<g fill="rgb(0%, 0%, 0%)" fill-opacity="1">
<use xlink:href="#glyph-0-0" x="150.15056" y="110.64153"/>
</g>
<g fill="rgb(0%, 0%, 0%)" fill-opacity="1">
<use xlink:href="#glyph-0-0" x="223.83572" y="110.64153"/>
</g>
<path fill="none" stroke-width="0.39848" stroke-linecap="butt" stroke-linejoin="miter" stroke="rgb(0%, 0%, 0%)" stroke-opacity="1" stroke-miterlimit="10" d="M -61.603454 42.244099 L -45.310485 31.779255 " transform="matrix(1, 0, 0, -1, 157.57611, 59.98238)"/>
<path fill="none" stroke-width="0.39848" stroke-linecap="round" stroke-linejoin="round" stroke="rgb(0%, 0%, 0%)" stroke-opacity="1" stroke-miterlimit="10" d="M -2.072872 2.390007 C -1.69531 0.956452 -0.850837 0.277792 0.00153973 -0.00115045 C -0.850586 -0.279187 -1.693246 -0.955071 -2.070998 -2.39091 " transform="matrix(0.84135, 0.5404, 0.5404, -0.84135, 112.43292, 28.3107)"/>
<path fill="none" stroke-width="0.39848" stroke-linecap="butt" stroke-linejoin="miter" stroke="rgb(0%, 0%, 0%)" stroke-opacity="1" stroke-miterlimit="10" d="M 75.73639 42.814411 L 93.212953 33.01363 " transform="matrix(1, 0, 0, -1, 157.57611, 59.98238)"/>
<path fill="none" stroke-width="0.39848" stroke-linecap="round" stroke-linejoin="round" stroke="rgb(0%, 0%, 0%)" stroke-opacity="1" stroke-miterlimit="10" d="M -2.071518 2.39073 C -1.692024 0.955349 -0.851913 0.279917 -0.000867659 0.000274446 C -0.851566 -0.279741 -1.693837 -0.958125 -2.071689 -2.392748 " transform="matrix(0.87216, 0.48912, 0.48912, -0.87216, 250.96156, 27.06707)"/>
<path fill="none" stroke-width="0.39848" stroke-linecap="butt" stroke-linejoin="miter" stroke="rgb(0%, 0%, 0%)" stroke-opacity="1" stroke-miterlimit="10" d="M -24.810485 16.818318 L -15.033141 8.66988 " transform="matrix(1, 0, 0, -1, 157.57611, 59.98238)"/>
<path fill="none" stroke-width="0.39848" stroke-linecap="round" stroke-linejoin="round" stroke="rgb(0%, 0%, 0%)" stroke-opacity="1" stroke-miterlimit="10" d="M -2.071931 2.389773 C -1.691822 0.95728 -0.852046 0.279038 0.0017409 -0.00106983 C -0.850053 -0.278652 -1.69385 -0.956371 -2.070998 -2.389354 " transform="matrix(0.76819, 0.64014, 0.64014, -0.76819, 142.69466, 51.43947)"/>
<path fill="none" stroke-width="0.39848" stroke-linecap="butt" stroke-linejoin="miter" stroke="rgb(0%, 0%, 0%)" stroke-opacity="1" stroke-miterlimit="10" d="M -23.447204 32.767536 L -12.236266 41.224568 " transform="matrix(1, 0, 0, -1, 157.57611, 59.98238)"/>
<path fill="none" stroke-width="0.39848" stroke-linecap="round" stroke-linejoin="round" stroke="rgb(0%, 0%, 0%)" stroke-opacity="1" stroke-miterlimit="10" d="M -2.071146 2.392101 C -1.691466 0.95587 -0.851889 0.278558 -0.00106808 -0.00111711 C -0.85185 -0.279269 -1.694343 -0.95511 -2.073278 -2.391612 " transform="matrix(0.79834, -0.60217, -0.60217, -0.79834, 145.50018, 18.63909)"/>
<path fill="none" stroke-width="0.39848" stroke-linecap="butt" stroke-linejoin="miter" stroke="rgb(0%, 0%, 0%)" stroke-opacity="1" stroke-miterlimit="10" d="M 120.576234 32.818318 L 134.48639 41.935505 " transform="matrix(1, 0, 0, -1, 157.57611, 59.98238)"/>
<path fill="none" stroke-width="0.39848" stroke-linecap="round" stroke-linejoin="round" stroke="rgb(0%, 0%, 0%)" stroke-opacity="1" stroke-miterlimit="10" d="M -2.073255 2.392334 C -1.69247 0.956474 -0.851769 0.279425 0.00204781 0.00011669 C -0.848455 -0.278541 -1.694722 -0.95697 -2.073477 -2.39015 " transform="matrix(0.83636, -0.5481, -0.5481, -0.83636, 292.22882, 17.93872)"/>
<path fill="none" stroke-width="0.39848" stroke-linecap="butt" stroke-linejoin="miter" stroke="rgb(0%, 0%, 0%)" stroke-opacity="1" stroke-miterlimit="10" d="M 120.076234 15.986286 L 138.154359 2.892536 " transform="matrix(1, 0, 0, -1, 157.57611, 59.98238)"/>
<path fill="none" stroke-width="0.39848" stroke-linecap="round" stroke-linejoin="round" stroke="rgb(0%, 0%, 0%)" stroke-opacity="1" stroke-miterlimit="10" d="M -2.071291 2.391449 C -1.693594 0.957564 -0.850854 0.280107 -0.000721301 -0.00131418 C -0.850815 -0.279361 -1.691935 -0.956062 -2.072161 -2.389017 " transform="matrix(0.80988, 0.58655, 0.58655, -0.80988, 295.89198, 57.20639)"/>
<path fill="none" stroke-width="0.39848" stroke-linecap="butt" stroke-linejoin="miter" stroke="rgb(100%, 0%, 0%)" stroke-opacity="1" stroke-miterlimit="10" d="M -131.497985 0.248005 L -85.025329 0.248005 " transform="matrix(1, 0, 0, -1, 157.57611, 59.98238)"/>
<path fill="none" stroke-width="0.39848" stroke-linecap="round" stroke-linejoin="round" stroke="rgb(100%, 0%, 0%)" stroke-opacity="1" stroke-miterlimit="10" d="M -2.070293 2.38956 C -1.695293 0.955966 -0.851543 0.280185 0.00002 -0.001065 C -0.851543 -0.278409 -1.695293 -0.958096 -2.070293 -2.39169 " transform="matrix(1, 0, 0, -1, 72.74998, 59.73331)"/>
<path fill="none" stroke-width="0.39848" stroke-linecap="butt" stroke-linejoin="miter" stroke="rgb(0%, 0%, 0%)" stroke-opacity="1" stroke-miterlimit="10" d="M -133.037047 -6.091839 L -119.673766 -15.751995 " transform="matrix(1, 0, 0, -1, 157.57611, 59.98238)"/>
<path fill="none" stroke-width="0.39848" stroke-linecap="round" stroke-linejoin="round" stroke="rgb(0%, 0%, 0%)" stroke-opacity="1" stroke-miterlimit="10" d="M -2.071065 2.389373 C -1.694465 0.95518 -0.849069 0.279355 -0.00143104 0.000443065 C -0.84946 -0.28012 -1.694276 -0.958472 -2.072443 -2.388864 " transform="matrix(0.81032, 0.58592, 0.58592, -0.81032, 38.0634, 75.85276)"/>
<path fill="none" stroke-width="0.39848" stroke-linecap="butt" stroke-linejoin="miter" stroke="rgb(100%, 0%, 0%)" stroke-opacity="1" stroke-miterlimit="10" d="M -52.548766 0.248005 L -16.271422 0.248005 " transform="matrix(1, 0, 0, -1, 157.57611, 59.98238)"/>
<path fill="none" stroke-width="0.39848" stroke-linecap="round" stroke-linejoin="round" stroke="rgb(100%, 0%, 0%)" stroke-opacity="1" stroke-miterlimit="10" d="M -2.073442 2.38956 C -1.694536 0.955966 -0.850786 0.280185 0.00077625 -0.001065 C -0.850786 -0.278409 -1.694536 -0.958096 -2.073442 -2.39169 " transform="matrix(1, 0, 0, -1, 141.50313, 59.73331)"/>
<g fill="rgb(100%, 0%, 0%)" fill-opacity="1">
<use xlink:href="#glyph-2-1" x="114.58694" y="66.92252"/>
</g>
<g fill="rgb(100%, 0%, 0%)" fill-opacity="1">
<use xlink:href="#glyph-5-0" x="118.47173" y="67.91878"/>
</g>
<g fill="rgb(100%, 0%, 0%)" fill-opacity="1">
<use xlink:href="#glyph-6-0" x="122.85928" y="67.91878"/>
</g>
<g fill="rgb(100%, 0%, 0%)" fill-opacity="1">
<use xlink:href="#glyph-7-0" x="128.25579" y="67.91878"/>
</g>
<path fill="none" stroke-width="0.39848" stroke-linecap="butt" stroke-linejoin="miter" stroke="rgb(0%, 0%, 0%)" stroke-opacity="1" stroke-miterlimit="10" d="M -57.083922 8.415974 L -45.298766 16.779255 " transform="matrix(1, 0, 0, -1, 157.57611, 59.98238)"/>
<path fill="none" stroke-width="0.39848" stroke-linecap="round" stroke-linejoin="round" stroke="rgb(0%, 0%, 0%)" stroke-opacity="1" stroke-miterlimit="10" d="M -2.073012 2.391933 C -1.692325 0.957589 -0.851573 0.279343 -0.000190253 0.000751313 C -0.849478 -0.277853 -1.695316 -0.956525 -2.07119 -2.390372 " transform="matrix(0.8154, -0.57881, -0.57881, -0.8154, 112.43809, 43.08644)"/>
<path fill="none" stroke-width="0.39848" stroke-linecap="butt" stroke-linejoin="miter" stroke="rgb(100%, 0%, 0%)" stroke-opacity="1" stroke-miterlimit="10" d="M 6.005921 0.248005 L 52.369203 0.248005 " transform="matrix(1, 0, 0, -1, 157.57611, 59.98238)"/>
<path fill="none" stroke-width="0.39848" stroke-linecap="round" stroke-linejoin="round" stroke="rgb(100%, 0%, 0%)" stroke-opacity="1" stroke-miterlimit="10" d="M -2.071331 2.38956 C -1.692425 0.955966 -0.848675 0.280185 -0.00101875 -0.001065 C -0.848675 -0.278409 -1.692425 -0.958096 -2.071331 -2.39169 " transform="matrix(1, 0, 0, -1, 210.14555, 59.73331)"/>
<g fill="rgb(100%, 0%, 0%)" fill-opacity="1">
<use xlink:href="#glyph-2-1" x="182.57905" y="56.03107"/>
</g>
<g fill="rgb(100%, 0%, 0%)" fill-opacity="1">
<use xlink:href="#glyph-5-0" x="186.46384" y="57.02733"/>
</g>
<path fill="none" stroke-width="0.39848" stroke-linecap="butt" stroke-linejoin="miter" stroke="rgb(0%, 0%, 0%)" stroke-opacity="1" stroke-miterlimit="10" d="M 6.005921 -7.525432 L 17.58014 -15.755901 " transform="matrix(1, 0, 0, -1, 157.57611, 59.98238)"/>
<path fill="none" stroke-width="0.39848" stroke-linecap="round" stroke-linejoin="round" stroke="rgb(0%, 0%, 0%)" stroke-opacity="1" stroke-miterlimit="10" d="M -2.073506 2.392071 C -1.694143 0.955349 -0.849984 0.280577 0.00181153 -0.00048959 C -0.84934 -0.279809 -1.691784 -0.955593 -2.071252 -2.390273 " transform="matrix(0.8149, 0.5795, 0.5795, -0.8149, 175.31912, 75.85402)"/>
<path fill="none" stroke-width="0.39848" stroke-linecap="butt" stroke-linejoin="miter" stroke="rgb(100%, 0%, 0%)" stroke-opacity="1" stroke-miterlimit="10" d="M 84.73639 0.248005 L 131.099671 0.248005 " transform="matrix(1, 0, 0, -1, 157.57611, 59.98238)"/>
<path fill="none" stroke-width="0.39848" stroke-linecap="round" stroke-linejoin="round" stroke="rgb(100%, 0%, 0%)" stroke-opacity="1" stroke-miterlimit="10" d="M -2.070663 2.38956 C -1.691756 0.955966 -0.848006 0.280185 -0.00035 -0.001065 C -0.848006 -0.278409 -1.691756 -0.958096 -2.070663 -2.39169 " transform="matrix(1, 0, 0, -1, 288.87535, 59.73331)"/>
<g fill="rgb(100%, 0%, 0%)" fill-opacity="1">
<use xlink:href="#glyph-2-1" x="257.05385" y="66.92252"/>
</g>
<g fill="rgb(100%, 0%, 0%)" fill-opacity="1">
<use xlink:href="#glyph-5-0" x="260.93864" y="67.91878"/>
</g>
<g fill="rgb(100%, 0%, 0%)" fill-opacity="1">
<use xlink:href="#glyph-7-1" x="265.32619" y="67.91878"/>
<use xlink:href="#glyph-7-0" x="270.442006" y="67.91878"/>
</g>
<path fill="none" stroke-width="0.39848" stroke-linecap="butt" stroke-linejoin="miter" stroke="rgb(0%, 0%, 0%)" stroke-opacity="1" stroke-miterlimit="10" d="M 81.927796 8.415974 L 93.806703 15.775349 " transform="matrix(1, 0, 0, -1, 157.57611, 59.98238)"/>
<path fill="none" stroke-width="0.39848" stroke-linecap="round" stroke-linejoin="round" stroke="rgb(0%, 0%, 0%)" stroke-opacity="1" stroke-miterlimit="10" d="M -2.071833 2.389864 C -1.692427 0.955287 -0.849247 0.276526 -0.00097814 -0.000973287 C -0.849189 -0.279583 -1.691733 -0.95693 -2.070097 -2.39068 " transform="matrix(0.84999, -0.52673, -0.52673, -0.84999, 251.5511, 44.10022)"/>
<path fill="none" stroke-width="0.39848" stroke-linecap="butt" stroke-linejoin="miter" stroke="rgb(0%, 0%, 0%)" stroke-opacity="1" stroke-miterlimit="10" d="M -94.853454 -15.98637 L -82.939391 -8.623089 " transform="matrix(1, 0, 0, -1, 157.57611, 59.98238)"/>
<path fill="none" stroke-width="0.39848" stroke-linecap="round" stroke-linejoin="round" stroke="rgb(0%, 0%, 0%)" stroke-opacity="1" stroke-miterlimit="10" d="M -2.07085 2.38937 C -1.692987 0.957299 -0.848955 0.279573 -0.00238531 -0.000202631 C -0.850262 -0.279866 -1.695301 -0.956211 -2.071895 -2.390448 " transform="matrix(0.85063, -0.52567, -0.52567, -0.85063, 74.80661, 68.50248)"/>
<path fill="none" stroke-width="0.39848" stroke-linecap="butt" stroke-linejoin="miter" stroke="rgb(0%, 0%, 0%)" stroke-opacity="1" stroke-miterlimit="10" d="M -93.82611 -32.818401 L -75.912047 -43.716839 " transform="matrix(1, 0, 0, -1, 157.57611, 59.98238)"/>
<path fill="none" stroke-width="0.39848" stroke-linecap="round" stroke-linejoin="round" stroke="rgb(0%, 0%, 0%)" stroke-opacity="1" stroke-miterlimit="10" d="M -2.069957 2.39013 C -1.691426 0.956032 -0.849862 0.279124 0.0006688 0.000896987 C -0.849156 -0.27828 -1.693876 -0.956723 -2.074412 -2.390742 " transform="matrix(0.85431, 0.51967, 0.51967, -0.85431, 81.8349, 103.8012)"/>
<path fill="none" stroke-width="0.39848" stroke-linecap="butt" stroke-linejoin="miter" stroke="rgb(0%, 0%, 0%)" stroke-opacity="1" stroke-miterlimit="10" d="M 42.560609 -15.98637 L 54.439515 -8.626995 " transform="matrix(1, 0, 0, -1, 157.57611, 59.98238)"/>
<path fill="none" stroke-width="0.39848" stroke-linecap="round" stroke-linejoin="round" stroke="rgb(0%, 0%, 0%)" stroke-opacity="1" stroke-miterlimit="10" d="M -2.073705 2.391184 C -1.6943 0.956608 -0.85112 0.277847 0.000469653 -0.00171017 C -0.851062 -0.278262 -1.693606 -0.955609 -2.07197 -2.389359 " transform="matrix(0.84999, -0.52673, -0.52673, -0.84999, 212.1862, 68.5027)"/>
<path fill="none" stroke-width="0.39848" stroke-linecap="butt" stroke-linejoin="miter" stroke="rgb(0%, 0%, 0%)" stroke-opacity="1" stroke-miterlimit="10" d="M 43.584046 -32.818401 L 61.427796 -43.701214 " transform="matrix(1, 0, 0, -1, 157.57611, 59.98238)"/>
<path fill="none" stroke-width="0.39848" stroke-linecap="round" stroke-linejoin="round" stroke="rgb(0%, 0%, 0%)" stroke-opacity="1" stroke-miterlimit="10" d="M -2.071387 2.391529 C -1.694408 0.955885 -0.849975 0.276698 0.000894183 -0.000464891 C -0.850608 -0.277363 -1.694472 -0.956852 -2.073216 -2.39133 " transform="matrix(0.85367, 0.52074, 0.52074, -0.85367, 219.17526, 103.7882)"/>
<path fill="none" stroke-width="0.39848" stroke-linecap="butt" stroke-linejoin="miter" stroke="rgb(0%, 0%, 0%)" stroke-opacity="1" stroke-miterlimit="10" d="M -134.818297 -43.201214 L -120.556579 -33.04887 " transform="matrix(1, 0, 0, -1, 157.57611, 59.98238)"/>
<path fill="none" stroke-width="0.39848" stroke-linecap="round" stroke-linejoin="round" stroke="rgb(0%, 0%, 0%)" stroke-opacity="1" stroke-miterlimit="10" d="M -2.072569 2.393004 C -1.693666 0.958172 -0.848304 0.279789 -0.000443519 0.00239933 C -0.849168 -0.280597 -1.693595 -0.955038 -2.073525 -2.391613 " transform="matrix(0.81467, -0.57982, -0.57982, -0.81467, 37.18144, 92.91576)"/>
<path fill="none" stroke-width="0.39848" stroke-linecap="butt" stroke-linejoin="miter" stroke="rgb(0%, 0%, 0%)" stroke-opacity="1" stroke-miterlimit="10" d="M 2.052796 -43.283245 L 16.681703 -33.044964 " transform="matrix(1, 0, 0, -1, 157.57611, 59.98238)"/>
<path fill="none" stroke-width="0.39848" stroke-linecap="round" stroke-linejoin="round" stroke="rgb(0%, 0%, 0%)" stroke-opacity="1" stroke-miterlimit="10" d="M -2.07125 2.388879 C -1.694913 0.957515 -0.848633 0.27958 0.00011973 0.00038917 C -0.848191 -0.278534 -1.693533 -0.955241 -2.073721 -2.391251 " transform="matrix(0.81934, -0.57327, -0.57327, -0.81934, 174.422, 92.91445)"/>
</svg>
