<?xml version="1.0" encoding="UTF-8"?>
<svg xmlns="http://www.w3.org/2000/svg" xmlns:xlink="http://www.w3.org/1999/xlink" width="134.19pt" height="134.19pt" viewBox="0 0 134.19 134.19">
<path fill-rule="nonzero" fill="rgb(0%, 0%, 100%)" fill-opacity="1" d="M 17.867188 118.117188 C 17.867188 117.128906 17.0625 116.324219 16.074219 116.324219 C 15.082031 116.324219 14.277344 117.128906 14.277344 118.117188 C 14.277344 119.109375 15.082031 119.910156 16.074219 119.910156 C 17.0625 119.910156 17.867188 119.109375 17.867188 118.117188 Z M 17.867188 118.117188 "/>
<path fill-rule="nonzero" fill="rgb(0%, 0%, 100%)" fill-opacity="1" d="M 17.867188 92.605469 C 17.867188 91.617188 17.0625 90.8125 16.074219 90.8125 C 15.082031 90.8125 14.277344 91.617188 14.277344 92.605469 C 14.277344 93.597656 15.082031 94.398438 16.074219 94.398438 C 17.0625 94.398438 17.867188 93.597656 17.867188 92.605469 Z M 17.867188 92.605469 "/>
<path fill-rule="nonzero" fill="rgb(0%, 0%, 100%)" fill-opacity="1" d="M 17.867188 67.09375 C 17.867188 66.101562 17.0625 65.300781 16.074219 65.300781 C 15.082031 65.300781 14.277344 66.101562 14.277344 67.09375 C 14.277344 68.085938 15.082031 68.886719 16.074219 68.886719 C 17.0625 68.886719 17.867188 68.085938 17.867188 67.09375 Z M 17.867188 67.09375 "/>
<path fill-rule="nonzero" fill="rgb(0%, 0%, 100%)" fill-opacity="1" d="M 17.867188 41.582031 C 17.867188 40.589844 17.0625 39.789062 16.074219 39.789062 C 15.082031 39.789062 14.277344 40.589844 14.277344 41.582031 C 14.277344 42.570312 15.082031 43.375 16.074219 43.375 C 17.0625 43.375 17.867188 42.570312 17.867188 41.582031 Z M 17.867188 41.582031 "/>
<path fill-rule="nonzero" fill="rgb(0%, 0%, 100%)" fill-opacity="1" d="M 17.867188 16.070312 C 17.867188 15.078125 17.0625 14.277344 16.074219 14.277344 C 15.082031 14.277344 14.277344 15.078125 14.277344 16.070312 C 14.277344 17.058594 15.082031 17.863281 16.074219 17.863281 C 17.0625 17.863281 17.867188 17.058594 17.867188 16.070312 Z M 17.867188 16.070312 "/>
<path fill-rule="nonzero" fill="rgb(0%, 0%, 100%)" fill-opacity="1" d="M 43.378906 118.117188 C 43.378906 117.128906 42.574219 116.324219 41.585938 116.324219 C 40.59375 116.324219 39.792969 117.128906 39.792969 118.117188 C 39.792969 119.109375 40.59375 119.910156 41.585938 119.910156 C 42.574219 119.910156 43.378906 119.109375 43.378906 118.117188 Z M 43.378906 118.117188 "/>
<path fill-rule="nonzero" fill="rgb(0%, 0%, 100%)" fill-opacity="1" d="M 43.378906 92.605469 C 43.378906 91.617188 42.574219 90.8125 41.585938 90.8125 C 40.59375 90.8125 39.792969 91.617188 39.792969 92.605469 C 39.792969 93.597656 40.59375 94.398438 41.585938 94.398438 C 42.574219 94.398438 43.378906 93.597656 43.378906 92.605469 Z M 43.378906 92.605469 "/>
<path fill-rule="nonzero" fill="rgb(0%, 0%, 100%)" fill-opacity="1" d="M 43.378906 67.09375 C 43.378906 66.101562 42.574219 65.300781 41.585938 65.300781 C 40.59375 65.300781 39.792969 66.101562 39.792969 67.09375 C 39.792969 68.085938 40.59375 68.886719 41.585938 68.886719 C 42.574219 68.886719 43.378906 68.085938 43.378906 67.09375 Z M 43.378906 67.09375 "/>
<path fill-rule="nonzero" fill="rgb(0%, 0%, 100%)" fill-opacity="1" d="M 43.378906 41.582031 C 43.378906 40.589844 42.574219 39.789062 41.585938 39.789062 C 40.59375 39.789062 39.792969 40.589844 39.792969 41.582031 C 39.792969 42.570312 40.59375 43.375 41.585938 43.375 C 42.574219 43.375 43.378906 42.570312 43.378906 41.582031 Z M 43.378906 41.582031 "/>
<path fill-rule="nonzero" fill="rgb(0%, 0%, 100%)" fill-opacity="1" d="M 43.378906 16.070312 C 43.378906 15.078125 42.574219 14.277344 41.585938 14.277344 C 40.59375 14.277344 39.792969 15.078125 39.792969 16.070312 C 39.792969 17.058594 40.59375 17.863281 41.585938 17.863281 C 42.574219 17.863281 43.378906 17.058594 43.378906 16.070312 Z M 43.378906 16.070312 "/>
<path fill-rule="nonzero" fill="rgb(0%, 0%, 100%)" fill-opacity="1" d="M 68.890625 118.117188 C 68.890625 117.128906 68.085938 116.324219 67.097656 116.324219 C 66.105469 116.324219 65.304688 117.128906 65.304688 118.117188 C 65.304688 119.109375 66.105469 119.910156 67.097656 119.910156 C 68.085938 119.910156 68.890625 119.109375 68.890625 118.117188 Z M 68.890625 118.117188 "/>
<path fill-rule="nonzero" fill="rgb(0%, 0%, 100%)" fill-opacity="1" d="M 68.890625 92.605469 C 68.890625 91.617188 68.085938 90.8125 67.097656 90.8125 C 66.105469 90.8125 65.304688 91.617188 65.304688 92.605469 C 65.304688 93.597656 66.105469 94.398438 67.097656 94.398438 C 68.085938 94.398438 68.890625 93.597656 68.890625 92.605469 Z M 68.890625 92.605469 "/>
<path fill-rule="nonzero" fill="rgb(0%, 0%, 100%)" fill-opacity="1" d="M 68.890625 67.09375 C 68.890625 66.101562 68.085938 65.300781 67.097656 65.300781 C 66.105469 65.300781 65.304688 66.101562 65.304688 67.09375 C 65.304688 68.085938 66.105469 68.886719 67.097656 68.886719 C 68.085938 68.886719 68.890625 68.085938 68.890625 67.09375 Z M 68.890625 67.09375 "/>
<path fill-rule="nonzero" fill="rgb(0%, 0%, 100%)" fill-opacity="1" d="M 68.890625 41.582031 C 68.890625 40.589844 68.085938 39.789062 67.097656 39.789062 C 66.105469 39.789062 65.304688 40.589844 65.304688 41.582031 C 65.304688 42.570312 66.105469 43.375 67.097656 43.375 C 68.085938 43.375 68.890625 42.570312 68.890625 41.582031 Z M 68.890625 41.582031 "/>
<path fill-rule="nonzero" fill="rgb(0%, 0%, 100%)" fill-opacity="1" d="M 68.890625 16.070312 C 68.890625 15.078125 68.085938 14.277344 67.097656 14.277344 C 66.105469 14.277344 65.304688 15.078125 65.304688 16.070312 C 65.304688 17.058594 66.105469 17.863281 67.097656 17.863281 C 68.085938 17.863281 68.890625 17.058594 68.890625 16.070312 Z M 68.890625 16.070312 "/>
<path fill-rule="nonzero" fill="rgb(0%, 0%, 100%)" fill-opacity="1" d="M 94.402344 118.117188 C 94.402344 117.128906 93.597656 116.324219 92.609375 116.324219 C 91.617188 116.324219 90.816406 117.128906 90.816406 118.117188 C 90.816406 119.109375 91.617188 119.910156 92.609375 119.910156 C 93.597656 119.910156 94.402344 119.109375 94.402344 118.117188 Z M 94.402344 118.117188 "/>
<path fill-rule="nonzero" fill="rgb(0%, 0%, 100%)" fill-opacity="1" d="M 94.402344 92.605469 C 94.402344 91.617188 93.597656 90.8125 92.609375 90.8125 C 91.617188 90.8125 90.816406 91.617188 90.816406 92.605469 C 90.816406 93.597656 91.617188 94.398438 92.609375 94.398438 C 93.597656 94.398438 94.402344 93.597656 94.402344 92.605469 Z M 94.402344 92.605469 "/>
<path fill-rule="nonzero" fill="rgb(0%, 0%, 100%)" fill-opacity="1" d="M 94.402344 67.09375 C 94.402344 66.101562 93.597656 65.300781 92.609375 65.300781 C 91.617188 65.300781 90.816406 66.101562 90.816406 67.09375 C 90.816406 68.085938 91.617188 68.886719 92.609375 68.886719 C 93.597656 68.886719 94.402344 68.085938 94.402344 67.09375 Z M 94.402344 67.09375 "/>
<path fill-rule="nonzero" fill="rgb(0%, 0%, 100%)" fill-opacity="1" d="M 94.402344 41.582031 C 94.402344 40.589844 93.597656 39.789062 92.609375 39.789062 C 91.617188 39.789062 90.816406 40.589844 90.816406 41.582031 C 90.816406 42.570312 91.617188 43.375 92.609375 43.375 C 93.597656 43.375 94.402344 42.570312 94.402344 41.582031 Z M 94.402344 41.582031 "/>
<path fill-rule="nonzero" fill="rgb(0%, 0%, 100%)" fill-opacity="1" d="M 94.402344 16.070312 C 94.402344 15.078125 93.597656 14.277344 92.609375 14.277344 C 91.617188 14.277344 90.816406 15.078125 90.816406 16.070312 C 90.816406 17.058594 91.617188 17.863281 92.609375 17.863281 C 93.597656 17.863281 94.402344 17.058594 94.402344 16.070312 Z M 94.402344 16.070312 "/>
<path fill-rule="nonzero" fill="rgb(0%, 0%, 100%)" fill-opacity="1" d="M 119.914062 118.117188 C 119.914062 117.128906 119.109375 116.324219 118.121094 116.324219 C 117.128906 116.324219 116.328125 117.128906 116.328125 118.117188 C 116.328125 119.109375 117.128906 119.910156 118.121094 119.910156 C 119.109375 119.910156 119.914062 119.109375 119.914062 118.117188 Z M 119.914062 118.117188 "/>
<path fill-rule="nonzero" fill="rgb(0%, 0%, 100%)" fill-opacity="1" d="M 119.914062 92.605469 C 119.914062 91.617188 119.109375 90.8125 118.121094 90.8125 C 117.128906 90.8125 116.328125 91.617188 116.328125 92.605469 C 116.328125 93.597656 117.128906 94.398438 118.121094 94.398438 C 119.109375 94.398438 119.914062 93.597656 119.914062 92.605469 Z M 119.914062 92.605469 "/>
<path fill-rule="nonzero" fill="rgb(0%, 0%, 100%)" fill-opacity="1" d="M 119.914062 67.09375 C 119.914062 66.101562 119.109375 65.300781 118.121094 65.300781 C 117.128906 65.300781 116.328125 66.101562 116.328125 67.09375 C 116.328125 68.085938 117.128906 68.886719 118.121094 68.886719 C 119.109375 68.886719 119.914062 68.085938 119.914062 67.09375 Z M 119.914062 67.09375 "/>
<path fill-rule="nonzero" fill="rgb(0%, 0%, 100%)" fill-opacity="1" d="M 119.914062 41.582031 C 119.914062 40.589844 119.109375 39.789062 118.121094 39.789062 C 117.128906 39.789062 116.328125 40.589844 116.328125 41.582031 C 116.328125 42.570312 117.128906 43.375 118.121094 43.375 C 119.109375 43.375 119.914062 42.570312 119.914062 41.582031 Z M 119.914062 41.582031 "/>
<path fill-rule="nonzero" fill="rgb(0%, 0%, 100%)" fill-opacity="1" d="M 119.914062 16.070312 C 119.914062 15.078125 119.109375 14.277344 118.121094 14.277344 C 117.128906 14.277344 116.328125 15.078125 116.328125 16.070312 C 116.328125 17.058594 117.128906 17.863281 118.121094 17.863281 C 119.109375 17.863281 119.914062 17.058594 119.914062 16.070312 Z M 119.914062 16.070312 "/>
<path fill-rule="nonzero" fill="rgb(100%, 0%, 0%)" fill-opacity="1" d="M 76.722656 56.890625 C 76.722656 55.800781 75.839844 54.917969 74.75 54.917969 C 73.660156 54.917969 72.777344 55.800781 72.777344 56.890625 C 72.777344 57.980469 73.660156 58.863281 74.75 58.863281 C 75.839844 58.863281 76.722656 57.980469 76.722656 56.890625 Z M 76.722656 56.890625 "/>
<path fill="none" stroke-width="0.3985" stroke-linecap="butt" stroke-linejoin="miter" stroke="rgb(0%, 0%, 0%)" stroke-opacity="1" stroke-miterlimit="10" d="M 7.65375 10.203105 L 1.837344 2.449199 " transform="matrix(1, 0, 0, -1, 67.09625, 67.09373)"/>
<path fill-rule="nonzero" fill="rgb(0%, 0%, 0%)" fill-opacity="1" stroke-width="0.3985" stroke-linecap="butt" stroke-linejoin="miter" stroke="rgb(0%, 0%, 0%)" stroke-opacity="1" stroke-miterlimit="10" d="M 4.214852 0.00114918 L 0.642857 1.345685 L 1.817906 0.000343939 L 0.643665 -1.344239 Z M 4.214852 0.00114918 " transform="matrix(-0.59999, 0.79997, 0.79997, 0.59999, 69.96545, 63.26818)"/>
<path fill-rule="nonzero" fill="rgb(100%, 0%, 0%)" fill-opacity="1" d="M 41.003906 26.273438 C 41.003906 25.183594 40.121094 24.300781 39.03125 24.300781 C 37.945312 24.300781 37.058594 25.183594 37.058594 26.273438 C 37.058594 27.363281 37.945312 28.246094 39.03125 28.246094 C 40.121094 28.246094 41.003906 27.363281 41.003906 26.273438 Z M 41.003906 26.273438 "/>
<path fill="none" stroke-width="0.3985" stroke-linecap="butt" stroke-linejoin="miter" stroke="rgb(0%, 0%, 0%)" stroke-opacity="1" stroke-miterlimit="10" d="M -28.065 40.820292 L -26.256406 48.050761 " transform="matrix(1, 0, 0, -1, 67.09625, 67.09373)"/>
<path fill-rule="nonzero" fill="rgb(0%, 0%, 0%)" fill-opacity="1" stroke-width="0.3985" stroke-linecap="butt" stroke-linejoin="miter" stroke="rgb(0%, 0%, 0%)" stroke-opacity="1" stroke-miterlimit="10" d="M 4.213587 0.00116122 L 0.643687 1.347493 L 1.818486 -0.00165783 L 0.644608 -1.346048 Z M 4.213587 0.00116122 " transform="matrix(0.24252, -0.97012, -0.97012, -0.24252, 40.42456, 20.70906)"/>
<path fill-rule="nonzero" fill="rgb(100%, 0%, 0%)" fill-opacity="1" d="M 30.800781 105.363281 C 30.800781 104.273438 29.917969 103.390625 28.828125 103.390625 C 27.738281 103.390625 26.855469 104.273438 26.855469 105.363281 C 26.855469 106.449219 27.738281 107.335938 28.828125 107.335938 C 29.917969 107.335938 30.800781 106.449219 30.800781 105.363281 Z M 30.800781 105.363281 "/>
<path fill="none" stroke-width="0.3985" stroke-linecap="butt" stroke-linejoin="miter" stroke="rgb(0%, 0%, 0%)" stroke-opacity="1" stroke-miterlimit="10" d="M -38.268125 -38.269551 L -48.857969 -48.855489 " transform="matrix(1, 0, 0, -1, 67.09625, 67.09373)"/>
<path fill-rule="nonzero" fill="rgb(0%, 0%, 0%)" fill-opacity="1" stroke-width="0.3985" stroke-linecap="butt" stroke-linejoin="miter" stroke="rgb(0%, 0%, 0%)" stroke-opacity="1" stroke-miterlimit="10" d="M 4.214275 -0.00175364 L 0.645561 1.346182 L 1.81948 0.00100852 L 0.642799 -1.346927 Z M 4.214275 -0.00175364 " transform="matrix(-0.7071, 0.7071, 0.7071, 0.7071, 19.45381, 114.73617)"/>
<path fill="none" stroke-width="0.3985" stroke-linecap="butt" stroke-linejoin="miter" stroke="rgb(0%, 0%, 0%)" stroke-opacity="1" stroke-miterlimit="10" d="M -61.229062 -0.00002 L 60.829531 -0.00002 " transform="matrix(1, 0, 0, -1, 67.09625, 67.09373)"/>
<path fill="none" stroke-width="0.3985" stroke-linecap="round" stroke-linejoin="round" stroke="rgb(0%, 0%, 0%)" stroke-opacity="1" stroke-miterlimit="10" d="M -2.070832 2.390605 C -1.691926 0.957011 -0.848176 0.277324 -0.00052 -0.00002 C -0.848176 -0.277364 -1.691926 -0.957051 -2.070832 -2.390645 " transform="matrix(1, 0, 0, -1, 128.12552, 67.09373)"/>
<path fill="none" stroke-width="0.3985" stroke-linecap="butt" stroke-linejoin="miter" stroke="rgb(0%, 0%, 0%)" stroke-opacity="1" stroke-miterlimit="10" d="M 0.00140625 -61.226583 L 0.00140625 60.828105 " transform="matrix(1, 0, 0, -1, 67.09625, 67.09373)"/>
<path fill="none" stroke-width="0.3985" stroke-linecap="round" stroke-linejoin="round" stroke="rgb(0%, 0%, 0%)" stroke-opacity="1" stroke-miterlimit="10" d="M -2.072259 2.389219 C -1.693353 0.955625 -0.849603 0.279844 -0.00194625 -0.00140625 C -0.849603 -0.27875 -1.693353 -0.954531 -2.072259 -2.392031 " transform="matrix(0, -1, -1, 0, 67.09625, 6.06446)"/>
</svg>
