<?xml version="1.0" encoding="UTF-8"?>
<svg xmlns="http://www.w3.org/2000/svg" xmlns:xlink="http://www.w3.org/1999/xlink" width="171.27pt" height="171.27pt" viewBox="0 0 171.27 171.27">
<defs>
<clipPath id="clip-0">
<path clip-rule="nonzero" d="M 76 0 L 171.269531 0 L 171.269531 96 L 76 96 Z M 76 0 "/>
</clipPath>
<clipPath id="clip-1">
<path clip-rule="nonzero" d="M 0 76 L 96 76 L 96 171.269531 L 0 171.269531 Z M 0 76 "/>
</clipPath>
<clipPath id="clip-2">
<path clip-rule="nonzero" d="M 76 76 L 171.269531 76 L 171.269531 171.269531 L 76 171.269531 Z M 76 76 "/>
</clipPath>
</defs>
<path fill-rule="nonzero" fill="rgb(0%, 0%, 100%)" fill-opacity="1" d="M 15.289062 157.070312 C 15.289062 156.46875 14.800781 155.980469 14.203125 155.980469 C 13.601562 155.980469 13.113281 156.46875 13.113281 157.070312 C 13.113281 157.667969 13.601562 158.15625 14.203125 158.15625 C 14.800781 158.15625 15.289062 157.667969 15.289062 157.070312 Z M 15.289062 157.070312 "/>
<path fill-rule="nonzero" fill="rgb(0%, 0%, 100%)" fill-opacity="1" d="M 27.195312 145.164062 C 27.195312 144.5625 26.707031 144.074219 26.105469 144.074219 C 25.507812 144.074219 25.019531 144.5625 25.019531 145.164062 C 25.019531 145.765625 25.507812 146.25 26.105469 146.25 C 26.707031 146.25 27.195312 145.765625 27.195312 145.164062 Z M 27.195312 145.164062 "/>
<path fill-rule="nonzero" fill="rgb(0%, 0%, 100%)" fill-opacity="1" d="M 39.101562 133.257812 C 39.101562 132.65625 38.613281 132.167969 38.011719 132.167969 C 37.410156 132.167969 36.925781 132.65625 36.925781 133.257812 C 36.925781 133.859375 37.410156 134.34375 38.011719 134.34375 C 38.613281 134.34375 39.101562 133.859375 39.101562 133.257812 Z M 39.101562 133.257812 "/>
<path fill-rule="nonzero" fill="rgb(0%, 0%, 100%)" fill-opacity="1" d="M 11.519531 81.867188 C 11.519531 81.265625 11.03125 80.777344 10.433594 80.777344 C 9.832031 80.777344 9.34375 81.265625 9.34375 81.867188 C 9.34375 82.464844 9.832031 82.953125 10.433594 82.953125 C 11.03125 82.953125 11.519531 82.464844 11.519531 81.867188 Z M 11.519531 81.867188 "/>
<path fill-rule="nonzero" fill="rgb(0%, 0%, 100%)" fill-opacity="1" d="M 51.007812 121.351562 C 51.007812 120.75 50.519531 120.265625 49.917969 120.265625 C 49.316406 120.265625 48.832031 120.75 48.832031 121.351562 C 48.832031 121.953125 49.316406 122.441406 49.917969 122.441406 C 50.519531 122.441406 51.007812 121.953125 51.007812 121.351562 Z M 51.007812 121.351562 "/>
<path fill-rule="nonzero" fill="rgb(0%, 0%, 100%)" fill-opacity="1" d="M 90.492188 160.839844 C 90.492188 160.238281 90.003906 159.75 89.40625 159.75 C 88.804688 159.75 88.316406 160.238281 88.316406 160.839844 C 88.316406 161.4375 88.804688 161.925781 89.40625 161.925781 C 90.003906 161.925781 90.492188 161.4375 90.492188 160.839844 Z M 90.492188 160.839844 "/>
<path fill-rule="nonzero" fill="rgb(0%, 0%, 100%)" fill-opacity="1" d="M 23.425781 69.960938 C 23.425781 69.359375 22.9375 68.871094 22.335938 68.871094 C 21.738281 68.871094 21.25 69.359375 21.25 69.960938 C 21.25 70.5625 21.738281 71.046875 22.335938 71.046875 C 22.9375 71.046875 23.425781 70.5625 23.425781 69.960938 Z M 23.425781 69.960938 "/>
<path fill-rule="nonzero" fill="rgb(0%, 0%, 100%)" fill-opacity="1" d="M 62.910156 109.445312 C 62.910156 108.84375 62.425781 108.359375 61.824219 108.359375 C 61.222656 108.359375 60.734375 108.84375 60.734375 109.445312 C 60.734375 110.046875 61.222656 110.535156 61.824219 110.535156 C 62.425781 110.535156 62.910156 110.046875 62.910156 109.445312 Z M 62.910156 109.445312 "/>
<path fill-rule="nonzero" fill="rgb(0%, 0%, 100%)" fill-opacity="1" d="M 102.398438 148.933594 C 102.398438 148.332031 101.910156 147.84375 101.308594 147.84375 C 100.710938 147.84375 100.222656 148.332031 100.222656 148.933594 C 100.222656 149.535156 100.710938 150.019531 101.308594 150.019531 C 101.910156 150.019531 102.398438 149.535156 102.398438 148.933594 Z M 102.398438 148.933594 "/>
<path fill-rule="nonzero" fill="rgb(0%, 0%, 100%)" fill-opacity="1" d="M 35.332031 58.054688 C 35.332031 57.453125 34.84375 56.964844 34.242188 56.964844 C 33.640625 56.964844 33.15625 57.453125 33.15625 58.054688 C 33.15625 58.65625 33.640625 59.140625 34.242188 59.140625 C 34.84375 59.140625 35.332031 58.65625 35.332031 58.054688 Z M 35.332031 58.054688 "/>
<path fill-rule="nonzero" fill="rgb(0%, 0%, 100%)" fill-opacity="1" d="M 74.816406 97.539062 C 74.816406 96.941406 74.332031 96.453125 73.730469 96.453125 C 73.128906 96.453125 72.640625 96.941406 72.640625 97.539062 C 72.640625 98.140625 73.128906 98.628906 73.730469 98.628906 C 74.332031 98.628906 74.816406 98.140625 74.816406 97.539062 Z M 74.816406 97.539062 "/>
<path fill-rule="nonzero" fill="rgb(0%, 0%, 100%)" fill-opacity="1" d="M 114.304688 137.027344 C 114.304688 136.425781 113.816406 135.9375 113.214844 135.9375 C 112.613281 135.9375 112.128906 136.425781 112.128906 137.027344 C 112.128906 137.628906 112.613281 138.113281 113.214844 138.113281 C 113.816406 138.113281 114.304688 137.628906 114.304688 137.027344 Z M 114.304688 137.027344 "/>
<path fill-rule="nonzero" fill="rgb(0%, 0%, 100%)" fill-opacity="1" d="M 47.238281 46.148438 C 47.238281 45.546875 46.75 45.0625 46.148438 45.0625 C 45.546875 45.0625 45.0625 45.546875 45.0625 46.148438 C 45.0625 46.75 45.546875 47.238281 46.148438 47.238281 C 46.75 47.238281 47.238281 46.75 47.238281 46.148438 Z M 47.238281 46.148438 "/>
<path fill-rule="nonzero" fill="rgb(0%, 0%, 100%)" fill-opacity="1" d="M 86.722656 85.636719 C 86.722656 85.035156 86.234375 84.546875 85.636719 84.546875 C 85.035156 84.546875 84.546875 85.035156 84.546875 85.636719 C 84.546875 86.234375 85.035156 86.722656 85.636719 86.722656 C 86.234375 86.722656 86.722656 86.234375 86.722656 85.636719 Z M 86.722656 85.636719 "/>
<path fill-rule="nonzero" fill="rgb(0%, 0%, 100%)" fill-opacity="1" d="M 126.210938 125.121094 C 126.210938 124.519531 125.722656 124.035156 125.121094 124.035156 C 124.519531 124.035156 124.035156 124.519531 124.035156 125.121094 C 124.035156 125.722656 124.519531 126.210938 125.121094 126.210938 C 125.722656 126.210938 126.210938 125.722656 126.210938 125.121094 Z M 126.210938 125.121094 "/>
<path fill-rule="nonzero" fill="rgb(0%, 0%, 100%)" fill-opacity="1" d="M 59.140625 34.242188 C 59.140625 33.640625 58.65625 33.15625 58.054688 33.15625 C 57.453125 33.15625 56.964844 33.640625 56.964844 34.242188 C 56.964844 34.84375 57.453125 35.332031 58.054688 35.332031 C 58.65625 35.332031 59.140625 34.84375 59.140625 34.242188 Z M 59.140625 34.242188 "/>
<path fill-rule="nonzero" fill="rgb(0%, 0%, 100%)" fill-opacity="1" d="M 98.628906 73.730469 C 98.628906 73.128906 98.140625 72.640625 97.539062 72.640625 C 96.941406 72.640625 96.453125 73.128906 96.453125 73.730469 C 96.453125 74.332031 96.941406 74.816406 97.539062 74.816406 C 98.140625 74.816406 98.628906 74.332031 98.628906 73.730469 Z M 98.628906 73.730469 "/>
<path fill-rule="nonzero" fill="rgb(0%, 0%, 100%)" fill-opacity="1" d="M 138.113281 113.214844 C 138.113281 112.613281 137.628906 112.128906 137.027344 112.128906 C 136.425781 112.128906 135.9375 112.613281 135.9375 113.214844 C 135.9375 113.816406 136.425781 114.304688 137.027344 114.304688 C 137.628906 114.304688 138.113281 113.816406 138.113281 113.214844 Z M 138.113281 113.214844 "/>
<path fill-rule="nonzero" fill="rgb(0%, 0%, 100%)" fill-opacity="1" d="M 71.046875 22.335938 C 71.046875 21.738281 70.5625 21.25 69.960938 21.25 C 69.359375 21.25 68.871094 21.738281 68.871094 22.335938 C 68.871094 22.9375 69.359375 23.425781 69.960938 23.425781 C 70.5625 23.425781 71.046875 22.9375 71.046875 22.335938 Z M 71.046875 22.335938 "/>
<path fill-rule="nonzero" fill="rgb(0%, 0%, 100%)" fill-opacity="1" d="M 110.535156 61.824219 C 110.535156 61.222656 110.046875 60.734375 109.445312 60.734375 C 108.84375 60.734375 108.359375 61.222656 108.359375 61.824219 C 108.359375 62.425781 108.84375 62.910156 109.445312 62.910156 C 110.046875 62.910156 110.535156 62.425781 110.535156 61.824219 Z M 110.535156 61.824219 "/>
<path fill-rule="nonzero" fill="rgb(0%, 0%, 100%)" fill-opacity="1" d="M 150.019531 101.308594 C 150.019531 100.710938 149.535156 100.222656 148.933594 100.222656 C 148.332031 100.222656 147.84375 100.710938 147.84375 101.308594 C 147.84375 101.910156 148.332031 102.398438 148.933594 102.398438 C 149.535156 102.398438 150.019531 101.910156 150.019531 101.308594 Z M 150.019531 101.308594 "/>
<path fill-rule="nonzero" fill="rgb(0%, 0%, 100%)" fill-opacity="1" d="M 82.953125 10.433594 C 82.953125 9.832031 82.464844 9.34375 81.867188 9.34375 C 81.265625 9.34375 80.777344 9.832031 80.777344 10.433594 C 80.777344 11.03125 81.265625 11.519531 81.867188 11.519531 C 82.464844 11.519531 82.953125 11.03125 82.953125 10.433594 Z M 82.953125 10.433594 "/>
<path fill-rule="nonzero" fill="rgb(0%, 0%, 100%)" fill-opacity="1" d="M 122.441406 49.917969 C 122.441406 49.316406 121.953125 48.832031 121.351562 48.832031 C 120.75 48.832031 120.265625 49.316406 120.265625 49.917969 C 120.265625 50.519531 120.75 51.007812 121.351562 51.007812 C 121.953125 51.007812 122.441406 50.519531 122.441406 49.917969 Z M 122.441406 49.917969 "/>
<path fill-rule="nonzero" fill="rgb(0%, 0%, 100%)" fill-opacity="1" d="M 161.925781 89.40625 C 161.925781 88.804688 161.4375 88.316406 160.839844 88.316406 C 160.238281 88.316406 159.75 88.804688 159.75 89.40625 C 159.75 90.003906 160.238281 90.492188 160.839844 90.492188 C 161.4375 90.492188 161.925781 90.003906 161.925781 89.40625 Z M 161.925781 89.40625 "/>
<path fill-rule="nonzero" fill="rgb(0%, 0%, 100%)" fill-opacity="1" d="M 134.34375 38.011719 C 134.34375 37.410156 133.859375 36.925781 133.257812 36.925781 C 132.65625 36.925781 132.167969 37.410156 132.167969 38.011719 C 132.167969 38.613281 132.65625 39.101562 133.257812 39.101562 C 133.859375 39.101562 134.34375 38.613281 134.34375 38.011719 Z M 134.34375 38.011719 "/>
<path fill-rule="nonzero" fill="rgb(0%, 0%, 100%)" fill-opacity="1" d="M 146.25 26.105469 C 146.25 25.507812 145.765625 25.019531 145.164062 25.019531 C 144.5625 25.019531 144.074219 25.507812 144.074219 26.105469 C 144.074219 26.707031 144.5625 27.195312 145.164062 27.195312 C 145.765625 27.195312 146.25 26.707031 146.25 26.105469 Z M 146.25 26.105469 "/>
<path fill-rule="nonzero" fill="rgb(0%, 0%, 100%)" fill-opacity="1" d="M 158.15625 14.203125 C 158.15625 13.601562 157.667969 13.113281 157.070312 13.113281 C 156.46875 13.113281 155.980469 13.601562 155.980469 14.203125 C 155.980469 14.800781 156.46875 15.289062 157.070312 15.289062 C 157.667969 15.289062 158.15625 14.800781 158.15625 14.203125 Z M 158.15625 14.203125 "/>
<g clip-path="url(#clip-0)">
<path fill="none" stroke-width="0.79701" stroke-linecap="butt" stroke-linejoin="miter" stroke="rgb(100%, 0%, 0%)" stroke-opacity="1" stroke-miterlimit="10" d="M 1.83372 77.361532 L 2.466532 57.459189 L 3.103251 45.701376 L 3.736064 37.935751 L 4.372782 32.427939 L 5.005595 28.314657 L 5.642314 25.127157 L 6.275126 22.588095 L 6.911845 20.513876 L 7.544657 18.787314 L 8.181376 17.330282 L 8.814189 16.080282 L 9.450907 15.002157 L 10.08372 14.056845 L 10.720439 13.224814 L 11.353251 12.482626 L 11.98997 11.82247 L 12.622782 11.22872 L 13.259501 10.689657 L 13.892314 10.201376 L 14.525126 9.756064 L 15.161845 9.349814 L 15.794657 8.970907 L 16.431376 8.627157 L 17.064189 8.306845 L 17.700907 8.006064 L 18.33372 7.72872 L 18.970439 7.470907 L 19.603251 7.22872 L 20.23997 7.002157 L 20.872782 6.79122 L 21.509501 6.588095 L 22.142314 6.400595 L 22.779032 6.220907 L 23.411845 6.052939 L 24.048564 5.892782 L 24.681376 5.740439 L 25.318095 5.599814 L 25.950907 5.459189 L 26.587626 5.330282 L 27.220439 5.205282 L 27.857157 5.088095 L 28.48997 4.974814 L 29.126689 4.865439 L 29.759501 4.763876 L 30.39622 4.662314 L 31.029032 4.568564 L 31.665751 4.474814 L 32.298564 4.388876 L 32.935282 4.302939 L 33.568095 4.220907 L 34.204814 4.142782 L 34.837626 4.068564 L 35.474345 3.994345 L 36.107157 3.924032 L 36.743876 3.857626 L 37.376689 3.79122 L 38.013407 3.72872 L 38.64622 3.66622 L 39.282939 3.607626 L 39.915751 3.552939 L 40.55247 3.494345 L 41.185282 3.439657 L 41.822001 3.388876 L 42.454814 3.338095 L 43.091532 3.29122 L 43.724345 3.240439 L 44.361064 3.193564 L 44.993876 3.150595 L 45.630595 3.107626 L 46.263407 3.064657 L 46.900126 3.021689 L 47.532939 2.982626 L 48.169657 2.943564 L 48.80247 2.904501 L 49.439189 2.865439 L 50.072001 2.830282 L 50.70872 2.795126 L 51.341532 2.75997 L 51.978251 2.72872 L 52.611064 2.693564 L 53.247782 2.662314 L 53.880595 2.631064 L 54.517314 2.599814 L 55.150126 2.568564 L 55.786845 2.54122 L 56.419657 2.513876 L 57.056376 2.482626 L 57.689189 2.455282 L 58.322001 2.431845 L 58.95872 2.404501 L 59.591532 2.377157 L 60.228251 2.35372 L 60.861064 2.330282 L 61.497782 2.306845 L 62.130595 2.279501 L 62.767314 2.25997 L 63.400126 2.236532 L 64.036845 2.213095 L 64.669657 2.189657 L 65.306376 2.170126 L 65.939189 2.150595 L 66.575907 2.127157 L 67.20872 2.107626 L 67.845439 2.088095 L 68.478251 2.068564 L 69.11497 2.049032 L 69.747782 2.033407 L 70.384501 2.013876 L 71.017314 1.994345 L 71.654032 1.97872 L 72.286845 1.959189 L 72.923564 1.943564 L 73.556376 1.927939 L 74.193095 1.912314 L 74.825907 1.892782 L 75.462626 1.877157 L 76.095439 1.861532 L 76.732157 1.845907 L 77.36497 1.830282 " transform="matrix(1, 0, 0, -1, 85.63503, 85.63497)"/>
</g>
<g clip-path="url(#clip-1)">
<path fill="none" stroke-width="0.79701" stroke-linecap="butt" stroke-linejoin="miter" stroke="rgb(100%, 0%, 0%)" stroke-opacity="1" stroke-miterlimit="10" d="M -77.38503 -1.829874 L -76.752218 -1.845499 L -76.115499 -1.861124 L -75.482686 -1.876749 L -74.845968 -1.892374 L -74.213155 -1.907999 L -73.576436 -1.92753 L -72.943624 -1.943155 L -72.306905 -1.95878 L -71.674093 -1.978311 L -71.037374 -1.993936 L -70.404561 -2.013468 L -69.767843 -2.032999 L -69.13503 -2.048624 L -68.498311 -2.068155 L -67.865499 -2.087686 L -67.22878 -2.107218 L -66.595968 -2.126749 L -65.959249 -2.150186 L -64.693624 -2.189249 L -64.056905 -2.212686 L -63.424093 -2.236124 L -62.787374 -2.255655 L -62.154561 -2.279093 L -61.517843 -2.30253 L -60.88503 -2.329874 L -60.248311 -2.353311 L -59.615499 -2.376749 L -58.97878 -2.404093 L -58.345968 -2.42753 L -57.709249 -2.454874 L -57.076436 -2.482218 L -56.439718 -2.509561 L -55.806905 -2.540811 L -55.170186 -2.568155 L -54.537374 -2.599405 L -53.900655 -2.630655 L -53.267843 -2.661905 L -52.631124 -2.693155 L -51.998311 -2.724405 L -51.361593 -2.759561 L -50.72878 -2.794718 L -50.092061 -2.829874 L -49.459249 -2.86503 L -48.82253 -2.904093 L -48.189718 -2.943155 L -47.552999 -2.982218 L -46.920186 -3.02128 L -46.283468 -3.064249 L -45.650655 -3.103311 L -45.013936 -3.150186 L -44.381124 -3.193155 L -43.744405 -3.24003 L -43.111593 -3.286905 L -42.474874 -3.337686 L -41.842061 -3.388468 L -41.205343 -3.439249 L -40.57253 -3.493936 L -39.935811 -3.548624 L -39.302999 -3.607218 L -38.66628 -3.665811 L -38.033468 -3.728311 L -37.396749 -3.790811 L -36.763936 -3.857218 L -36.127218 -3.923624 L -35.494405 -3.993936 L -34.857686 -4.064249 L -34.224874 -4.142374 L -33.588155 -4.220499 L -32.955343 -4.30253 L -32.318624 -4.384561 L -31.685811 -4.474405 L -31.049093 -4.564249 L -30.41628 -4.661905 L -29.779561 -4.759561 L -29.146749 -4.86503 L -28.51003 -4.970499 L -27.877218 -5.08378 L -27.240499 -5.200968 L -26.607686 -5.325968 L -25.970968 -5.454874 L -25.338155 -5.591593 L -24.701436 -5.736124 L -24.068624 -5.888468 L -23.431905 -6.048624 L -22.799093 -6.216593 L -22.162374 -6.39628 L -21.529561 -6.58378 L -20.892843 -6.782999 L -20.26003 -6.997843 L -19.623311 -7.220499 L -18.990499 -7.462686 L -18.357686 -7.720499 L -17.720968 -7.997843 L -17.088155 -8.294718 L -16.451436 -8.61503 L -15.818624 -8.95878 L -15.181905 -9.33378 L -14.549093 -9.743936 L -13.912374 -10.189249 L -13.279561 -10.673624 L -12.642843 -11.20878 L -12.01003 -11.80253 L -11.373311 -12.462686 L -10.740499 -13.197061 L -10.10378 -14.029093 L -9.470968 -14.966593 L -8.834249 -16.044718 L -8.201436 -17.286905 L -7.564718 -18.736124 L -6.931905 -20.454874 L -6.295186 -22.517374 L -5.662374 -25.036905 L -5.025655 -28.200968 L -4.392843 -32.275186 L -3.756124 -37.728311 L -3.123311 -45.400186 L -2.486593 -56.99003 L -1.85378 -76.509561 " transform="matrix(1, 0, 0, -1, 85.63503, 85.63497)"/>
</g>
<g clip-path="url(#clip-2)">
<path fill="none" stroke-width="0.79701" stroke-linecap="butt" stroke-linejoin="miter" stroke="rgb(100%, 0%, 0%)" stroke-opacity="1" stroke-miterlimit="10" d="M 1.83372 -77.361124 L 2.466532 -57.45878 L 3.103251 -45.700968 L 3.736064 -37.935343 L 4.372782 -32.42753 L 5.005595 -28.314249 L 5.642314 -25.126749 L 6.275126 -22.587686 L 6.911845 -20.513468 L 7.544657 -18.786905 L 8.181376 -17.329874 L 8.814189 -16.079874 L 9.450907 -15.001749 L 10.08372 -14.056436 L 10.720439 -13.224405 L 11.353251 -12.486124 L 11.98997 -11.822061 L 12.622782 -11.228311 L 13.259501 -10.693155 L 13.892314 -10.204874 L 14.525126 -9.755655 L 15.161845 -9.349405 L 15.794657 -8.970499 L 16.431376 -8.626749 L 17.064189 -8.306436 L 17.700907 -8.009561 L 18.33372 -7.732218 L 18.970439 -7.470499 L 19.603251 -7.228311 L 20.23997 -7.001749 L 20.872782 -6.790811 L 21.509501 -6.591593 L 22.142314 -6.400186 L 22.779032 -6.220499 L 23.411845 -6.05253 L 24.048564 -5.892374 L 24.681376 -5.743936 L 25.318095 -5.599405 L 25.950907 -5.462686 L 26.587626 -5.329874 L 27.220439 -5.204874 L 27.857157 -5.087686 L 28.48997 -4.974405 L 29.126689 -4.86503 L 29.759501 -4.763468 L 30.39622 -4.661905 L 31.029032 -4.568155 L 31.665751 -4.478311 L 32.298564 -4.388468 L 32.935282 -4.30253 L 33.568095 -4.220499 L 34.204814 -4.142374 L 34.837626 -4.068155 L 35.474345 -3.993936 L 36.107157 -3.923624 L 36.743876 -3.857218 L 37.376689 -3.790811 L 38.013407 -3.728311 L 38.64622 -3.665811 L 39.282939 -3.607218 L 39.915751 -3.55253 L 40.55247 -3.493936 L 41.185282 -3.443155 L 41.822001 -3.388468 L 42.454814 -3.337686 L 43.091532 -3.290811 L 43.724345 -3.24003 L 44.361064 -3.197061 L 44.993876 -3.150186 L 45.630595 -3.107218 L 46.263407 -3.064249 L 46.900126 -3.02128 L 47.532939 -2.982218 L 48.169657 -2.943155 L 48.80247 -2.904093 L 49.439189 -2.868936 L 50.072001 -2.829874 L 50.70872 -2.794718 L 51.341532 -2.759561 L 51.978251 -2.728311 L 52.611064 -2.693155 L 53.247782 -2.661905 L 53.880595 -2.630655 L 54.517314 -2.599405 L 55.150126 -2.572061 L 55.786845 -2.540811 L 56.419657 -2.513468 L 57.056376 -2.486124 L 57.689189 -2.454874 L 58.322001 -2.431436 L 58.95872 -2.404093 L 59.591532 -2.376749 L 60.228251 -2.353311 L 60.861064 -2.329874 L 61.497782 -2.306436 L 62.130595 -2.282999 L 62.767314 -2.259561 L 63.400126 -2.236124 L 64.036845 -2.212686 L 64.669657 -2.193155 L 65.306376 -2.169718 L 65.939189 -2.150186 L 66.575907 -2.130655 L 67.20872 -2.107218 L 67.845439 -2.087686 L 68.478251 -2.068155 L 69.11497 -2.05253 L 69.747782 -2.032999 L 70.384501 -2.013468 L 71.017314 -1.993936 L 71.654032 -1.978311 L 72.286845 -1.95878 L 72.923564 -1.943155 L 73.556376 -1.92753 L 74.193095 -1.911905 L 74.825907 -1.892374 L 75.462626 -1.876749 L 76.095439 -1.861124 L 76.732157 -1.845499 L 77.36497 -1.83378 " transform="matrix(1, 0, 0, -1, 85.63503, 85.63497)"/>
</g>
<path fill="none" stroke-width="0.79701" stroke-linecap="butt" stroke-linejoin="miter" stroke="rgb(100%, 0%, 0%)" stroke-opacity="1" stroke-miterlimit="10" d="M -77.38503 1.830282 L -76.752218 1.845907 L -76.115499 1.861532 L -75.482686 1.877157 L -74.845968 1.892782 L -74.213155 1.908407 L -73.576436 1.927939 L -72.943624 1.943564 L -72.306905 1.959189 L -71.674093 1.97872 L -71.037374 1.994345 L -70.404561 2.013876 L -69.767843 2.029501 L -69.13503 2.049032 L -68.498311 2.068564 L -67.865499 2.088095 L -67.22878 2.107626 L -66.595968 2.127157 L -65.959249 2.150595 L -64.693624 2.189657 L -64.056905 2.213095 L -63.424093 2.236532 L -62.787374 2.256064 L -62.154561 2.279501 L -61.517843 2.302939 L -60.88503 2.330282 L -60.248311 2.35372 L -59.615499 2.377157 L -58.97878 2.404501 L -58.345968 2.427939 L -57.709249 2.455282 L -57.076436 2.482626 L -56.439718 2.50997 L -55.806905 2.54122 L -55.170186 2.568564 L -54.537374 2.599814 L -53.900655 2.631064 L -53.267843 2.662314 L -52.631124 2.693564 L -51.998311 2.724814 L -51.361593 2.75997 L -50.72878 2.795126 L -50.092061 2.830282 L -49.459249 2.865439 L -48.82253 2.904501 L -48.189718 2.939657 L -47.552999 2.97872 L -46.920186 3.021689 L -46.283468 3.060751 L -45.650655 3.10372 L -45.013936 3.150595 L -44.381124 3.193564 L -43.744405 3.240439 L -43.111593 3.287314 L -42.474874 3.338095 L -41.842061 3.388876 L -41.205343 3.439657 L -40.57253 3.494345 L -39.935811 3.549032 L -39.302999 3.607626 L -38.66628 3.66622 L -38.033468 3.72872 L -37.396749 3.79122 L -36.763936 3.85372 L -36.127218 3.924032 L -35.494405 3.994345 L -34.857686 4.064657 L -34.224874 4.142782 L -33.588155 4.220907 L -32.955343 4.302939 L -32.318624 4.38497 L -31.685811 4.474814 L -31.049093 4.564657 L -30.41628 4.658407 L -29.779561 4.75997 L -29.146749 4.861532 L -28.51003 4.970907 L -27.877218 5.084189 L -27.240499 5.201376 L -26.607686 5.326376 L -25.970968 5.455282 L -25.338155 5.592001 L -24.701436 5.736532 L -24.068624 5.888876 L -23.431905 6.049032 L -22.799093 6.217001 L -22.162374 6.392782 L -21.529561 6.584189 L -20.892843 6.783407 L -20.26003 6.998251 L -19.623311 7.220907 L -18.990499 7.463095 L -18.357686 7.720907 L -17.720968 7.998251 L -17.088155 8.295126 L -16.451436 8.615439 L -15.818624 8.959189 L -15.181905 9.334189 L -14.549093 9.740439 L -13.912374 10.185751 L -13.279561 10.674032 L -12.642843 11.209189 L -12.01003 11.802939 L -11.373311 12.463095 L -10.740499 13.19747 L -10.10378 14.029501 L -9.470968 14.967001 L -8.834249 16.045126 L -8.201436 17.287314 L -7.564718 18.736532 L -6.931905 20.455282 L -6.295186 22.517782 L -5.662374 25.037314 L -5.025655 28.201376 L -4.392843 32.275595 L -3.756124 37.72872 L -3.123311 45.400595 L -2.486593 56.986532 L -1.85378 76.50997 " transform="matrix(1, 0, 0, -1, 85.63503, 85.63497)"/>
<path fill="none" stroke-width="0.3985" stroke-linecap="butt" stroke-linejoin="miter" stroke="rgb(0%, 0%, 0%)" stroke-opacity="1" stroke-miterlimit="10" d="M -79.767843 -0.00174875 L 79.310282 -0.00174875 " transform="matrix(1, 0, 0, -1, 85.63503, 85.63497)"/>
<path fill="none" stroke-width="0.31879" stroke-linecap="round" stroke-linejoin="round" stroke="rgb(0%, 0%, 0%)" stroke-opacity="1" stroke-miterlimit="10" d="M -1.19428 1.595907 C -1.096624 0.994345 0.0010325 0.0998137 0.297908 -0.00174875 C 0.0010325 -0.099405 -1.096624 -0.997843 -1.19428 -1.595499 " transform="matrix(1, 0, 0, -1, 164.94428, 85.63497)"/>
<path fill="none" stroke-width="0.3985" stroke-linecap="butt" stroke-linejoin="miter" stroke="rgb(0%, 0%, 0%)" stroke-opacity="1" stroke-miterlimit="10" d="M 0.00168875 -79.767374 L 0.00168875 79.310751 " transform="matrix(1, 0, 0, -1, 85.63503, 85.63497)"/>
<path fill="none" stroke-width="0.31879" stroke-linecap="round" stroke-linejoin="round" stroke="rgb(0%, 0%, 0%)" stroke-opacity="1" stroke-miterlimit="10" d="M -1.193811 1.592061 C -1.096155 0.994405 0.00150125 0.0998738 0.298376 -0.00168875 C 0.00150125 -0.099345 -1.096155 -0.997782 -1.193811 -1.595439 " transform="matrix(0, -1, -1, 0, 85.63503, 6.32572)"/>
</svg>
