<?xml version="1.0" encoding="UTF-8"?>
<svg xmlns="http://www.w3.org/2000/svg" xmlns:xlink="http://www.w3.org/1999/xlink" width="130.79pt" height="132.39pt" viewBox="0 0 130.79 132.39">
<path fill="none" stroke-width="0.3985" stroke-linecap="butt" stroke-linejoin="miter" stroke="rgb(0%, 0%, 0%)" stroke-opacity="1" stroke-miterlimit="10" d="M 42.518282 -0.00187375 C 42.518282 23.482501 23.483126 42.521564 -0.00124875 42.521564 C -23.481718 42.521564 -42.52078 23.482501 -42.52078 -0.00187375 C -42.52078 -23.482342 -23.481718 -42.521405 -0.00124875 -42.521405 C 23.483126 -42.521405 42.518282 -23.482342 42.518282 -0.00187375 Z M 42.518282 -0.00187375 " transform="matrix(1, 0, 0, -1, 65.39578, 66.99422)"/>
<path fill="none" stroke-width="0.3985" stroke-linecap="butt" stroke-linejoin="miter" stroke="rgb(0%, 0%, 0%)" stroke-opacity="1" stroke-miterlimit="10" d="M 59.526095 59.529376 L -59.528593 59.529376 L -59.528593 -59.529217 L 59.526095 -59.529217 Z M 59.526095 59.529376 " transform="matrix(1, 0, 0, -1, 65.39578, 66.99422)"/>
<path fill-rule="nonzero" fill="rgb(0%, 0%, 0%)" fill-opacity="1" d="M 67.1875 66.996094 C 67.1875 66.003906 66.386719 65.199219 65.394531 65.199219 C 64.40625 65.199219 63.601562 66.003906 63.601562 66.996094 C 63.601562 67.984375 64.40625 68.789062 65.394531 68.789062 C 66.386719 68.789062 67.1875 67.984375 67.1875 66.996094 Z M 67.1875 66.996094 "/>
<path fill="none" stroke-width="0.3985" stroke-linecap="butt" stroke-linejoin="miter" stroke="rgb(0%, 0%, 0%)" stroke-opacity="1" stroke-dasharray="2.98883 2.98883" stroke-miterlimit="10" d="M -0.00124875 -0.00187375 L 21.662814 59.529376 " transform="matrix(1, 0, 0, -1, 65.39578, 66.99422)"/>
<path fill-rule="nonzero" fill="rgb(0%, 0%, 0%)" fill-opacity="1" d="M 81.730469 27.039062 C 81.730469 26.046875 80.929688 25.246094 79.9375 25.246094 C 78.949219 25.246094 78.144531 26.046875 78.144531 27.039062 C 78.144531 28.027344 78.949219 28.832031 79.9375 28.832031 C 80.929688 28.832031 81.730469 28.027344 81.730469 27.039062 Z M 81.730469 27.039062 "/>
<path fill-rule="nonzero" fill="rgb(0%, 0%, 0%)" fill-opacity="1" d="M 88.851562 7.464844 C 88.851562 6.476562 88.050781 5.671875 87.058594 5.671875 C 86.070312 5.671875 85.265625 6.476562 85.265625 7.464844 C 85.265625 8.457031 86.070312 9.257812 87.058594 9.257812 C 88.050781 9.257812 88.851562 8.457031 88.851562 7.464844 Z M 88.851562 7.464844 "/>
</svg>
