<?xml version="1.0" encoding="UTF-8"?>
<svg xmlns="http://www.w3.org/2000/svg" xmlns:xlink="http://www.w3.org/1999/xlink" width="193.15pt" height="193.15pt" viewBox="0 0 193.15 193.15">
<path fill="none" stroke-width="0.3985" stroke-linecap="butt" stroke-linejoin="miter" stroke="rgb(0%, 0%, 0%)" stroke-opacity="1" stroke-miterlimit="10" d="M 181.420543 -0.00127875 C 181.420543 50.096378 140.807261 90.709659 90.709605 90.709659 C 40.611949 90.709659 -0.0013325 50.096378 -0.0013325 -0.00127875 C -0.0013325 -50.098935 40.611949 -90.70831 90.709605 -90.70831 C 140.807261 -90.70831 181.420543 -50.098935 181.420543 -0.00127875 Z M 181.420543 -0.00127875 " transform="matrix(1, 0, 0, -1, 5.86852, 96.57294)"/>
<path fill="none" stroke-width="0.3985" stroke-linecap="butt" stroke-linejoin="miter" stroke="rgb(0%, 0%, 0%)" stroke-opacity="1" stroke-miterlimit="10" d="M 90.709605 -0.00127875 C 90.709605 25.049503 70.404917 45.35419 45.354136 45.35419 C 20.307261 45.35419 -0.0013325 25.049503 -0.0013325 -0.00127875 C -0.0013325 -25.048154 20.307261 -45.356747 45.354136 -45.356747 C 70.404917 -45.356747 90.709605 -25.048154 90.709605 -0.00127875 Z M 90.709605 -0.00127875 " transform="matrix(1, 0, 0, -1, 5.86852, 96.57294)"/>
<path fill="none" stroke-width="0.3985" stroke-linecap="butt" stroke-linejoin="miter" stroke="rgb(0%, 0%, 0%)" stroke-opacity="1" stroke-miterlimit="10" d="M 60.471324 -0.00127875 C 60.471324 16.69794 46.936167 30.237003 30.236949 30.237003 C 13.53773 30.237003 -0.0013325 16.69794 -0.0013325 -0.00127875 C -0.0013325 -16.700497 13.53773 -30.235654 30.236949 -30.235654 C 46.936167 -30.235654 60.471324 -16.700497 60.471324 -0.00127875 Z M 60.471324 -0.00127875 " transform="matrix(1, 0, 0, -1, 5.86852, 96.57294)"/>
<path fill="none" stroke-width="0.3985" stroke-linecap="butt" stroke-linejoin="miter" stroke="rgb(0%, 0%, 0%)" stroke-opacity="1" stroke-miterlimit="10" d="M 45.354136 -0.00127875 C 45.354136 12.526065 35.201792 22.678409 22.678355 22.678409 C 10.151011 22.678409 -0.0013325 12.526065 -0.0013325 -0.00127875 C -0.0013325 -12.524716 10.151011 -22.67706 22.678355 -22.67706 C 35.201792 -22.67706 45.354136 -12.524716 45.354136 -0.00127875 Z M 45.354136 -0.00127875 " transform="matrix(1, 0, 0, -1, 5.86852, 96.57294)"/>
<path fill="none" stroke-width="0.3985" stroke-linecap="butt" stroke-linejoin="miter" stroke="rgb(0%, 0%, 0%)" stroke-opacity="1" stroke-miterlimit="10" d="M 36.283824 -0.00127875 C 36.283824 10.018253 28.16273 18.143253 18.143199 18.143253 C 8.123667 18.143253 -0.0013325 10.018253 -0.0013325 -0.00127875 C -0.0013325 -10.02081 8.123667 -18.141904 18.143199 -18.141904 C 28.16273 -18.141904 36.283824 -10.02081 36.283824 -0.00127875 Z M 36.283824 -0.00127875 " transform="matrix(1, 0, 0, -1, 5.86852, 96.57294)"/>
<path fill="none" stroke-width="0.3985" stroke-linecap="butt" stroke-linejoin="miter" stroke="rgb(0%, 0%, 0%)" stroke-opacity="1" stroke-miterlimit="10" d="M 30.233042 -0.00127875 C 30.233042 8.350284 23.467417 15.115909 15.115855 15.115909 C 6.768199 15.115909 -0.0013325 8.350284 -0.0013325 -0.00127875 C -0.0013325 -8.348935 6.768199 -15.118466 15.115855 -15.118466 C 23.467417 -15.118466 30.233042 -8.348935 30.233042 -0.00127875 Z M 30.233042 -0.00127875 " transform="matrix(1, 0, 0, -1, 5.86852, 96.57294)"/>
<path fill="none" stroke-width="0.3985" stroke-linecap="butt" stroke-linejoin="miter" stroke="rgb(0%, 0%, 0%)" stroke-opacity="1" stroke-miterlimit="10" d="M 25.916636 -0.00127875 C 25.916636 7.154971 20.115855 12.959659 12.959605 12.959659 C 5.803355 12.959659 -0.0013325 7.154971 -0.0013325 -0.00127875 C -0.0013325 -7.157529 5.803355 -12.95831 12.959605 -12.95831 C 20.115855 -12.95831 25.916636 -7.157529 25.916636 -0.00127875 Z M 25.916636 -0.00127875 " transform="matrix(1, 0, 0, -1, 5.86852, 96.57294)"/>
<path fill="none" stroke-width="0.3985" stroke-linecap="butt" stroke-linejoin="miter" stroke="rgb(0%, 0%, 0%)" stroke-opacity="1" stroke-miterlimit="10" d="M 22.678355 -0.00127875 C 22.678355 6.26044 17.60023 11.338565 11.338511 11.338565 C 5.076792 11.338565 -0.0013325 6.26044 -0.0013325 -0.00127875 C -0.0013325 -6.262997 5.076792 -11.337216 11.338511 -11.337216 C 17.60023 -11.337216 22.678355 -6.262997 22.678355 -0.00127875 Z M 22.678355 -0.00127875 " transform="matrix(1, 0, 0, -1, 5.86852, 96.57294)"/>
<path fill="none" stroke-width="0.3985" stroke-linecap="butt" stroke-linejoin="miter" stroke="rgb(0%, 0%, 0%)" stroke-opacity="1" stroke-miterlimit="10" d="M 20.154917 -0.00127875 C 20.154917 5.565128 15.643199 10.076846 10.076792 10.076846 C 4.510386 10.076846 -0.0013325 5.565128 -0.0013325 -0.00127875 C -0.0013325 -5.567685 4.510386 -10.079404 10.076792 -10.079404 C 15.643199 -10.079404 20.154917 -5.567685 20.154917 -0.00127875 Z M 20.154917 -0.00127875 " transform="matrix(1, 0, 0, -1, 5.86852, 96.57294)"/>
<path fill="none" stroke-width="0.3985" stroke-linecap="butt" stroke-linejoin="miter" stroke="rgb(0%, 0%, 0%)" stroke-opacity="1" stroke-miterlimit="10" d="M 18.139292 -0.00127875 C 18.139292 5.01044 14.080699 9.069034 9.06898 9.069034 C 4.061167 9.069034 -0.0013325 5.01044 -0.0013325 -0.00127875 C -0.0013325 -5.009091 4.061167 -9.071591 9.06898 -9.071591 C 14.080699 -9.071591 18.139292 -5.009091 18.139292 -0.00127875 Z M 18.139292 -0.00127875 " transform="matrix(1, 0, 0, -1, 5.86852, 96.57294)"/>
<path fill="none" stroke-width="0.3985" stroke-linecap="butt" stroke-linejoin="miter" stroke="rgb(0%, 0%, 0%)" stroke-opacity="1" stroke-miterlimit="10" d="M 16.490855 -0.00127875 C 16.490855 4.553409 12.799449 8.244815 8.244761 8.244815 C 3.690074 8.244815 -0.0013325 4.553409 -0.0013325 -0.00127875 C -0.0013325 -4.55206 3.690074 -8.243466 8.244761 -8.243466 C 12.799449 -8.243466 16.490855 -4.55206 16.490855 -0.00127875 Z M 16.490855 -0.00127875 " transform="matrix(1, 0, 0, -1, 5.86852, 96.57294)"/>
<path fill="none" stroke-width="0.3985" stroke-linecap="butt" stroke-linejoin="miter" stroke="rgb(0%, 0%, 0%)" stroke-opacity="1" stroke-miterlimit="10" d="M 15.115855 -0.00127875 C 15.115855 4.174503 11.733042 7.557315 7.557261 7.557315 C 3.385386 7.557315 -0.0013325 4.174503 -0.0013325 -0.00127875 C -0.0013325 -4.173154 3.385386 -7.559872 7.557261 -7.559872 C 11.733042 -7.559872 15.115855 -4.173154 15.115855 -0.00127875 Z M 15.115855 -0.00127875 " transform="matrix(1, 0, 0, -1, 5.86852, 96.57294)"/>
<path fill="none" stroke-width="0.3985" stroke-linecap="butt" stroke-linejoin="miter" stroke="rgb(0%, 0%, 0%)" stroke-opacity="1" stroke-miterlimit="10" d="M 13.955699 -0.00127875 C 13.955699 3.85419 10.830699 6.97919 6.979136 6.97919 C 3.123667 6.97919 -0.0013325 3.85419 -0.0013325 -0.00127875 C -0.0013325 -3.852841 3.123667 -6.977841 6.979136 -6.977841 C 10.830699 -6.977841 13.955699 -3.852841 13.955699 -0.00127875 Z M 13.955699 -0.00127875 " transform="matrix(1, 0, 0, -1, 5.86852, 96.57294)"/>
<path fill="none" stroke-width="0.3985" stroke-linecap="butt" stroke-linejoin="miter" stroke="rgb(0%, 0%, 0%)" stroke-opacity="1" stroke-miterlimit="10" d="M 12.959605 -0.00127875 C 12.959605 3.576846 10.057261 6.47919 6.479136 6.47919 C 2.901011 6.47919 -0.0013325 3.576846 -0.0013325 -0.00127875 C -0.0013325 -3.579404 2.901011 -6.477841 6.479136 -6.477841 C 10.057261 -6.477841 12.959605 -3.579404 12.959605 -0.00127875 Z M 12.959605 -0.00127875 " transform="matrix(1, 0, 0, -1, 5.86852, 96.57294)"/>
<path fill="none" stroke-width="0.3985" stroke-linecap="butt" stroke-linejoin="miter" stroke="rgb(0%, 0%, 0%)" stroke-opacity="1" stroke-miterlimit="10" d="M 12.096324 -0.00127875 C 12.096324 3.338565 9.385386 6.045596 6.045542 6.045596 C 2.705699 6.045596 -0.0013325 3.338565 -0.0013325 -0.00127875 C -0.0013325 -3.341122 2.705699 -6.048154 6.045542 -6.048154 C 9.385386 -6.048154 12.096324 -3.341122 12.096324 -0.00127875 Z M 12.096324 -0.00127875 " transform="matrix(1, 0, 0, -1, 5.86852, 96.57294)"/>
<path fill-rule="nonzero" fill="rgb(0%, 0%, 0%)" fill-opacity="1" d="M 17.964844 96.574219 C 17.964844 93.234375 15.253906 90.527344 11.914062 90.527344 C 8.574219 90.527344 5.867188 93.234375 5.867188 96.574219 C 5.867188 99.914062 8.574219 102.621094 11.914062 102.621094 C 15.253906 102.621094 17.964844 99.914062 17.964844 96.574219 Z M 17.964844 96.574219 "/>
</svg>
