<?xml version="1.0" encoding="UTF-8"?>
<svg xmlns="http://www.w3.org/2000/svg" xmlns:xlink="http://www.w3.org/1999/xlink" width="202.52pt" height="148.1pt" viewBox="0 0 202.52 148.1">
<defs>
<g>
<g id="glyph-0-0">
<path d="M 6.546875 -6.6875 C 6.546875 -6.859375 6.546875 -7.015625 6.375 -7.015625 C 6.375 -7.015625 6.21875 -7.015625 6.203125 -6.84375 C 6.171875 -6.5625 5.9375 -6.5625 5.875 -6.5625 C 5.515625 -6.5625 5.171875 -6.703125 4.96875 -6.796875 C 4.46875 -7.015625 4.03125 -7.015625 3.875 -7.015625 C 2.21875 -7.015625 0.375 -5.96875 0.375 -3.421875 C 0.375 -0.875 2.171875 0.1875 3.890625 0.1875 C 4.421875 0.1875 5.140625 0.078125 5.859375 -0.359375 C 6.3125 -0.640625 6.828125 -1.140625 6.828125 -1.28125 C 6.828125 -1.421875 6.671875 -1.484375 6.625 -1.484375 C 6.546875 -1.484375 6.515625 -1.453125 6.40625 -1.34375 C 5.828125 -0.6875 4.9375 -0.296875 4.0625 -0.296875 C 2.515625 -0.296875 2.125 -1.859375 2.125 -3.40625 C 2.125 -5.359375 2.84375 -6.671875 3.90625 -6.671875 C 4.65625 -6.671875 5.859375 -5.9375 6.1875 -4.890625 C 6.21875 -4.796875 6.25 -4.6875 6.375 -4.6875 C 6.546875 -4.6875 6.546875 -4.859375 6.546875 -5.03125 Z M 6.203125 -5.65625 C 6.078125 -5.828125 5.953125 -5.96875 5.703125 -6.21875 C 5.75 -6.203125 5.828125 -6.203125 5.875 -6.203125 C 5.984375 -6.203125 6.125 -6.234375 6.203125 -6.28125 Z M 2.65625 -6.4375 C 2.4375 -6.203125 1.78125 -5.359375 1.78125 -3.40625 C 1.78125 -2.40625 1.921875 -1.03125 2.828125 -0.3125 C 1.1875 -0.84375 0.71875 -2.1875 0.71875 -3.40625 C 0.71875 -5.25 1.71875 -6.125 2.65625 -6.453125 Z M 2.65625 -6.4375 "/>
</g>
<g id="glyph-1-0">
<path d="M 0.453125 1.21875 C 0.375 1.5625 0.34375 1.625 -0.09375 1.625 C -0.203125 1.625 -0.3125 1.625 -0.3125 1.8125 C -0.3125 1.890625 -0.265625 1.9375 -0.1875 1.9375 C 0.078125 1.9375 0.375 1.90625 0.640625 1.90625 C 0.984375 1.90625 1.3125 1.9375 1.640625 1.9375 C 1.6875 1.9375 1.8125 1.9375 1.8125 1.734375 C 1.8125 1.625 1.71875 1.625 1.578125 1.625 C 1.078125 1.625 1.078125 1.5625 1.078125 1.46875 C 1.078125 1.34375 1.5 -0.28125 1.5625 -0.53125 C 1.6875 -0.234375 1.96875 0.109375 2.484375 0.109375 C 3.640625 0.109375 4.890625 -1.34375 4.890625 -2.8125 C 4.890625 -3.75 4.3125 -4.40625 3.5625 -4.40625 C 3.0625 -4.40625 2.578125 -4.046875 2.25 -3.65625 C 2.15625 -4.203125 1.71875 -4.40625 1.359375 -4.40625 C 0.890625 -4.40625 0.703125 -4.015625 0.625 -3.84375 C 0.4375 -3.5 0.3125 -2.90625 0.3125 -2.875 C 0.3125 -2.765625 0.40625 -2.765625 0.421875 -2.765625 C 0.53125 -2.765625 0.53125 -2.78125 0.59375 -3 C 0.765625 -3.703125 0.96875 -4.1875 1.328125 -4.1875 C 1.5 -4.1875 1.640625 -4.109375 1.640625 -3.734375 C 1.640625 -3.5 1.609375 -3.390625 1.5625 -3.21875 Z M 2.203125 -3.109375 C 2.265625 -3.375 2.546875 -3.65625 2.71875 -3.8125 C 3.078125 -4.109375 3.359375 -4.1875 3.53125 -4.1875 C 3.921875 -4.1875 4.171875 -3.84375 4.171875 -3.25 C 4.171875 -2.65625 3.84375 -1.515625 3.65625 -1.140625 C 3.3125 -0.4375 2.84375 -0.109375 2.46875 -0.109375 C 1.8125 -0.109375 1.6875 -0.9375 1.6875 -1 C 1.6875 -1.015625 1.6875 -1.03125 1.71875 -1.15625 Z M 2.203125 -3.109375 "/>
</g>
<g id="glyph-1-1">
<path d="M 4.5 -4.296875 C 4.5 -4.34375 4.46875 -4.390625 4.40625 -4.390625 C 4.296875 -4.390625 3.890625 -4 3.734375 -3.703125 C 3.515625 -4.25 3.125 -4.40625 2.796875 -4.40625 C 1.625 -4.40625 0.40625 -2.9375 0.40625 -1.484375 C 0.40625 -0.515625 0.984375 0.109375 1.71875 0.109375 C 2.140625 0.109375 2.53125 -0.125 2.890625 -0.484375 C 2.796875 -0.140625 2.46875 1.203125 2.4375 1.296875 C 2.359375 1.578125 2.28125 1.609375 1.71875 1.625 C 1.59375 1.625 1.5 1.625 1.5 1.828125 C 1.5 1.828125 1.5 1.9375 1.625 1.9375 C 1.9375 1.9375 2.296875 1.90625 2.625 1.90625 C 2.953125 1.90625 3.3125 1.9375 3.65625 1.9375 C 3.703125 1.9375 3.828125 1.9375 3.828125 1.734375 C 3.828125 1.625 3.734375 1.625 3.5625 1.625 C 3.09375 1.625 3.09375 1.5625 3.09375 1.46875 C 3.09375 1.390625 3.109375 1.328125 3.125 1.25 Z M 1.75 -0.109375 C 1.140625 -0.109375 1.109375 -0.875 1.109375 -1.046875 C 1.109375 -1.53125 1.390625 -2.609375 1.5625 -3.03125 C 1.875 -3.765625 2.390625 -4.1875 2.796875 -4.1875 C 3.453125 -4.1875 3.59375 -3.375 3.59375 -3.3125 C 3.59375 -3.25 3.046875 -1.0625 3.015625 -1.03125 C 2.859375 -0.75 2.296875 -0.109375 1.75 -0.109375 Z M 1.75 -0.109375 "/>
</g>
<g id="glyph-1-2">
<path d="M 3.015625 -3.234375 L 3.984375 -3.234375 C 4.734375 -3.234375 4.8125 -3.078125 4.8125 -2.796875 C 4.8125 -2.71875 4.8125 -2.609375 4.75 -2.296875 C 4.71875 -2.25 4.71875 -2.21875 4.71875 -2.1875 C 4.71875 -2.109375 4.78125 -2.078125 4.828125 -2.078125 C 4.9375 -2.078125 4.9375 -2.109375 4.984375 -2.28125 L 5.53125 -4.453125 C 5.5625 -4.5625 5.5625 -4.578125 5.5625 -4.609375 C 5.5625 -4.625 5.546875 -4.71875 5.4375 -4.71875 C 5.34375 -4.71875 5.328125 -4.671875 5.296875 -4.5 C 5.078125 -3.734375 4.859375 -3.546875 4 -3.546875 L 3.09375 -3.546875 L 3.734375 -6.078125 C 3.828125 -6.4375 3.84375 -6.46875 4.28125 -6.46875 L 5.59375 -6.46875 C 6.8125 -6.46875 7.046875 -6.140625 7.046875 -5.375 C 7.046875 -5.140625 7.046875 -5.109375 7.015625 -4.828125 C 7 -4.703125 7 -4.6875 7 -4.65625 C 7 -4.609375 7.03125 -4.53125 7.125 -4.53125 C 7.234375 -4.53125 7.234375 -4.59375 7.25 -4.78125 L 7.453125 -6.515625 C 7.484375 -6.78125 7.4375 -6.78125 7.1875 -6.78125 L 2.296875 -6.78125 C 2.109375 -6.78125 2 -6.78125 2 -6.578125 C 2 -6.46875 2.09375 -6.46875 2.28125 -6.46875 C 2.65625 -6.46875 2.9375 -6.46875 2.9375 -6.296875 C 2.9375 -6.25 2.9375 -6.234375 2.875 -6.046875 L 1.5625 -0.78125 C 1.46875 -0.390625 1.453125 -0.3125 0.65625 -0.3125 C 0.484375 -0.3125 0.375 -0.3125 0.375 -0.125 C 0.375 0 0.5 0 0.53125 0 C 0.8125 0 1.5625 -0.03125 1.84375 -0.03125 C 2.171875 -0.03125 3 0 3.328125 0 C 3.421875 0 3.53125 0 3.53125 -0.1875 C 3.53125 -0.265625 3.484375 -0.296875 3.484375 -0.296875 C 3.453125 -0.3125 3.421875 -0.3125 3.203125 -0.3125 C 2.984375 -0.3125 2.9375 -0.3125 2.6875 -0.328125 C 2.390625 -0.359375 2.359375 -0.40625 2.359375 -0.53125 C 2.359375 -0.546875 2.359375 -0.609375 2.40625 -0.75 Z M 3.015625 -3.234375 "/>
</g>
<g id="glyph-1-3">
<path d="M 4.75 -2.359375 C 4.75 -3.921875 3.828125 -4.40625 3.09375 -4.40625 C 1.71875 -4.40625 0.40625 -2.984375 0.40625 -1.578125 C 0.40625 -0.640625 1 0.109375 2.03125 0.109375 C 2.65625 0.109375 3.375 -0.125 4.125 -0.734375 C 4.25 -0.203125 4.578125 0.109375 5.03125 0.109375 C 5.5625 0.109375 5.875 -0.4375 5.875 -0.59375 C 5.875 -0.671875 5.8125 -0.703125 5.75 -0.703125 C 5.6875 -0.703125 5.65625 -0.671875 5.625 -0.59375 C 5.4375 -0.109375 5.078125 -0.109375 5.0625 -0.109375 C 4.75 -0.109375 4.75 -0.890625 4.75 -1.125 C 4.75 -1.328125 4.75 -1.359375 4.859375 -1.46875 C 5.796875 -2.65625 6 -3.8125 6 -3.8125 C 6 -3.84375 5.984375 -3.921875 5.875 -3.921875 C 5.78125 -3.921875 5.78125 -3.890625 5.734375 -3.703125 C 5.546875 -3.078125 5.21875 -2.328125 4.75 -1.734375 Z M 4.09375 -0.984375 C 3.203125 -0.21875 2.4375 -0.109375 2.046875 -0.109375 C 1.453125 -0.109375 1.140625 -0.5625 1.140625 -1.203125 C 1.140625 -1.6875 1.40625 -2.765625 1.71875 -3.265625 C 2.1875 -4 2.734375 -4.1875 3.078125 -4.1875 C 4.0625 -4.1875 4.0625 -2.875 4.0625 -2.109375 C 4.0625 -1.734375 4.0625 -1.15625 4.09375 -0.984375 Z M 4.09375 -0.984375 "/>
</g>
<g id="glyph-1-4">
<path d="M 5.734375 -5.671875 C 5.734375 -6.421875 5.1875 -7.03125 4.375 -7.03125 C 3.796875 -7.03125 3.515625 -6.875 3.171875 -6.625 C 2.625 -6.21875 2.078125 -5.25 1.890625 -4.5 L 0.296875 1.828125 C 0.296875 1.875 0.34375 1.9375 0.421875 1.9375 C 0.5 1.9375 0.53125 1.90625 0.53125 1.890625 L 1.234375 -0.875 C 1.421875 -0.265625 1.859375 0.09375 2.59375 0.09375 C 3.3125 0.09375 4.0625 -0.25 4.515625 -0.6875 C 5 -1.140625 5.3125 -1.78125 5.3125 -2.515625 C 5.3125 -3.234375 4.9375 -3.765625 4.578125 -4 C 5.15625 -4.34375 5.734375 -4.953125 5.734375 -5.671875 Z M 3.9375 -4.015625 C 3.8125 -3.96875 3.703125 -3.953125 3.453125 -3.953125 C 3.3125 -3.953125 3.125 -3.9375 3.015625 -3.984375 C 3.046875 -4.09375 3.40625 -4.0625 3.515625 -4.0625 C 3.71875 -4.0625 3.8125 -4.0625 3.9375 -4.015625 Z M 5.171875 -5.90625 C 5.171875 -5.203125 4.796875 -4.484375 4.28125 -4.171875 C 4 -4.28125 3.8125 -4.296875 3.515625 -4.296875 C 3.296875 -4.296875 2.734375 -4.3125 2.734375 -3.984375 C 2.734375 -3.703125 3.25 -3.734375 3.421875 -3.734375 C 3.796875 -3.734375 3.953125 -3.734375 4.25 -3.859375 C 4.625 -3.5 4.671875 -3.1875 4.6875 -2.734375 C 4.703125 -2.15625 4.46875 -1.40625 4.1875 -1.015625 C 3.796875 -0.484375 3.125 -0.125 2.5625 -0.125 C 1.796875 -0.125 1.421875 -0.703125 1.421875 -1.40625 C 1.421875 -1.5 1.421875 -1.65625 1.46875 -1.84375 L 2.109375 -4.359375 C 2.328125 -5.21875 3.046875 -6.8125 4.25 -6.8125 C 4.828125 -6.8125 5.171875 -6.5 5.171875 -5.90625 Z M 5.171875 -5.90625 "/>
</g>
<g id="glyph-2-0">
<path d="M 3.59375 -2.21875 C 3.59375 -2.984375 3.5 -3.546875 3.1875 -4.03125 C 2.96875 -4.34375 2.53125 -4.625 1.984375 -4.625 C 0.359375 -4.625 0.359375 -2.71875 0.359375 -2.21875 C 0.359375 -1.71875 0.359375 0.140625 1.984375 0.140625 C 3.59375 0.140625 3.59375 -1.71875 3.59375 -2.21875 Z M 1.984375 -0.0625 C 1.65625 -0.0625 1.234375 -0.25 1.09375 -0.8125 C 1 -1.21875 1 -1.796875 1 -2.3125 C 1 -2.828125 1 -3.359375 1.09375 -3.734375 C 1.25 -4.28125 1.6875 -4.4375 1.984375 -4.4375 C 2.359375 -4.4375 2.71875 -4.203125 2.84375 -3.796875 C 2.953125 -3.421875 2.96875 -2.921875 2.96875 -2.3125 C 2.96875 -1.796875 2.96875 -1.28125 2.875 -0.84375 C 2.734375 -0.203125 2.265625 -0.0625 1.984375 -0.0625 Z M 1.984375 -0.0625 "/>
</g>
<g id="glyph-2-1">
<path d="M 3.515625 -1.265625 L 3.28125 -1.265625 C 3.265625 -1.109375 3.1875 -0.703125 3.09375 -0.640625 C 3.046875 -0.59375 2.515625 -0.59375 2.40625 -0.59375 L 1.125 -0.59375 C 1.859375 -1.234375 2.109375 -1.4375 2.515625 -1.765625 C 3.03125 -2.171875 3.515625 -2.609375 3.515625 -3.265625 C 3.515625 -4.109375 2.78125 -4.625 1.890625 -4.625 C 1.03125 -4.625 0.4375 -4.015625 0.4375 -3.375 C 0.4375 -3.03125 0.734375 -2.984375 0.8125 -2.984375 C 0.96875 -2.984375 1.171875 -3.109375 1.171875 -3.359375 C 1.171875 -3.484375 1.125 -3.734375 0.765625 -3.734375 C 0.984375 -4.21875 1.453125 -4.375 1.78125 -4.375 C 2.484375 -4.375 2.84375 -3.828125 2.84375 -3.265625 C 2.84375 -2.65625 2.40625 -2.1875 2.1875 -1.9375 L 0.515625 -0.265625 C 0.4375 -0.203125 0.4375 -0.1875 0.4375 0 L 3.3125 0 Z M 3.515625 -1.265625 "/>
</g>
<g id="glyph-2-2">
<path d="M 1.078125 -3.890625 C 1.4375 -3.796875 1.640625 -3.796875 1.75 -3.796875 C 2.671875 -3.796875 3.21875 -4.421875 3.21875 -4.53125 C 3.21875 -4.609375 3.171875 -4.625 3.140625 -4.625 C 3.125 -4.625 3.109375 -4.625 3.078125 -4.609375 C 2.90625 -4.546875 2.546875 -4.40625 2.03125 -4.40625 C 1.828125 -4.40625 1.46875 -4.421875 1.015625 -4.59375 C 0.9375 -4.625 0.921875 -4.625 0.921875 -4.625 C 0.828125 -4.625 0.828125 -4.546875 0.828125 -4.4375 L 0.828125 -2.390625 C 0.828125 -2.265625 0.828125 -2.1875 0.9375 -2.1875 C 1 -2.1875 1.015625 -2.1875 1.078125 -2.28125 C 1.375 -2.65625 1.8125 -2.71875 2.046875 -2.71875 C 2.46875 -2.71875 2.65625 -2.390625 2.6875 -2.328125 C 2.8125 -2.09375 2.859375 -1.828125 2.859375 -1.421875 C 2.859375 -1.21875 2.859375 -0.8125 2.640625 -0.5 C 2.46875 -0.25 2.171875 -0.078125 1.828125 -0.078125 C 1.375 -0.078125 0.90625 -0.328125 0.734375 -0.796875 C 1 -0.78125 1.140625 -0.953125 1.140625 -1.140625 C 1.140625 -1.4375 0.875 -1.484375 0.78125 -1.484375 C 0.78125 -1.484375 0.4375 -1.484375 0.4375 -1.109375 C 0.4375 -0.484375 1.015625 0.140625 1.84375 0.140625 C 2.734375 0.140625 3.515625 -0.515625 3.515625 -1.40625 C 3.515625 -2.1875 2.921875 -2.90625 2.0625 -2.90625 C 1.75 -2.90625 1.390625 -2.84375 1.078125 -2.578125 Z M 1.078125 -3.890625 "/>
</g>
<g id="glyph-2-3">
<path d="M 3.734375 -4.203125 C 3.796875 -4.296875 3.796875 -4.3125 3.796875 -4.484375 L 1.96875 -4.484375 C 1.6875 -4.484375 1.609375 -4.5 1.359375 -4.515625 C 1 -4.546875 0.984375 -4.59375 0.96875 -4.703125 L 0.734375 -4.703125 L 0.484375 -3.21875 L 0.71875 -3.21875 C 0.734375 -3.328125 0.8125 -3.78125 0.921875 -3.859375 C 0.96875 -3.890625 1.546875 -3.890625 1.640625 -3.890625 L 3.15625 -3.890625 C 2.9375 -3.609375 2.578125 -3.171875 2.4375 -2.96875 C 1.53125 -1.78125 1.4375 -0.671875 1.4375 -0.265625 C 1.4375 -0.1875 1.4375 0.140625 1.765625 0.140625 C 2.109375 0.140625 2.109375 -0.171875 2.109375 -0.265625 L 2.109375 -0.546875 C 2.109375 -1.890625 2.390625 -2.515625 2.6875 -2.890625 Z M 3.734375 -4.203125 "/>
</g>
<g id="glyph-2-4">
<path d="M 2.328125 -4.4375 C 2.328125 -4.625 2.328125 -4.625 2.125 -4.625 C 1.671875 -4.1875 1.046875 -4.1875 0.765625 -4.1875 L 0.765625 -3.9375 C 0.921875 -3.9375 1.390625 -3.9375 1.765625 -4.125 L 1.765625 -0.578125 C 1.765625 -0.34375 1.765625 -0.25 1.078125 -0.25 L 0.8125 -0.25 L 0.8125 0 C 0.9375 0 1.796875 -0.03125 2.046875 -0.03125 C 2.265625 -0.03125 3.140625 0 3.296875 0 L 3.296875 -0.25 L 3.03125 -0.25 C 2.328125 -0.25 2.328125 -0.34375 2.328125 -0.578125 Z M 2.328125 -4.4375 "/>
</g>
<g id="glyph-3-0">
<path d="M 6.84375 -3.265625 C 7 -3.265625 7.1875 -3.265625 7.1875 -3.453125 C 7.1875 -3.65625 7 -3.65625 6.859375 -3.65625 L 0.890625 -3.65625 C 0.75 -3.65625 0.5625 -3.65625 0.5625 -3.453125 C 0.5625 -3.265625 0.75 -3.265625 0.890625 -3.265625 Z M 6.859375 -1.328125 C 7 -1.328125 7.1875 -1.328125 7.1875 -1.53125 C 7.1875 -1.71875 7 -1.71875 6.84375 -1.71875 L 0.890625 -1.71875 C 0.75 -1.71875 0.5625 -1.71875 0.5625 -1.53125 C 0.5625 -1.328125 0.75 -1.328125 0.890625 -1.328125 Z M 6.859375 -1.328125 "/>
</g>
<g id="glyph-4-0">
<path d="M 1.578125 -0.390625 C 1.578125 -0.640625 1.375 -0.796875 1.1875 -0.796875 C 0.953125 -0.796875 0.78125 -0.609375 0.78125 -0.40625 C 0.78125 -0.15625 0.984375 0 1.171875 0 C 1.40625 0 1.578125 -0.1875 1.578125 -0.390625 Z M 1.578125 -0.390625 "/>
</g>
</g>
</defs>
<path fill="none" stroke-width="0.69739" stroke-linecap="butt" stroke-linejoin="miter" stroke="rgb(0%, 0%, 0%)" stroke-opacity="1" stroke-miterlimit="10" d="M -95.246665 -68.031711 L -95.246665 68.030789 L 95.245523 68.030789 L 95.245523 -68.031711 Z M -95.246665 -68.031711 " transform="matrix(1, 0, 0, -1, 101.26229, 74.05032)"/>
<g fill="rgb(0%, 0%, 0%)" fill-opacity="1">
<use xlink:href="#glyph-0-0" x="13.75783" y="18.52023"/>
</g>
<path fill-rule="nonzero" fill="rgb(0%, 0%, 0%)" fill-opacity="1" d="M 34.824219 74.050781 C 34.824219 73.171875 34.109375 72.457031 33.230469 72.457031 C 32.347656 72.457031 31.636719 73.171875 31.636719 74.050781 C 31.636719 74.929688 32.347656 75.644531 33.230469 75.644531 C 34.109375 75.644531 34.824219 74.929688 34.824219 74.050781 Z M 34.824219 74.050781 "/>
<g fill="rgb(0%, 0%, 0%)" fill-opacity="1">
<use xlink:href="#glyph-1-0" x="24.69736" y="75.22647"/>
</g>
<path fill-rule="nonzero" fill="rgb(0%, 0%, 0%)" fill-opacity="1" d="M 170.890625 74.050781 C 170.890625 73.171875 170.175781 72.457031 169.292969 72.457031 C 168.414062 72.457031 167.699219 73.171875 167.699219 74.050781 C 167.699219 74.929688 168.414062 75.644531 169.292969 75.644531 C 170.175781 75.644531 170.890625 74.929688 170.890625 74.050781 Z M 170.890625 74.050781 "/>
<g fill="rgb(0%, 0%, 0%)" fill-opacity="1">
<use xlink:href="#glyph-1-1" x="172.81469" y="75.22647"/>
</g>
<path fill="none" stroke-width="0.3985" stroke-linecap="butt" stroke-linejoin="miter" stroke="rgb(0%, 54.998779%, 0%)" stroke-opacity="1" stroke-miterlimit="10" d="M -68.031821 -0.00046125 C -27.211509 61.230007 27.214273 61.230007 68.030679 -0.00046125 " transform="matrix(1, 0, 0, -1, 101.26229, 74.05032)"/>
<g fill="rgb(0%, 54.998779%, 0%)" fill-opacity="1">
<use xlink:href="#glyph-1-2" x="85.97745" y="23.11421"/>
</g>
<g fill="rgb(0%, 54.998779%, 0%)" fill-opacity="1">
<use xlink:href="#glyph-2-0" x="92.384" y="24.60859"/>
</g>
<g fill="rgb(0%, 54.998779%, 0%)" fill-opacity="1">
<use xlink:href="#glyph-3-0" x="99.6207" y="23.11421"/>
</g>
<g fill="rgb(0%, 54.998779%, 0%)" fill-opacity="1">
<use xlink:href="#glyph-1-3" x="110.13678" y="23.11421"/>
</g>
<path fill="none" stroke-width="0.3985" stroke-linecap="butt" stroke-linejoin="miter" stroke="rgb(29.998779%, 78.999329%, 29.998779%)" stroke-opacity="1" stroke-miterlimit="10" d="M -68.031821 -0.00046125 C -27.211509 34.015164 27.214273 34.015164 68.030679 -0.00046125 " transform="matrix(1, 0, 0, -1, 101.26229, 74.05032)"/>
<g fill="rgb(29.998779%, 78.999329%, 29.998779%)" fill-opacity="1">
<use xlink:href="#glyph-1-2" x="90.66991" y="43.52392"/>
</g>
<g fill="rgb(29.998779%, 78.999329%, 29.998779%)" fill-opacity="1">
<use xlink:href="#glyph-2-0" x="97.07646" y="45.0183"/>
</g>
<g fill="rgb(29.998779%, 78.999329%, 29.998779%)" fill-opacity="1">
<use xlink:href="#glyph-4-0" x="101.0477" y="45.0183"/>
</g>
<g fill="rgb(29.998779%, 78.999329%, 29.998779%)" fill-opacity="1">
<use xlink:href="#glyph-2-1" x="103.41384" y="45.0183"/>
<use xlink:href="#glyph-2-2" x="107.38196" y="45.0183"/>
</g>
<path fill="none" stroke-width="0.3985" stroke-linecap="butt" stroke-linejoin="miter" stroke="rgb(40.000916%, 80.703735%, 96.237183%)" stroke-opacity="1" stroke-miterlimit="10" d="M -68.031821 -0.00046125 C -34.016196 6.804226 34.015054 6.804226 68.030679 -0.00046125 " transform="matrix(1, 0, 0, -1, 101.26229, 74.05032)"/>
<g fill="rgb(40.000916%, 80.703735%, 96.237183%)" fill-opacity="1">
<use xlink:href="#glyph-1-2" x="92.65555" y="63.93364"/>
</g>
<g fill="rgb(40.000916%, 80.703735%, 96.237183%)" fill-opacity="1">
<use xlink:href="#glyph-2-0" x="99.0621" y="65.42802"/>
</g>
<g fill="rgb(40.000916%, 80.703735%, 96.237183%)" fill-opacity="1">
<use xlink:href="#glyph-4-0" x="103.03334" y="65.42802"/>
</g>
<g fill="rgb(40.000916%, 80.703735%, 96.237183%)" fill-opacity="1">
<use xlink:href="#glyph-2-2" x="105.39948" y="65.42802"/>
</g>
<path fill="none" stroke-width="0.3985" stroke-linecap="butt" stroke-linejoin="miter" stroke="rgb(4.508972%, 55.683899%, 84.609985%)" stroke-opacity="1" stroke-miterlimit="10" d="M -68.031821 -0.00046125 C -27.211509 -34.016086 27.214273 -34.016086 68.030679 -0.00046125 " transform="matrix(1, 0, 0, -1, 101.26229, 74.05032)"/>
<g fill="rgb(4.508972%, 55.683899%, 84.609985%)" fill-opacity="1">
<use xlink:href="#glyph-1-2" x="90.66991" y="109.89021"/>
</g>
<g fill="rgb(4.508972%, 55.683899%, 84.609985%)" fill-opacity="1">
<use xlink:href="#glyph-2-0" x="97.07646" y="111.38459"/>
</g>
<g fill="rgb(4.508972%, 55.683899%, 84.609985%)" fill-opacity="1">
<use xlink:href="#glyph-4-0" x="101.0477" y="111.38459"/>
</g>
<g fill="rgb(4.508972%, 55.683899%, 84.609985%)" fill-opacity="1">
<use xlink:href="#glyph-2-3" x="103.41384" y="111.38459"/>
<use xlink:href="#glyph-2-2" x="107.38196" y="111.38459"/>
</g>
<path fill="none" stroke-width="0.3985" stroke-linecap="butt" stroke-linejoin="miter" stroke="rgb(15.576172%, 51.702881%, 80.914307%)" stroke-opacity="1" stroke-miterlimit="10" d="M -68.031821 -0.00046125 C -27.211509 -61.23093 27.214273 -61.23093 68.030679 -0.00046125 " transform="matrix(1, 0, 0, -1, 101.26229, 74.05032)"/>
<g fill="rgb(15.576172%, 51.702881%, 80.914307%)" fill-opacity="1">
<use xlink:href="#glyph-1-2" x="86.10198" y="130.41062"/>
</g>
<g fill="rgb(15.576172%, 51.702881%, 80.914307%)" fill-opacity="1">
<use xlink:href="#glyph-2-4" x="92.50853" y="131.905"/>
</g>
<g fill="rgb(15.576172%, 51.702881%, 80.914307%)" fill-opacity="1">
<use xlink:href="#glyph-3-0" x="99.74523" y="130.41062"/>
</g>
<g fill="rgb(15.576172%, 51.702881%, 80.914307%)" fill-opacity="1">
<use xlink:href="#glyph-1-4" x="110.26131" y="130.41062"/>
</g>
</svg>
