<?xml version="1.0" encoding="UTF-8"?>
<svg xmlns="http://www.w3.org/2000/svg" xmlns:xlink="http://www.w3.org/1999/xlink" width="238.51pt" height="147.8pt" viewBox="0 0 238.51 147.8">
<defs>
<g>
<g id="glyph-0-0">
<path d="M 6.546875 -6.6875 C 6.546875 -6.859375 6.546875 -7.015625 6.375 -7.015625 C 6.375 -7.015625 6.21875 -7.015625 6.203125 -6.84375 C 6.171875 -6.5625 5.9375 -6.5625 5.875 -6.5625 C 5.515625 -6.5625 5.171875 -6.703125 4.96875 -6.796875 C 4.46875 -7.015625 4.03125 -7.015625 3.875 -7.015625 C 2.21875 -7.015625 0.375 -5.96875 0.375 -3.421875 C 0.375 -0.875 2.171875 0.1875 3.890625 0.1875 C 4.421875 0.1875 5.140625 0.078125 5.859375 -0.359375 C 6.3125 -0.640625 6.828125 -1.140625 6.828125 -1.28125 C 6.828125 -1.421875 6.671875 -1.484375 6.625 -1.484375 C 6.546875 -1.484375 6.515625 -1.453125 6.40625 -1.34375 C 5.828125 -0.6875 4.9375 -0.296875 4.0625 -0.296875 C 2.515625 -0.296875 2.125 -1.859375 2.125 -3.40625 C 2.125 -5.359375 2.84375 -6.671875 3.90625 -6.671875 C 4.65625 -6.671875 5.859375 -5.9375 6.1875 -4.890625 C 6.21875 -4.796875 6.25 -4.6875 6.375 -4.6875 C 6.546875 -4.6875 6.546875 -4.859375 6.546875 -5.03125 Z M 6.203125 -5.65625 C 6.078125 -5.828125 5.953125 -5.96875 5.703125 -6.21875 C 5.75 -6.203125 5.828125 -6.203125 5.875 -6.203125 C 5.984375 -6.203125 6.125 -6.234375 6.203125 -6.28125 Z M 2.65625 -6.4375 C 2.4375 -6.203125 1.78125 -5.359375 1.78125 -3.40625 C 1.78125 -2.40625 1.921875 -1.03125 2.828125 -0.3125 C 1.1875 -0.84375 0.71875 -2.1875 0.71875 -3.40625 C 0.71875 -5.25 1.71875 -6.125 2.65625 -6.453125 Z M 2.65625 -6.4375 "/>
</g>
<g id="glyph-1-0">
<path d="M 0.453125 1.21875 C 0.375 1.5625 0.34375 1.625 -0.09375 1.625 C -0.203125 1.625 -0.3125 1.625 -0.3125 1.8125 C -0.3125 1.890625 -0.265625 1.9375 -0.1875 1.9375 C 0.078125 1.9375 0.375 1.90625 0.640625 1.90625 C 0.984375 1.90625 1.3125 1.9375 1.640625 1.9375 C 1.6875 1.9375 1.8125 1.9375 1.8125 1.734375 C 1.8125 1.625 1.71875 1.625 1.578125 1.625 C 1.078125 1.625 1.078125 1.5625 1.078125 1.46875 C 1.078125 1.34375 1.5 -0.28125 1.5625 -0.53125 C 1.6875 -0.234375 1.96875 0.109375 2.484375 0.109375 C 3.640625 0.109375 4.890625 -1.34375 4.890625 -2.8125 C 4.890625 -3.75 4.3125 -4.40625 3.5625 -4.40625 C 3.0625 -4.40625 2.578125 -4.046875 2.25 -3.65625 C 2.15625 -4.203125 1.71875 -4.40625 1.359375 -4.40625 C 0.890625 -4.40625 0.703125 -4.015625 0.625 -3.84375 C 0.4375 -3.5 0.3125 -2.90625 0.3125 -2.875 C 0.3125 -2.765625 0.40625 -2.765625 0.421875 -2.765625 C 0.53125 -2.765625 0.53125 -2.78125 0.59375 -3 C 0.765625 -3.703125 0.96875 -4.1875 1.328125 -4.1875 C 1.5 -4.1875 1.640625 -4.109375 1.640625 -3.734375 C 1.640625 -3.5 1.609375 -3.390625 1.5625 -3.21875 Z M 2.203125 -3.109375 C 2.265625 -3.375 2.546875 -3.65625 2.71875 -3.8125 C 3.078125 -4.109375 3.359375 -4.1875 3.53125 -4.1875 C 3.921875 -4.1875 4.171875 -3.84375 4.171875 -3.25 C 4.171875 -2.65625 3.84375 -1.515625 3.65625 -1.140625 C 3.3125 -0.4375 2.84375 -0.109375 2.46875 -0.109375 C 1.8125 -0.109375 1.6875 -0.9375 1.6875 -1 C 1.6875 -1.015625 1.6875 -1.03125 1.71875 -1.15625 Z M 2.203125 -3.109375 "/>
</g>
<g id="glyph-1-1">
<path d="M 4.5 -4.296875 C 4.5 -4.34375 4.46875 -4.390625 4.40625 -4.390625 C 4.296875 -4.390625 3.890625 -4 3.734375 -3.703125 C 3.515625 -4.25 3.125 -4.40625 2.796875 -4.40625 C 1.625 -4.40625 0.40625 -2.9375 0.40625 -1.484375 C 0.40625 -0.515625 0.984375 0.109375 1.71875 0.109375 C 2.140625 0.109375 2.53125 -0.125 2.890625 -0.484375 C 2.796875 -0.140625 2.46875 1.203125 2.4375 1.296875 C 2.359375 1.578125 2.28125 1.609375 1.71875 1.625 C 1.59375 1.625 1.5 1.625 1.5 1.828125 C 1.5 1.828125 1.5 1.9375 1.625 1.9375 C 1.9375 1.9375 2.296875 1.90625 2.625 1.90625 C 2.953125 1.90625 3.3125 1.9375 3.65625 1.9375 C 3.703125 1.9375 3.828125 1.9375 3.828125 1.734375 C 3.828125 1.625 3.734375 1.625 3.5625 1.625 C 3.09375 1.625 3.09375 1.5625 3.09375 1.46875 C 3.09375 1.390625 3.109375 1.328125 3.125 1.25 Z M 1.75 -0.109375 C 1.140625 -0.109375 1.109375 -0.875 1.109375 -1.046875 C 1.109375 -1.53125 1.390625 -2.609375 1.5625 -3.03125 C 1.875 -3.765625 2.390625 -4.1875 2.796875 -4.1875 C 3.453125 -4.1875 3.59375 -3.375 3.59375 -3.3125 C 3.59375 -3.25 3.046875 -1.0625 3.015625 -1.03125 C 2.859375 -0.75 2.296875 -0.109375 1.75 -0.109375 Z M 1.75 -0.109375 "/>
</g>
</g>
</defs>
<path fill="none" stroke-width="0.3985" stroke-linecap="butt" stroke-linejoin="miter" stroke="rgb(0%, 0%, 0%)" stroke-opacity="1" stroke-miterlimit="10" d="M -113.387113 -56.695014 L -113.387113 79.371393 L 113.386325 79.371393 L 113.386325 -56.695014 Z M -113.387113 -56.695014 " transform="matrix(1, 0, 0, -1, 119.2543, 85.23858)"/>
<g fill="rgb(0%, 0%, 0%)" fill-opacity="1">
<use xlink:href="#glyph-0-0" x="9.38688" y="16.2505"/>
</g>
<path fill-rule="nonzero" fill="rgb(0%, 0%, 0%)" fill-opacity="1" d="M 35.808594 85.238281 C 35.808594 84.359375 35.09375 83.644531 34.214844 83.644531 C 33.332031 83.644531 32.621094 84.359375 32.621094 85.238281 C 32.621094 86.117188 33.332031 86.832031 34.214844 86.832031 C 35.09375 86.832031 35.808594 86.117188 35.808594 85.238281 Z M 35.808594 85.238281 "/>
<g fill="rgb(0%, 0%, 0%)" fill-opacity="1">
<use xlink:href="#glyph-1-0" x="25.68155" y="86.41473"/>
</g>
<path fill-rule="nonzero" fill="rgb(0%, 0%, 0%)" fill-opacity="1" d="M 205.890625 85.238281 C 205.890625 84.359375 205.175781 83.644531 204.292969 83.644531 C 203.414062 83.644531 202.699219 84.359375 202.699219 85.238281 C 202.699219 86.117188 203.414062 86.832031 204.292969 86.832031 C 205.175781 86.832031 205.890625 86.117188 205.890625 85.238281 Z M 205.890625 85.238281 "/>
<g fill="rgb(0%, 0%, 0%)" fill-opacity="1">
<use xlink:href="#glyph-1-1" x="207.81454" y="86.41473"/>
</g>
<path fill="none" stroke-width="0.3985" stroke-linecap="butt" stroke-linejoin="miter" stroke="rgb(100%, 0%, 0%)" stroke-opacity="1" stroke-miterlimit="10" d="M -85.039456 0.00029875 C -85.039456 0.00029875 -75.570706 1.590143 -56.6918 14.172174 C -37.8168 26.758111 -18.8793 52.289361 -0.00039375 56.691705 C 18.878512 61.097955 9.468356 46.601861 28.347262 34.015924 C 47.226169 21.429986 85.038669 0.00029875 81.921481 1.76983 " transform="matrix(1, 0, 0, -1, 119.2543, 85.23858)"/>
<path fill-rule="nonzero" fill="rgb(100%, 0%, 0%)" fill-opacity="1" d="M 204.292969 85.238281 C 203.46875 84.542969 202.261719 83.171875 201.566406 81.972656 L 200.089844 84.574219 C 201.476562 84.558594 203.273438 84.886719 204.292969 85.238281 "/>
<path fill="none" stroke-width="0.3985" stroke-linecap="butt" stroke-linejoin="miter" stroke="rgb(0%, 59.999084%, 0%)" stroke-opacity="1" stroke-miterlimit="10" d="M -85.039456 0.00029875 L 81.452731 0.00029875 " transform="matrix(1, 0, 0, -1, 119.2543, 85.23858)"/>
<path fill-rule="nonzero" fill="rgb(0%, 59.999084%, 0%)" fill-opacity="1" d="M 204.292969 85.238281 C 203.230469 85.039062 201.503906 84.441406 200.308594 83.746094 L 200.308594 86.734375 C 201.503906 86.035156 203.230469 85.4375 204.292969 85.238281 "/>
<path fill="none" stroke-width="0.3985" stroke-linecap="butt" stroke-linejoin="miter" stroke="rgb(0%, 0%, 100%)" stroke-opacity="1" stroke-miterlimit="10" d="M -85.039456 0.00029875 L -28.34805 -28.347357 L 56.694919 -28.347357 L 82.503512 -2.534857 " transform="matrix(1, 0, 0, -1, 119.2543, 85.23858)"/>
<path fill-rule="nonzero" fill="rgb(0%, 0%, 100%)" fill-opacity="1" d="M 204.292969 85.238281 C 203.402344 85.847656 201.757812 86.648438 200.421875 87 L 202.535156 89.113281 C 202.886719 87.773438 203.683594 86.132812 204.292969 85.238281 "/>
</svg>
