<?xml version="1.0" encoding="UTF-8"?>
<svg xmlns="http://www.w3.org/2000/svg" xmlns:xlink="http://www.w3.org/1999/xlink" width="102.45pt" height="103.47pt" viewBox="0 0 102.45 103.47">
<defs>
<clipPath id="clip-0">
<path clip-rule="nonzero" d="M 0 1 L 102.449219 1 L 102.449219 103.46875 L 0 103.46875 Z M 0 1 "/>
</clipPath>
</defs>
<g clip-path="url(#clip-0)">
<path fill="none" stroke-width="0.3985" stroke-linecap="butt" stroke-linejoin="miter" stroke="rgb(0%, 0%, 0%)" stroke-opacity="1" stroke-miterlimit="10" d="M 45.355135 0.00089625 C 45.355135 25.047771 25.050448 45.356365 -0.00033375 45.356365 C -25.051115 45.356365 -45.355802 25.047771 -45.355802 0.00089625 C -45.355802 -25.049885 -25.051115 -45.354573 -0.00033375 -45.354573 C 25.050448 -45.354573 45.355135 -25.049885 45.355135 0.00089625 Z M 45.355135 0.00089625 " transform="matrix(1, 0, 0, -1, 51.22299, 52.24699)"/>
</g>
<path fill="none" stroke-width="0.3985" stroke-linecap="butt" stroke-linejoin="miter" stroke="rgb(0%, 0%, 100%)" stroke-opacity="1" stroke-miterlimit="10" d="M -43.086271 14.164959 L -43.086271 4.582927 " transform="matrix(1, 0, 0, -1, 51.22299, 52.24699)"/>
<path fill-rule="nonzero" fill="rgb(0%, 0%, 100%)" fill-opacity="1" stroke-width="0.3985" stroke-linecap="butt" stroke-linejoin="miter" stroke="rgb(0%, 0%, 100%)" stroke-opacity="1" stroke-miterlimit="10" d="M 3.761631 0.00088875 C 3.300694 0.11417 1.269444 0.750889 -0.0000875 1.446201 L -0.0000875 -1.44833 C 1.269444 -0.753017 3.300694 -0.112392 3.761631 0.00088875 Z M 3.761631 0.00088875 " transform="matrix(0, 1, 1, 0, 8.13583, 47.66415)"/>
<path fill-rule="nonzero" fill="rgb(0%, 0%, 100%)" fill-opacity="1" d="M 9.410156 38.082031 C 9.410156 37.378906 8.839844 36.808594 8.136719 36.808594 C 7.429688 36.808594 6.859375 37.378906 6.859375 38.082031 C 6.859375 38.789062 7.429688 39.359375 8.136719 39.359375 C 8.839844 39.359375 9.410156 38.789062 9.410156 38.082031 Z M 9.410156 38.082031 "/>
<path fill-rule="nonzero" fill="rgb(0%, 0%, 100%)" fill-opacity="1" d="M 9.410156 52.246094 C 9.410156 51.542969 8.839844 50.972656 8.136719 50.972656 C 7.429688 50.972656 6.859375 51.542969 6.859375 52.246094 C 6.859375 52.953125 7.429688 53.523438 8.136719 53.523438 C 8.839844 53.523438 9.410156 52.953125 9.410156 52.246094 Z M 9.410156 52.246094 "/>
<path fill="none" stroke-width="0.3985" stroke-linecap="butt" stroke-linejoin="miter" stroke="rgb(0%, 0%, 100%)" stroke-opacity="1" stroke-miterlimit="10" d="M -38.551115 23.891521 L -38.551115 4.582927 " transform="matrix(1, 0, 0, -1, 51.22299, 52.24699)"/>
<path fill-rule="nonzero" fill="rgb(0%, 0%, 100%)" fill-opacity="1" stroke-width="0.3985" stroke-linecap="butt" stroke-linejoin="miter" stroke="rgb(0%, 0%, 100%)" stroke-opacity="1" stroke-miterlimit="10" d="M 3.761631 0.000945 C 3.300694 0.114226 1.269444 0.750945 -0.0000875 1.446258 L -0.0000875 -1.448274 C 1.269444 -0.752961 3.300694 -0.112336 3.761631 0.000945 Z M 3.761631 0.000945 " transform="matrix(0, 1, 1, 0, 12.67093, 47.66415)"/>
<path fill-rule="nonzero" fill="rgb(0%, 0%, 100%)" fill-opacity="1" d="M 13.945312 28.355469 C 13.945312 27.652344 13.375 27.078125 12.671875 27.078125 C 11.964844 27.078125 11.394531 27.652344 11.394531 28.355469 C 11.394531 29.058594 11.964844 29.628906 12.671875 29.628906 C 13.375 29.628906 13.945312 29.058594 13.945312 28.355469 Z M 13.945312 28.355469 "/>
<path fill-rule="nonzero" fill="rgb(0%, 0%, 100%)" fill-opacity="1" d="M 13.945312 52.246094 C 13.945312 51.542969 13.375 50.972656 12.671875 50.972656 C 11.964844 50.972656 11.394531 51.542969 11.394531 52.246094 C 11.394531 52.953125 11.964844 53.523438 12.671875 53.523438 C 13.375 53.523438 13.945312 52.953125 13.945312 52.246094 Z M 13.945312 52.246094 "/>
<path fill="none" stroke-width="0.3985" stroke-linecap="butt" stroke-linejoin="miter" stroke="rgb(0%, 0%, 100%)" stroke-opacity="1" stroke-miterlimit="10" d="M -34.015959 29.99699 L -34.015959 4.582927 " transform="matrix(1, 0, 0, -1, 51.22299, 52.24699)"/>
<path fill-rule="nonzero" fill="rgb(0%, 0%, 100%)" fill-opacity="1" stroke-width="0.3985" stroke-linecap="butt" stroke-linejoin="miter" stroke="rgb(0%, 0%, 100%)" stroke-opacity="1" stroke-miterlimit="10" d="M 3.761631 0.00099125 C 3.300694 0.114273 1.269444 0.750991 -0.0000875 1.446304 L -0.0000875 -1.448227 C 1.269444 -0.752915 3.300694 -0.11229 3.761631 0.00099125 Z M 3.761631 0.00099125 " transform="matrix(0, 1, 1, 0, 17.20604, 47.66415)"/>
<path fill-rule="nonzero" fill="rgb(0%, 0%, 100%)" fill-opacity="1" d="M 18.480469 22.25 C 18.480469 21.542969 17.910156 20.972656 17.207031 20.972656 C 16.5 20.972656 15.929688 21.542969 15.929688 22.25 C 15.929688 22.953125 16.5 23.523438 17.207031 23.523438 C 17.910156 23.523438 18.480469 22.953125 18.480469 22.25 Z M 18.480469 22.25 "/>
<path fill-rule="nonzero" fill="rgb(0%, 0%, 100%)" fill-opacity="1" d="M 18.480469 52.246094 C 18.480469 51.542969 17.910156 50.972656 17.207031 50.972656 C 16.5 50.972656 15.929688 51.542969 15.929688 52.246094 C 15.929688 52.953125 16.5 53.523438 17.207031 53.523438 C 17.910156 53.523438 18.480469 52.953125 18.480469 52.246094 Z M 18.480469 52.246094 "/>
<path fill="none" stroke-width="0.3985" stroke-linecap="butt" stroke-linejoin="miter" stroke="rgb(0%, 0%, 100%)" stroke-opacity="1" stroke-miterlimit="10" d="M -29.480802 34.46574 L -29.480802 4.582927 " transform="matrix(1, 0, 0, -1, 51.22299, 52.24699)"/>
<path fill-rule="nonzero" fill="rgb(0%, 0%, 100%)" fill-opacity="1" stroke-width="0.3985" stroke-linecap="butt" stroke-linejoin="miter" stroke="rgb(0%, 0%, 100%)" stroke-opacity="1" stroke-miterlimit="10" d="M 3.761631 0.0010575 C 3.300694 0.114339 1.269444 0.751058 -0.0000875 1.44637 L -0.0000875 -1.448161 C 1.269444 -0.752849 3.300694 -0.112224 3.761631 0.0010575 Z M 3.761631 0.0010575 " transform="matrix(0, 1, 1, 0, 21.74113, 47.66415)"/>
<path fill-rule="nonzero" fill="rgb(0%, 0%, 100%)" fill-opacity="1" d="M 23.015625 17.78125 C 23.015625 17.078125 22.445312 16.507812 21.742188 16.507812 C 21.035156 16.507812 20.464844 17.078125 20.464844 17.78125 C 20.464844 18.484375 21.035156 19.058594 21.742188 19.058594 C 22.445312 19.058594 23.015625 18.484375 23.015625 17.78125 Z M 23.015625 17.78125 "/>
<path fill-rule="nonzero" fill="rgb(0%, 0%, 100%)" fill-opacity="1" d="M 23.015625 52.246094 C 23.015625 51.542969 22.445312 50.972656 21.742188 50.972656 C 21.035156 50.972656 20.464844 51.542969 20.464844 52.246094 C 20.464844 52.953125 21.035156 53.523438 21.742188 53.523438 C 22.445312 53.523438 23.015625 52.953125 23.015625 52.246094 Z M 23.015625 52.246094 "/>
<path fill="none" stroke-width="0.3985" stroke-linecap="butt" stroke-linejoin="miter" stroke="rgb(0%, 0%, 100%)" stroke-opacity="1" stroke-miterlimit="10" d="M -24.945646 37.879802 L -24.945646 4.582927 " transform="matrix(1, 0, 0, -1, 51.22299, 52.24699)"/>
<path fill-rule="nonzero" fill="rgb(0%, 0%, 100%)" fill-opacity="1" stroke-width="0.3985" stroke-linecap="butt" stroke-linejoin="miter" stroke="rgb(0%, 0%, 100%)" stroke-opacity="1" stroke-miterlimit="10" d="M 3.761631 0.00115375 C 3.300694 0.114435 1.269444 0.751154 -0.0000875 1.446466 L -0.0000875 -1.448065 C 1.269444 -0.752752 3.300694 -0.112127 3.761631 0.00115375 Z M 3.761631 0.00115375 " transform="matrix(0, 1, 1, 0, 26.27619, 47.66415)"/>
<path fill-rule="nonzero" fill="rgb(0%, 0%, 100%)" fill-opacity="1" d="M 27.550781 14.367188 C 27.550781 13.664062 26.980469 13.09375 26.277344 13.09375 C 25.570312 13.09375 25 13.664062 25 14.367188 C 25 15.074219 25.570312 15.644531 26.277344 15.644531 C 26.980469 15.644531 27.550781 15.074219 27.550781 14.367188 Z M 27.550781 14.367188 "/>
<path fill-rule="nonzero" fill="rgb(0%, 0%, 100%)" fill-opacity="1" d="M 27.550781 52.246094 C 27.550781 51.542969 26.980469 50.972656 26.277344 50.972656 C 25.570312 50.972656 25 51.542969 25 52.246094 C 25 52.953125 25.570312 53.523438 26.277344 53.523438 C 26.980469 53.523438 27.550781 52.953125 27.550781 52.246094 Z M 27.550781 52.246094 "/>
<path fill="none" stroke-width="0.3985" stroke-linecap="butt" stroke-linejoin="miter" stroke="rgb(0%, 0%, 100%)" stroke-opacity="1" stroke-miterlimit="10" d="M -20.41049 40.500896 L -20.41049 4.582927 " transform="matrix(1, 0, 0, -1, 51.22299, 52.24699)"/>
<path fill-rule="nonzero" fill="rgb(0%, 0%, 100%)" fill-opacity="1" stroke-width="0.3985" stroke-linecap="butt" stroke-linejoin="miter" stroke="rgb(0%, 0%, 100%)" stroke-opacity="1" stroke-miterlimit="10" d="M 3.761631 0.00121 C 3.300694 0.114491 1.269444 0.75121 -0.0000875 1.446523 L -0.0000875 -1.448009 C 1.269444 -0.752696 3.300694 -0.112071 3.761631 0.00121 Z M 3.761631 0.00121 " transform="matrix(0, 1, 1, 0, 30.81129, 47.66415)"/>
<path fill-rule="nonzero" fill="rgb(0%, 0%, 100%)" fill-opacity="1" d="M 32.085938 11.746094 C 32.085938 11.039062 31.515625 10.46875 30.8125 10.46875 C 30.105469 10.46875 29.535156 11.039062 29.535156 11.746094 C 29.535156 12.449219 30.105469 13.019531 30.8125 13.019531 C 31.515625 13.019531 32.085938 12.449219 32.085938 11.746094 Z M 32.085938 11.746094 "/>
<path fill-rule="nonzero" fill="rgb(0%, 0%, 100%)" fill-opacity="1" d="M 32.085938 52.246094 C 32.085938 51.542969 31.515625 50.972656 30.8125 50.972656 C 30.105469 50.972656 29.535156 51.542969 29.535156 52.246094 C 29.535156 52.953125 30.105469 53.523438 30.8125 53.523438 C 31.515625 53.523438 32.085938 52.953125 32.085938 52.246094 Z M 32.085938 52.246094 "/>
<path fill="none" stroke-width="0.3985" stroke-linecap="butt" stroke-linejoin="miter" stroke="rgb(0%, 0%, 100%)" stroke-opacity="1" stroke-miterlimit="10" d="M -15.875334 42.485271 L -15.875334 4.582927 " transform="matrix(1, 0, 0, -1, 51.22299, 52.24699)"/>
<path fill-rule="nonzero" fill="rgb(0%, 0%, 100%)" fill-opacity="1" stroke-width="0.3985" stroke-linecap="butt" stroke-linejoin="miter" stroke="rgb(0%, 0%, 100%)" stroke-opacity="1" stroke-miterlimit="10" d="M 3.761631 0.00126625 C 3.300694 0.114548 1.269444 0.751266 -0.0000875 1.446579 L -0.0000875 -1.447952 C 1.269444 -0.75264 3.300694 -0.112015 3.761631 0.00126625 Z M 3.761631 0.00126625 " transform="matrix(0, 1, 1, 0, 35.34639, 47.66415)"/>
<path fill-rule="nonzero" fill="rgb(0%, 0%, 100%)" fill-opacity="1" d="M 36.621094 9.761719 C 36.621094 9.058594 36.050781 8.484375 35.347656 8.484375 C 34.640625 8.484375 34.070312 9.058594 34.070312 9.761719 C 34.070312 10.464844 34.640625 11.035156 35.347656 11.035156 C 36.050781 11.035156 36.621094 10.464844 36.621094 9.761719 Z M 36.621094 9.761719 "/>
<path fill-rule="nonzero" fill="rgb(0%, 0%, 100%)" fill-opacity="1" d="M 36.621094 52.246094 C 36.621094 51.542969 36.050781 50.972656 35.347656 50.972656 C 34.640625 50.972656 34.070312 51.542969 34.070312 52.246094 C 34.070312 52.953125 34.640625 53.523438 35.347656 53.523438 C 36.050781 53.523438 36.621094 52.953125 36.621094 52.246094 Z M 36.621094 52.246094 "/>
<path fill="none" stroke-width="0.3985" stroke-linecap="butt" stroke-linejoin="miter" stroke="rgb(0%, 0%, 100%)" stroke-opacity="1" stroke-miterlimit="10" d="M -11.340177 43.914959 L -11.340177 4.582927 " transform="matrix(1, 0, 0, -1, 51.22299, 52.24699)"/>
<path fill-rule="nonzero" fill="rgb(0%, 0%, 100%)" fill-opacity="1" stroke-width="0.3985" stroke-linecap="butt" stroke-linejoin="miter" stroke="rgb(0%, 0%, 100%)" stroke-opacity="1" stroke-miterlimit="10" d="M 3.761631 0.0013225 C 3.300694 0.114604 1.269444 0.751323 -0.0000875 1.446635 L -0.0000875 -1.447896 C 1.269444 -0.752584 3.300694 -0.111959 3.761631 0.0013225 Z M 3.761631 0.0013225 " transform="matrix(0, 1, 1, 0, 39.88149, 47.66415)"/>
<path fill-rule="nonzero" fill="rgb(0%, 0%, 100%)" fill-opacity="1" d="M 41.15625 8.332031 C 41.15625 7.628906 40.585938 7.058594 39.882812 7.058594 C 39.175781 7.058594 38.605469 7.628906 38.605469 8.332031 C 38.605469 9.039062 39.175781 9.609375 39.882812 9.609375 C 40.585938 9.609375 41.15625 9.039062 41.15625 8.332031 Z M 41.15625 8.332031 "/>
<path fill-rule="nonzero" fill="rgb(0%, 0%, 100%)" fill-opacity="1" d="M 41.15625 52.246094 C 41.15625 51.542969 40.585938 50.972656 39.882812 50.972656 C 39.175781 50.972656 38.605469 51.542969 38.605469 52.246094 C 38.605469 52.953125 39.175781 53.523438 39.882812 53.523438 C 40.585938 53.523438 41.15625 52.953125 41.15625 52.246094 Z M 41.15625 52.246094 "/>
<path fill="none" stroke-width="0.3985" stroke-linecap="butt" stroke-linejoin="miter" stroke="rgb(0%, 0%, 100%)" stroke-opacity="1" stroke-miterlimit="10" d="M -6.805021 44.84074 L -6.805021 4.582927 " transform="matrix(1, 0, 0, -1, 51.22299, 52.24699)"/>
<path fill-rule="nonzero" fill="rgb(0%, 0%, 100%)" fill-opacity="1" stroke-width="0.3985" stroke-linecap="butt" stroke-linejoin="miter" stroke="rgb(0%, 0%, 100%)" stroke-opacity="1" stroke-miterlimit="10" d="M 3.761631 0.00138875 C 3.300694 0.110764 1.269444 0.751389 -0.0000875 1.446701 L -0.0000875 -1.44783 C 1.269444 -0.752517 3.300694 -0.111892 3.761631 0.00138875 Z M 3.761631 0.00138875 " transform="matrix(0, 1, 1, 0, 44.41658, 47.66415)"/>
<path fill-rule="nonzero" fill="rgb(0%, 0%, 100%)" fill-opacity="1" d="M 45.691406 7.40625 C 45.691406 6.699219 45.121094 6.128906 44.417969 6.128906 C 43.710938 6.128906 43.140625 6.699219 43.140625 7.40625 C 43.140625 8.109375 43.710938 8.679688 44.417969 8.679688 C 45.121094 8.679688 45.691406 8.109375 45.691406 7.40625 Z M 45.691406 7.40625 "/>
<path fill-rule="nonzero" fill="rgb(0%, 0%, 100%)" fill-opacity="1" d="M 45.691406 52.246094 C 45.691406 51.542969 45.121094 50.972656 44.417969 50.972656 C 43.710938 50.972656 43.140625 51.542969 43.140625 52.246094 C 43.140625 52.953125 43.710938 53.523438 44.417969 53.523438 C 45.121094 53.523438 45.691406 52.953125 45.691406 52.246094 Z M 45.691406 52.246094 "/>
<path fill="none" stroke-width="0.3985" stroke-linecap="butt" stroke-linejoin="miter" stroke="rgb(0%, 0%, 100%)" stroke-opacity="1" stroke-miterlimit="10" d="M -2.269865 45.297771 L -2.269865 4.582927 " transform="matrix(1, 0, 0, -1, 51.22299, 52.24699)"/>
<path fill-rule="nonzero" fill="rgb(0%, 0%, 100%)" fill-opacity="1" stroke-width="0.3985" stroke-linecap="butt" stroke-linejoin="miter" stroke="rgb(0%, 0%, 100%)" stroke-opacity="1" stroke-miterlimit="10" d="M 3.761631 0.001455 C 3.300694 0.11083 1.269444 0.751455 -0.0000875 1.446768 L -0.0000875 -1.447764 C 1.269444 -0.752451 3.300694 -0.111826 3.761631 0.001455 Z M 3.761631 0.001455 " transform="matrix(0, 1, 1, 0, 48.95167, 47.66415)"/>
<path fill-rule="nonzero" fill="rgb(0%, 0%, 100%)" fill-opacity="1" d="M 50.226562 6.949219 C 50.226562 6.246094 49.65625 5.675781 48.953125 5.675781 C 48.246094 5.675781 47.675781 6.246094 47.675781 6.949219 C 47.675781 7.652344 48.246094 8.226562 48.953125 8.226562 C 49.65625 8.226562 50.226562 7.652344 50.226562 6.949219 Z M 50.226562 6.949219 "/>
<path fill-rule="nonzero" fill="rgb(0%, 0%, 100%)" fill-opacity="1" d="M 50.226562 52.246094 C 50.226562 51.542969 49.65625 50.972656 48.953125 50.972656 C 48.246094 50.972656 47.675781 51.542969 47.675781 52.246094 C 47.675781 52.953125 48.246094 53.523438 48.953125 53.523438 C 49.65625 53.523438 50.226562 52.953125 50.226562 52.246094 Z M 50.226562 52.246094 "/>
<path fill="none" stroke-width="0.3985" stroke-linecap="butt" stroke-linejoin="miter" stroke="rgb(0%, 0%, 100%)" stroke-opacity="1" stroke-miterlimit="10" d="M 2.265291 45.297771 L 2.265291 4.582927 " transform="matrix(1, 0, 0, -1, 51.22299, 52.24699)"/>
<path fill-rule="nonzero" fill="rgb(0%, 0%, 100%)" fill-opacity="1" stroke-width="0.3985" stroke-linecap="butt" stroke-linejoin="miter" stroke="rgb(0%, 0%, 100%)" stroke-opacity="1" stroke-miterlimit="10" d="M 3.761631 0.00159125 C 3.300694 0.110966 1.269444 0.751591 -0.0000875 1.446904 L -0.0000875 -1.447627 C 1.269444 -0.752315 3.300694 -0.11169 3.761631 0.00159125 Z M 3.761631 0.00159125 " transform="matrix(0, 1, 1, 0, 53.48669, 47.66415)"/>
<path fill-rule="nonzero" fill="rgb(0%, 0%, 100%)" fill-opacity="1" d="M 54.761719 6.949219 C 54.761719 6.246094 54.191406 5.671875 53.488281 5.671875 C 52.78125 5.671875 52.210938 6.246094 52.210938 6.949219 C 52.210938 7.652344 52.78125 8.222656 53.488281 8.222656 C 54.191406 8.222656 54.761719 7.652344 54.761719 6.949219 Z M 54.761719 6.949219 "/>
<path fill-rule="nonzero" fill="rgb(0%, 0%, 100%)" fill-opacity="1" d="M 54.761719 52.246094 C 54.761719 51.542969 54.191406 50.972656 53.488281 50.972656 C 52.78125 50.972656 52.210938 51.542969 52.210938 52.246094 C 52.210938 52.953125 52.78125 53.523438 53.488281 53.523438 C 54.191406 53.523438 54.761719 52.953125 54.761719 52.246094 Z M 54.761719 52.246094 "/>
<path fill="none" stroke-width="0.3985" stroke-linecap="butt" stroke-linejoin="miter" stroke="rgb(0%, 0%, 100%)" stroke-opacity="1" stroke-miterlimit="10" d="M 6.800448 44.84074 L 6.800448 4.582927 " transform="matrix(1, 0, 0, -1, 51.22299, 52.24699)"/>
<path fill-rule="nonzero" fill="rgb(0%, 0%, 100%)" fill-opacity="1" stroke-width="0.3985" stroke-linecap="butt" stroke-linejoin="miter" stroke="rgb(0%, 0%, 100%)" stroke-opacity="1" stroke-miterlimit="10" d="M 3.761631 0.0016475 C 3.300694 0.111023 1.269444 0.751648 -0.0000875 1.44696 L -0.0000875 -1.447571 C 1.269444 -0.752259 3.300694 -0.111634 3.761631 0.0016475 Z M 3.761631 0.0016475 " transform="matrix(0, 1, 1, 0, 58.02179, 47.66415)"/>
<path fill-rule="nonzero" fill="rgb(0%, 0%, 100%)" fill-opacity="1" d="M 59.296875 7.40625 C 59.296875 6.699219 58.726562 6.128906 58.023438 6.128906 C 57.316406 6.128906 56.746094 6.699219 56.746094 7.40625 C 56.746094 8.109375 57.316406 8.679688 58.023438 8.679688 C 58.726562 8.679688 59.296875 8.109375 59.296875 7.40625 Z M 59.296875 7.40625 "/>
<path fill-rule="nonzero" fill="rgb(0%, 0%, 100%)" fill-opacity="1" d="M 59.296875 52.246094 C 59.296875 51.542969 58.726562 50.972656 58.023438 50.972656 C 57.316406 50.972656 56.746094 51.542969 56.746094 52.246094 C 56.746094 52.953125 57.316406 53.523438 58.023438 53.523438 C 58.726562 53.523438 59.296875 52.953125 59.296875 52.246094 Z M 59.296875 52.246094 "/>
<path fill="none" stroke-width="0.3985" stroke-linecap="butt" stroke-linejoin="miter" stroke="rgb(0%, 0%, 100%)" stroke-opacity="1" stroke-miterlimit="10" d="M 11.335604 43.914959 L 11.335604 4.582927 " transform="matrix(1, 0, 0, -1, 51.22299, 52.24699)"/>
<path fill-rule="nonzero" fill="rgb(0%, 0%, 100%)" fill-opacity="1" stroke-width="0.3985" stroke-linecap="butt" stroke-linejoin="miter" stroke="rgb(0%, 0%, 100%)" stroke-opacity="1" stroke-miterlimit="10" d="M 3.761631 0.00170375 C 3.300694 0.111079 1.269444 0.751704 -0.0000875 1.447016 L -0.0000875 -1.447515 C 1.269444 -0.752202 3.300694 -0.111577 3.761631 0.00170375 Z M 3.761631 0.00170375 " transform="matrix(0, 1, 1, 0, 62.55689, 47.66415)"/>
<path fill-rule="nonzero" fill="rgb(0%, 0%, 100%)" fill-opacity="1" d="M 63.832031 8.332031 C 63.832031 7.625 63.261719 7.054688 62.558594 7.054688 C 61.851562 7.054688 61.28125 7.625 61.28125 8.332031 C 61.28125 9.035156 61.851562 9.605469 62.558594 9.605469 C 63.261719 9.605469 63.832031 9.035156 63.832031 8.332031 Z M 63.832031 8.332031 "/>
<path fill-rule="nonzero" fill="rgb(0%, 0%, 100%)" fill-opacity="1" d="M 63.832031 52.246094 C 63.832031 51.542969 63.261719 50.972656 62.558594 50.972656 C 61.851562 50.972656 61.28125 51.542969 61.28125 52.246094 C 61.28125 52.953125 61.851562 53.523438 62.558594 53.523438 C 63.261719 53.523438 63.832031 52.953125 63.832031 52.246094 Z M 63.832031 52.246094 "/>
<path fill="none" stroke-width="0.3985" stroke-linecap="butt" stroke-linejoin="miter" stroke="rgb(0%, 0%, 100%)" stroke-opacity="1" stroke-miterlimit="10" d="M 15.87076 42.489177 L 15.87076 4.582927 " transform="matrix(1, 0, 0, -1, 51.22299, 52.24699)"/>
<path fill-rule="nonzero" fill="rgb(0%, 0%, 100%)" fill-opacity="1" stroke-width="0.3985" stroke-linecap="butt" stroke-linejoin="miter" stroke="rgb(0%, 0%, 100%)" stroke-opacity="1" stroke-miterlimit="10" d="M 3.761631 0.00177 C 3.300694 0.111145 1.269444 0.75177 -0.0000875 1.447083 L -0.0000875 -1.447449 C 1.269444 -0.752136 3.300694 -0.111511 3.761631 0.00177 Z M 3.761631 0.00177 " transform="matrix(0, 1, 1, 0, 67.09198, 47.66415)"/>
<path fill-rule="nonzero" fill="rgb(0%, 0%, 100%)" fill-opacity="1" d="M 68.367188 9.757812 C 68.367188 9.054688 67.796875 8.484375 67.09375 8.484375 C 66.386719 8.484375 65.816406 9.054688 65.816406 9.757812 C 65.816406 10.460938 66.386719 11.035156 67.09375 11.035156 C 67.796875 11.035156 68.367188 10.460938 68.367188 9.757812 Z M 68.367188 9.757812 "/>
<path fill-rule="nonzero" fill="rgb(0%, 0%, 100%)" fill-opacity="1" d="M 68.367188 52.246094 C 68.367188 51.542969 67.796875 50.972656 67.09375 50.972656 C 66.386719 50.972656 65.816406 51.542969 65.816406 52.246094 C 65.816406 52.953125 66.386719 53.523438 67.09375 53.523438 C 67.796875 53.523438 68.367188 52.953125 68.367188 52.246094 Z M 68.367188 52.246094 "/>
<path fill="none" stroke-width="0.3985" stroke-linecap="butt" stroke-linejoin="miter" stroke="rgb(0%, 0%, 100%)" stroke-opacity="1" stroke-miterlimit="10" d="M 20.405916 40.504802 L 20.405916 4.582927 " transform="matrix(1, 0, 0, -1, 51.22299, 52.24699)"/>
<path fill-rule="nonzero" fill="rgb(0%, 0%, 100%)" fill-opacity="1" stroke-width="0.3985" stroke-linecap="butt" stroke-linejoin="miter" stroke="rgb(0%, 0%, 100%)" stroke-opacity="1" stroke-miterlimit="10" d="M 3.761631 0.00183625 C 3.300694 0.111211 1.269444 0.751836 -0.0000875 1.447149 L -0.0000875 -1.447383 C 1.269444 -0.75207 3.300694 -0.111445 3.761631 0.00183625 Z M 3.761631 0.00183625 " transform="matrix(0, 1, 1, 0, 71.62707, 47.66415)"/>
<path fill-rule="nonzero" fill="rgb(0%, 0%, 100%)" fill-opacity="1" d="M 72.902344 11.742188 C 72.902344 11.035156 72.332031 10.464844 71.628906 10.464844 C 70.921875 10.464844 70.351562 11.035156 70.351562 11.742188 C 70.351562 12.445312 70.921875 13.015625 71.628906 13.015625 C 72.332031 13.015625 72.902344 12.445312 72.902344 11.742188 Z M 72.902344 11.742188 "/>
<path fill-rule="nonzero" fill="rgb(0%, 0%, 100%)" fill-opacity="1" d="M 72.902344 52.246094 C 72.902344 51.542969 72.332031 50.972656 71.628906 50.972656 C 70.921875 50.972656 70.351562 51.542969 70.351562 52.246094 C 70.351562 52.953125 70.921875 53.523438 71.628906 53.523438 C 72.332031 53.523438 72.902344 52.953125 72.902344 52.246094 Z M 72.902344 52.246094 "/>
<path fill="none" stroke-width="0.3985" stroke-linecap="butt" stroke-linejoin="miter" stroke="rgb(0%, 0%, 100%)" stroke-opacity="1" stroke-miterlimit="10" d="M 24.941073 37.883709 L 24.941073 4.582927 " transform="matrix(1, 0, 0, -1, 51.22299, 52.24699)"/>
<path fill-rule="nonzero" fill="rgb(0%, 0%, 100%)" fill-opacity="1" stroke-width="0.3985" stroke-linecap="butt" stroke-linejoin="miter" stroke="rgb(0%, 0%, 100%)" stroke-opacity="1" stroke-miterlimit="10" d="M 3.761631 0.0018725 C 3.300694 0.111248 1.269444 0.751873 -0.0000875 1.447185 L -0.0000875 -1.447346 C 1.269444 -0.752034 3.300694 -0.111409 3.761631 0.0018725 Z M 3.761631 0.0018725 " transform="matrix(0, 1, 1, 0, 76.16219, 47.66415)"/>
<path fill-rule="nonzero" fill="rgb(0%, 0%, 100%)" fill-opacity="1" d="M 77.4375 14.363281 C 77.4375 13.660156 76.867188 13.089844 76.164062 13.089844 C 75.457031 13.089844 74.886719 13.660156 74.886719 14.363281 C 74.886719 15.066406 75.457031 15.640625 76.164062 15.640625 C 76.867188 15.640625 77.4375 15.066406 77.4375 14.363281 Z M 77.4375 14.363281 "/>
<path fill-rule="nonzero" fill="rgb(0%, 0%, 100%)" fill-opacity="1" d="M 77.4375 52.246094 C 77.4375 51.542969 76.867188 50.972656 76.164062 50.972656 C 75.457031 50.972656 74.886719 51.542969 74.886719 52.246094 C 74.886719 52.953125 75.457031 53.523438 76.164062 53.523438 C 76.867188 53.523438 77.4375 52.953125 77.4375 52.246094 Z M 77.4375 52.246094 "/>
<path fill="none" stroke-width="0.3985" stroke-linecap="butt" stroke-linejoin="miter" stroke="rgb(0%, 0%, 100%)" stroke-opacity="1" stroke-miterlimit="10" d="M -43.086271 0.00089625 L 24.944979 0.00089625 " transform="matrix(1, 0, 0, -1, 51.22299, 52.24699)"/>
</svg>
