<?xml version="1.0" encoding="UTF-8"?>
<svg xmlns="http://www.w3.org/2000/svg" xmlns:xlink="http://www.w3.org/1999/xlink" width="158.77pt" height="116.42pt" viewBox="0 0 158.77 116.42">
<defs>
<g>
<g id="glyph-0-0">
<path d="M 2.6875 -0.859375 C 2.84375 -2.078125 2.84375 -2.984375 2.84375 -3.125 C 2.84375 -3.84375 2.84375 -6.8125 1.03125 -6.8125 C 0.6875 -6.8125 0.34375 -6.53125 0.34375 -6.390625 C 0.34375 -6.3125 0.390625 -6.3125 0.53125 -6.3125 C 1.984375 -6.1875 2.109375 -3.890625 2.109375 -2.765625 C 2.109375 -1.765625 1.96875 -0.5625 1.859375 0.09375 C 1.828125 0.21875 1.828125 0.234375 1.828125 0.28125 C 1.828125 0.328125 1.828125 0.453125 1.90625 0.453125 C 2.015625 0.453125 4.421875 -1.390625 5.6875 -3.3125 C 6.203125 -4.09375 6.578125 -4.984375 6.578125 -5.65625 C 6.578125 -6.5 6.015625 -6.8125 5.609375 -6.8125 C 5.328125 -6.8125 5.1875 -6.1875 5.1875 -6.046875 C 5.1875 -5.90625 5.234375 -5.90625 5.359375 -5.890625 C 6.015625 -5.8125 6.140625 -5.28125 6.140625 -5.046875 C 6.140625 -4.234375 4.40625 -2.1875 2.6875 -0.859375 Z M 2.6875 -0.859375 "/>
</g>
<g id="glyph-0-1">
<path d="M 6.5625 -2.296875 C 6.734375 -2.296875 6.921875 -2.296875 6.921875 -2.5 C 6.921875 -2.6875 6.734375 -2.6875 6.5625 -2.6875 L 1.171875 -2.6875 C 1 -2.6875 0.828125 -2.6875 0.828125 -2.5 C 0.828125 -2.296875 1 -2.296875 1.171875 -2.296875 Z M 6.5625 -2.296875 "/>
</g>
<g id="glyph-1-0">
<path d="M 3.296875 2.390625 C 3.296875 2.359375 3.296875 2.34375 3.125 2.171875 C 1.890625 0.921875 1.5625 -0.96875 1.5625 -2.5 C 1.5625 -4.234375 1.9375 -5.96875 3.171875 -7.203125 C 3.296875 -7.328125 3.296875 -7.34375 3.296875 -7.375 C 3.296875 -7.453125 3.265625 -7.484375 3.203125 -7.484375 C 3.09375 -7.484375 2.203125 -6.796875 1.609375 -5.53125 C 1.109375 -4.4375 0.984375 -3.328125 0.984375 -2.5 C 0.984375 -1.71875 1.09375 -0.515625 1.640625 0.625 C 2.25 1.84375 3.09375 2.5 3.203125 2.5 C 3.265625 2.5 3.296875 2.46875 3.296875 2.390625 Z M 3.296875 2.390625 "/>
</g>
<g id="glyph-1-1">
<path d="M 2.875 -2.5 C 2.875 -3.265625 2.765625 -4.46875 2.21875 -5.609375 C 1.625 -6.828125 0.765625 -7.484375 0.671875 -7.484375 C 0.609375 -7.484375 0.5625 -7.4375 0.5625 -7.375 C 0.5625 -7.34375 0.5625 -7.328125 0.75 -7.140625 C 1.734375 -6.15625 2.296875 -4.578125 2.296875 -2.5 C 2.296875 -0.78125 1.9375 0.96875 0.703125 2.21875 C 0.5625 2.34375 0.5625 2.359375 0.5625 2.390625 C 0.5625 2.453125 0.609375 2.5 0.671875 2.5 C 0.765625 2.5 1.671875 1.8125 2.25 0.546875 C 2.765625 -0.546875 2.875 -1.65625 2.875 -2.5 Z M 2.875 -2.5 "/>
</g>
<g id="glyph-2-0">
<path d="M 4.84375 -3.796875 C 4.890625 -3.9375 4.890625 -3.953125 4.890625 -4.03125 C 4.890625 -4.203125 4.75 -4.296875 4.59375 -4.296875 C 4.5 -4.296875 4.34375 -4.234375 4.25 -4.09375 C 4.234375 -4.03125 4.140625 -3.734375 4.109375 -3.546875 C 4.03125 -3.296875 3.96875 -3.015625 3.90625 -2.75 L 3.453125 -0.953125 C 3.421875 -0.8125 2.984375 -0.109375 2.328125 -0.109375 C 1.828125 -0.109375 1.71875 -0.546875 1.71875 -0.921875 C 1.71875 -1.375 1.890625 -2 2.21875 -2.875 C 2.375 -3.28125 2.421875 -3.390625 2.421875 -3.59375 C 2.421875 -4.03125 2.109375 -4.40625 1.609375 -4.40625 C 0.65625 -4.40625 0.296875 -2.953125 0.296875 -2.875 C 0.296875 -2.765625 0.390625 -2.765625 0.40625 -2.765625 C 0.515625 -2.765625 0.515625 -2.796875 0.5625 -2.953125 C 0.84375 -3.890625 1.234375 -4.1875 1.578125 -4.1875 C 1.65625 -4.1875 1.828125 -4.1875 1.828125 -3.875 C 1.828125 -3.625 1.71875 -3.359375 1.65625 -3.171875 C 1.25 -2.109375 1.078125 -1.546875 1.078125 -1.078125 C 1.078125 -0.1875 1.703125 0.109375 2.296875 0.109375 C 2.6875 0.109375 3.015625 -0.0625 3.296875 -0.34375 C 3.171875 0.171875 3.046875 0.671875 2.65625 1.203125 C 2.390625 1.53125 2.015625 1.828125 1.5625 1.828125 C 1.421875 1.828125 0.96875 1.796875 0.796875 1.40625 C 0.953125 1.40625 1.09375 1.40625 1.21875 1.28125 C 1.328125 1.203125 1.421875 1.0625 1.421875 0.875 C 1.421875 0.5625 1.15625 0.53125 1.0625 0.53125 C 0.828125 0.53125 0.5 0.6875 0.5 1.171875 C 0.5 1.671875 0.9375 2.046875 1.5625 2.046875 C 2.578125 2.046875 3.609375 1.140625 3.890625 0.015625 Z M 4.84375 -3.796875 "/>
</g>
<g id="glyph-2-1">
<path d="M 1.328125 -0.828125 C 1.859375 -1.40625 2.15625 -1.65625 2.515625 -1.96875 C 2.515625 -1.96875 3.125 -2.5 3.484375 -2.859375 C 4.4375 -3.78125 4.65625 -4.265625 4.65625 -4.3125 C 4.65625 -4.40625 4.5625 -4.40625 4.546875 -4.40625 C 4.46875 -4.40625 4.453125 -4.390625 4.390625 -4.296875 C 4.09375 -3.8125 3.890625 -3.65625 3.65625 -3.65625 C 3.40625 -3.65625 3.296875 -3.8125 3.140625 -3.984375 C 2.953125 -4.203125 2.78125 -4.40625 2.453125 -4.40625 C 1.703125 -4.40625 1.25 -3.484375 1.25 -3.265625 C 1.25 -3.21875 1.28125 -3.15625 1.359375 -3.15625 C 1.453125 -3.15625 1.46875 -3.203125 1.5 -3.265625 C 1.6875 -3.734375 2.265625 -3.734375 2.34375 -3.734375 C 2.546875 -3.734375 2.734375 -3.671875 2.96875 -3.59375 C 3.375 -3.4375 3.484375 -3.4375 3.734375 -3.4375 C 3.375 -3.015625 2.546875 -2.296875 2.359375 -2.140625 L 1.453125 -1.296875 C 0.78125 -0.625 0.421875 -0.0625 0.421875 0.015625 C 0.421875 0.109375 0.53125 0.109375 0.546875 0.109375 C 0.625 0.109375 0.640625 0.09375 0.703125 -0.015625 C 0.9375 -0.375 1.234375 -0.640625 1.5625 -0.640625 C 1.78125 -0.640625 1.890625 -0.546875 2.140625 -0.265625 C 2.296875 -0.046875 2.484375 0.109375 2.765625 0.109375 C 3.765625 0.109375 4.34375 -1.15625 4.34375 -1.421875 C 4.34375 -1.46875 4.296875 -1.53125 4.21875 -1.53125 C 4.125 -1.53125 4.109375 -1.46875 4.078125 -1.390625 C 3.84375 -0.75 3.203125 -0.5625 2.875 -0.5625 C 2.6875 -0.5625 2.5 -0.625 2.296875 -0.6875 C 1.953125 -0.8125 1.796875 -0.859375 1.59375 -0.859375 C 1.578125 -0.859375 1.421875 -0.859375 1.328125 -0.828125 Z M 1.328125 -0.828125 "/>
</g>
<g id="glyph-2-2">
<path d="M 3.328125 -3.015625 C 3.390625 -3.265625 3.625 -4.1875 4.3125 -4.1875 C 4.359375 -4.1875 4.609375 -4.1875 4.8125 -4.0625 C 4.53125 -4 4.34375 -3.765625 4.34375 -3.515625 C 4.34375 -3.359375 4.453125 -3.171875 4.71875 -3.171875 C 4.9375 -3.171875 5.25 -3.34375 5.25 -3.75 C 5.25 -4.265625 4.671875 -4.40625 4.328125 -4.40625 C 3.75 -4.40625 3.40625 -3.875 3.28125 -3.65625 C 3.03125 -4.3125 2.5 -4.40625 2.203125 -4.40625 C 1.171875 -4.40625 0.59375 -3.125 0.59375 -2.875 C 0.59375 -2.765625 0.703125 -2.765625 0.71875 -2.765625 C 0.796875 -2.765625 0.828125 -2.796875 0.84375 -2.875 C 1.1875 -3.9375 1.84375 -4.1875 2.1875 -4.1875 C 2.375 -4.1875 2.71875 -4.09375 2.71875 -3.515625 C 2.71875 -3.203125 2.546875 -2.546875 2.1875 -1.140625 C 2.03125 -0.53125 1.671875 -0.109375 1.234375 -0.109375 C 1.171875 -0.109375 0.953125 -0.109375 0.734375 -0.234375 C 0.984375 -0.296875 1.203125 -0.5 1.203125 -0.78125 C 1.203125 -1.046875 0.984375 -1.125 0.84375 -1.125 C 0.53125 -1.125 0.296875 -0.875 0.296875 -0.546875 C 0.296875 -0.09375 0.78125 0.109375 1.21875 0.109375 C 1.890625 0.109375 2.25 -0.59375 2.265625 -0.640625 C 2.390625 -0.28125 2.75 0.109375 3.34375 0.109375 C 4.375 0.109375 4.9375 -1.171875 4.9375 -1.421875 C 4.9375 -1.53125 4.859375 -1.53125 4.828125 -1.53125 C 4.734375 -1.53125 4.71875 -1.484375 4.6875 -1.421875 C 4.359375 -0.34375 3.6875 -0.109375 3.375 -0.109375 C 2.984375 -0.109375 2.828125 -0.421875 2.828125 -0.765625 C 2.828125 -0.984375 2.875 -1.203125 2.984375 -1.640625 Z M 3.328125 -3.015625 "/>
</g>
<g id="glyph-3-0">
<path d="M 3.515625 -1.265625 L 3.28125 -1.265625 C 3.265625 -1.109375 3.1875 -0.703125 3.09375 -0.640625 C 3.046875 -0.59375 2.515625 -0.59375 2.40625 -0.59375 L 1.125 -0.59375 C 1.859375 -1.234375 2.109375 -1.4375 2.515625 -1.765625 C 3.03125 -2.171875 3.515625 -2.609375 3.515625 -3.265625 C 3.515625 -4.109375 2.78125 -4.625 1.890625 -4.625 C 1.03125 -4.625 0.4375 -4.015625 0.4375 -3.375 C 0.4375 -3.03125 0.734375 -2.984375 0.8125 -2.984375 C 0.96875 -2.984375 1.171875 -3.109375 1.171875 -3.359375 C 1.171875 -3.484375 1.125 -3.734375 0.765625 -3.734375 C 0.984375 -4.21875 1.453125 -4.375 1.78125 -4.375 C 2.484375 -4.375 2.84375 -3.828125 2.84375 -3.265625 C 2.84375 -2.65625 2.40625 -2.1875 2.1875 -1.9375 L 0.515625 -0.265625 C 0.4375 -0.203125 0.4375 -0.1875 0.4375 0 L 3.3125 0 Z M 3.515625 -1.265625 "/>
</g>
<g id="glyph-4-0">
<path d="M 6.546875 -6.6875 C 6.546875 -6.859375 6.546875 -7.015625 6.375 -7.015625 C 6.375 -7.015625 6.21875 -7.015625 6.203125 -6.84375 C 6.171875 -6.5625 5.9375 -6.5625 5.875 -6.5625 C 5.515625 -6.5625 5.171875 -6.703125 4.96875 -6.796875 C 4.46875 -7.015625 4.03125 -7.015625 3.875 -7.015625 C 2.21875 -7.015625 0.375 -5.96875 0.375 -3.421875 C 0.375 -0.875 2.171875 0.1875 3.890625 0.1875 C 4.421875 0.1875 5.140625 0.078125 5.859375 -0.359375 C 6.3125 -0.640625 6.828125 -1.140625 6.828125 -1.28125 C 6.828125 -1.421875 6.671875 -1.484375 6.625 -1.484375 C 6.546875 -1.484375 6.515625 -1.453125 6.40625 -1.34375 C 5.828125 -0.6875 4.9375 -0.296875 4.0625 -0.296875 C 2.515625 -0.296875 2.125 -1.859375 2.125 -3.40625 C 2.125 -5.359375 2.84375 -6.671875 3.90625 -6.671875 C 4.65625 -6.671875 5.859375 -5.9375 6.1875 -4.890625 C 6.21875 -4.796875 6.25 -4.6875 6.375 -4.6875 C 6.546875 -4.6875 6.546875 -4.859375 6.546875 -5.03125 Z M 6.203125 -5.65625 C 6.078125 -5.828125 5.953125 -5.96875 5.703125 -6.21875 C 5.75 -6.203125 5.828125 -6.203125 5.875 -6.203125 C 5.984375 -6.203125 6.125 -6.234375 6.203125 -6.28125 Z M 2.65625 -6.4375 C 2.4375 -6.203125 1.78125 -5.359375 1.78125 -3.40625 C 1.78125 -2.40625 1.921875 -1.03125 2.828125 -0.3125 C 1.1875 -0.84375 0.71875 -2.1875 0.71875 -3.40625 C 0.71875 -5.25 1.71875 -6.125 2.65625 -6.453125 Z M 2.65625 -6.4375 "/>
</g>
<g id="glyph-4-1">
<path d="M 2.609375 -3.078125 C 2.65625 -3.078125 2.859375 -3.078125 2.875 -3.0625 L 3.21875 -3.0625 C 5.25 -3.0625 5.96875 -4 5.96875 -4.953125 C 5.96875 -6.375 4.6875 -6.828125 3.40625 -6.828125 L 0.5 -6.828125 C 0.3125 -6.828125 0.15625 -6.828125 0.15625 -6.65625 C 0.15625 -6.484375 0.34375 -6.484375 0.421875 -6.484375 C 0.953125 -6.484375 0.984375 -6.40625 0.984375 -5.90625 L 0.984375 -0.921875 C 0.984375 -0.421875 0.953125 -0.34375 0.4375 -0.34375 C 0.34375 -0.34375 0.15625 -0.34375 0.15625 -0.171875 C 0.15625 0 0.3125 0 0.5 0 L 3.171875 0 C 3.34375 0 3.5 0 3.5 -0.171875 C 3.5 -0.34375 3.328125 -0.34375 3.21875 -0.34375 C 2.65625 -0.34375 2.609375 -0.421875 2.609375 -0.921875 Z M 4.25 -3.515625 C 4.578125 -3.9375 4.609375 -4.5625 4.609375 -4.96875 C 4.609375 -5.5 4.5625 -6.015625 4.296875 -6.390625 C 4.84375 -6.265625 5.625 -5.96875 5.625 -4.953125 C 5.625 -4.25 5.171875 -3.75 4.25 -3.515625 Z M 2.609375 -5.9375 C 2.609375 -6.140625 2.609375 -6.484375 3.203125 -6.484375 C 3.921875 -6.484375 4.25 -6.203125 4.25 -4.96875 C 4.25 -3.53125 3.734375 -3.421875 3.109375 -3.421875 L 2.609375 -3.421875 Z M 1.25 -0.34375 C 1.328125 -0.53125 1.328125 -0.765625 1.328125 -0.890625 L 1.328125 -5.9375 C 1.328125 -6.0625 1.328125 -6.296875 1.25 -6.484375 L 2.390625 -6.484375 C 2.265625 -6.3125 2.265625 -6.125 2.265625 -5.96875 L 2.265625 -0.890625 C 2.265625 -0.796875 2.265625 -0.53125 2.34375 -0.34375 Z M 1.25 -0.34375 "/>
</g>
</g>
</defs>
<path fill="none" stroke-width="0.3985" stroke-linecap="butt" stroke-linejoin="miter" stroke="rgb(100%, 0%, 0%)" stroke-opacity="1" stroke-miterlimit="10" d="M -57.828333 -0.00033875 L 62.187292 -0.00033875 " transform="matrix(1, 0, 0, -1, 63.69552, 102.44888)"/>
<path fill="none" stroke-width="0.31879" stroke-linecap="round" stroke-linejoin="round" stroke="rgb(100%, 0%, 0%)" stroke-opacity="1" stroke-miterlimit="10" d="M -1.19677 1.593411 C -1.095208 0.995755 -0.0014575 0.101224 0.299324 -0.00033875 C -0.0014575 -0.097995 -1.095208 -0.996432 -1.19677 -1.594089 " transform="matrix(1, 0, 0, -1, 125.88427, 102.44888)"/>
<g fill="rgb(0%, 0%, 0%)" fill-opacity="1">
<use xlink:href="#glyph-0-0" x="129.86236" y="104.93957"/>
</g>
<g fill="rgb(0%, 0%, 0%)" fill-opacity="1">
<use xlink:href="#glyph-1-0" x="136.78644" y="104.93957"/>
</g>
<g fill="rgb(0%, 0%, 0%)" fill-opacity="1">
<use xlink:href="#glyph-2-0" x="140.66081" y="104.93957"/>
</g>
<g fill="rgb(0%, 0%, 0%)" fill-opacity="1">
<use xlink:href="#glyph-1-1" x="145.90275" y="104.93957"/>
</g>
<path fill="none" stroke-width="0.79701" stroke-linecap="butt" stroke-linejoin="miter" stroke="rgb(0%, 0%, 100%)" stroke-opacity="1" stroke-miterlimit="10" d="M -48.015833 95.694974 C -45.28927 85.07388 -45.28927 85.07388 -44.175989 80.987943 C -43.058801 76.902005 -41.273645 70.644193 -40.160364 66.933255 C -39.043176 63.218411 -37.25802 57.558255 -36.144739 54.214505 C -35.027551 50.874661 -33.242395 45.808255 -32.129114 42.839505 C -31.011926 39.866849 -29.22677 35.398099 -28.113489 32.800443 C -26.996301 30.19888 -25.211145 26.327786 -24.097864 24.097318 C -22.980676 21.870755 -21.19552 18.593411 -20.082239 16.734036 C -18.965051 14.878568 -17.179895 12.19888 -16.066614 10.710599 C -14.949426 9.226224 -13.16427 7.140286 -12.050989 6.027005 C -10.933801 4.909818 -9.148645 3.421536 -8.035364 2.679349 C -6.918176 1.937161 -5.13302 1.04263 -4.019739 0.671536 C -2.902551 0.296536 -1.117395 -0.00033875 -0.00411375 -0.00033875 C 1.113074 -0.00033875 2.89823 0.296536 4.011511 0.66763 C 5.128699 1.038724 6.913855 1.933255 8.027136 2.675443 C 9.144324 3.41763 10.92948 4.905911 12.042761 6.019193 C 13.159949 7.132474 14.945105 9.218411 16.058386 10.702786 C 17.175574 12.187161 18.96073 14.866849 20.074011 16.726224 C 21.191199 18.581693 22.976355 21.859036 24.089636 24.085599 C 25.202917 26.316068 26.99198 30.187161 28.105261 32.784818 C 29.218542 35.38638 31.007605 39.851224 32.120886 42.82388 C 33.234167 45.79263 35.02323 50.85513 36.136511 54.19888 C 37.249792 57.538724 39.038855 63.19888 40.152136 66.913724 C 41.265417 70.624661 43.05448 76.878568 44.167761 80.964505 C 45.281042 85.050443 48.183386 96.35513 48.007605 95.671536 " transform="matrix(1, 0, 0, -1, 63.69552, 102.44888)"/>
<path fill="none" stroke-width="0.6376" stroke-linecap="round" stroke-linejoin="round" stroke="rgb(0%, 0%, 100%)" stroke-opacity="1" stroke-miterlimit="10" d="M -1.552733 2.073831 C -1.425836 1.295167 0.00146371 0.130438 0.387226 -0.000798225 C -0.00109668 -0.13105 -1.424754 -1.294301 -1.555562 -2.071375 " transform="matrix(-0.2485, -0.96857, -0.96857, 0.2485, 15.68139, 6.75416)"/>
<path fill="none" stroke-width="0.6376" stroke-linecap="round" stroke-linejoin="round" stroke="rgb(0%, 0%, 100%)" stroke-opacity="1" stroke-miterlimit="10" d="M -1.556061 2.073607 C -1.425239 1.29654 -0.000595354 0.129538 0.387728 -0.000705301 C 0.000999196 -0.128165 -1.4253 -1.2967 -1.553152 -2.071578 " transform="matrix(0.24852, -0.96857, -0.96857, -0.24852, 111.70374, 6.77771)"/>
<g fill="rgb(0%, 0%, 100%)" fill-opacity="1">
<use xlink:href="#glyph-0-0" x="100.94813" y="58.03213"/>
</g>
<g fill="rgb(0%, 0%, 100%)" fill-opacity="1">
<use xlink:href="#glyph-1-0" x="107.87221" y="58.03213"/>
</g>
<g fill="rgb(0%, 0%, 100%)" fill-opacity="1">
<use xlink:href="#glyph-2-1" x="111.74658" y="58.03213"/>
</g>
<g fill="rgb(0%, 0%, 100%)" fill-opacity="1">
<use xlink:href="#glyph-2-0" x="116.807601" y="58.03213"/>
</g>
<g fill="rgb(0%, 0%, 100%)" fill-opacity="1">
<use xlink:href="#glyph-0-1" x="124.27367" y="58.03213"/>
</g>
<g fill="rgb(0%, 0%, 100%)" fill-opacity="1">
<use xlink:href="#glyph-2-2" x="134.23628" y="58.03213"/>
</g>
<g fill="rgb(0%, 0%, 100%)" fill-opacity="1">
<use xlink:href="#glyph-3-0" x="139.93021" y="54.41677"/>
</g>
<g fill="rgb(0%, 0%, 100%)" fill-opacity="1">
<use xlink:href="#glyph-1-1" x="144.39958" y="58.03213"/>
</g>
<g fill="rgb(0%, 0%, 0%)" fill-opacity="1">
<use xlink:href="#glyph-4-0" x="103.00887" y="34.61129"/>
<use xlink:href="#glyph-4-1" x="110.201896" y="34.61129"/>
</g>
<g fill="rgb(0%, 0%, 0%)" fill-opacity="1">
<use xlink:href="#glyph-3-0" x="116.2924" y="30.2111"/>
</g>
<path fill-rule="nonzero" fill="rgb(0%, 50%, 0%)" fill-opacity="1" d="M 66.234375 102.449219 C 66.234375 101.046875 65.097656 99.910156 63.695312 99.910156 C 62.292969 99.910156 61.15625 101.046875 61.15625 102.449219 C 61.15625 103.851562 62.292969 104.988281 63.695312 104.988281 C 65.097656 104.988281 66.234375 103.851562 66.234375 102.449219 Z M 66.234375 102.449219 "/>
</svg>
