<?xml version="1.0" encoding="UTF-8"?>
<svg xmlns="http://www.w3.org/2000/svg" xmlns:xlink="http://www.w3.org/1999/xlink" width="191.32pt" height="28.63pt" viewBox="0 0 191.32 28.63">
<defs>
<g>
<g id="glyph-0-0">
<path d="M 3.65625 -6.796875 C 3.59375 -6.96875 3.5625 -7.015625 3.453125 -7.015625 C 3.34375 -7.015625 3.296875 -6.921875 3.25 -6.8125 L 0.984375 -0.84375 C 0.859375 -0.53125 0.640625 -0.375 0.375 -0.34375 C 0.328125 -0.34375 0.171875 -0.328125 0.171875 -0.171875 C 0.171875 0 0.328125 0 0.515625 0 L 2.109375 0 C 2.28125 0 2.4375 0 2.4375 -0.171875 C 2.4375 -0.328125 2.296875 -0.34375 2.21875 -0.34375 C 2.078125 -0.359375 1.828125 -0.40625 1.828125 -1 C 1.828125 -1.328125 1.90625 -1.640625 1.96875 -1.96875 L 4.171875 -1.96875 C 4.515625 -0.984375 4.53125 -0.828125 4.53125 -0.625 C 4.296875 -0.375 4.015625 -0.359375 3.90625 -0.34375 C 3.8125 -0.34375 3.734375 -0.265625 3.734375 -0.171875 C 3.734375 0 3.890625 0 4.0625 0 L 6.671875 0 C 6.84375 0 7.015625 0 7.015625 -0.171875 C 7.015625 -0.3125 6.875 -0.34375 6.78125 -0.34375 C 6.5625 -0.390625 6.40625 -0.5625 6.203125 -1 Z M 2.078125 -2.3125 C 2.296875 -3.1875 2.625 -4.03125 2.953125 -4.875 C 3.265625 -4.203125 3.859375 -2.765625 4.03125 -2.3125 Z M 1.484375 -1.203125 L 1.5 -1.1875 L 1.5 -1.09375 C 1.484375 -1.0625 1.484375 -1.0625 1.484375 -1 C 1.484375 -0.953125 1.484375 -0.578125 1.625 -0.34375 L 1.09375 -0.34375 C 1.21875 -0.484375 1.25 -0.609375 1.3125 -0.765625 Z M 3.09375 -5.40625 L 3.453125 -6.375 L 5.875 -0.875 C 5.921875 -0.765625 6.03125 -0.53125 6.171875 -0.34375 L 4.75 -0.34375 C 4.859375 -0.40625 4.890625 -0.546875 4.890625 -0.671875 C 4.890625 -1.28125 4.015625 -3.296875 3.59375 -4.296875 Z M 3.09375 -5.40625 "/>
</g>
<g id="glyph-1-0">
<path d="M 2.328125 -4.4375 C 2.328125 -4.625 2.328125 -4.625 2.125 -4.625 C 1.671875 -4.1875 1.046875 -4.1875 0.765625 -4.1875 L 0.765625 -3.9375 C 0.921875 -3.9375 1.390625 -3.9375 1.765625 -4.125 L 1.765625 -0.578125 C 1.765625 -0.34375 1.765625 -0.25 1.078125 -0.25 L 0.8125 -0.25 L 0.8125 0 C 0.9375 0 1.796875 -0.03125 2.046875 -0.03125 C 2.265625 -0.03125 3.140625 0 3.296875 0 L 3.296875 -0.25 L 3.03125 -0.25 C 2.328125 -0.25 2.328125 -0.34375 2.328125 -0.578125 Z M 2.328125 -4.4375 "/>
</g>
</g>
<clipPath id="clip-0">
<path clip-rule="nonzero" d="M 47 1 L 85 1 L 85 28.628906 L 47 28.628906 Z M 47 1 "/>
</clipPath>
<clipPath id="clip-1">
<path clip-rule="nonzero" d="M 67 1 L 105 1 L 105 28.628906 L 67 28.628906 Z M 67 1 "/>
</clipPath>
<clipPath id="clip-2">
<path clip-rule="nonzero" d="M 116 1 L 154 1 L 154 28.628906 L 116 28.628906 Z M 116 1 "/>
</clipPath>
</defs>
<path fill="none" stroke-width="1.39478" stroke-linecap="butt" stroke-linejoin="miter" stroke="rgb(0%, 0%, 100%)" stroke-opacity="1" stroke-miterlimit="10" d="M -88.214197 -0.00161375 L 88.211584 -0.00161375 " transform="matrix(1, 0, 0, -1, 95.65951, 20.61948)"/>
<path fill="none" stroke-width="1.11581" stroke-linecap="round" stroke-linejoin="round" stroke="rgb(0%, 0%, 100%)" stroke-opacity="1" stroke-miterlimit="10" d="M -2.092593 2.790676 C -1.916811 1.743801 0.0011575 0.173489 0.524595 0.00161375 C 0.0011575 -0.174168 -1.916811 -1.74448 -2.092593 -2.791355 " transform="matrix(-1, 0, 0, 1, 7.44647, 20.61948)"/>
<path fill="none" stroke-width="1.11581" stroke-linecap="round" stroke-linejoin="round" stroke="rgb(0%, 0%, 100%)" stroke-opacity="1" stroke-miterlimit="10" d="M -2.0913 2.791355 C -1.919425 1.74448 -0.00145625 0.174168 0.521981 -0.00161375 C -0.00145625 -0.173489 -1.919425 -1.743801 -2.0913 -2.790676 " transform="matrix(1, 0, 0, -1, 183.87255, 20.61948)"/>
<path fill-rule="nonzero" fill="rgb(0%, 0%, 100%)" fill-opacity="1" d="M 67.636719 20.621094 C 67.636719 19.65625 66.859375 18.875 65.894531 18.875 C 64.933594 18.875 64.152344 19.65625 64.152344 20.621094 C 64.152344 21.582031 64.933594 22.363281 65.894531 22.363281 C 66.859375 22.363281 67.636719 21.582031 67.636719 20.621094 Z M 67.636719 20.621094 "/>
<g clip-path="url(#clip-0)">
<path fill="none" stroke-width="1.19553" stroke-linecap="butt" stroke-linejoin="miter" stroke="rgb(0%, 0%, 100%)" stroke-opacity="1" stroke-miterlimit="10" d="M -28.022791 -0.00161375 C -28.022791 0.96323 -28.800135 1.74448 -29.764979 1.74448 C -30.725916 1.74448 -31.507166 0.96323 -31.507166 -0.00161375 C -31.507166 -0.962551 -30.725916 -1.743801 -29.764979 -1.743801 C -28.800135 -1.743801 -28.022791 -0.962551 -28.022791 -0.00161375 Z M -28.022791 -0.00161375 " transform="matrix(1, 0, 0, -1, 95.65951, 20.61948)"/>
</g>
<path fill-rule="nonzero" fill="rgb(0%, 0%, 100%)" fill-opacity="1" d="M 87.480469 20.621094 C 87.480469 19.65625 86.699219 18.875 85.738281 18.875 C 84.773438 18.875 83.996094 19.65625 83.996094 20.621094 C 83.996094 21.582031 84.773438 22.363281 85.738281 22.363281 C 86.699219 22.363281 87.480469 21.582031 87.480469 20.621094 Z M 87.480469 20.621094 "/>
<g clip-path="url(#clip-1)">
<path fill="none" stroke-width="1.19553" stroke-linecap="butt" stroke-linejoin="miter" stroke="rgb(0%, 0%, 100%)" stroke-opacity="1" stroke-miterlimit="10" d="M -8.179041 -0.00161375 C -8.179041 0.96323 -8.960291 1.74448 -9.921229 1.74448 C -10.886072 1.74448 -11.663416 0.96323 -11.663416 -0.00161375 C -11.663416 -0.962551 -10.886072 -1.743801 -9.921229 -1.743801 C -8.960291 -1.743801 -8.179041 -0.962551 -8.179041 -0.00161375 Z M -8.179041 -0.00161375 " transform="matrix(1, 0, 0, -1, 95.65951, 20.61948)"/>
</g>
<path fill-rule="nonzero" fill="rgb(0%, 0%, 100%)" fill-opacity="1" d="M 137.089844 20.621094 C 137.089844 19.65625 136.308594 18.875 135.347656 18.875 C 134.382812 18.875 133.601562 19.65625 133.601562 20.621094 C 133.601562 21.582031 134.382812 22.363281 135.347656 22.363281 C 136.308594 22.363281 137.089844 21.582031 137.089844 20.621094 Z M 137.089844 20.621094 "/>
<g clip-path="url(#clip-2)">
<path fill="none" stroke-width="1.19553" stroke-linecap="butt" stroke-linejoin="miter" stroke="rgb(0%, 0%, 100%)" stroke-opacity="1" stroke-miterlimit="10" d="M 41.430334 -0.00161375 C 41.430334 0.96323 40.649084 1.74448 39.688146 1.74448 C 38.723303 1.74448 37.942053 0.96323 37.942053 -0.00161375 C 37.942053 -0.962551 38.723303 -1.743801 39.688146 -1.743801 C 40.649084 -1.743801 41.430334 -0.962551 41.430334 -0.00161375 Z M 41.430334 -0.00161375 " transform="matrix(1, 0, 0, -1, 95.65951, 20.61948)"/>
</g>
<g fill="rgb(0%, 0%, 0%)" fill-opacity="1">
<use xlink:href="#glyph-0-0" x="159.27803" y="17.09968"/>
</g>
<g fill="rgb(0%, 0%, 0%)" fill-opacity="1">
<use xlink:href="#glyph-1-0" x="166.47329" y="13.48432"/>
</g>
</svg>
